<svg id="Layer_1" data-name="Layer 1" xmlns="http://www.w3.org/2000/svg" viewBox="0 0 1920 1080"><defs><style>.cls-1{fill:#9696ab;opacity:0.36;}.cls-2{fill:#4a3751;}.cls-3{fill:#577194;}.cls-4{fill:#ffaa79;}.cls-5{fill:#7774f1;}.cls-6{fill:#55384c;}.cls-7{fill:#617ba1;}.cls-8{fill:#5757c0;}.cls-9{fill:#c4b7ff;}.cls-10{fill:#fff;}.cls-11{fill:#9c95e7;}</style></defs><title>Artboard 1</title><path class="cls-1" d="M742.87,801.54s-186.75,0-334.08,0-167.41,76.37-87.06,86.75,247.78,60.61,167.42,84.05-97.1,100.45,33.48,103.79,790.21,6.7,897.35,0,52.17-97.1-77.71-93.75-69.91-39.71,134.48-41.62,351.73-117.69,110.65-125.09S742.87,801.54,742.87,801.54Z"/><path class="cls-2" d="M797.5,875.11s-58.24-13.16-82.91,0-5.37,68.73,125.61,49.17Z"/><path class="cls-2" d="M1105.41,875.11s58.24-13.16,82.91,0,5.37,68.73-125.62,49.17Z"/><path class="cls-3" d="M711.3,751.74s-57.58-13.16-47.71,57.57c9.87,46.06,176.61,115,176.61,115V785.48Z"/><path class="cls-4" d="M916.91,439.84v40.57s31.85,40.18,69.8,0V439.84S940.05,398.62,916.91,439.84Z"/><path class="cls-3" d="M1202.3,751.74s57.57-13.16,47.71,57.57c-9.87,46.06-176.62,115-176.62,115V785.48Z"/><path class="cls-5" d="M1068.44,501.71,1012.71,481a170.72,170.72,0,0,0-118.83,0l-55.73,20.7s-80.6,44.41-14.8,273.06c0,0,39.47,34.54,129.94,34.54s130-34.54,130-34.54C1149,546.12,1068.44,501.71,1068.44,501.71Z"/><path class="cls-6" d="M914.51,204.5s-40.53-11.92-59.6,14.31,0,60.8,0,60.8-29.81,6-34.58,42.92S843,371.4,843,371.4s-16.7,26.23,2.38,54.84c11.92,16.69,51.26,0,51.26,0s1.19,15.5,17.88,21.46,32.19-13.11,32.19-13.11,20.27,27.34,60.8,14.27,34.58-46.46,34.58-46.46,29.8,6,44.11-17.88-10.73-52.46-10.73-52.46,16.69-32.19,0-67.95-42.92-22.65-42.92-22.65,3.58-34.58-17.88-46.5-46.5,15.5-46.5,15.5,1.19-34.94-25-34.57C915.39,176.28,914.51,204.5,914.51,204.5Z"/><path class="cls-7" d="M823.35,774.77s-8,75.67,0,125,128.1,54.29,185.68,51,99.08-26.32,74.21-176C1083.24,774.77,955.19,839.77,823.35,774.77Z"/><path class="cls-8" d="M835.4,599.72c.47,7.81,1,15.61,1.57,23.41l1.63,23.4q1.71,23.4,3.66,46.78c1.24,15.59,2.5,31.18,3.89,46.76l4.23,46.73-2.48-23.33-2.24-23.35c-1.48-15.58-2.83-31.16-4.15-46.75s-2.35-31.19-3.41-46.8l-1.5-23.42C836.17,615.34,835.75,607.53,835.4,599.72Z"/><path class="cls-8" d="M1070.19,599.28c-.35,7.81-.77,15.63-1.2,23.43l-1.5,23.42q-1.59,23.42-3.41,46.8c-1.32,15.59-2.67,31.17-4.14,46.75L1057.69,763l-2.48,23.33,4.23-46.73q2.08-23.37,3.89-46.76,2-23.37,3.66-46.78l1.64-23.4C1069.18,614.89,1069.72,607.09,1070.19,599.28Z"/><ellipse class="cls-1" cx="245.84" cy="971.44" rx="69.2" ry="19.87"/><ellipse class="cls-1" cx="1829.6" cy="931.26" rx="90.4" ry="20.31"/><path class="cls-1" d="M1627.58,1040.42c0,3.7-13,6.7-29,6.7s-29-3-29-6.7,13-6.7,29-6.7S1627.58,1036.72,1627.58,1040.42Z"/><ellipse class="cls-1" cx="123.07" cy="830.71" rx="33.48" ry="6.82"/><path class="cls-1" d="M65,981.38c0,5.48-12.49,9.93-27.9,9.93s-27.91-4.45-27.91-9.93,12.5-9.94,27.91-9.94S65,975.89,65,981.38Z"/><path class="cls-9" d="M364,396.75s19,38.12,55.83,35.41S472.14,416.41,484,388.4c0,0,9.89,42.26-6.7,65.93,0,0,50.31-26.42,46.48-87.75,0,0,49.57-23,34.4-71.07,0,0,42.84-35.33,32.14-82.4s-37.23-52.34-72.27-58.48c0,0,1.74-30-40.37-43.16-27.81-4.72-49.23,19.88-49.23,19.88s-29.13-39-90.59-17.79c-18.77,7.12-41.68,37.28-36.75,58.92,0,0-43.81-7.92-67.76,27.74s1.76,75,20.15,90.52c0,0-22.2,47.27,15.08,88.34S364,396.75,364,396.75Z"/><path class="cls-10" d="M443.23,306.65l-44.49,16.87-1.68-4.45q-4.31-11.35-4.42-19.41a44,44,0,0,1,2.76-15.85q2.88-7.77,15.08-29.28,6.56-11.33,4.11-17.76T407,228.2c-3.44-1.41-7.74-1.15-12.89.81a19.84,19.84,0,0,0-11.67,10.71q-3.36,7.58.32,21.84l-47.56,11.61q-7.15-25.94,2.91-47.23T381,192.21q25.53-9.68,45.25-5,26.78,6.31,35.87,30.32a39.59,39.59,0,0,1,1.78,21.29q-2,11.33-13.91,31.11-8.28,13.86-9.22,20.71T443.23,306.65ZM422.72,328l5.62-2.13a22.47,22.47,0,0,1,29,13.05h0a22.47,22.47,0,0,1-13,29L438.66,370a22.48,22.48,0,0,1-29-13h0A22.48,22.48,0,0,1,422.72,328Z"/><path class="cls-11" d="M197.5,226.46l-138,99A51.65,51.65,0,0,0,47.7,397.6l68,94.76a51.66,51.66,0,0,0,69.55,13.54c20.87,14.17,48.64,14.34,44.84,11.82a69,69,0,0,1-23.71-26.87l119.38-85.71a51.65,51.65,0,0,0,11.84-72.09l-68-94.76A51.67,51.67,0,0,0,197.5,226.46Z"/><path class="cls-10" d="M225.06,385.46l-30,23.08-2.3-3q-5.89-7.65-7.83-13.77a34.65,34.65,0,0,1-1.55-12.7q.41-6.58,4.75-25.77,2.38-10.12-1-14.47t-7.76-4.77q-4.41-.44-9.63,3.57a15.83,15.83,0,0,0-6.42,10.85q-.81,6.54,5.27,16.56l-33.55,19.78q-11.42-18.1-8.65-36.64t24.87-35.54q17.22-13.25,33.32-14.2,21.84-1.35,34.29,14.84a31.47,31.47,0,0,1,6.25,15.8q1.09,9.09-3.43,26.9-3.12,12.45-2.26,17.89T225.06,385.46ZM214.34,406.4l3.79-2.91a17.88,17.88,0,0,1,25.08,3.26h0a17.9,17.9,0,0,1-3.27,25.08l-3.79,2.91a17.88,17.88,0,0,1-25.07-3.26h0A17.88,17.88,0,0,1,214.34,406.4Z"/><path class="cls-9" d="M1535.07,356s-16.92,39.09,8.85,65.51,45.72,29.9,74.8,20.94c0,0-26,34.78-54.76,37.32,0,0,52.59,21.5,97.06-20.92,0,0,49.49,23.15,76.53-19.42,0,0,54.61,10,83.75-28.44s16.09-62.18-1.77-92.95c0,0,24.07-18,7-58.68-14.29-24.32-46.9-24.88-46.9-24.88s11.14-47.43-44.7-80.78c-17.53-9.78-55.36-7.9-68.75,9.81,0,0-22.13-38.63-64.84-34s-56.26,49.62-56.3,73.68c0,0-50.47,13.44-57.9,68.41S1535.07,356,1535.07,356Z"/><path class="cls-10" d="M1655,358.58l-41.55-23.18,2.32-4.16q5.91-10.61,12-15.88a43.7,43.7,0,0,1,13.91-8.08q7.8-2.82,32.11-7.32,12.89-2.26,16.24-8.28t1.66-11.33q-1.7-5.33-8.91-9.35a19.83,19.83,0,0,0-15.71-2q-8,2.31-16.51,14.3l-39.5-28.92q15.26-22.17,38-28.18t53.39,11.09q23.84,13.29,32.94,31.42,12.39,24.56-.12,47a39.61,39.61,0,0,1-15.14,15.06q-10,5.78-32.77,9.39-15.93,2.58-21.78,6.27T1655,358.58Zm-29.51-2,5.25,2.93a22.46,22.46,0,0,1,8.67,30.57h0a22.48,22.48,0,0,1-30.57,8.68l-5.25-2.93a22.49,22.49,0,0,1-8.68-30.58h0A22.47,22.47,0,0,1,1625.52,356.6Z"/><path class="cls-11" d="M1558.22,118.91,1393.61,77.09a51.68,51.68,0,0,0-62.8,37.35L1302.09,227.5a51.66,51.66,0,0,0,34.41,61.94c2.6,25.09,20.34,46.45,19.82,41.92a69,69,0,0,1,5.3-35.44l142.44,36.19a51.67,51.67,0,0,0,62.79-37.35l28.72-113.06A51.67,51.67,0,0,0,1558.22,118.91Z"/><path class="cls-10" d="M1454.28,242.35l-37-8.09.81-3.7q2.07-9.44,5.5-14.86a34.77,34.77,0,0,1,8.73-9.35q5.29-3.94,22.77-13,9.29-4.69,10.46-10t-1.34-9q-2.52-3.66-8.93-5.07a15.78,15.78,0,0,0-12.44,2.07q-5.52,3.58-9.28,14.69l-36.73-12.94q6.5-20.39,22.47-30.2t43.21-3.85q21.21,4.65,32.31,16.36,15.09,15.84,10.72,35.79a31.6,31.6,0,0,1-8.07,15q-6.26,6.68-22.79,14.68-11.54,5.64-15.15,9.79T1454.28,242.35Zm-22.93,5.28,4.67,1a17.88,17.88,0,0,1,13.64,21.29h0a17.88,17.88,0,0,1-21.29,13.65l-4.67-1a17.88,17.88,0,0,1-13.64-21.29h0A17.89,17.89,0,0,1,1431.35,247.63Z"/></svg>