<svg id="Layer_1" data-name="Layer 1" xmlns="http://www.w3.org/2000/svg" viewBox="0 0 1920 1080"><defs><style>.cls-1{fill:#ececec;}.cls-2{fill:#fff;}.cls-3{fill:#e1e1e1;}.cls-4{fill:#fafafa;}.cls-5{fill:#f5f5f5;}.cls-6{fill:#375a64;}.cls-7{fill:#ff4f5b;}.cls-8{fill:#1a2e35;}.cls-9{fill:#b66955;}.cls-10{fill:#8e3823;}.cls-11{opacity:0.3;}</style></defs><title>Artboard 1</title><rect class="cls-1" x="125.07" y="171.22" width="267.89" height="267.89" rx="6.37" transform="translate(-58.14 60.98) rotate(-12.08)"/><path class="cls-2" d="M353.78,330.43a17.39,17.39,0,0,0-1.59-5.66c-.23-.55-.45-1.1-.72-1.82-4.66-9.43-13.35-15.22-20.42-19.23a103.3,103.3,0,0,0-24.48-9.43l-1-.26a1.59,1.59,0,0,0-1.77.74l-16.59,28.44-61-39.14,16.62-30.68a1.59,1.59,0,0,0-.7-2.2l-14-6.72c-2.28-1.06-3.71-1.73-4.67-2a12.2,12.2,0,0,0-1.34-.72l-.8-.4a22.75,22.75,0,0,0-3.14-1.37,42.9,42.9,0,0,0-41.57,6.92,39.59,39.59,0,0,0-15,31.68,27.76,27.76,0,0,0,9,19.28,55.78,55.78,0,0,0,8.85,6.52l92.8,59.42c1.15.71,2.28,1.45,3.42,2.18a96.28,96.28,0,0,0,8.47,5.08A53.51,53.51,0,0,0,298,375.88a50.51,50.51,0,0,0,10.09,1,48.16,48.16,0,0,0,19.61-4.12,44.72,44.72,0,0,0,21.69-20.58,34.34,34.34,0,0,0,2.9-6.93l.39-1.22A19.74,19.74,0,0,0,354,337.9l.29-4ZM237.56,253.77l-17.44,30.69a1.6,1.6,0,0,0,.51,2.13l67.11,44a1.6,1.6,0,0,0,2.25-.52l17.31-29.28A96.81,96.81,0,0,1,328,309.17c5.76,3.28,13.88,8.56,17.69,16.37.21.59.45,1.18.69,1.76a11.71,11.71,0,0,1,1.11,4l.45,2.79-.3,3.38a14.42,14.42,0,0,1-1,4.59l-.42,1.33a27.51,27.51,0,0,1-2.47,5.85A38.74,38.74,0,0,1,325.13,367a42.73,42.73,0,0,1-25.84,2.68A47.67,47.67,0,0,1,287,365.38c-2.66-1.36-5.34-3.08-7.93-4.75-1.16-.75-2.33-1.5-3.49-2.21l-93-58.91a50.54,50.54,0,0,1-8.1-5.81A22.2,22.2,0,0,1,167,278.33c-.45-12.33,6.25-22.35,12.69-27.62a38.58,38.58,0,0,1,22-8.88c1-.06,1.92-.08,2.83-.08A39.5,39.5,0,0,1,220.73,245a9.17,9.17,0,0,0,1.42.52c.84.56,2.19,1.28,4.23,2.39Z"/><path class="cls-2" d="M266.15,263.12c2.54,0,7.8-.74,18.68-3C288.38,278.05,289.72,280,291,280a2.31,2.31,0,0,0,.51-.07h0c1.49-.29,2.67-.58-1.16-20.94,20.76-4.49,20.6-5.69,20.31-7.18h0a1.79,1.79,0,0,0-.73-1.09c-1.2-.8-8.19.13-20.66,2.71-2.41-12.1-4.24-18.7-5.43-19.51a1.88,1.88,0,0,0-1.27-.26,1.79,1.79,0,0,0-1.08.72c-.81,1.19,0,8,2.24,20.22-19.08,4.16-19.86,5.52-20.15,6a1.8,1.8,0,0,0-.1,1.4C263.73,262.57,263.93,263.12,266.15,263.12Z"/><rect class="cls-3" x="1555.73" y="-198.54" width="356.99" height="372.13"/><rect class="cls-4" x="1531.55" y="-198.54" width="356.99" height="372.13"/><path class="cls-3" d="M1888.65,173.71H1531.44V-198.65h357.21Zm-357-.23h356.76V-198.43H1531.67Z"/><rect class="cls-4" x="1579.54" y="-148.51" width="261.01" height="272.08"/><path class="cls-3" d="M1579.54,125.38c.21.24-2.27,3.09-6.44,7.49s-10,10.35-16.59,16.82-12.6,12.23-17,16.32-7.32,6.51-7.54,6.28,2.23-3.06,6.4-7.46,10-10.36,16.63-16.85,12.63-12.26,17.08-16.35S1579.34,125.13,1579.54,125.38Z"/><path class="cls-3" d="M1840.55,124.71c.25-.2,3.09,2.27,7.49,6.44s10.35,10,16.82,16.59,12.23,12.61,16.32,17,6.51,7.32,6.29,7.55-3.06-2.24-7.46-6.41-10.37-10-16.85-16.63-12.26-12.63-16.35-17.08S1840.31,124.92,1840.55,124.71Z"/><path class="cls-3" d="M1839.84,123.57a11.81,11.81,0,0,1-.06-1.32c0-.93,0-2.18,0-3.8,0-3.41-.07-8.32-.12-14.69-.06-12.89-.15-31.64-.27-55.45-.12-47.65-.3-115.54-.51-196.82l1,1-260.27.15h0l1.16-1.16c-.06,99.86-.12,193.29-.16,272.08l-1-1,188.47.5,52.94.26,14,.12,3.62.05a10.8,10.8,0,0,1,1.26.06,7.75,7.75,0,0,1-1.15.06l-3.51.05-13.82.12-52.71.26-189.11.5h-1v-1c0-78.79-.1-172.22-.16-272.08v-1.16h1.18l260.27.15h1v1c-.22,81.55-.39,149.66-.51,197.47-.12,23.71-.21,42.38-.27,55.22,0,6.29-.09,11.13-.12,14.49,0,1.58,0,2.79,0,3.69A8.6,8.6,0,0,1,1839.84,123.57Z"/><rect class="cls-1" x="1666.5" y="-56.02" width="87.1" height="87.09"/><path class="cls-5" d="M1202.75,1070.39c65.92-66,65.61-166.68,47-253.91-3.11-14.56-4.25-30.29-13.51-41.9s-27.08-17.5-39.1-9c-10,7.06-12.45,20.56-16.67,32.11A87.15,87.15,0,0,1,1152,836.63c-8.47,6.5-19.48,11.52-29.6,8.08-13.87-4.72-18.47-21.91-21-36.5q-7-40.79-14-81.56c-2.5-14.58-5.11-29.46-12.11-42.49s-19.29-24.08-33.84-25.49-30.27,9.63-30.66,24.41c-.16,6.15,2.15,12.1,2.82,18.22s-1,13.31-6.4,16S995.12,717,990,713.48c-17.66-12-31.24-29.16-44.13-46.31s-25.59-34.79-42.09-48.41-37.64-23-58.72-20.43-41,19.37-42.64,40.8,14.07,40.18,30.07,54.49A330.32,330.32,0,0,0,911.7,746.1c5.17,2.44,10.78,5.08,13.5,10.16,4.89,9.15-2.59,20.44-11.62,25.34-10.21,5.55-22.2,6.52-33.32,9.89s-22.54,10.56-24.92,22.06c-3.31,16,11.92,29.35,26,37.39a283.05,283.05,0,0,0,90.93,32.91c11.41,2,23.31,3.44,33.29,9.43s17.53,18.16,14.14,29.35-16.21,16.88-27.81,16.79-22.73-4.38-34.15-6.51c-21.37-4-47,2-56.72,21.58-6.4,12.88-4.33,28.85,2.35,41.65s17.41,22.93,28.5,32.07c38.8,31.93,85.28,54.93,134.6,62.76s93.13,4.52,136.28-20.58"/><path class="cls-3" d="M1170.3,1019.41c-20.81-42-47.43-86.12-76.86-131.33l-21.92-33.39c-7.21-10.94-14.37-21.79-22-32a661.23,661.23,0,0,0-47.35-56c-15.92-17.08-31.65-32.71-46.46-47.21s-29-27.71-42.32-39.23a525.42,525.42,0,0,0-67-49.58c-8.35-5.22-15-9.05-19.46-11.59-2.17-1.19-3.87-2.14-5.15-2.85a11.18,11.18,0,0,0-1.8-.89,10.38,10.38,0,0,0,1.66,1.14l5,3.08c4.42,2.69,10.93,6.67,19.18,12a556.21,556.21,0,0,1,66.35,50.16c13.25,11.57,27.24,24.85,42,39.38s30.38,30.23,46.22,47.31a667.76,667.76,0,0,1,47,55.87c7.6,10.13,14.69,20.9,21.91,31.87l21.9,33.38c29.4,45.17,56,89.15,76.89,130.95"/><path class="cls-3" d="M1048.71,822.75c.18,0,.28-2.3.31-6.47s-.08-10.18-.35-17.62c-.52-14.88-2-35.39-3.6-58s-2.79-43.1-3.09-57.94c-.16-7.42-.24-13.43-.24-17.58s-.12-6.46-.31-6.47-.44,2.28-.75,6.43-.54,10.17-.61,17.62c-.2,14.9.63,35.48,2.29,58.12,1.69,22.31,3.22,42.49,4.39,57.91.49,7,.89,12.85,1.21,17.56C1048.26,820.46,1048.52,822.76,1048.71,822.75Z"/><path class="cls-3" d="M855.15,821.11c0,.19,2.75,0,7.63-.44s12-1.08,20.69-1.62c17.49-1.2,41.7-2,68.46-1.75s51,1.63,68.45,3.09c8.75.66,15.81,1.39,20.7,1.87s7.6.68,7.63.49-2.65-.73-7.5-1.56-11.91-1.82-20.66-2.74c-17.49-2-41.76-3.59-68.61-3.91a671.86,671.86,0,0,0-68.63,2.57c-8.75.79-15.81,1.74-20.66,2.5S855.12,820.92,855.15,821.11Z"/><path class="cls-3" d="M1167.38,1016.37a9.75,9.75,0,0,0,.88-2.51l2-7.35c1.7-6.38,3.93-15.69,6.53-27.23,5.21-23.07,11.41-55.16,17.78-90.66s12.26-67.63,17-90.78c2.33-11.25,4.25-20.51,5.67-27.39.61-3,1.1-5.45,1.51-7.47a10,10,0,0,0,.34-2.65,10.17,10.17,0,0,0-.88,2.52c-.54,2-1.2,4.41-2,7.34-1.71,6.39-3.94,15.7-6.54,27.23-5.21,23.07-11.41,55.17-17.78,90.69s-12.26,67.61-17,90.76c-2.34,11.25-4.26,20.51-5.68,27.39-.6,3-1.1,5.45-1.51,7.47A10,10,0,0,0,1167.38,1016.37Z"/><path class="cls-3" d="M904.17,980.49a10.55,10.55,0,0,0,2.65.58l7.66,1.13,28.2,3.89c23.8,3.29,56.63,8.21,92.9,13.7s69.18,10.12,93.06,12.91c11.94,1.41,21.62,2.44,28.31,3l7.72.63a9.53,9.53,0,0,0,2.71,0,10.55,10.55,0,0,0-2.65-.58l-7.66-1.13-28.19-3.89c-23.81-3.29-56.64-8.21-92.92-13.7S966.79,987,942.91,984.16c-11.94-1.41-21.61-2.44-28.31-3l-7.72-.62A9.37,9.37,0,0,0,904.17,980.49Z"/><rect class="cls-3" x="621.85" y="-35.41" width="301.14" height="313.91" transform="translate(0.28 -1.77) rotate(0.13)"/><rect class="cls-6" x="601.45" y="-35.46" width="301.14" height="313.91" transform="translate(0.28 -1.72) rotate(0.13)"/><path class="cls-5" d="M902.32,278.89,601,278.2l.72-314.09L903-35.2Z"/><rect class="cls-2" x="641.93" y="6.74" width="220.18" height="229.51" transform="translate(0.28 -1.72) rotate(0.13)"/><path class="cls-3" d="M641.67,237.53c.17.21-1.92,2.6-5.45,6.3s-8.48,8.72-14,14.16-10.65,10.29-14.41,13.74-6.19,5.47-6.38,5.28,1.89-2.57,5.42-6.28,8.49-8.72,14.06-14.18,10.68-10.32,14.44-13.76S641.5,237.32,641.67,237.53Z"/><path class="cls-3" d="M861.84,237.47c.21-.17,2.61,1.92,6.31,5.45s8.71,8.48,14.16,14S892.6,267.6,896,271.36s5.48,6.19,5.29,6.38-2.58-1.9-6.28-5.42-8.73-8.49-14.19-14.06-10.31-10.68-13.76-14.44S861.64,237.64,861.84,237.47Z"/><path class="cls-3" d="M861.77,7.61c-.17-.21,1.92-2.61,5.45-6.31s8.47-8.71,14-14.15,10.66-10.3,14.42-13.74,6.19-5.48,6.38-5.28-1.9,2.57-5.42,6.27-8.49,8.73-14.06,14.19S871.88-1.09,868.12,2.35,861.94,7.81,861.77,7.61Z"/><path class="cls-3" d="M641.59,7.66c-.2.18-2.6-1.92-6.3-5.44s-8.72-8.48-14.16-14S610.84-22.46,607.4-26.23s-5.48-6.18-5.29-6.37,2.58,1.89,6.28,5.42,8.72,8.49,14.18,14.06S632.89-2.44,636.33,1.32,641.8,7.49,641.59,7.66Z"/><path class="cls-3" d="M861.24,236.51s0-.39,0-1.12,0-1.84,0-3.2c0-2.88,0-7-.07-12.39,0-10.87-.07-26.69-.12-46.78,0-40.2,0-97.46-.05-166l.85.85L642.22,7.47h0l1-1c-.24,84.24-.47,163-.66,229.52l-.84-.84,159,.79,44.65.32,11.82.12,3,.06a9,9,0,0,1,1.06,0,8.13,8.13,0,0,1-1,0l-3,0-11.65.07-44.47.12-159.52.06h-.84V236c.12-66.46.25-145.27.39-229.51v-1h1l219.55.62h.85V7c-.34,68.79-.62,126.24-.81,166.57-.14,20-.26,35.75-.33,46.58-.06,5.3-.1,9.39-.13,12.23,0,1.32,0,2.35-.06,3.11A5.8,5.8,0,0,1,861.24,236.51Z"/><path class="cls-5" d="M711.29,183.61c-16.58-16.69-17.51-46.38-2-64.08,6.13-7,14.28-12.11,20-19.49,12.3-16,12.19-41.19,29.3-51.87,12.48-7.8,30.36-3.29,39.43,8.3s9.79,28.38,3.85,41.85c-4.38,9.93-12,18.38-15.11,28.77C783.5,137.73,785.29,149.4,782,160c-4,12.8-17.6,20.86-30.19,25.49S723,189,711.29,183.61"/><path class="cls-3" d="M773.46,78c.12,0-.65,2.2-2.15,6.06s-3.81,9.37-6.86,16.11a451.84,451.84,0,0,1-27.33,50.92,452.91,452.91,0,0,1-33.66,47c-4.7,5.71-8.62,10.23-11.44,13.26s-4.39,4.69-4.49,4.6,1.3-1.9,3.91-5.1,6.38-7.83,10.93-13.64a546.24,546.24,0,0,0,33.07-47.16A547.81,547.81,0,0,0,763.18,99.6c3.21-6.64,5.73-12.06,7.42-15.82S773.33,78,773.46,78Z"/><path class="cls-3" d="M727.82,117.69c.25,0,.89,4.36,1.74,11.61s1.91,17.35,3,28.75l-1.47-.76,4.75-2.76c11-6.4,21-12.09,28.36-16.13s11.9-6.41,12-6.17-4.21,3-11.34,7.38-17,10.23-28.07,16.63L732.07,159l-1.33.78-.14-1.54c-1-11.41-1.85-21.53-2.35-28.81S727.57,117.71,727.82,117.69Z"/><path class="cls-3" d="M785.69,100.83c.12.25-2.73,1.82-7.43,4.15S767,110.4,759.75,113.7l-2.27,1-1.18.53-.2-1.28c-1.13-7.33-2-13.88-2.61-18.61s-.78-7.63-.53-7.67.94,2.79,1.86,7.46,2,11.19,3.23,18.51l-1.38-.74,2.26-1c7.28-3.31,13.91-6.2,18.76-8.2S785.58,100.58,785.69,100.83Z"/><path class="cls-7" d="M699.37,675.77c20-10.32,43.59-11.67,65.81-8,11.94,2,24.39,5.54,32.51,14.51s9.67,24.75.34,32.46c-5.55,4.58-13.3,5.28-20.5,5.2-17.4-.21-36.7-3.27-50.6,7.2-7.93,6-13.2,15.9-22.69,18.83-9.27,2.88-19.74-2.6-24.66-11s-5.08-18.83-2.79-28.27C676.79,706.74,679.21,686.18,699.37,675.77Z"/><path class="cls-7" d="M653.51,587.24c12.24,17.48,36,11.7,47.06,1s15.7-26.14,19.94-40.89c9.7-33.7,19.47-69.05,12.26-103.36-2.15-10.26-6-20.49-13.2-28.1s-18.29-12.14-28.43-9.46c-12,3.17-19.45,14.91-24.84,26.09A246.45,246.45,0,0,0,642,538.29c-.06,17,1.94,34.89,11.55,49"/><path class="cls-7" d="M619.9,612.33c13.29-15.78,15.81-38.78,9.9-58.54s-19.28-36.57-34.67-50.29A186.94,186.94,0,0,0,533,466.86c-9-3.15-18.45-5.64-27.92-4.74s-19,5.75-23.43,14.18c-6.54,12.46-.27,27.57,6.5,39.91A474.09,474.09,0,0,0,529,578.3c12.22,15.76,26.23,31.3,44.85,38.42s38,6.29,47.85-6.63"/><path class="cls-8" d="M652.68,851c.23,0,.6-2.82,1.11-8,.56-5.78,1.27-13,2.11-21.68a312.07,312.07,0,0,1,4.88-31.8A244.62,244.62,0,0,1,672.34,752c5.25-12.88,11.67-24.59,19.16-34s16.09-16.21,24.23-20.14a67.87,67.87,0,0,1,20.4-6.35c5.07-.52,7.91-.92,7.91-1.15s-2.84-.26-8-.12a61.8,61.8,0,0,0-21.27,5.53c-8.58,3.81-17.75,10.72-25.56,20.32s-14.51,21.53-19.87,34.65a229.23,229.23,0,0,0-11.47,38.14,267.93,267.93,0,0,0-4.23,32.2c-.69,9.21-1,16.66-1.07,21.81S652.46,850.94,652.68,851Z"/><path class="cls-8" d="M654.18,834.27a15.94,15.94,0,0,0,.21-3.68c0-2.77,0-6.26,0-10.54,0-9.15,0-22.39.47-38.73.81-32.7,3.63-67.88,9.06-117.49C669,617.19,676,562.9,683.25,527.61c1.56-8,3.13-15.25,4.62-21.57s2.62-11.81,3.78-16.23c1-4.17,1.82-7.56,2.47-10.25a15.94,15.94,0,0,0,.64-3.63,14.79,14.79,0,0,0-1.28,3.45l-3.06,10.1c-1.36,4.38-2.75,9.81-4.34,16.13s-3.39,13.5-5.1,21.52c-7.22,32-14.86,76.67-20.35,126.4s-7.9,95-8.12,127.74c-.19,16.39.16,29.66.58,38.81.26,4.28.47,7.77.64,10.53C653.91,833,654.06,834.28,654.18,834.27Z"/><path class="cls-8" d="M654.4,747c.22,0,.18-3.92-.08-11-.41-7.08-1.38-17.31-3.37-29.83a397,397,0,0,0-9.7-43.47,357,357,0,0,0-18.18-51.43c-15.08-35.76-35.56-65-53.37-83.11-4.18-4.8-8.84-8.27-12.56-11.67-1.93-1.63-3.63-3.25-5.37-4.54l-4.87-3.36c-5.86-4-9.14-6.12-9.27-5.93-.52.71,13.14,8.75,30.39,27.1s37.09,47.35,52,82.82a407.2,407.2,0,0,1,18.28,51,440.76,440.76,0,0,1,10.32,43c2.28,12.4,3.59,22.53,4.39,29.54S654.17,747,654.4,747Z"/><polygon class="cls-8" points="570.02 900.97 578.77 1020.81 732.72 1020.81 741.47 900.97 570.02 900.97"/><rect class="cls-8" x="555.15" y="853.73" width="204.69" height="47.24"/><polygon class="cls-6" points="555.15 1016.22 555.15 1029.32 564.77 1029.32 756.46 1029.32 756.46 1016.22 555.15 1016.22"/><polygon class="cls-6" points="574.2 1052.36 564.77 1029.32 749.12 1029.32 738.13 1052.36 574.2 1052.36"/><path class="cls-3" d="M738.61,940.14a5.51,5.51,0,0,1-.72,1.1l-2.3,3c-2.18,2.8-5.19,6.64-9,11.47l-.4.51-.38-.53-22-30.47h1.26c-6.55,9.28-13.85,19.62-21.69,30.71l-.68,1-.76-.91-25.73-30.61,1.48,0-1.41,1.78-23,28.84-.76,1-.71-1c-7.81-11-15.11-21.37-21.7-30.71l1.26.06L584.63,955.8l-.48.54-.36-.61-8.37-14.06-2.14-3.75a5.78,5.78,0,0,1-.66-1.33,5.73,5.73,0,0,1,.9,1.18l2.37,3.61,8.79,13.8-.84-.07,26.3-30.82.67-.78.6.84,21.89,30.57-1.47,0L654.78,926l1.42-1.78.73-.92.75.9c9,10.76,17.67,21.13,25.66,30.67l-1.45.06c7.92-11,15.3-21.33,21.91-30.57l.65-.89.62.89,21.57,30.81-.78,0L735.19,944l2.5-2.89A5,5,0,0,1,738.61,940.14Z"/><path class="cls-6" d="M743.61,900.18c0,.53-38.57,1-86.15,1s-86.16-.43-86.16-1,38.57-1,86.16-1S743.61,899.65,743.61,900.18Z"/><path class="cls-8" d="M751.39,1030.61c0,.53-41.93,1-93.63,1s-93.64-.43-93.64-1,41.92-1,93.64-1S751.39,1030.08,751.39,1030.61Z"/><path class="cls-9" d="M1712.51,354.12c-3.33-14.41,13.67-64.18,2.7-65.29-14-1.41-16.36,55.19-16.86,60.27-.48,4.93-7.83,4.34-7.13-.21,1-6.55,10.31-70.59-3.81-70.75-7.82-.08-8.15,14.16-8.15,14.16s-5.27,63.11-11.94,62.82-1.9-36.22-1.22-49.57c.66-12.81-5.76-20.17-10.5-14.63-7,8.11-6.92,40.64-7.77,53.46s-4.3,49.63-17.53,31.21-30.17-27.73-36.41-27.09-7.42,9.64-1.35,13.17c4.9,2.85,11.66,10.11,16.53,15.77,4,4.67,6.67,10.22,9.53,15.66a70.57,70.57,0,0,1,6.93,22.31,43.93,43.93,0,0,0,19.46,30.3l-.74,101.12-3.14,50,78.72,27.31-10.34-178.41c3.86-34.28,19-77.65,24.47-97.75,8.78-32.05,4.68-33.44.75-33.62C1726.05,314,1715.77,368.19,1712.51,354.12Z"/><path class="cls-10" d="M1702.43,397.62c0,.32-3.83,0-9.66,1.62a37.58,37.58,0,0,0-19.26,13.14,36.74,36.74,0,0,0-3.8,6.23l-.52,1-.77-.79a55.39,55.39,0,0,0-14.92-10.91c-4.16-2.07-6.85-2.91-6.78-3.14s2.86.33,7.22,2.19a49.61,49.61,0,0,1,15.62,10.7l-1.28.25a36.54,36.54,0,0,1,4-6.57,37.75,37.75,0,0,1,10.12-9.09,35.82,35.82,0,0,1,10.15-4.18,30.38,30.38,0,0,1,7.27-.82A8,8,0,0,1,1702.43,397.62Z"/><path class="cls-10" d="M1698.54,445c.13.38-7.37,2.81-17,3.09s-17.28-1.6-17.18-2,7.7.71,17.13.38S1698.43,444.51,1698.54,445Z"/><path class="cls-8" d="M1222.64,181.21c1.58-25.86,22.82-49.18,48.42-53.17,6.72-1,13.76-.93,20-3.71,5.08-2.27,9.15-6.3,13.85-9.28,15.08-9.59,36.88-6.64,48.88,6.6,11.28,12.46,14.16-6.21,39.59,6.54,21.06,10.56,11.72,28,11.72,28,20.78-2.38,42.19,12.32,47.44,32.57,3.33,12.85,1.81,28.91,12.58,36.68,5.22,3.77,12.16,4.42,17.52,8,10,6.62,11.31,20.67,10,32.57s-4.06,24.56,1.09,35.35c8.46,17.7,34.91,23.08,39.49,42.15,2.17,9-.88,20.21,6,26.47,2.74,2.51,6.5,3.51,9.95,4.9a41.37,41.37,0,0,1,6.79,73.18c-3.54,2.27-7.79,4.43-8.92,8.48-1.26,4.53,2,8.89,4.39,12.93,8.76,14.77,6.45,35.23-5.38,47.68s-32.15,15.79-47.35,7.79a62.19,62.19,0,0,1-34.37,31.57c-6.89,2.54-14.47,3.83-21.62,2.12-5.72-1.37-10.84-4.57-15.54-8.11-22.42-16.87-54-42.88-58-70.65"/><path class="cls-9" d="M1222.13,224.47l-1-19.89,118.81-26.44c36.73-5,77.73,30.65,81.2,67.56,3.87,41,7,91.23,3,122C1416.3,429.69,1369.3,439,1369.3,439l1.64,61.21-136.28,5.94Z"/><path class="cls-8" d="M1398.77,290.5a7.91,7.91,0,0,1-7.38,8.21,7.56,7.56,0,0,1-8.37-6.87,7.92,7.92,0,0,1,7.37-8.22A7.57,7.57,0,0,1,1398.77,290.5Z"/><path class="cls-8" d="M1408.91,272.3c-1,1.06-7.07-3.19-15.58-2.9s-14.61,4.73-15.57,3.72c-.46-.45.48-2.34,3.13-4.4a21.67,21.67,0,0,1,12.43-4.26,20.89,20.89,0,0,1,12.44,3.6C1408.44,270,1409.38,271.82,1408.91,272.3Z"/><path class="cls-8" d="M1319.35,294.48a7.92,7.92,0,0,1-7.37,8.22,7.57,7.57,0,0,1-8.37-6.88,7.91,7.91,0,0,1,7.36-8.22A7.57,7.57,0,0,1,1319.35,294.48Z"/><path class="cls-8" d="M1325.33,276.48c-.95,1.06-7.08-3.19-15.58-2.9s-14.61,4.73-15.57,3.72c-.46-.45.47-2.34,3.14-4.4a21.7,21.7,0,0,1,12.41-4.26,20.88,20.88,0,0,1,12.45,3.6C1324.85,274.16,1325.8,276,1325.33,276.48Z"/><path class="cls-8" d="M1358.17,338.61c-.06-.48,5.2-1.56,13.74-2.92,2.16-.29,4.21-.79,4.53-2.28s-.52-3.9-1.65-6.39l-6.94-16.35c-9.66-23.27-16.71-42.44-15.77-42.82s9.53,18.18,19.18,41.45c2.32,5.75,4.55,11.22,6.67,16.45.9,2.45,2.4,5.2,1.39,8.5a5.44,5.44,0,0,1-3.47,3.28,14.78,14.78,0,0,1-3.68.63C1363.56,338.89,1358.21,339.1,1358.17,338.61Z"/><path class="cls-10" d="M1369.28,439.17s-43.5,3.9-85.36-19.53c0,0,22.16,42.52,85.79,34.9Z"/><path class="cls-10" d="M1355.21,359.23a15.35,15.35,0,0,0-13.92-5.27,14,14,0,0,0-9.51,5.49c-2.15,3.07-2.49,7.35-.36,10.16,2.4,3.15,7.22,3.75,11.24,2.47s7.44-4.06,10.68-6.83a9.49,9.49,0,0,0,2.35-2.59,2.85,2.85,0,0,0-.11-3.16"/><path class="cls-8" d="M1333.31,345.28c1.38-.13,1.69,9.11,9.79,15.42s17.91,5,18,6.27c.15.58-2.13,1.86-6.28,2.11a23,23,0,0,1-15-4.72,20,20,0,0,1-7.62-12.95C1331.72,347.56,1332.68,345.24,1333.31,345.28Z"/><path class="cls-8" d="M1326.5,243.07c-.77,2.34-9.3,1.5-19.24,3-10,1.31-17.94,4.48-19.32,2.45-.63-1,.71-3.19,3.89-5.54a33.86,33.86,0,0,1,29.38-4.16C1324.92,240.2,1326.82,242,1326.5,243.07Z"/><path class="cls-8" d="M1405,247.77c-1.44,2-7.36.16-14.41.28-7-.12-13,1.7-14.41-.28-.63-1,.24-2.92,2.8-4.83a20.88,20.88,0,0,1,23.22,0C1404.77,244.84,1405.65,246.81,1405,247.77Z"/><path class="cls-8" d="M1431.59,170.09c-8.34,22.22-28.24,55.81-51.63,59.82a69.72,69.72,0,0,1-63.86-23.43c-2.71,17.73-21.73,28-39.25,31.75-12.4,2.66-25.57,3.43-37.55-.7s-22.55-13.88-25.06-26.31,13.8-44,26.13-47"/><path class="cls-8" d="M1262.31,498c.29,19.93-13.47,39.28-32.39,45.54,1.77,16.08-9.44,32.63-25,36.94s-33.72-4.11-40.47-18.82c-1.77-3.86-2.89-8.15-5.75-11.28-6.56-7.19-18.2-4.84-27.65-7.17-17-4.2-25.71-24.09-25.07-41.61.12-3.46.5-7-.25-10.35-1.54-6.91-7.38-11.84-11.86-17.32-18.45-22.53-13.94-57.49,3-81.16,5.66-7.89,12.91-16.23,11.65-25.85-.7-5.38-4-10-6.35-14.89-7.56-15.87-4-36.32,8.4-48.74,1.91-1.91,4.11-3.83,4.64-6.47a13.53,13.53,0,0,0-.4-5.09c-4.86-25.5,14-53.11,39.46-57.92a12.83,12.83,0,0,0,4.46-1.34c3.8-2.35,3.54-7.8,3.74-12.26.53-11.79,8-34.27,16.41-42.56,23.29-23,48.57-7.45,57.73,0,0,0,23,83,20.86,98.9s-10.89,55.86-5,73.29,15.93,53.27,9.9,69.79S1262.31,498,1262.31,498Z"/><path class="cls-8" d="M1211.88,982.58,1173,1062.4s-207.69-63.15-260-60.25-95.19,23.88-105.37,66.38-11.57,101.14,49.49,141.84,364.46,63.19,364.46,63.19h120.06l196.24-258.75-31.61-25.64Z"/><path class="cls-6" d="M1277.19,1157.7a22.59,22.59,0,0,1-3.94-.07c-2.57-.21-6.4-.2-11.27-.88a233.54,233.54,0,0,1-40.7-8.4c-16.9-4.85-36.42-12.54-57.4-22.45s-43.4-22.09-66.93-34.73-46.35-23.94-67.8-32.52-41.46-14.52-58.65-17.54a208.15,208.15,0,0,0-41.12-3.59c-4.89-.11-8.67.42-11.25.44a22.28,22.28,0,0,1-3.94,0,22.47,22.47,0,0,1,3.9-.57c2.57-.2,6.35-.88,11.26-.93,9.81-.58,24.11-.09,41.47,2.78s37.6,8.63,59.22,17.13,44.55,19.82,68.14,32.45,45.87,24.88,66.73,34.86,40.18,17.81,56.9,22.86a257.54,257.54,0,0,0,40.3,9.15c4.82.84,8.63,1,11.18,1.37A22.37,22.37,0,0,1,1277.19,1157.7Z"/><path class="cls-8" d="M1419.1,1252.43c38.57-15.15,250.71-82.64,325.8-169.43,20.84-24.08,24.69-49.22,20.56-72-10.47-57.88-63.7-96.47-118.92-74.6-7.85,3.11-25.9,10.12-33.44,14.17-20.59,11.07-354.3,222.72-354.3,222.72s58.14,113.38,56.69,117.74Z"/><path class="cls-6" d="M1523.58,1000.83s-.28.28-.9.72l-2.8,1.9-10.89,7.1-40.29,25.67-133.46,83.88-72.5,45.19.48-1.48,38,91.45c4.51,11.08,8.11,19.94,10.69,26.25,1.14,2.92,2,5.24,2.74,7a12.78,12.78,0,0,1,.83,2.47,12.89,12.89,0,0,1-1.19-2.32c-.79-1.74-1.82-4-3.1-6.86l-11.32-26L1261,1164.74l-.4-.94.87-.55,72.39-45.36,133.86-83.23,40.74-25,11.14-6.68,2.94-1.68A3.68,3.68,0,0,1,1523.58,1000.83Z"/><path class="cls-6" d="M1230.48,1100.9c-.13.3-4-.94-9.86-3.71a137.86,137.86,0,0,1-40.82-29.88c-4.42-4.77-6.75-8-6.51-8.27.61-.55,11.22,11.47,27.08,23S1230.82,1100.16,1230.48,1100.9Z"/><path class="cls-6" d="M1346,1006.84c.38,0,.39,5.1.5,13.28s.45,19.47,1.57,31.88,2.83,23.59,4.19,31.66,2.26,13.07,1.89,13.15-1.87-4.77-3.7-12.8a247,247,0,0,1-5.79-63.92C1345,1011.87,1345.68,1006.82,1346,1006.84Z"/><path class="cls-6" d="M1370.82,1004.09c0-.12,1-.24,2.61.36a11.66,11.66,0,0,1,5.52,4.64,12.72,12.72,0,0,1,1.57,10.68c-1.25,4.28-5.9,7.42-10.76,7.58-4.84.32-9.85-2.36-11.38-6.63a11.84,11.84,0,0,1,1.48-10.72,10.35,10.35,0,0,1,5.81-4.31c1.7-.41,2.65-.12,2.64,0,.18.44-4.07.41-6.89,5.3a10.29,10.29,0,0,0-.82,8.83c1.23,3.13,5,5.16,9,4.94s7.56-2.54,8.63-5.77a11.3,11.3,0,0,0-.89-9C1374.67,1005.1,1370.61,1004.52,1370.82,1004.09Z"/><path class="cls-6" d="M1268.19,995.69c.14-.05.91,1.29,1.83,3.94a35.88,35.88,0,0,1,1.74,11.74,42.34,42.34,0,0,1-3.86,17.22,38.58,38.58,0,0,1-34.49,23.2,42.17,42.17,0,0,1-17.41-2.91,36.12,36.12,0,0,1-10.22-6c-2.1-1.85-3.06-3.08-3-3.18.34-.44,4.61,4.3,13.81,7.49a43,43,0,0,0,16.65,2.24,37.3,37.3,0,0,0,32.44-21.82,43,43,0,0,0,4.2-16.26C1270.43,1001.58,1267.65,995.84,1268.19,995.69Z"/><path class="cls-6" d="M1466.13,1035.2c0,.29-3.15.51-7.87-1.11a29.8,29.8,0,0,1-19.9-30.47c.42-5,1.88-7.76,2.15-7.65s-.38,3-.31,7.71a31.34,31.34,0,0,0,18.74,28.7C1463.21,1034.33,1466.19,1034.78,1466.13,1035.2Z"/><path class="cls-6" d="M1569.89,1193.88a8.81,8.81,0,0,1,1.28-.69l3.81-1.86,14.71-7.08c12.74-6.21,31.22-15.14,53.5-27.19s48.49-27.29,73.85-49.14a218.24,218.24,0,0,0,35.33-38.47c10-15,14.23-34.32,12.79-53.36a83.78,83.78,0,0,0-7-27.32,72.88,72.88,0,0,0-6.84-12,99.6,99.6,0,0,0-8.74-10.51,233.7,233.7,0,0,0-19.86-17.9C1716,942.73,1709,937.62,1701,935.4s-16.14-2.75-24-2.66a123.56,123.56,0,0,0-22.79,2.52c-14.58,2.89-27.33,8.59-38.47,14.53l-52.5,29.1-14.3,7.86-3.74,2a8,8,0,0,1-1.3.63,8.64,8.64,0,0,1,1.21-.78l3.66-2.16,14.15-8.14c12.33-7,30.06-17.28,52.25-29.59,11.14-6,24-11.87,38.75-14.86a125.17,125.17,0,0,1,23-2.64c8-.11,16.3.26,24.49,2.66s15.55,7.59,22.24,13.19a232.82,232.82,0,0,1,20,18,99,99,0,0,1,8.9,10.68,74.11,74.11,0,0,1,7,12.3,85.25,85.25,0,0,1,7.18,27.89c1.47,19.41-2.83,39-13.1,54.44a218.75,218.75,0,0,1-35.69,38.73c-25.57,21.91-52,37.07-74.31,49s-41,20.69-53.79,26.71l-14.85,6.79-3.89,1.71A8.31,8.31,0,0,1,1569.89,1193.88Z"/><path class="cls-7" d="M1264.49,489.18l-92.82,26L1201.84,804s-17.36,103.1-17.36,130.2c0,35.2,27.4,48.42,27.4,48.42l296.52,8.95,15.16-13.12a42.78,42.78,0,0,0,9.9-33.07l-55.09-440.63-103.23-22.39Z"/><path class="cls-8" d="M1202.19,803.61a10.55,10.55,0,0,1-.55-2.18c-.32-1.62-.74-3.72-1.25-6.33-1.05-5.7-2.5-13.61-4.28-23.3-3.47-19.88-8.22-47-13.46-77l-13-77.09c-1.55-9.72-2.82-17.66-3.73-23.39-.39-2.63-.7-4.75-.93-6.38a10.43,10.43,0,0,1-.21-2.24,11.44,11.44,0,0,1,.55,2.18c.32,1.62.73,3.71,1.24,6.32,1.05,5.7,2.5,13.61,4.28,23.3,3.48,19.88,8.22,47,13.47,77l13,77.08c1.55,9.73,2.82,17.67,3.73,23.4q.57,3.93.93,6.37A11.34,11.34,0,0,1,1202.19,803.61Z"/><path class="cls-8" d="M1388.17,487.58a33,33,0,0,1-4.27,3.39c-1.43,1-3.29,2.09-5.41,3.42-2.23,1.12-4.68,2.6-7.6,3.77a99.43,99.43,0,0,1-21.07,6.57,154.8,154.8,0,0,1-26.85,2.79,266.06,266.06,0,0,1-27-.83,155.72,155.72,0,0,1-21.85-2.86,65.48,65.48,0,0,1-14.11-4.71,35.16,35.16,0,0,1-3.55-1.94c-.79-.49-1.18-.77-1.15-.82s1.77.81,5,2.15a75.56,75.56,0,0,0,14.09,4.13,172.93,172.93,0,0,0,21.72,2.47c8.23.54,17.29.92,26.79.69a163.81,163.81,0,0,0,26.59-2.63,104.88,104.88,0,0,0,20.89-6.13C1382,492.37,1387.93,487.19,1388.17,487.58Z"/><path class="cls-8" d="M1484,932.92a8.87,8.87,0,0,1-2,.41l-5.83.84c-2.54.37-5.64.77-9.27,1.08s-7.74.81-12.31,1c-9.14.66-20,.94-32.17.77s-25.42-1.07-39.31-2.7-27-4.06-38.85-6.65-22.36-5.54-31.08-8.33c-4.4-1.29-8.29-2.73-11.73-3.9s-6.37-2.28-8.75-3.23l-5.47-2.19a8.46,8.46,0,0,1-1.86-.88,10.15,10.15,0,0,1,2,.55l5.58,1.89c2.41.85,5.36,1.88,8.83,2.95s7.37,2.43,11.77,3.64c8.75,2.64,19.28,5.36,31.07,7.95s24.88,4.8,38.71,6.49,27.08,2.46,39.15,2.83,22.94.1,32.06-.4c4.56-.14,8.68-.53,12.3-.77s6.73-.52,9.27-.78L1482,933A10.35,10.35,0,0,1,1484,932.92Z"/><path class="cls-8" d="M1518.43,685.35a20.69,20.69,0,0,1-1.41-4c-.8-2.62-1.89-6.42-3.17-11.13-2.57-9.43-5.87-22.53-9.12-37.08s-5.8-27.82-7.47-37.45c-.84-4.81-1.46-8.72-1.84-11.43A20.57,20.57,0,0,1,1495,580a20,20,0,0,1,1.09,4.11c.63,3,1.43,6.81,2.38,11.32,2,9.56,4.72,22.76,8,37.3s6.34,27.66,8.61,37.16c1,4.49,1.94,8.26,2.64,11.25A19.67,19.67,0,0,1,1518.43,685.35Z"/><g class="cls-11"><path d="M1296.88,502.3c3.71,12.9.26,31.71,2.08,43.26,7.29,46.25,10.8,93.25,7.44,140-.19,2.54-.38,5.18.47,7.58.78,2.2,2.36,4,3.76,5.86,9.39,12.43,11.82,29,9.93,44.47s-7.69,30.12-13.44,44.59c-.33-12.46.33-31.11,1.31-43.55.2-2.48,1.47-.88,1.54-3.37.42-15-2.08-28.83-12.58-39.48-2.11-2.14-4.52-4.07-6-6.7a22,22,0,0,1-2-8q-9.66-78.31-13.2-157.22c-.13-3-.17-6.25,1.7-8.58,1.48-1.83,3.83-2.66,5.79-4,4-2.65,6.53-7.33,10.88-9.4"/></g><path class="cls-7" d="M1171.67,515.19s-84.75,20-64.2,147c7.23,44.64,21.12,111,50.57,180.35,13.88,32.69,45.34,55.18,80.55,50.57,15.39-2,30.62.43,40.93-5.79,15.63-9.42,22.43-41.2,25.38-75.49,2-23.35,1.17-47.68,4.26-67.62,5-32.54-9.88-47.88-29-51.68l-74.91-14.93L1201,717.21Z"/><path class="cls-8" d="M1231.35,768c.22-.16,1.42,1.53,4.32,3.71a29.92,29.92,0,0,0,14,5.55c6.35.92,14.14-.19,22.18-3.16s16.83-7.08,24-13.8a42.34,42.34,0,0,0,12.44-23.95,41.53,41.53,0,0,0-2.66-22.11c-5.09-12-12.43-16.8-11.92-17.22.1-.13,1.92.89,4.67,3.44a41.17,41.17,0,0,1,9.19,12.95,42.07,42.07,0,0,1,3.44,23.34,44.05,44.05,0,0,1-13.1,25.72c-7.66,7.19-16.8,11.24-25.09,14.23s-16.69,3.91-23.43,2.65a28.72,28.72,0,0,1-14.4-6.75C1232.12,770,1231.23,768.05,1231.35,768Z"/><path class="cls-8" d="M1153.49,831.39c.27-.09,1.59,4,5.07,10.86a97.21,97.21,0,0,0,19.31,25.93,91.34,91.34,0,0,0,41.48,22.93c17.38,4.34,38.3,4,57.39-4,9.59-3.88,13.06-14.54,16.73-23.44a155,155,0,0,0,7.15-27.48c3-17.93,3.76-34.42,4.78-48.21,1-13.48,1.8-24.54,2.4-32.68.32-3.58.59-6.52.8-8.88a13,13,0,0,1,.48-3.09,12,12,0,0,1,.12,3.12c-.06,2.38-.14,5.32-.24,8.91-.36,8.17-.85,19.25-1.45,32.74-.75,13.8-1.24,30.35-4.18,48.55a154.26,154.26,0,0,1-7.11,28,101.7,101.7,0,0,1-6.32,14.07,25.31,25.31,0,0,1-11.9,11.07c-20,8.37-41.41,8.56-59.33,4a93.12,93.12,0,0,1-61.15-51,66.38,66.38,0,0,1-3.26-8.34A12.14,12.14,0,0,1,1153.49,831.39Z"/><path class="cls-8" d="M1181.72,776.31c-.41,0-.31-5.86.19-15.26s1.39-22.36,2.56-36.67c.62-7.17,1.11-13.93,1.85-20.21s2.59-12,5.78-15.93a17,17,0,0,1,9.6-6.27c2.73-.55,4.23,0,4.2.13s-1.5.15-3.89,1a17.18,17.18,0,0,0-8.22,6.42c-5.56,7.34-4.9,20.92-6.34,35.11-1.17,14.31-2.39,27.25-3.43,36.6S1182.14,776.35,1181.72,776.31Z"/><path class="cls-8" d="M1208.17,641.39c-.75-4-1.94-9.83-3.47-17-3.06-14.32-7.49-34-12.56-55.81-2.58-10.84-4.8-21.31-8.05-30.57s-7.54-17.18-12.42-22.83l-1.64,1.33c4.49,5.62,8.46,13.31,11.45,22.4s5.16,19.48,7.74,30.35c5.08,21.76,9.83,41.42,13.42,55.61,1.79,7.1,3.3,12.83,4.4,16.77s1.81,6.11,2,6.06S1208.93,645.42,1208.17,641.39Z"/><g class="cls-11"><path d="M1209,668.72c-6.82-.22-13.41,2.64-19.07,6.44a63.34,63.34,0,0,0-25.23,35.71,74.08,74.08,0,0,0,2,43.94c1.55,4.37,4.54,9.33,9.18,9.15,5.45-.22,7.65-7,8.41-12.43q3.13-22.46,6.28-44.9c.71-5.09,1.47-10.32,4-14.8s7.21-8.13,12.34-7.85q.69-8,1.39-16"/></g><path class="cls-7" d="M1713.35,737s15.84-23.77,17.5-58.78a196.57,196.57,0,0,0-8.31-64.63l-90-27.9-.57,30Z"/><path class="cls-7" d="M1631.94,615.77,1478.37,504.71v7.69L1495,685.31s127,56.88,160.59,65.25S1713.35,737,1713.35,737Z"/><path class="cls-8" d="M1677.47,699.75c-.07.12-1.34-.48-3.48-1.83a61.62,61.62,0,0,1-8.45-6.6c-6.73-6.07-14.55-16.15-20.51-28.64a186.68,186.68,0,0,1-11.7-33.21c-1.14-4.35-2-7.89-2.5-10.35s-.75-3.84-.6-3.88c.31-.08,2,5.23,4.6,13.8s6.33,20.41,12.19,32.68,13.28,22.24,19.61,28.48S1677.7,699.42,1677.47,699.75Z"/><path class="cls-8" d="M1722.08,635.39c0,.15-1.42.16-4,.05a93.12,93.12,0,0,1-10.76-1.18,131.52,131.52,0,0,1-64.17-29.81,93.36,93.36,0,0,1-7.84-7.47c-1.74-1.88-2.64-3-2.53-3.08.27-.26,4.27,3.71,11.36,9.34a149.65,149.65,0,0,0,63.46,29.48C1716.49,634.52,1722.11,635,1722.08,635.39Z"/><path class="cls-8" d="M1638.71,685.31c-.21.12-2.46-3.32-4.78-9.52a91.5,91.5,0,0,1-5.11-25.2A181.32,181.32,0,0,1,1629,625c.49-6.54,1-10.55,1.33-10.54s.33,4.07.24,10.6-.25,15.54.44,25.42a113.17,113.17,0,0,0,4.38,24.86C1637.31,681.48,1639,685.15,1638.71,685.31Z"/><path class="cls-8" d="M1476.06,571.11c.15,0,.71,1.64,1.6,4.7s2.09,7.52,3.5,13c2.82,11,6.44,26.38,10,43.41s6.39,32.52,8.23,43.78c.92,5.62,1.61,10.18,2,13.34s.57,4.93.42,5-.6-1.68-1.27-4.8q-1.11-5.37-2.72-13.21L1489,632.71c-3.6-16.74-6.86-31.87-9.37-43.5L1476.82,576C1476.19,572.89,1475.91,571.15,1476.06,571.11Z"/><path class="cls-9" d="M1204.33,693.24,1223.15,485l62.36,24.62,8,211.79s-20,30.2-53.67,17.81S1204.33,693.24,1204.33,693.24Z"/><polygon class="cls-8" points="1216.46 302.66 1333.06 405.22 1311.95 481.79 1303.49 484.3 1201.56 379.97 1208 305.17 1216.46 302.66"/><polygon class="cls-6" points="1208 305.17 1324.6 407.73 1303.49 484.3 1193.1 382.48 1208 305.17"/><path class="cls-9" d="M1288.14,516.32s12-12.57,11.72-28.66c-.27-15.7-4.6-53.46-4.6-53.46s20.25-42.64,19.74-48.31-1.44-5.59-8.71-3.3-29.84,41.16-29.84,41.16l-7.38-28.83s18.77-30.26,20.27-34.48,4-7.7-.73-8.09-40,33.8-40,33.8l2.85,31.58s-.71,2.51-5.78-1.93-3.79-42.11-3.79-42.11,12-22.3,11.72-25.54,2.2-6.73-.16-12.23-9.28.83-9.28.83l-23.42,30.68-8.34-30.36s.35-6.47-8.07-6.52l3.26,98.48L1229,504.8Z"/><path class="cls-10" d="M1293.54,721.43s-.18-1.26-.33-3.7c-.14-2.61-.33-6.22-.58-10.85-.43-9.67-1-23.61-1.83-41.34-1.43-35.87-3.46-87-5.92-149l0-.6.5-.44a40.76,40.76,0,0,0,11.28-15.94c2.55-6.3,2.8-13.25,2.36-20.49-.74-14.42-2.53-29.42-4.54-44.75l0-.41.17-.38c3.82-8.11,7.63-16.46,11.34-25,1.84-4.29,3.68-8.63,5.37-13,.83-2.21,1.64-4.44,2.29-6.66l.41-1.64a12.23,12.23,0,0,0,.13-1.37,9.48,9.48,0,0,0-.58-3c.23-.69-3,0-5,.73a6.5,6.5,0,0,0-2.75,1.4,20.64,20.64,0,0,0-2.48,2.4,114.34,114.34,0,0,0-8.89,11.61c-5.61,8.15-10.91,16.73-16,25.47l-1.83,3.11-.9-3.49c-2.34-9.13-4.85-18.93-7.39-28.82l-.15-.61.33-.55,9.52-15.57c3.63-6.14,7.62-12.45,10.55-18.47.6-1.7,1.44-3.44,1.85-4.86.22-.78.09-1.12.07-1.05a2.21,2.21,0,0,0-1.41-.27,9.42,9.42,0,0,0-1.7.85c-.69.38-1.4.94-2.1,1.4-1.39,1-2.78,2.06-4.13,3.17-10.81,8.87-20.93,18.46-30.79,27.87l.44-1.18q1.44,16,2.83,31.58l0,.29-.07.23a2.63,2.63,0,0,1-2.8,1.75,5.56,5.56,0,0,1-2.05-.65,15.4,15.4,0,0,1-2.86-2c-2.12-1.9-2.5-4.4-3-6.43a86,86,0,0,1-1.42-12.61c-.44-8.32-.42-16.47-.19-24.55v-.31l.16-.3c4.1-7.84,8.42-15.71,11.3-23.48a7.06,7.06,0,0,0,.27-1.17c0-.35,0-1.23.06-1.76.13-1.2.39-2.26.57-3.26a11.33,11.33,0,0,0-.2-5.68c-.64-2.07-1.28-2.91-2.86-2.62a11.4,11.4,0,0,0-4.75,2.66l.16-.17-23.48,30.63-1.52,2-.65-2.4-8.27-30.38,0-.15V337a5,5,0,0,0-2.13-4.1,8.62,8.62,0,0,0-4.79-1.24l1.13-1.16c1.16,40.06,2.13,73.28,2.86,98.49l0-.16,10.78,41.74,2.68,10.8c.58,2.43.79,3.69.79,3.69s-.46-1.2-1.16-3.6-1.74-6.1-3-10.69c-2.65-9.61-6.48-23.55-11.44-41.57l0-.08V429c-.94-25.2-2.18-58.42-3.67-98.47l0-1.17H1205A10.77,10.77,0,0,1,1211,331a7.23,7.23,0,0,1,3.15,6.1l0-.36,8.42,30.33-2.17-.42q11.2-14.76,23.35-30.72l.08-.12.08-.06a13.73,13.73,0,0,1,6.06-3.33,4.56,4.56,0,0,1,4.07,1.1,7.67,7.67,0,0,1,1.81,3.35,14.07,14.07,0,0,1,.29,6.93c-.19,1.1-.44,2.13-.53,3.06-.07.54,0,.74,0,1.46a7.59,7.59,0,0,1-.39,2c-3.09,8.43-7.3,16-11.44,24l.17-.61c-.21,8-.21,16.11.24,24.29a84.56,84.56,0,0,0,1.38,12.17c.48,1.94,1,3.88,2.09,4.82a13.12,13.12,0,0,0,2.32,1.63,3.34,3.34,0,0,0,.95.34h.08a1.32,1.32,0,0,0,.09.3l0,.08,0,0,.1.05.17.07,0,0c.7.26-.9-.35-.75-.27l0,.07-.05.53q-1.41-15.56-2.86-31.58l-.07-.71.51-.48c9.9-9.48,20-19.05,31-28.08q2.07-1.69,4.27-3.28c.78-.51,1.46-1.06,2.31-1.54a8,8,0,0,1,3.14-1.27,4.72,4.72,0,0,1,3.56,1.11,3.88,3.88,0,0,1,.74,4c-.59,2-1.34,3.47-1.93,5.14-3.3,6.83-7.08,12.67-10.79,19l-9.54,15.6.18-1.16c2.53,9.89,5,19.69,7.37,28.83l-2.72-.38c5.19-8.82,10.51-17.4,16.2-25.66a116.46,116.46,0,0,1,9.16-11.92,23.43,23.43,0,0,1,2.82-2.7,10,10,0,0,1,3.7-1.9c1.19-.35,2.37-.72,3.7-1a6.83,6.83,0,0,1,2.31-.1,3.39,3.39,0,0,1,2.46,1.75,11.67,11.67,0,0,1,.91,4.08,12.79,12.79,0,0,1-.18,2.22l-.47,1.85c-.7,2.39-1.53,4.66-2.38,6.91-1.72,4.48-3.58,8.84-5.44,13.15-3.75,8.6-7.59,17-11.44,25.09l.13-.79c2,15.42,3.72,30.41,4.42,45,.44,7.21.16,14.85-2.61,21.55a43.1,43.1,0,0,1-12.15,17l.48-1c2,62,3.69,113.16,4.86,149,.5,17.74.89,31.68,1.16,41.36q.13,7,.21,10.86C1293.62,720.17,1293.54,721.43,1293.54,721.43Z"/><path class="cls-10" d="M1225.66,420.86c-.82.09-2.44-12-3.62-26.92s-1.46-27.12-.64-27.16,2.45,12,3.62,26.93S1226.48,420.77,1225.66,420.86Z"/></svg>