<svg xmlns="http://www.w3.org/2000/svg" viewBox="0 0 195.82 195.84"><defs><style>.cls-1{fill:#e7545a;}</style></defs><title>twitter</title><g id="Layer_2" data-name="Layer 2"><g id="Layer_1-2" data-name="Layer 1"><path class="cls-1" d="M0,97.63C.23,42.85,44.11-.27,99.36,0c53,.26,96.55,44.44,96.46,98A97.83,97.83,0,0,1,95.24,195.81C42.43,194.43-.32,151,0,97.63ZM157.24,46.84l-.56-.64c-2,1.42-4.12,2.76-6.07,4.26-4.06,3.12-7.18,3.4-11.48-.65-8.64-8.15-21-9-31-3.24C97.83,52.48,92.76,63.46,94.77,75.33a20.92,20.92,0,0,1,0,3.37c-22.94-1.51-41-11.92-56.11-29-7,13.83-3,25.25,5.49,36.46l-10-3c.75,13.52,8.53,21.25,19.65,26.76l-9.49.44c4.41,10.89,12.08,17.11,23.44,19.85-5.22,3.08-10.4,6-16,7.62s-11.78,2-18.29,3c18.55,11.41,38,14.78,58.62,9.71a75.39,75.39,0,0,0,57.22-73.27A11.4,11.4,0,0,1,152,70.8c3.18-4,6.85-7.55,11.3-12.33l-14.73,3.91Z"/></g></g></svg>