<svg xmlns="http://www.w3.org/2000/svg" viewBox="0 0 195.85 195.81"><defs><style>.cls-1{fill:#e7545a;}</style></defs><title>whatsapp</title><g id="Layer_2" data-name="Layer 2"><g id="Layer_1-2" data-name="Layer 1"><path class="cls-1" d="M98,0a97.91,97.91,0,1,1-.37,195.81C42.88,195.71-.27,151.63,0,96.52.26,43.44,44.64-.27,98,0ZM43.41,152.05c10.12-3.6,18.78-6.87,27.59-9.7a11.42,11.42,0,0,1,7.42.16,52.89,52.89,0,0,0,35.91,2.83c26-6.89,42.88-34.69,36.41-61.34-6.39-26.35-30.2-44.3-59.52-39.25C57.65,50.53,39.74,85.67,53.16,117a10,10,0,0,1,0,6.39C50.2,132.67,46.93,141.81,43.41,152.05Z"/><path class="cls-1" d="M57.72,137.35c2.09-5.53,4.07-10,5.46-14.74a9.56,9.56,0,0,0-.34-6.34c-8.05-16.46-7.35-32.39,3.91-46.84,10.84-13.91,25.61-19.3,43-15.33,18.23,4.16,29.38,16.2,32.65,34.24,4,22.22-9.36,41.12-28.29,47.59-11.92,4.08-23.44,2.88-34.67-3-2.14-1.11-5.35-1.1-7.81-.5C67.21,133.53,63,135.43,57.72,137.35ZM75.83,78.27a28,28,0,0,0,1.26,18,43.16,43.16,0,0,0,16.42,19.44,32.36,32.36,0,0,0,17,4.79,40.45,40.45,0,0,0,8.91-1c2.34-.5,5.29-1,6.66-3.21,1.23-2,.91-4.76-.08-6.78-2.83-5.84-9.52-7.31-14-2.63-2.3,2.42-4.5,3.08-6.91,1.36a101.48,101.48,0,0,1-13-10.48c-5.78-5.79-5.41-8.23-1.68-15.16,1.26-2.34,1.31-6.5,0-8.7a10.13,10.13,0,0,0-7.65-4.29c-2,.06-4.63,3.19-5.83,5.55A15.42,15.42,0,0,0,75.83,78.27Z"/></g></g></svg>