<svg xmlns="http://www.w3.org/2000/svg" viewBox="0 0 195.87 195.89"><defs><style>.cls-1{fill:#e7545a;}</style></defs><title>youtube</title><g id="Layer_2" data-name="Layer 2"><g id="Layer_1-2" data-name="Layer 1"><path class="cls-1" d="M98,195.89C42.63,196.14-2.83,149.54.14,92.94,2.82,41.75,43.93-.34,98.5,0c56.55.35,100.43,46.46,97.2,104C192.73,156.72,148.84,196,98,195.89Zm-68-97.72c0,9.49,0,19,0,28.48.06,12.77,9.36,22.22,22,23.13a670.26,670.26,0,0,0,92.28,0c11.66-.77,21.62-10.12,21.73-21.34q.3-30.48,0-60.95c-.08-9.87-8.92-19.94-18.31-20.69-12.42-1-24.88-2.06-37.32-2-19.77.12-39.54,1.13-59.3,1.83A21.86,21.86,0,0,0,30,68.2C29.88,78.19,30,88.18,29.94,98.17Z"/><path class="cls-1" d="M80.27,115.68V80.25L115.71,98Z"/></g></g></svg>