<?xml version="1.0" encoding="UTF-8"?><svg xmlns="http://www.w3.org/2000/svg" viewBox="0 0 364.13 230.85"><defs><style>.d{fill:#54a8e1;fill-rule:evenodd;}</style></defs><g id="a"/><g id="b"><g id="c"><path class="d" d="M340.79,194.95c-4.54,0-8.22,3.69-8.22,8.24s3.68,8.24,8.22,8.24,8.22-3.69,8.22-8.24-3.68-8.24-8.22-8.24Zm-79.56,0c-4.54,0-8.22,3.69-8.22,8.24s3.68,8.24,8.22,8.24,8.22-3.69,8.22-8.24-3.68-8.24-8.22-8.24Zm-79.56,0c-4.54,0-8.22,3.69-8.22,8.24s3.68,8.24,8.22,8.24,8.22-3.69,8.22-8.24-3.68-8.24-8.22-8.24Zm-79.56,0c-4.54,0-8.22,3.69-8.22,8.24s3.68,8.24,8.22,8.24,8.22-3.69,8.22-8.24-3.68-8.24-8.22-8.24Zm-79.56,0c-4.54,0-8.22,3.69-8.22,8.24s3.68,8.24,8.22,8.24,8.22-3.69,8.22-8.24-3.68-8.24-8.22-8.24Zm318.24-60.57c-4.54,0-8.22,3.69-8.22,8.24s3.68,8.24,8.22,8.24,8.22-3.69,8.22-8.24-3.68-8.24-8.22-8.24Zm-79.56,0c-4.54,0-8.22,3.69-8.22,8.24s3.68,8.24,8.22,8.24,8.22-3.69,8.22-8.24-3.68-8.24-8.22-8.24Zm-79.56,0c-4.54,0-8.22,3.69-8.22,8.24s3.68,8.24,8.22,8.24,8.22-3.69,8.22-8.24-3.68-8.24-8.22-8.24Zm-79.56,0c-4.54,0-8.22,3.69-8.22,8.24s3.68,8.24,8.22,8.24,8.22-3.69,8.22-8.24-3.68-8.24-8.22-8.24Zm-79.56,0c-4.54,0-8.22,3.69-8.22,8.24s3.68,8.24,8.22,8.24,8.22-3.69,8.22-8.24-3.68-8.24-8.22-8.24Zm318.24-60.57c-4.54,0-8.22,3.69-8.22,8.24s3.68,8.24,8.22,8.24,8.22-3.69,8.22-8.24-3.68-8.24-8.22-8.24Zm-79.56,0c-4.54,0-8.22,3.69-8.22,8.24s3.68,8.24,8.22,8.24,8.22-3.69,8.22-8.24-3.68-8.24-8.22-8.24Zm-79.56,0c-4.54,0-8.22,3.69-8.22,8.24s3.68,8.24,8.22,8.24,8.22-3.69,8.22-8.24-3.68-8.24-8.22-8.24Zm-79.56,0c-4.54,0-8.22,3.69-8.22,8.24s3.68,8.24,8.22,8.24,8.22-3.69,8.22-8.24-3.68-8.24-8.22-8.24Zm-79.56,0c-4.54,0-8.22,3.69-8.22,8.24s3.68,8.24,8.22,8.24,8.22-3.69,8.22-8.24-3.68-8.24-8.22-8.24ZM340.79,29.72c4.54,0,8.22-3.69,8.22-8.24s-3.68-8.24-8.22-8.24-8.22,3.69-8.22,8.24,3.68,8.24,8.22,8.24Zm-79.56-16.48c-4.54,0-8.22,3.69-8.22,8.24s3.68,8.24,8.22,8.24,8.22-3.69,8.22-8.24-3.68-8.24-8.22-8.24Zm-79.56,0c-4.54,0-8.22,3.69-8.22,8.24s3.68,8.24,8.22,8.24,8.22-3.69,8.22-8.24-3.68-8.24-8.22-8.24Zm-79.56,0c-4.54,0-8.22,3.69-8.22,8.24s3.68,8.24,8.22,8.24,8.22-3.69,8.22-8.24-3.68-8.24-8.22-8.24Zm-79.56,0c-4.54,0-8.22,3.69-8.22,8.24s3.68,8.24,8.22,8.24,8.22-3.69,8.22-8.24-3.68-8.24-8.22-8.24Z"/></g></g></svg>