<?xml version="1.0" encoding="UTF-8"?><svg xmlns="http://www.w3.org/2000/svg" xmlns:xlink="http://www.w3.org/1999/xlink" viewBox="0 0 364.13 302.05"><defs><style>.aa{fill:url(#u);}.ab{fill:url(#t);}.ac{fill:url(#v);}.ad{fill:url(#e);}.ae{fill:url(#d);}.af{fill:url(#g);}.ag{fill:url(#f);}.ah{fill:url(#p);}.ai{fill:url(#o);}.aj{fill:url(#s);}.ak{fill:url(#q);}.al{fill:url(#r);}.am{fill:url(#i);}.an{fill:url(#h);}.ao{fill:url(#k);}.ap{fill:url(#j);}.aq{fill:url(#m);}.ar{fill:url(#l);}.as{fill:url(#n);}.at{fill:url(#c);}.au{fill:url(#x);}.av{fill:url(#w);}.aw{fill:url(#y);}.ax{fill:url(#a`);}.ay{fill:#69b6a0;}.b`{fill:#f1d14d;}.ba{fill:#f5f1ee;}.bb{fill:#e3dedc;}.bc{fill:#fff;}.bd{fill:#e3b8aa;}.be{fill:#7bd6bd;}.bf{fill:#da5346;}.bg{fill:#debd39;}.bh{fill:#ad837a;}.bi{fill:#c8a196;}.bj{fill:#432e2c;}.bk{fill:#392a22;}.bl{fill:#3a67ac;}.bm{fill:#3b2f30;}.bn{fill:#2f5272;}</style><linearGradient id="c" x1="246.74" y1="41.97" x2="243.22" y2="57.33" gradientTransform="matrix(1, 0, 0, 1, 0, 0)" gradientUnits="userSpaceOnUse"><stop offset="0" stop-color="#3a67ac"/><stop offset="1" stop-color="#04069b"/></linearGradient><linearGradient id="d" x1="276.26" y1="33.9" x2="257.25" y2="116.96" xlink:href="#c"/><linearGradient id="e" x1="195.51" y1="43.28" x2="200.23" y2="38.39" gradientTransform="matrix(1, 0, 0, 1, 0, 0)" gradientUnits="userSpaceOnUse"><stop offset="0" stop-color="#af4c43"/><stop offset="1" stop-color="#da5346"/></linearGradient><linearGradient id="f" x1="193.11" y1="51.68" x2="196.66" y2="48.01" xlink:href="#e"/><linearGradient id="g" x1="179.35" y1="49.8" x2="182.9" y2="46.13" xlink:href="#e"/><linearGradient id="h" x1="186.28" y1="41.2" x2="188.79" y2="38.6" xlink:href="#e"/><linearGradient id="i" x1="162.54" y1="107.24" x2="174.33" y2="95.02" xlink:href="#e"/><linearGradient id="j" x1="238.28" y1="66.31" x2="242.58" y2="54.78" gradientTransform="matrix(1, 0, 0, 1, 0, 0)" gradientUnits="userSpaceOnUse"><stop offset="0" stop-color="#caaa33"/><stop offset="1" stop-color="#f1d14d" stop-opacity="0"/></linearGradient><linearGradient id="k" x1="273.89" y1="82" x2="250.15" y2="45.61" xlink:href="#j"/><linearGradient id="l" x1="207.66" y1="70" x2="222.1" y2="55.04" xlink:href="#e"/><linearGradient id="m" x1="149.33" y1="62.58" x2="154.05" y2="57.69" xlink:href="#e"/><linearGradient id="n" x1="146.28" y1="69.02" x2="149.62" y2="65.56" xlink:href="#e"/><linearGradient id="o" x1="158.16" y1="62.51" x2="160.52" y2="60.06" xlink:href="#e"/><linearGradient id="p" x1="127.96" y1="208.25" x2="183.26" y2="208.25" gradientTransform="matrix(1, 0, 0, 1, 0, 0)" gradientUnits="userSpaceOnUse"><stop offset="0" stop-color="#c8a196"/><stop offset="1" stop-color="#2f5272"/></linearGradient><linearGradient id="q" x1="-1234.01" y1="-991.93" x2="-1229.29" y2="-996.82" gradientTransform="translate(-817.81 -996.75) rotate(-89.37) scale(1 -1)" xlink:href="#e"/><linearGradient id="r" x1="-1236.73" y1="-981.92" x2="-1233.18" y2="-985.6" gradientTransform="translate(-817.81 -996.75) rotate(-89.37) scale(1 -1)" xlink:href="#e"/><linearGradient id="s" x1="-1251.3" y1="-986.1" x2="-1247.76" y2="-989.77" gradientTransform="translate(-817.81 -996.75) rotate(-89.37) scale(1 -1)" xlink:href="#e"/><linearGradient id="t" x1="-1243.56" y1="-992.41" x2="-1241.05" y2="-995.01" gradientTransform="translate(-817.81 -996.75) rotate(-89.37) scale(1 -1)" xlink:href="#e"/><linearGradient id="u" x1="109.18" y1="166.62" x2="116.77" y2="166.62" xlink:href="#p"/><linearGradient id="v" x1="-1360.34" y1="441.99" x2="-1355.62" y2="437.1" gradientTransform="translate(-648.23 -1003.94) rotate(-101.55)" xlink:href="#e"/><linearGradient id="w" x1="-1363.06" y1="451.99" x2="-1359.52" y2="448.32" gradientTransform="translate(-648.23 -1003.94) rotate(-101.55)" xlink:href="#e"/><linearGradient id="x" x1="-1377.64" y1="447.82" x2="-1374.09" y2="444.14" gradientTransform="translate(-648.23 -1003.94) rotate(-101.55)" xlink:href="#e"/><linearGradient id="y" x1="-1369.89" y1="441.51" x2="-1367.38" y2="438.91" gradientTransform="translate(-648.23 -1003.94) rotate(-101.55)" xlink:href="#e"/><linearGradient id="a`" x1="203.99" y1="133.22" x2="209.5" y2="105.01" gradientTransform="matrix(1, 0, 0, 1, 0, 0)" gradientUnits="userSpaceOnUse"><stop offset="0" stop-color="#c8a196"/><stop offset=".25" stop-color="#c59f95"/><stop offset=".41" stop-color="#bc9b93"/><stop offset=".55" stop-color="#ae938f"/><stop offset=".67" stop-color="#99888b"/><stop offset=".78" stop-color="#7e7a84"/><stop offset=".89" stop-color="#5d697c"/><stop offset=".98" stop-color="#365573"/><stop offset="1" stop-color="#2f5272"/></linearGradient></defs><g id="a"/><g id="b"><g><g><path class="bb" d="M99.41,294.48c.22,.54-.52,1.76-1.67,3.27h223.19c2.7-13.2,1.88-29.67,1.88-42.57,0-15.98-2.24-36.03-8-49.93-5.97-14.4-28.05-20.83-38.91-31.69-10.85-10.85-26.17-11.52-40.57-17.49-13.89-5.76-25.07-29.9-41.05-29.9s-26.24,26.34-40.13,32.1c-14.4,5.97-33.73,1.33-44.58,12.19-10.86,10.85-25.57,22.16-31.54,36.56-5.76,13.9,5.88,32.18,5.88,48.16s9.74,25.4,15.5,39.29Z"/><circle class="ba" cx="265.08" cy="276.43" r="23.7" transform="translate(-91.75 415.54) rotate(-67.5)"/><g><path class="bl" d="M242.95,29.13c.46-2.46,2.5-4.76,5.01-4.8,2.5-.04,4.74,2.07,7.22,1.78,.92-.11,1.81-.54,2.72-.38,.56,.1,1.07,.42,1.51,.78,2.12,1.72,3.17,4.38,4.5,6.76,1.45,2.6,3.33,4.98,5.61,6.89,1.76,1.47,9.77,9.2,11.59,10.6,2.41,1.85,4.57,4.11,5.89,6.84,1.32,2.74,2.48,10.39,.29,16.43-.97,2.67-5.89,13.28-16.52,12.46-1.67-.13-3.79-5.61-5.3-6.34-2.49-1.21-7.02-17.4-8.96-19.38s-4.19-3.89-6.92-4.35c-1.21-.2-2.48-.11-3.6-.6-.7-.31-1.3-.82-1.81-1.4-1.85-2.12-2.54-5.2-1.76-7.9,.52-1.8,1.61-3.37,2.31-5.1,.56-1.39,1.07-3.56,.12-4.9-.16-.23-.39-.38-.57-.59-.26-.31-.41-.69-.55-1.06-.34-.85-.61-1.73-.77-2.63-.18-1.02-.21-2.08-.02-3.1Z"/><path class="at" d="M246.85,43.8s-.9,2.44-2.66,2.58c-1.76,.14-2.23,2.47-1.5,4.62l5.05-.89-.89-6.31Z"/><path class="ae" d="M287.3,74.03c2.19-6.04,1.03-13.69-.29-16.43-.85-1.75-2.06-3.29-3.44-4.67-4.51-3.12-7.85-3.27-5.76-.27,3.7,5.33-2.06,8.26-3.98,2.77-1.24-3.54-.33-6.86-3.3-11.39-2.18-3.31-6.48-3.38-9.82-1.26-1.05,.67-2.8,.1-5.7-3.24-1.71-1.97,2.59,10.49,4.76,14.95,1.44,2.96,3.23,15.6,4.27,23.8,.53,.96,1.03,1.64,1.46,1.85,1.51,.73,3.62,6.21,5.3,6.34,10.62,.83,15.54-9.78,16.51-12.46Z"/><path class="ad" d="M202.21,40.08c0,2-1.62,3.61-3.61,3.61s-3.61-1.62-3.61-3.61,1.62-3.61,3.61-3.61,3.61,1.62,3.61,3.61Z"/><path class="ag" d="M198.15,49.28c0,1.5-1.22,2.72-2.72,2.72s-2.72-1.22-2.72-2.72,1.22-2.72,2.72-2.72,2.72,1.22,2.72,2.72Z"/><path class="af" d="M184.39,47.4c0,1.5-1.22,2.72-2.72,2.72s-2.72-1.22-2.72-2.72,1.22-2.72,2.72-2.72,2.72,1.22,2.72,2.72Z"/><path class="an" d="M189.85,39.5c0,1.06-.86,1.92-1.92,1.92s-1.92-.86-1.92-1.92,.86-1.92,1.92-1.92,1.92,.86,1.92,1.92Z"/><g><path class="bc" d="M121.73,91.15s8.85-19.04,35.32-20.66c17.08-1.04,62.76,2.69,46.8,73.18,0,0-80.44-24.42-82.12-52.52Z"/><path class="bb" d="M160.16,88.08s-3.86-15.29,1.85-12.16c5.71,3.13,7.83,13.44,11.44,9.36,3.61-4.08,11.4-6.22,12.93-1.75,1.52,4.46,4.31,24.76,6.7,24.08,2.39-.69,5.01,.08,5.03,2.19,.03,2.11-.7,6.81-.7,6.81l-18.54-5.31-20.65-8.26-3.48-8.33,5.41-6.62Z"/><path class="be" d="M186.11,114.26s-7.14-26.73,7.62-45.49c14.75-18.76,12.22,29.85-7.62,45.49Z"/><path class="ay" d="M194.73,88.49l7.11-3.5c2.2-10.24,1.66-19.12-1.62-20.33-2.24,8.73-11.63,45.09-13.26,47.94-.25,.43-.39,.88-.47,1.33,7.43-6.09,12.38-16.81,14.84-26.72l-6.6,1.27Z"/><path d="M187.36,111.34l-.3-.11c4.5-12.59,11.64-41.39,11.71-41.69l.31,.08c-.07,.29-7.21,29.11-11.72,41.71Z"/><polygon points="195.5 83.36 195.37 83.07 202.8 79.68 202.93 79.97 195.5 83.36"/><polygon points="194.28 87.17 187.8 79.04 188.05 78.84 194.53 86.97 194.28 87.17"/><polygon points="189.57 104.46 189.42 104.19 196.6 100.1 196.75 100.37 189.57 104.46"/><path class="bf" d="M188.1,86.9c-2.95-1.63-6.25-1.36-9.54,.77-1.97,1.28-3.36,2.83-3.87,3.45-.51-.61-1.9-2.17-3.87-3.45-3.29-2.14-6.59-2.41-9.54-.77-2.61,1.45-3.65,4.98-2.7,9.23,1.42,6.38,9.75,15.08,16.11,17.81,6.37-2.74,14.69-11.43,16.11-17.81,.95-4.25-.09-7.79-2.7-9.23Z"/><path class="am" d="M174.69,91.12c-.51-.61-1.9-2.17-3.87-3.45-3.29-2.14-6.59-2.41-9.54-.77-2.61,1.45-3.65,4.98-2.7,9.23,1.42,6.38,9.75,15.08,16.11,17.81,2.69-1.16,5.71-3.41,8.44-6.07-10.81,.98-14.91-3.98-15.82-10.55-.9-6.58,7.38-6.21,7.38-6.21Z"/><path d="M204,143.7l-.31-.07c5.3-23.41,4.25-41.58-3.11-54.02l.27-.16c7.41,12.51,8.47,30.76,3.15,54.25Z"/><g><path class="bd" d="M124.24,298.05c-.11-27.68,14.62-195.59,14.62-195.59,0,0,32.31,11.93,52.4,27.83,.49-4.42,2.03-10.17,5.3-17.83,0,0,7.72-14.89,15.09-12.2,7.37,2.69,15,14.12,.83,27.66l-8.63,15.74h0c1.35,2.26,2.31,4.55,2.75,6.86,0,0,49.16,136.79,55.31,147.53H124.24Z"/><path class="bi" d="M183.26,184.12c-15.64,26.63-44.96,26.66-53.37,26.07-1.28,16.25-2.48,32.2-3.45,46.14,40.42-19.82,56.82-72.21,56.82-72.21Z"/></g><path class="bd" d="M125.64,85.5s-4.46,3.38-6.75,14.44c-.86,4.15-2.6,9.51-3.46,14.32v-.02l-14.27,38.62c-1.38,3.6,.85,7.56,4.64,8.26l3.98,.73v-.11c-1.6,20.32-1.1,37.88,3.97,43.75,5.15,5.95,28.69,10.8,54.97-6.81,26.28-17.6,35.42-65.01,35.42-65.01,0,0,1.05-24.41-26.73-26.67-28.65-2.33-20.85-21.9-51.77-21.51Z"/><path class="bh" d="M125.64,85.5s-.83,.63-1.95,2.22v.2s11.07-.85,15.41,.51c0,0,7.03,19.94,25.73,15.77h0c-14.5-6.05-13.96-19.02-39.18-18.71Z"/><path d="M171.87,88.56h-.32c0-.1,.36-8.74,3.91-19,3.28-9.47,10.04-22.3,23.61-29.61l.15,.28c-13.47,7.26-20.19,20.01-23.46,29.43-3.54,10.21-3.89,18.82-3.9,18.91Z"/><path class="bf" d="M178.93,36.04c-.49-.65-1.24-.92-2.18-.77-.56,.09-1.02,.29-1.19,.38-.05-.19-.2-.67-.51-1.14-.51-.8-1.22-1.18-2.03-1.11-.72,.06-1.3,.74-1.51,1.77-.32,1.55,.66,4.29,1.79,5.52,1.67,.03,4.37-1.07,5.31-2.33,.63-.84,.75-1.73,.32-2.3Z"/><path d="M123.82,88l-.28-.15c.09-.16,9.29-16.29,33.5-17.52,8.75-.44,21.32,.37,31.7,6.79l-.17,.27c-10.32-6.38-22.85-7.18-31.52-6.74-24.02,1.22-33.15,17.19-33.24,17.36Z"/><path class="bf" d="M179.01,68.41c-.95-.53-2.01-.44-3.07,.25-.63,.41-1.08,.91-1.25,1.11-.16-.2-.61-.7-1.25-1.11-1.06-.69-2.12-.77-3.07-.25-.84,.47-1.17,1.6-.87,2.97,.46,2.05,3.14,4.86,5.19,5.74,2.05-.88,4.73-3.68,5.19-5.74,.3-1.37-.03-2.51-.87-2.97Z"/><path class="bd" d="M158.2,40.68c-.67,0-1.22,.36-1.59,1.05-.22,.41-.31,.82-.34,.97-.15-.06-.54-.19-1-.23-.78-.05-1.38,.22-1.73,.78-.32,.5-.15,1.22,.42,1.87,.86,.97,3.15,1.68,4.52,1.55,.84-1.09,1.45-3.4,1.09-4.65-.24-.83-.77-1.35-1.36-1.35Z"/><path class="bf" d="M117.11,61.51c-.67,0-1.22,.37-1.59,1.05-.22,.41-.31,.82-.34,.97-.15-.06-.54-.19-1-.23-.78-.05-1.38,.22-1.73,.78-.32,.5-.15,1.22,.42,1.87,.86,.97,3.15,1.68,4.52,1.55,.84-1.09,1.45-3.4,1.09-4.65-.24-.83-.77-1.35-1.36-1.35Z"/><path class="be" d="M231.34,83.69c-.37-.56-.98-.81-1.75-.74-.46,.04-.85,.19-1,.25-.03-.16-.14-.56-.37-.96-.38-.68-.94-1.03-1.61-1.01-.59,.02-1.1,.54-1.32,1.38-.34,1.26,.33,3.55,1.21,4.62,1.37,.1,3.64-.67,4.48-1.66,.56-.66,.7-1.38,.37-1.88Z"/></g><path class="b`" d="M244.46,298.05s19.53-58.78,36.89-50.51c17.36,8.26-12.64,50.51-12.64,50.51h-24.26Z"/><path class="bg" d="M265.61,289.19c-6.34,2.97-2.69-9.42-5.68-14.71-2.99-5.29-15.47,23.58-15.47,23.58h24.26s6.03-8.5,11.12-18.62c-1.54-9.73-7.89,6.78-14.22,9.75Z"/><polygon class="bc" points="258.51 298.12 258.22 297.99 281.21 247.47 281.5 247.6 258.51 298.12"/><rect class="bc" x="264.95" y="283.42" width="12.7" height=".32"/><rect x="67.57" y="297.89" width="271.98" height=".32"/><polygon points="215.15 143.96 215.08 143.65 250.27 135.75 250.34 136.06 215.15 143.96"/><polygon points="216.12 146.12 216.05 145.81 248.05 139.11 248.12 139.42 216.12 146.12"/><path class="bm" d="M244.21,158.78s.7,4.8-13.69,7.06c-3.63,.57-11.49-2.37-11.49-2.37l25.18-4.69Z"/><polygon points="316.09 298.11 252.05 143.73 252.34 143.61 316.39 297.99 316.09 298.11"/><path class="bm" d="M281.35,187.57s-1.6,5.69-17.86,5.36c-3.67-.07-11.3-2.67-11.3-2.67l29.16-2.69Z"/><path class="bn" d="M227.43,104.22s10.93-1.45,12.06,5.1c.82,4.82,4.72,49.46,4.72,49.46l-25.18,4.69s-.9-32.64-2.13-65.03c-.25-6.44,7.41,1.86,10.54,5.78Z"/><polygon points="189.67 298.11 189.38 297.99 252.05 143.61 252.34 143.73 189.67 298.11"/><polygon points="232.26 184.99 232.15 184.69 264.14 172.46 264.25 172.76 232.26 184.99"/><path class="bn" d="M266.59,117.4l14.76,70.16-29.16,2.69s-6.34-55.04-7.92-79.94c0,0,18.09,6.34,22.32,7.09Z"/><path class="bn" d="M245.26,87.87s23.36-15.21,25.08-6.79c1.13,5.53,4.08,10.8,2.94,17.59-1.77,10.58-5.31,25.32-5.31,25.32l-23.5-11.67s-14.51,2.84-18.4,1.36c0,0-17.33-17.03-4.35-20.64,14.17-3.95,23.54-5.15,23.54-5.15Z"/><path class="b`" d="M232.76,160.92c-.09-.42-9.3-41.91-1.24-60.28,1.15-2.63,6.18-2.59,12.01-2.55,6.37,.04,13.59,.1,18.32-3.05,2.44-1.63,.62-11.74,.6-11.84l.23-.04c.08,.42,1.87,10.37-.7,12.08-4.78,3.19-12.05,3.14-18.45,3.09-5.75-.04-10.7-.08-11.79,2.41-8.03,18.3,1.16,59.72,1.25,60.13l-.23,.05Z"/><path class="b`" d="M245.26,87.87l25.08-6.79s.2,.36,1.2-9.51c1.47-14.39-1.96-21.56-1.96-21.56l-11.19-2.49-18.97,4.22s-1.98,15.14,2.59,28.34c.69,1.99,3.25,7.79,3.25,7.79Z"/><path class="ap" d="M239.37,53.17l-.6,16.01c1.6-.75,3.02-1.81,3.48-3.32,1.22-4.04,.44-13.19,.44-13.19l-3.32,.51Z"/><path class="ao" d="M270.34,81.07s.2,.36,1.2-9.51c1.47-14.39-1.96-21.56-1.96-21.56l-11.19-2.49-11.79,2.62-.13,.18s-.54,9.3,2.19,13.23c2.72,3.93,16.55,9.36,10.09,20.67l11.59-3.14Z"/><path class="bd" d="M254.25,57.24c6.7-.6,7.95-9.23,7.95-9.23l-3.71,.41-12.01,1.88c.78,1.89,2.31,7.77,7.77,6.93Z"/><path class="b`" d="M240.48,169.6l-6.45,1.79s-2.36,5.12-5.91,9.84c0,0-2.41,.83-3.21,3.82l.65,1.3,18.87-9.41s-.24-3.73-2.66-5.26l-1.3-2.09Z"/><rect class="bn" x="224.92" y="181.54" width="21.09" height="2.05" transform="translate(527.64 240.91) rotate(153.51)"/><path class="b`" d="M257.74,204.45c2.6-3.93,4.26-7.5,4.26-7.5l6.44-1.79,1.31,2.09c2.42,1.53,2.66,5.26,2.66,5.26l-12.9,6.39-1.77-4.44Z"/><path class="b`" d="M250.9,208.68l.04-1.46c2.11-2.26,4.63-1.86,4.63-1.86,.89-.41,1.73-.85,2.55-1.3l1.39,4.82-8.61-.21Z"/><polygon class="bn" points="250.9 208.68 259.51 208.89 272.41 202.49 273.33 204.33 259.86 210.94 250.85 210.73 250.9 208.68"/><path class="bd" d="M268.44,195.15l-6.44,1.79s-.17-.59-1.55-4.81l10.26-3.22-2.27,6.24Z"/><path class="bd" d="M234.04,171.38s-1.75-4.36-3.47-8.79l9.67-1.01h0c0,4.75,.02,8.13,.02,8.13l-6.22,1.67Z"/><g><path class="bd" d="M246.75,41.11c.07,3.49,.04,8.22-.27,9.2,0,0,.59,6.64,7.35,4.84,2.99-.79,6.04-3.7,4.54-7.22-.64-1.49-1.9-3.96-3.36-8.38l-8.25,1.56Z"/><path class="bm" d="M246.55,49.94c7.21-4.63,8.35-8.75,8.43-10.39l-8.23,1.56c.06,3.19,.04,7.38-.2,8.84Z"/><path class="bd" d="M250.15,29.36c-5.5-.53-4.84,4.96-4.84,4.96,0,0-.11,5.14,1.84,7.57,.16,.2,.32,.38,.47,.54,1.61,1.69,4.22,1.67,5.81-.03,.16-.17,.32-.36,.48-.56,1.93-2.46,1.78-7.6,1.78-7.6,0,0-.04-5.49-5.54-4.88Z"/><path class="bl" d="M245.86,33.61s2.16,.87,5.03-.77c3.6-2.06,4.69,3.11,5.15,1.93,.94-2.43-4.77-7.72-4.77-7.72l-4.45,1.51s-2.29,3.27-.97,5.05Z"/></g><g><path class="bk" d="M249,36.64c0,.33,.12,.6,.27,.6s.27-.27,.27-.6-.12-.6-.27-.6-.27,.27-.27,.6Z"/><path class="bk" d="M246.55,36.64c0,.33,.12,.6,.27,.6s.27-.27,.27-.6-.12-.6-.27-.6-.27,.27-.27,.6Z"/><path class="bj" d="M248.44,34.43s.71-.65,1.3-.21c.58,.43,.28,.59,.19,.6-.09,0-1.11-.39-1.34-.03,0,0-.37,.08-.15-.35Z"/><path class="bj" d="M247.64,34.43s-.71-.65-1.3-.21c-.58,.43-.28,.59-.19,.6,.09,0,1.11-.39,1.34-.03,0,0,.37,.08,.15-.35Z"/><path class="bm" d="M249.51,39.8c1-.51,.94-1.31,.93-1.35,0-.08-.07-.13-.15-.13-.08,.01-.14,.07-.12,.15h0c0,.05,.04,.95-1.43,1.31-.08,.02-.12,.1-.1,.17,.02,.07,.09,.12,.17,.1,.28-.07,.51-.16,.7-.25Z"/></g><polygon class="bi" points="259.75 190.06 260.56 192.45 270.7 188.87 259.75 190.06"/><polygon class="bi" points="230.56 162.59 240.26 162.9 240.26 159.89 230.56 162.59"/><polygon class="bd" points="227.27 73.95 242.01 80.07 241.03 69.9 234.47 68 227.27 73.95"/><path class="bi" d="M239.44,69.44l-3-.87c-1.1,.17-2.43,.71-3.57,2.21l9.14,9.29-.87-8.98-1.7-1.65Z"/><path class="b`" d="M269.55,51.22l-1.75,17.37-17.87-4.69,8.46-16.4,8.06,.1c1.91,.02,3.36,1.72,3.1,3.61Z"/><g><path class="bf" d="M238.96,45.09c-3.61-2-7.66-1.67-11.69,.95-2.41,1.56-4.11,3.47-4.74,4.22-.63-.75-2.33-2.66-4.74-4.22-4.03-2.62-8.08-2.95-11.69-.95-3.2,1.77-4.47,6.1-3.31,11.31,1.74,7.81,11.94,18.47,19.73,21.82,7.8-3.35,17.99-14,19.73-21.82,1.16-5.2-.11-9.54-3.31-11.31Z"/><path class="ar" d="M222.54,50.26c-.63-.75-2.33-2.66-4.74-4.22-4.03-2.62-8.08-2.95-11.69-.95-3.2,1.77-4.47,6.1-3.31,11.31,1.74,7.81,11.94,18.47,19.73,21.82,3.3-1.42,7-4.17,10.33-7.44-13.24,1.2-18.27-4.87-19.37-12.92-1.11-8.06,9.04-7.6,9.04-7.6Z"/></g><g><path class="bd" d="M222.15,62.67s-5.3,1.84-5.85,.88c-.47-.83,4.28-3.26,4.28-3.26l1.57,2.39Z"/><path class="bd" d="M222.06,63.65s-5.71,1.79-5.89,1.42c-.66-1.4,5.32-3.11,5.32-3.11l.57,1.69Z"/><path class="bd" d="M223.36,64.56s-5.71,1.8-5.88,1.43c-.67-1.4,5.31-3.12,5.31-3.12l.57,1.69Z"/><path class="bd" d="M217.63,62.02s2.61-2.04,3.73-1.9c1.12,.14,3.53,.51,3.53,.51l2.56,2.19-.17,3.75-1.01,.15c-1.4,.2-2.82-.07-4.05-.76-.31-.17-.44-.24-.15-.06,.29,.18-1.79-1.04-1.79-1.04l-2.63-2.84Z"/><path class="bd" d="M228.99,63.06l.06,4.61,18.7,11.07c2.35,1.14,9.33,.52,10.57-4.46,.68-2.73-1.59-5.99-4.38-6.41-7.48-1.12-14.83-3.08-24.95-4.82Z"/><polygon class="bd" points="227.44 62.83 232.65 63.75 229.05 67.68 227.27 66.58 227.44 62.83"/><path class="bm" d="M221.68,63.12s-.02,.01-.02,.02l-3.36,1.72c-.06,.03-.13,0-.17-.05-.03-.06,0-.13,.05-.16l3.36-1.72c.06-.03,.13,0,.16,.05,.03,.05,.01,.11-.03,.15Z"/><path class="bm" d="M220.74,61.65h-.02l-3.3,2.04c-.06,.04-.13,.02-.17-.04-.03-.06-.01-.14,.04-.17l3.3-2.03c.06-.04,.13-.02,.17,.04,.03,.05,.02,.12-.02,.16Z"/><path class="bm" d="M223.44,64.65s-.03,.02-.04,.02l-2.4,.72c-.06,.02-.13-.02-.15-.08-.02-.07,.01-.13,.08-.15l2.4-.72c.06-.02,.13,.02,.15,.08,.01,.05,0,.1-.04,.13Z"/></g><polygon points="241.45 75.2 227.19 66.72 227.35 66.44 241.61 74.93 241.45 75.2"/><polygon points="279.02 298.11 214.97 143.73 215.26 143.61 279.31 297.99 279.02 298.11"/><polygon points="152.6 298.11 152.3 297.99 214.97 143.61 215.26 143.73 152.6 298.11"/><path class="bd" d="M252.25,64.78l-4.51,13.97s11.2,3.29,14.45-3.27c1.6-3.22,2.57-7.22,2.57-7.22l-12.5-3.48Z"/><path class="bm" d="M267.51,69.56c-.36,1.59-3.69,1.89-3.69,1.89l.93-3.09s2.92,.47,2.76,1.2Z"/><path class="bd" d="M209.32,70.74s5-2.55,4.68-3.61c-.27-.91-5.32,.82-5.32,.82l.63,2.79Z"/><path class="bd" d="M210.09,71.35s5.25-2.88,5.1-3.26c-.55-1.45-5.93,1.68-5.93,1.68l.83,1.58Z"/><path class="bd" d="M209.84,72.92s5.25-2.87,5.11-3.26c-.55-1.45-5.93,1.67-5.93,1.67l.82,1.59Z"/><path class="bd" d="M211.99,67.03s-3.28,.47-3.96,1.37-2.07,2.9-2.07,2.9l-.19,3.36,2.82,2.48,.81-.63c1.11-.87,1.9-2.08,2.26-3.45,.09-.34,.13-.49,.06-.15-.07,.34,.49-2.01,.49-2.01l-.23-3.87Z"/><path class="bm" d="M213.63,69.44s-.03,.03-.05,.04l-3.57,1.23c-.06,.02-.13-.01-.15-.08-.02-.06,.01-.13,.07-.15l3.57-1.23c.06-.02,.13,.01,.15,.08,.02,.04,0,.08-.02,.12Z"/><path class="bm" d="M213.4,67.99s-.04,.03-.06,.04l-3.75,.98c-.07,.02-.13-.02-.15-.09-.02-.07,.02-.13,.09-.15l3.75-.98c.06-.02,.13,.02,.15,.09,0,.04,0,.08-.02,.11Z"/><path class="bm" d="M212.12,71.76s-.02,.02-.03,.03l-2.18,1.23c-.06,.03-.13,.01-.17-.05-.03-.06-.01-.14,.05-.17l2.18-1.23c.06-.03,.13-.01,.17,.05,.02,.04,.02,.1-.01,.14Z"/><path class="bm" d="M244.46,112.2c.2,2.88,.17,3.63,.74,8.4l15.83-11.78c-5.55,1.1-16.49,3.41-16.56,3.39Z"/><polygon points="245.34 216.34 245.23 216.04 277.23 203.81 277.34 204.11 245.34 216.34"/><polygon points="222.37 216.34 190.38 204.11 190.49 203.81 222.49 216.04 222.37 216.34"/><polygon points="258.42 247.69 258.31 247.39 290.31 235.16 290.42 235.46 258.42 247.69"/><polygon points="209.89 247.69 177.89 235.46 178 235.16 210 247.39 209.89 247.69"/><polygon points="271.56 279.06 271.45 278.76 303.45 266.53 303.56 266.83 271.56 279.06"/><polygon points="196.91 279.48 164.91 267.26 165.02 266.96 197.02 279.19 196.91 279.48"/><polygon class="b`" points="138.43 46.31 125.7 52.25 125.7 59.04 131.64 59.04 131.64 52.25 138.43 52.25 138.43 46.31"/><polygon class="b`" points="214.98 92.02 209.24 94.69 209.24 97.75 211.91 97.75 211.91 94.69 214.98 94.69 214.98 92.02"/><polygon class="bd" points="289.01 35.29 283.27 37.96 283.27 41.02 285.94 41.02 285.94 37.96 289.01 37.96 289.01 35.29"/><path d="M131.79,59.2h-6.25v-6.8h-6.8v-6.25h6.8v-6.8h6.25v6.8h6.8v6.25h-6.8v6.8Zm-5.94-.32h5.62v-6.8h6.8v-5.62h-6.8v-6.8h-5.62v6.8h-6.8v5.62h6.8v6.8Z"/><path d="M211.99,97.91h-3.07v-3.15h-3.15v-3.06h3.15v-3.15h3.07v3.15h3.15v3.06h-3.15v3.15Zm-2.75-.32h2.43v-3.15h3.15v-2.43h-3.15v-3.15h-2.43v3.15h-3.15v2.43h3.15v3.15Z"/><path d="M286.16,41.18h-3.06v-3.15h-3.15v-3.07h3.15v-3.15h3.06v3.15h3.15v3.07h-3.15v3.15Zm-2.75-.32h2.43v-3.15h3.15v-2.43h-3.15v-3.15h-2.43v3.15h-3.15v2.43h3.15v3.15Z"/><polygon class="bd" points="105.13 103.58 99.39 106.25 99.39 109.31 102.07 109.31 102.07 106.25 105.13 106.25 105.13 103.58"/><path d="M102.28,109.47h-3.07v-3.15h-3.15v-3.07h3.15v-3.15h3.07v3.15h3.15v3.07h-3.15v3.15Zm-2.75-.32h2.43v-3.15h3.15v-2.44h-3.15v-3.15h-2.43v3.15h-3.15v2.44h3.15v3.15Z"/><polygon class="bd" points="305.15 234.1 299.41 236.77 299.41 239.83 302.09 239.83 302.09 236.77 305.15 236.77 305.15 234.1"/><path d="M302.3,239.99h-3.07v-3.15h-3.15v-3.07h3.15v-3.15h3.07v3.15h3.15v3.07h-3.15v3.15Zm-2.75-.32h2.43v-3.15h3.15v-2.43h-3.15v-3.15h-2.43v3.15h-3.15v2.43h3.15v3.15Z"/><polygon class="bd" points="51.68 268.35 45.94 271.03 45.94 274.09 48.62 274.09 48.62 271.03 51.68 271.03 51.68 268.35"/><path d="M48.83,274.25h-3.06v-3.15h-3.15v-3.07h3.15v-3.15h3.06v3.15h3.15v3.07h-3.15v3.15Zm-2.75-.32h2.43v-3.15h3.15v-2.43h-3.15v-3.15h-2.43v3.15h-3.15v2.43h3.15v3.15Z"/><g><path class="be" d="M164.17,103.4c-1.7,2.63-32.77-6.62-26.82-31.14,3.77-15.53,24.44,13.01,26.82,31.14Z"/><path class="ay" d="M140.79,67.69c-.9,8.18,18.85,33.44,22.54,34.43,.16,.3,.43,.54,.75,.75-2.13-13.99-14.45-34.12-23.29-35.18Z"/><path d="M164.15,103.11c-10.3-7.58-20.9-24.08-23.51-33.76l.3-.08c2.59,9.63,13.14,26.04,23.39,33.59l-.19,.25Z"/><path d="M144.5,78.7l-.25-.19c1.43-1.82,1.85-2.43,3-4.41l.27,.16c-1.14,1.97-1.59,2.63-3.02,4.44Z"/><path d="M147.98,84.71c-3.86-.61-7.64-1.67-11.23-3.13l.12-.29c3.56,1.46,7.32,2.51,11.16,3.12l-.05,.31Z"/><path d="M157.76,96.86l-.28-.15c1.21-2.15,2.31-4.39,3.25-6.66l.29,.12c-.95,2.28-2.05,4.53-3.26,6.69Z"/></g><path class="aq" d="M156.03,59.38c0,2-1.62,3.61-3.61,3.61s-3.61-1.62-3.61-3.61,1.62-3.61,3.61-3.61,3.61,1.62,3.61,3.61Z"/><path class="as" d="M151.02,66.76c0,1.41-1.14,2.55-2.55,2.55s-2.55-1.14-2.55-2.55,1.14-2.55,2.55-2.55,2.55,1.14,2.55,2.55Z"/><circle class="ai" cx="159.71" cy="60.91" r="1.81"/><path class="bm" d="M177.36,64.71s-9.78-1.31-12.31,3.26c0,0-3.22-8.57-.71-10.05,2.51-1.48,7.27-.98,9.88,1.69,2.61,2.67,3.15,5.1,3.15,5.1Z"/><path class="bc" d="M185.71,61.18c-.83-3.03-3.55-5.58-7.63-7.18-8.16-3.2-13.81,3.76-13.87,3.83-.04,.06-.05,.13,0,.19,.01,.01,.02,.02,.03,.03,.04,.03,.1,.04,.15,.03,.08-.03,7.74-2.77,11.71,4.9,1.9,3.68,6.55,7.8,6.6,7.84h0s.07,.04,.11,.04c.04,0,.08-.03,.11-.06,2.66-3.44,3.59-6.67,2.78-9.61Z"/><path class="bm" d="M164.24,58.05s-.02-.02-.03-.03c-.04-.06-.04-.14,0-.19,.06-.07,5.71-7.03,13.87-3.83,4.08,1.6,6.79,4.15,7.63,7.18,.81,2.94-.12,6.17-2.78,9.61-.03,.03-.07,.06-.11,.06-.04,0-.08-.01-.11-.04h0s-4.7-4.17-6.6-7.85c-3.97-7.67-11.63-4.93-11.71-4.9-.05,.02-.11,0-.15-.03Zm17.9-1.42c-1.15-.91-2.55-1.7-4.17-2.34-6.78-2.66-11.79,1.89-13.14,3.32,1.87-.48,8.09-1.49,11.56,5.21,1.7,3.29,5.64,6.95,6.4,7.64,2.51-3.3,3.4-6.4,2.62-9.2-.48-1.74-1.6-3.31-3.27-4.64Z"/><path class="bm" d="M189.39,73.07s4.67,2.85,4.16,5.7c0,0,4.37-2.56,3.81-4.08-.56-1.51-2.79-2.96-4.84-2.72-2.05,.24-3.13,1.1-3.13,1.1Z"/><path class="bc" d="M192.82,68.21c-2.32-.73-4.37-.58-5.79,.43-1.37,.98-2.1,2.7-2.16,5.11,0,.02,0,.05,.02,.06,.02,.02,.04,.02,.06,.02h0s3.47-.15,5.58-1.07c4.39-1.92,6.72,1.94,6.75,1.98,.02,.03,.04,.04,.08,.04,0,0,.02,0,.02,0,.04-.01,.06-.04,.06-.08,0-.05,0-5.02-4.63-6.49Z"/><path d="M197.37,74.94c-.09,0-.17-.05-.21-.12-.09-.15-2.38-3.74-6.54-1.91-2.09,.92-5.49,1.08-5.63,1.08h0c-.07,0-.13-.02-.18-.06-.06-.06-.08-.12-.08-.19,.06-2.46,.8-4.22,2.22-5.24,1.46-1.04,3.56-1.2,5.93-.45h0c4.69,1.49,4.74,6.43,4.74,6.64,0,.12-.08,.21-.18,.24h-.07Zm.06-.28h0Zm-4.52-2.58c2.45,0,3.94,1.77,4.39,2.38-.06-.99-.55-4.84-4.52-6.09h0c-2.26-.71-4.27-.57-5.65,.41-1.32,.94-2.02,2.59-2.09,4.91,.52-.03,3.55-.22,5.44-1.06,.89-.39,1.7-.54,2.42-.54Z"/><path class="bm" d="M205.37,85.01s5.38-.99,6.9,1.48c0,0,1.55-4.83,.12-5.58s-4.05-.35-5.42,1.2c-1.37,1.55-1.6,2.91-1.6,2.91Z"/><path class="bc" d="M204.68,79.1c-2.22,1-3.65,2.48-4.03,4.18-.37,1.65,.23,3.41,1.8,5.25,.02,.02,.04,.03,.06,.03,.02,0,.05,0,.06-.02h0s2.49-2.43,3.44-4.52c1.99-4.35,6.31-3.04,6.35-3.02,.03,0,.06,0,.08-.02,0,0,.01-.01,.02-.02,.02-.03,.02-.08,0-.11-.03-.04-3.34-3.74-7.78-1.75Z"/><path d="M202.51,88.71c-.07,0-.13-.03-.17-.08-1.61-1.88-2.22-3.69-1.84-5.39,.39-1.75,1.85-3.27,4.12-4.29h0c4.46-2,7.82,1.63,7.96,1.78,.07,.09,.08,.2,.03,.29l-.07,.07s-.12,.06-.22,.04c-.17-.05-4.26-1.21-6.16,2.94-.97,2.11-3.45,4.54-3.48,4.57-.05,.05-.11,.07-.18,.07Zm2.24-9.47c-2.17,.98-3.57,2.42-3.94,4.07-.36,1.58,.22,3.28,1.71,5.05,.36-.36,2.49-2.53,3.35-4.42,1.77-3.84,5.33-3.38,6.3-3.17-.73-.71-3.66-3.21-7.42-1.53h0Z"/><path class="bm" d="M196.04,94.55s-4.31,3.36-3.48,6.14c0,0-4.64-2.04-4.26-3.61,.38-1.57,2.43-3.26,4.49-3.26,2.07,0,3.24,.73,3.24,.73Z"/><path class="bc" d="M192.08,90.11c2.22-1,4.28-1.08,5.8-.24,1.48,.82,2.4,2.44,2.73,4.83,0,.02,0,.05-.02,.07-.02,.02-.04,.03-.06,.03h0s-3.47,.25-5.66-.42c-4.58-1.4-6.46,2.7-6.48,2.74-.01,.03-.04,.05-.07,.05,0,0-.02,0-.02,0-.04,0-.07-.04-.07-.08,0-.05-.58-4.98,3.86-6.98Z"/><path d="M188.3,97.32c-.14-.02-.22-.11-.23-.22,0-.04-.58-5.1,3.95-7.13h0c2.26-1.02,4.37-1.1,5.94-.24,1.53,.84,2.47,2.51,2.81,4.94,0,.07,0,.13-.05,.19-.04,.04-.08,.07-.13,.09h-.05c-.37,.03-3.62,.22-5.72-.42-4.37-1.34-6.21,2.49-6.28,2.66-.05,.09-.12,.13-.2,.14h-.04Zm.09-.26h0Zm3.76-6.81c-3.74,1.68-3.83,5.55-3.78,6.57,.48-.86,2.48-3.84,6.55-2.6,1.95,.6,4.95,.46,5.53,.42-.33-2.29-1.22-3.85-2.64-4.63-1.48-.82-3.49-.73-5.66,.24h0Zm8.37,4.38h0Z"/><path d="M162.69,86.25c-.63-13.4-10.3-26.65-10.4-26.78l.25-.19c.1,.13,9.83,13.45,10.46,26.95l-.32,.02Z"/><path d="M160.01,74.09c-1.21-3.71-11.71-6.9-11.82-6.93l.09-.3c.44,.13,10.77,3.27,12.03,7.13l-.3,.1Z"/><rect x="154.8" y="64.3" width="7.74" height=".31" transform="translate(54.35 200.28) rotate(-74.59)"/><path d="M252.67,69.92c-.24-1.72-1.31-2.29-1.36-2.31l.14-.28c.05,.03,1.27,.66,1.53,2.55l-.32,.04Z"/><path d="M268.07,67.49l-.32-.03c-.24-.7-9.02-2.97-17.17-4.73l.07-.31s4.4,.96,8.69,2.03c8.81,2.2,8.75,2.77,8.72,3.04Z"/><path d="M181.75,86.28l-.31-.07c2.52-11.09,1.95-19.59-1.68-25.27-3.02-4.72-7.15-5.64-7.19-5.65l.07-.31s4.29,.95,7.38,5.78c3.69,5.75,4.27,14.34,1.73,25.52Z"/><path d="M183.2,76.58l-.29-.12c2.72-6.39,11.1-6.15,11.18-6.15v.32c-.1,0-8.26-.23-10.89,5.96Z"/><path class="bm" d="M156.52,81.24s-4.67,2.85-4.16,5.7c0,0-4.37-2.56-3.81-4.08,.56-1.51,2.79-2.96,4.84-2.72,2.05,.24,3.13,1.1,3.13,1.1Z"/><path class="bc" d="M153.09,76.38c2.32-.73,4.37-.58,5.79,.43,1.37,.98,2.1,2.7,2.16,5.11,0,.02,0,.05-.02,.06-.02,.02-.04,.02-.06,.02h0s-3.47-.15-5.58-1.07c-4.39-1.92-6.72,1.94-6.75,1.98-.02,.03-.04,.04-.07,.04,0,0-.02,0-.02,0-.04-.01-.06-.04-.06-.08,0-.05,0-5.02,4.63-6.49Z"/><path d="M148.55,83.11h-.05c-.12-.04-.2-.14-.2-.24,0-.21,.05-5.15,4.74-6.64h0c2.36-.75,4.47-.59,5.93,.45,1.42,1.01,2.17,2.77,2.22,5.23,0,.07-.02,.13-.07,.18-.04,.04-.11,.07-.17,.07-.03,0-3.51-.15-5.64-1.08-4.28-1.88-6.53,1.87-6.54,1.91-.06,.08-.13,.12-.21,.12Zm4.59-6.58c-3.94,1.25-4.45,5.07-4.51,6.09,.56-.79,2.87-3.54,6.81-1.83,1.91,.84,4.93,1.03,5.44,1.05-.06-2.31-.77-3.96-2.09-4.91-1.37-.98-3.38-1.13-5.65-.41h0Z"/><path d="M162.72,84.75c-2.64-6.19-10.8-5.95-10.88-5.96v-.32c.07,0,8.45-.24,11.17,6.15l-.29,.12Z"/><path class="be" d="M138.43,86.86s0-12.93-15.51-12.83c-6.14,.04-8.26,5.23-6.19,8.32,2.06,3.1,8.91,3.14,8.91,3.14l12.79,1.36Z"/><path class="ay" d="M138.43,86.86c-3.27-6.09-17.77-7.77-22.32-8.15-.28,1.27-.1,2.58,.61,3.65,2.06,3.1,8.91,3.14,8.91,3.14l12.79,1.36Z"/><path d="M138.3,86.94c-3.73-6.04-19.26-7.78-19.41-7.79l.03-.32c.65,.07,15.84,1.77,19.65,7.94l-.27,.17Z"/><polygon points="124.9 80.37 122.71 75.26 123 75.14 125.19 80.25 124.9 80.37"/><polygon points="126.24 83.73 126.11 83.44 130.38 81.51 130.51 81.8 126.24 83.73"/><polygon points="133.77 83.2 131.81 78.45 132.1 78.33 134.06 83.08 133.77 83.2"/><path d="M183.19,54.72l-.32-.02c.18-2.39-.88-8.04-.88-8.1l.31-.06c.04,.23,1.07,5.76,.89,8.19Z"/><path d="M188.82,47.89l-.3-.08c1.22-4.46-.71-8.73-.73-8.77l.28-.13s2,4.41,.75,8.99Z"/><path d="M184.8,52.55l-.21-.24c3.18-2.89,10.98-3.19,11.31-3.2v.32c-.07,0-8.01,.31-11.1,3.12Z"/><path class="ah" d="M183.26,184.12s-13.88,37.94-55.3,48.27l2.09-21.73s32.57,4.68,53.21-26.55Z"/><path class="bc" d="M124.01,272.02c.95,1.6,.24-41.83-29.56-43.96-29.39,1.82-.57,53.43,9.9,69.99h16.84c1.26-6.94,2.09-18.65,2.83-26.04Z"/><path class="be" d="M112.18,278.3l-5.57-17.94s-8.85-14.65-16.49-8.33c-3.52,2.91-2.24,12.02,.04,19.07l18.24,1.12-15.99,4.52c3.61,7.34,7.46,14.04,10.4,18.86l3.79-.57,10.33-5.68-4.77-11.06Z"/><rect x="109.61" y="272.06" width="16.94" height=".32" transform="translate(-159.35 166.97) rotate(-45.77)"/><path d="M114.7,298.05h-.32c0-34.29-24.14-68.81-24.38-69.15l.26-.19c.24,.35,24.44,34.94,24.44,69.34Z"/><path class="be" d="M91.49,277.74c1.14,.43-17-21.44-33.08-10.33-14.25,12.96,21.58,27.5,33.7,31.67l8.59-6.89c-2.2-4.06-6.57-10.37-9.22-14.44Z"/><path class="ay" d="M88.02,285.79l-10.19-6.88s-10.51-3.85-11.82,2.5c-.6,2.93,3.78,7.05,7.83,9.71l9.77-6.89-6.31,8.85c4.85,2.27,9.55,4.11,13.03,5.36l1.7-1.84,2.95-7.13-6.96-3.69Z"/><path d="M97.19,295.01c-14.03-17.48-40.46-25.21-40.73-25.29l.09-.3c.27,.07,26.79,7.83,40.89,25.4l-.25,.2Z"/><polygon points="75.2 277.57 72.04 264.72 72.35 264.64 75.51 277.5 75.2 277.57"/><polygon points="67.84 288.2 67.69 287.93 80.68 280.54 80.83 280.82 67.84 288.2"/><path class="ak" d="M163.72,241.38c-2-.02-3.63,1.58-3.65,3.57-.02,2,1.58,3.63,3.57,3.65,2,.02,3.63-1.58,3.65-3.57,.02-2-1.58-3.63-3.57-3.65Z"/><path class="al" d="M152.87,245.65c-1.5-.02-2.73,1.19-2.75,2.69-.02,1.5,1.19,2.73,2.69,2.75,1.5,.02,2.73-1.19,2.75-2.69,.02-1.5-1.19-2.73-2.69-2.75Z"/><path class="aj" d="M156.88,260.27c-1.5-.02-2.73,1.19-2.75,2.69-.02,1.5,1.19,2.73,2.69,2.75,1.5,.02,2.73-1.19,2.75-2.69,.02-1.5-1.19-2.73-2.69-2.75Z"/><path class="ab" d="M162.56,254.06c-1.06-.01-1.93,.84-1.94,1.9-.01,1.06,.84,1.93,1.9,1.94,1.06,.01,1.93-.84,1.94-1.9,.01-1.06-.84-1.93-1.9-1.94Z"/><path d="M156.8,263.14s-4.42-1.45-6.89-1.45c-.12,0-.23,0-.34,0l-.02-.32c.11,0,.24-.01,.36-.01,2.52,0,6.8,1.4,6.99,1.47l-.1,.3Z"/><path d="M162.99,256.12s-3.9-2.09-8.37-.92l-.08-.31c4.59-1.2,8.56,.93,8.6,.95l-.15,.28Z"/><path d="M152.12,258.42l-.25-.19c1.57-2.07,.83-10.24,.82-10.32l.32-.03c.03,.34,.76,8.38-.88,10.54Z"/><path d="M130.89,297.79l-.3-.08c3.51-13.1,12.25-26.98,18.96-36.32,7.27-10.11,13.79-17.23,13.86-17.3l.24,.22c-.06,.07-6.58,7.17-13.84,17.27-6.7,9.32-15.41,23.16-18.91,36.21Z"/><g><path class="bm" d="M125.82,261.61s9.28,3.34,9.43,8.57c0,0,6.8-6.12,5.26-8.59-1.54-2.47-6-4.22-9.54-3.05s-5.14,3.08-5.14,3.08Z"/><path class="bc" d="M120.03,254.64c2.14-2.3,5.72-3.32,10.08-2.86,8.72,.92,10.53,9.7,10.55,9.78,.01,.07-.02,.14-.08,.17-.01,0-.03,0-.04,.01-.05,.01-.11,0-.15-.05-.06-.06-5.59-6.03-12.65-1.04-3.38,2.39-9.41,3.91-9.47,3.92h0s-.08,0-.12-.02c-.04-.02-.06-.06-.07-.11-.78-4.28-.12-7.58,1.96-9.81Z"/><path class="bm" d="M140.39,261.69c-.06-.06-5.59-6.03-12.65-1.04-3.38,2.39-9.41,3.91-9.47,3.92h0s-.08,0-.12-.02c-.04-.02-.06-.06-.07-.11-.78-4.28-.12-7.58,1.96-9.81,2.14-2.3,5.72-3.32,10.08-2.86,8.72,.92,10.53,9.7,10.55,9.78,.01,.07-.02,.14-.08,.17-.01,0-.03,0-.04,.01-.05,.01-.11,0-.15-.05Zm-20.12-6.84c-1.97,2.13-2.62,5.28-1.91,9.37,.99-.26,6.18-1.7,9.2-3.83,6.16-4.36,11.22-.6,12.66,.69-.54-1.89-2.89-8.24-10.14-9-1.73-.18-3.34-.13-4.78,.15-2.09,.41-3.81,1.29-5.04,2.61Z"/><path d="M112.3,278.82l-.31-.08c2.9-11.09,7.37-18.45,13.29-21.86,4.96-2.86,9.17-1.74,9.21-1.73l-.09,.3s-4.13-1.1-8.98,1.7c-5.84,3.37-10.26,10.65-13.13,21.65Z"/></g><path class="b`" d="M86.93,298.05s4.69-24.09,38.43-25.26c33.74-1.16,47.5,25.26,47.5,25.26H86.93Z"/><path class="bg" d="M165.98,298.05s-12.73-17.98-18.75-16.26c-6.02,1.72,.54,9.03-3.1,10.15-3.63,1.12-12.56-11.86-18.75-6.53-6.19,5.33-5.16,8.94-23.04,4.46-12.11-3.04-12.21,8.19-12.21,8.19h75.85Z"/><polygon points="105.12 256.4 104.84 256.26 113.36 237.92 113.65 238.05 105.12 256.4"/><polygon points="108.39 265.41 85.83 261.78 85.88 261.47 108.44 265.09 108.39 265.41"/><path class="bc" d="M255.21,298.05c4.42-5.58,3.32-19.02,0-22.63-3.32-3.61,1.08-9.98,1.08-16s-6.02-10.49-11.01-13.59c-1.78-1.11-2.86-2.76-3.51-4.44-2.29-5.89-5.98-11.18-11.34-14.54-4.43-2.77-8.78-4.03-9.57,.91-1.72,10.67,4.11,15.48,9.1,20.99,5,5.5,6.03,5.85,7.41,13.42,1.38,7.57,1.17,9.46,4.2,9.63s8.02,3.81,6.99,10.84,1.55,15.4,1.55,15.4"/><path d="M252.99,298.07l-.32-.03c1.85-19.1-4.45-35.1-10.06-45.17-6.09-10.91-12.69-17.38-12.76-17.44l.22-.23c.07,.07,6.7,6.56,12.81,17.51,5.64,10.1,11.97,26.17,10.11,45.36Z"/><path d="M255.33,298.15l-.25-.2c4.39-5.54,3.24-18.9,0-22.42-2.11-2.3-1.18-5.68-.2-9.27,.61-2.24,1.25-4.56,1.25-6.84,0-5.91-5.84-10.29-10.93-13.46-1.59-.99-2.79-2.51-3.58-4.51-2.49-6.4-6.39-11.4-11.27-14.46-3.42-2.13-5.95-2.86-7.52-2.15-.96,.43-1.57,1.43-1.81,2.95-1.54,9.5,2.86,14.21,7.52,19.19,.52,.55,1.03,1.1,1.54,1.67,.56,.62,1.07,1.17,1.54,1.67,3.68,3.99,4.68,5.06,5.91,11.83,.21,1.13,.38,2.14,.53,3.03,.87,5.12,1.07,6.33,3.52,6.47,1.75,.1,3.78,1.26,5.16,2.95,1.22,1.49,2.55,4.11,1.97,8.07-1.01,6.91,1.52,15.25,1.54,15.33l-.3,.09c-.02-.08-2.58-8.49-1.56-15.47,.57-3.85-.72-6.38-1.9-7.82-1.62-1.98-3.67-2.76-4.94-2.83-2.7-.15-2.96-1.68-3.82-6.73-.15-.89-.32-1.9-.53-3.03-1.22-6.67-2.1-7.63-5.83-11.66-.47-.5-.98-1.06-1.54-1.68-.51-.56-1.02-1.11-1.54-1.66-4.5-4.82-9.16-9.8-7.6-19.45,.27-1.64,.94-2.71,2-3.19,1.68-.76,4.3-.03,7.82,2.17,4.94,3.09,8.89,8.14,11.4,14.61,.76,1.94,1.92,3.41,3.45,4.37,5.16,3.2,11.08,7.66,11.08,13.72,0,2.32-.64,4.66-1.26,6.92-1,3.65-1.86,6.8,.13,8.97,3.29,3.59,4.47,17.19,0,22.84Z"/><polygon points="248.66 265.39 248.36 265.3 252.04 253.66 252.34 253.75 248.66 265.39"/><polygon points="236.19 242.88 227.78 240.83 227.86 240.52 236.27 242.57 236.19 242.88"/><path d="M247.91,298.21h-31.01l-.04-.11c-.59-1.8-.87-3.45-.87-5.05,0-9.05,7.36-16.41,16.42-16.41s16.41,7.36,16.41,16.41c0,1.59-.28,3.24-.87,5.05l-.04,.11Zm-30.79-.32h30.56c.55-1.73,.82-3.32,.82-4.84,0-8.88-7.22-16.1-16.1-16.1s-16.1,7.22-16.1,16.1c0,1.53,.27,3.11,.82,4.84Z"/><path d="M139.74,298.21h-31.01l-.04-.11c-.58-1.81-.87-3.46-.87-5.05,0-9.05,7.36-16.41,16.41-16.41s16.41,7.36,16.41,16.41c0,1.59-.28,3.24-.87,5.05l-.04,.11Zm-30.79-.32h30.56c.55-1.73,.82-3.32,.82-4.84,0-8.88-7.22-16.1-16.1-16.1s-16.1,7.22-16.1,16.1c0,1.52,.27,3.11,.82,4.84Z"/><path d="M202.57,103.86c-3.06-15.28,3.01-24.04,3.07-24.13l.26,.18c-.06,.09-6.05,8.75-3.02,23.88l-.31,.06Z"/><path d="M201.7,96.83c-1.49-4.8-6.2-4.84-6.27-4.84h0v-.32h0c.08,0,5.02,.05,6.57,5.06l-.3,.09Z"/><polygon class="bc" points="274.65 262.04 268.6 251.56 268.87 251.4 274.93 261.88 274.65 262.04"/><polygon class="bc" points="266.69 279.5 259.78 263.37 260.07 263.24 266.98 279.38 266.69 279.5"/><polygon class="aa" points="109.78 161.85 116.77 161.85 109.18 171.38 109.78 161.85"/><polygon class="bi" points="212.85 168.3 196.53 124.61 196.82 124.5 213.15 168.19 212.85 168.3"/><path class="ac" d="M52.79,234.33c1.95-.4,3.86,.86,4.26,2.82,.4,1.95-.86,3.86-2.82,4.26-1.95,.4-3.86-.86-4.26-2.82-.4-1.95,.86-3.86,2.82-4.26Z"/><path class="av" d="M64.24,236.46c1.47-.3,2.91,.65,3.21,2.12,.3,1.47-.65,2.91-2.12,3.21-1.47,.3-2.91-.65-3.21-2.12-.3-1.47,.65-2.91,2.12-3.21Z"/><path class="au" d="M63.07,251.57c1.47-.3,2.91,.65,3.21,2.12,.3,1.47-.65,2.91-2.12,3.21-1.47,.3-2.91-.65-3.21-2.12-.3-1.47,.65-2.91,2.12-3.21Z"/><path class="aw" d="M56.32,246.55c1.04-.21,2.05,.46,2.27,1.5,.21,1.04-.46,2.05-1.5,2.27-1.04,.21-2.05-.46-2.27-1.5-.21-1.04,.46-2.05,1.5-2.27Z"/><path d="M63.7,254.37l-.15-.28c.18-.1,4.52-2.51,6.94-2.82l.04,.32c-2.36,.3-6.78,2.76-6.83,2.78Z"/><path d="M56.29,248.67l-.2-.24s3.18-2.59,7.55-2.59c.24,0,.47,0,.71,.02l-.02,.32c-.24-.02-.47-.02-.7-.02-4.25,0-7.31,2.49-7.34,2.52Z"/><path d="M67.4,248.86c-2.02-1.82-2.83-9.85-2.87-10.19l.32-.03c0,.08,.83,8.25,2.76,9.98l-.21,.24Z"/><path d="M95.71,283.49c-5.91-12.15-17.09-24.09-25.44-31.97-9.04-8.54-16.78-14.28-16.86-14.33l.19-.25c.08,.06,7.83,5.8,16.89,14.36,8.36,7.9,19.57,19.87,25.5,32.07l-.28,.14Z"/><g><path class="bm" d="M224.95,276.68s-9.78-1.31-12.31,3.26c0,0-3.22-8.57-.71-10.05,2.51-1.48,7.27-.98,9.88,1.69,2.61,2.67,3.15,5.1,3.15,5.1Z"/><path class="bc" d="M233.3,273.15c-.83-3.03-3.55-5.58-7.63-7.18-8.16-3.2-13.81,3.76-13.87,3.83-.04,.06-.05,.13,0,.19,.01,.01,.02,.02,.03,.03,.04,.03,.1,.04,.15,.03,.08-.03,7.74-2.77,11.71,4.9,1.9,3.68,6.55,7.8,6.6,7.84h0s.07,.04,.11,.04c.04,0,.08-.03,.11-.06,2.66-3.44,3.59-6.67,2.78-9.61Z"/><path class="bm" d="M211.83,270.02s-.02-.02-.03-.03c-.04-.06-.04-.14,0-.19,.06-.07,5.71-7.03,13.87-3.83,4.08,1.6,6.79,4.15,7.63,7.18,.81,2.94-.12,6.17-2.78,9.61-.03,.03-.07,.06-.11,.06-.04,0-.08-.01-.11-.04h0s-4.7-4.17-6.6-7.85c-3.97-7.67-11.63-4.93-11.71-4.9-.05,.02-.11,0-.15-.03Zm17.9-1.42c-1.15-.91-2.55-1.7-4.17-2.34-6.78-2.66-11.79,1.89-13.14,3.32,1.87-.48,8.09-1.49,11.56,5.21,1.7,3.29,5.64,6.95,6.4,7.64,2.51-3.3,3.4-6.4,2.62-9.2-.48-1.74-1.6-3.31-3.27-4.64Z"/><path d="M229.34,298.25l-.31-.07c2.52-11.09,1.95-19.59-1.69-25.27-3.02-4.72-7.14-5.64-7.19-5.65l.07-.31s4.29,.95,7.38,5.77c3.69,5.75,4.27,14.34,1.74,25.52Z"/></g><path class="ax" d="M200.72,114.7s7.53-13.51,11.76-8.99c4.23,4.52,2.6,10.89-1.55,10.89s-6.79,17.08-6.79,17.08c0,0,3.17-14.1-3.42-18.98Z"/><rect class="b`" x="253.93" y="116.39" width=".23" height="72.71" transform="translate(-14.23 26.65) rotate(-5.84)"/></g><path class="bd" d="M115.43,89.3c0,2.84-2.31,5.15-5.15,5.15s-5.15-2.31-5.15-5.15,2.31-5.15,5.15-5.15,5.15,2.31,5.15,5.15Z"/><path d="M106.66,92.25c-2.93,0-5.31-2.38-5.31-5.31s2.38-5.31,5.31-5.31,5.31,2.38,5.31,5.31-2.38,5.31-5.31,5.31Zm0-10.3c-2.75,0-4.99,2.24-4.99,4.99s2.24,4.99,4.99,4.99,4.99-2.24,4.99-4.99-2.24-4.99-4.99-4.99Z"/><path class="bd" d="M123.1,226.3c0,1.57-1.27,2.84-2.84,2.84s-2.84-1.27-2.84-2.84,1.27-2.84,2.84-2.84,2.84,1.27,2.84,2.84Z"/><path d="M119.03,228.65c-1.65,0-3-1.35-3-3s1.35-3,3-3,3,1.34,3,3-1.34,3-3,3Zm0-5.68c-1.48,0-2.68,1.2-2.68,2.68s1.2,2.68,2.68,2.68,2.68-1.2,2.68-2.68-1.2-2.68-2.68-2.68Z"/><path class="bd" d="M240.49,214.5c0,1.57-1.27,2.84-2.84,2.84s-2.84-1.27-2.84-2.84,1.27-2.84,2.84-2.84,2.84,1.27,2.84,2.84Z"/><path d="M236.42,216.18c-1.65,0-3-1.35-3-3s1.34-3,3-3,3,1.35,3,3-1.35,3-3,3Zm0-5.68c-1.48,0-2.68,1.2-2.68,2.68s1.2,2.68,2.68,2.68,2.68-1.2,2.68-2.68-1.2-2.68-2.68-2.68Z"/><path class="bd" d="M47.3,284.08c0,1.57-1.27,2.84-2.84,2.84s-2.84-1.27-2.84-2.84,1.27-2.84,2.84-2.84,2.84,1.27,2.84,2.84Z"/><path d="M43.23,285.77c-1.65,0-3-1.34-3-2.99s1.34-3,3-3,3,1.35,3,3-1.35,2.99-3,2.99Zm0-5.68c-1.48,0-2.68,1.2-2.68,2.68s1.2,2.68,2.68,2.68,2.68-1.2,2.68-2.68-1.2-2.68-2.68-2.68Z"/><circle class="bb" cx="291.43" cy="159.89" r="11.6" transform="translate(-39 123.7) rotate(-22.5)"/></g><path class="bl" d="M255.65,35.82s-1.59,1.46-1.55,2.62,2.65,5.84,2.65,5.84l-1.1-8.46Z"/></g></g></svg>