<svg xmlns="http://www.w3.org/2000/svg" viewBox="0 0 671.19 452.21"><defs><style>.cls-1{fill:#e8505b;}.cls-2{fill:#ebebeb;}.cls-3,.cls-6{fill:#fff;}.cls-4{fill:#f5f5f5;}.cls-5{fill:#e0e0e0;}.cls-6{fill-rule:evenodd;}.cls-7{fill:#455a64;}.cls-8{fill:#ffbe9d;}.cls-9{opacity:0.4;}.cls-10{opacity:0.5;}.cls-11{opacity:0.6;}.cls-12{fill:#eb996e;}</style></defs><title>topstuff</title><g id="Layer_2" data-name="Layer 2"><g id="Music_Notes" data-name="Music Notes"><path class="cls-1" d="M217.13,241.58h0a40.63,40.63,0,0,1-39.51-41.72h0a40.62,40.62,0,0,1,41.71-39.51h0a40.62,40.62,0,0,1,39.52,41.71h0A40.65,40.65,0,0,1,217.13,241.58Z"/><path class="cls-2" d="M170.7,122.65h0a34.25,34.25,0,0,1-34.25-34.26h0A34.25,34.25,0,0,1,170.7,54.13h0A34.26,34.26,0,0,1,205,88.39h0A34.26,34.26,0,0,1,170.7,122.65Z"/><rect class="cls-3" x="155.17" y="80.76" width="7.09" height="22.91"/><path class="cls-3" d="M158.68,77.76a4.23,4.23,0,1,0-4.19-4.23A4.21,4.21,0,0,0,158.68,77.76Z"/><path class="cls-3" d="M173.59,91.64c0-3.22,1.49-5.14,4.32-5.14,2.61,0,3.86,1.84,3.86,5.14v12h7.06V89.16c0-6.14-3.48-9.1-8.33-9.1a8,8,0,0,0-6.91,3.78V80.76h-6.8v22.9h6.8Z"/><polygon class="cls-4" points="218.23 0 222.92 8.58 231.5 13.27 222.92 17.96 218.23 26.54 213.54 17.96 204.96 13.27 213.54 8.58 218.23 0"/><polygon class="cls-2" points="577.02 252.55 580.53 258.99 586.97 262.51 580.53 266.02 577.02 272.46 573.5 266.02 567.06 262.51 573.5 258.99 577.02 252.55"/><polygon class="cls-5" points="586.97 220.79 588.55 223.69 591.46 225.28 588.55 226.87 586.97 229.77 585.38 226.87 582.48 225.28 585.38 223.69 586.97 220.79"/><polygon class="cls-5" points="183.11 23.39 184.7 26.3 187.6 27.88 184.7 29.47 183.11 32.37 181.52 29.47 178.62 27.88 181.52 26.3 183.11 23.39"/><path class="cls-5" d="M142,259.89a10.35,10.35,0,0,0,6.05-9.67c-.05-5.73-4.44-10.34-9.82-10.29s-9.68,4.72-9.63,10.45a10.37,10.37,0,0,0,6.32,9.61c-14.93,2.44-14.05,18.7-14.05,18.7l35.4-.29S156.81,261.94,142,259.89Z"/><path class="cls-2" d="M607.78,400.22a5.51,5.51,0,0,0-10.86.32,5.51,5.51,0,0,0-10.87-.22,7.44,7.44,0,0,0,1.33,5.36,22.26,22.26,0,0,0,3.89,4.11c2,1.76,3.8,3.41,5.78,5.17,2-1.78,3.63-3.45,5.59-5.22a21.86,21.86,0,0,0,3.85-4.14A7.39,7.39,0,0,0,607.78,400.22Z"/><path class="cls-5" d="M630.83,189.43l3.8-.75,6-13.18-1.51-7.57s5.79-1.52,7.07,8.53,1.52,7.38,1.52,7.38,12.46-2.42,13.71-1.55c.91.64,3.7,12.94,5.16,19.62a7.4,7.4,0,0,1-3.7,8.33,5.73,5.73,0,0,1-1.3.45c-3.1.61-19.47,1.23-19.47,1.23l-6.55,1.3Z"/><polygon class="cls-5" points="619.56 189.51 627.04 214.99 633.54 213.7 628.5 188.28 619.56 189.51"/><path class="cls-1" d="M491.63,144.66h0a40.64,40.64,0,0,1-54.31-18.77h0a40.64,40.64,0,0,1,18.77-54.31h0A40.64,40.64,0,0,1,510.4,90.35h0A40.63,40.63,0,0,1,491.63,144.66Z"/><path class="cls-3" d="M463.82,117.2a1,1,0,0,0,.94-1.23c-.09-.49-.36-1.73-.46-2.24-.14-.71-.31-.9-1-1.22a8,8,0,0,1-4-4.09c-3.06-6.3-1.09-14.23,6.47-17.9,6.69-3.26,12.36-1,15,4.5,3.49,7.19,3.26,14.8-1.46,17.1a4.29,4.29,0,0,1-6.27-2.89c-.79-3.52-1-7.63-2.1-9.91-1-2-2.92-3.21-5.18-2.11-2.67,1.3-3.47,5.1-1.67,8.79a10.68,10.68,0,0,0,2.71,3.56s2.89,12.88,3.4,15.14c1,4.49,4.22,9,4.53,9.51a.37.37,0,0,0,.66-.15c.09-.44,1.36-5.9.54-10.34-.24-1.26-1.58-7.71-1.58-7.71,1.67,1.23,4.91,1.46,7.6.15,8-3.9,9.89-13.85,5.14-23.63-3.6-7.39-13.21-11.23-22.73-6.6-11.84,5.76-13.68,17.15-10.24,24.23C456.17,114.45,459.65,117.48,463.82,117.2Z"/><path class="cls-1" d="M633.16,294h0A28,28,0,0,1,617,257.86h0a28,28,0,0,1,36.18-16.18h0a28,28,0,0,1,16.18,36.18h0A28,28,0,0,1,633.16,294Z"/><path class="cls-6" d="M657.79,272.62a15.1,15.1,0,0,0-28.08-11c-.08.21-.17.41-.24.61a14.83,14.83,0,0,0-.75,8l-5.4,6.54,8.75.5A15.12,15.12,0,0,0,657.66,273C657.71,272.86,657.75,272.74,657.79,272.62Zm-18.72,6.73a12.63,12.63,0,0,1-5.78-4.44l-5.11-.29,3.15-3.8a12.47,12.47,0,0,1,.38-7.76c.15-.38.31-.76.49-1.12a12.7,12.7,0,0,1,23.53,9.25c-.09.31-.2.62-.31.93A12.65,12.65,0,0,1,639.07,279.35Z"/><path class="cls-6" d="M648.94,272.88c-.28-.3-1.66-1.78-1.93-2s-.48-.39-.85-.13-1.32.77-1.6.92-.5.1-.79-.2a9.92,9.92,0,0,1-2.13-2.77,10.85,10.85,0,0,1-1-3.1c-.07-.42.18-.53.42-.64s.49-.27.75-.4l.19-.12a3.4,3.4,0,0,0,.37-.33.64.64,0,0,0,.2-.61c0-.2-.06-2.15-.09-2.95s-.36-.79-.56-.87-.42-.19-.65-.28a1.37,1.37,0,0,0-1.09.07,4.13,4.13,0,0,0-2.3,2.41,4.75,4.75,0,0,0-.27,1.23,8.26,8.26,0,0,0,.33,2.85c.08.29.93,4.72,3.92,7.44s3.17,2.25,3.82,2.43a3.69,3.69,0,0,0,3-.74,3,3,0,0,0,.82-1.55C649.42,273.36,649.22,273.19,648.94,272.88Z"/><path class="cls-1" d="M38.59,122h0A38.59,38.59,0,0,1,0,83.4H0A38.59,38.59,0,0,1,38.59,44.81h0A38.59,38.59,0,0,1,77.18,83.4h0A38.59,38.59,0,0,1,38.59,122Z"/><path class="cls-3" d="M18,96.32A23.9,23.9,0,0,0,31,100.11c15.66,0,24.51-13.23,24-25.1a17,17,0,0,0,4.21-4.37A16.75,16.75,0,0,1,54.3,72,8.39,8.39,0,0,0,58,67.3a16.83,16.83,0,0,1-5.35,2,8.45,8.45,0,0,0-14.38,7.7,23.93,23.93,0,0,1-17.39-8.82A8.46,8.46,0,0,0,23.5,79.5a8.52,8.52,0,0,1-3.82-1.06,8.44,8.44,0,0,0,6.77,8.38,8.4,8.4,0,0,1-3.81.14,8.43,8.43,0,0,0,7.88,5.86A17,17,0,0,1,18,96.32Z"/><path class="cls-7" d="M168.83,403.9h0a36.8,36.8,0,0,1-44.33-27.28h0a36.8,36.8,0,0,1,27.27-44.33h0a36.8,36.8,0,0,1,44.33,27.27h0A36.81,36.81,0,0,1,168.83,403.9Z"/><path class="cls-3" d="M156.47,352c5.24-1.25,5.86-1.38,8-1.77a11.27,11.27,0,0,1,3.8-.2,6.64,6.64,0,0,1,4.61,2.84,10.91,10.91,0,0,1,1.55,3.49c.59,2,.75,2.66,2,7.9s1.38,5.87,1.78,8a11.24,11.24,0,0,1,.19,3.81,6.69,6.69,0,0,1-2.84,4.61,11.11,11.11,0,0,1-3.48,1.54c-2,.59-2.66.76-7.91,2s-5.86,1.37-8,1.77a10.92,10.92,0,0,1-3.8.19,6.07,6.07,0,0,1-2.61-.93,6.15,6.15,0,0,1-2-1.9,10.91,10.91,0,0,1-1.55-3.49c-.59-2-.75-2.66-2-7.9s-1.38-5.87-1.78-8a11.24,11.24,0,0,1-.19-3.81,6.3,6.3,0,0,1,.93-2.6,6.12,6.12,0,0,1,1.91-2,11.42,11.42,0,0,1,3.48-1.55c2.05-.58,2.66-.75,7.91-2m-.85-3.54c-5.33,1.27-6,1.46-8.06,2.05a14.75,14.75,0,0,0-4.55,2.05,10.26,10.26,0,0,0-4.37,7.11,14.79,14.79,0,0,0,.22,5c.4,2.12.54,2.79,1.81,8.12s1.45,6,2.05,8.07a14.8,14.8,0,0,0,2,4.54,9.84,9.84,0,0,0,3.1,2.94,10,10,0,0,0,4,1.44,14.83,14.83,0,0,0,5-.23c2.12-.4,2.8-.54,8.13-1.81s6-1.45,8.06-2a15,15,0,0,0,4.55-2.05,10.26,10.26,0,0,0,4.37-7.11,14.79,14.79,0,0,0-.22-5c-.4-2.12-.54-2.79-1.81-8.12s-1.45-6-2.05-8.07a15,15,0,0,0-2-4.55,9.81,9.81,0,0,0-3.1-2.93,10,10,0,0,0-4-1.44,14.79,14.79,0,0,0-5,.22c-2.12.41-2.8.54-8.13,1.81"/><path class="cls-3" d="M157.9,358a10.36,10.36,0,1,0,12.48,7.68A10.37,10.37,0,0,0,157.9,358m4,16.63a6.73,6.73,0,1,1,5-8.1,6.72,6.72,0,0,1-5,8.1"/><path class="cls-3" d="M170.64,354.56a2.42,2.42,0,1,1-2.92-1.8,2.42,2.42,0,0,1,2.92,1.8"/><path class="cls-7" d="M295.05,75.84h0a36.8,36.8,0,0,1-44.33-27.27h0A36.8,36.8,0,0,1,278,4.24h0a36.8,36.8,0,0,1,44.33,27.27h0A36.8,36.8,0,0,1,295.05,75.84Z"/><path class="cls-3" d="M282.68,23.94c5.25-1.24,5.87-1.37,8-1.77a11,11,0,0,1,3.81-.19,6.2,6.2,0,0,1,2.61.93,6.08,6.08,0,0,1,2,1.91,11.06,11.06,0,0,1,1.55,3.48c.58,2.05.75,2.66,2,7.9s1.38,5.87,1.78,8a11.52,11.52,0,0,1,.19,3.81,6.64,6.64,0,0,1-2.84,4.61,11.17,11.17,0,0,1-3.48,1.55c-2.05.58-2.67.75-7.91,2s-5.87,1.38-8,1.78a11.18,11.18,0,0,1-3.8.19,6.34,6.34,0,0,1-2.61-.93,6.43,6.43,0,0,1-2-1.91,11.22,11.22,0,0,1-1.54-3.48c-.59-2.05-.76-2.67-2-7.91s-1.37-5.86-1.77-8a10.92,10.92,0,0,1-.19-3.8,6.69,6.69,0,0,1,2.84-4.62A11.11,11.11,0,0,1,274.78,26c2.05-.59,2.66-.76,7.9-2m-.84-3.53c-5.33,1.27-6,1.45-8.06,2a15,15,0,0,0-4.55,2.05,10.26,10.26,0,0,0-4.37,7.11,14.79,14.79,0,0,0,.22,5c.4,2.12.54,2.79,1.81,8.12s1.45,6,2,8.07A15.1,15.1,0,0,0,271,57.33a10,10,0,0,0,3.09,2.94,9.9,9.9,0,0,0,4,1.43,14.79,14.79,0,0,0,5-.22c2.12-.4,2.79-.54,8.12-1.81s6-1.45,8.07-2.05a14.62,14.62,0,0,0,4.55-2,10.36,10.36,0,0,0,4.37-7.1,14.85,14.85,0,0,0-.22-5c-.41-2.11-.54-2.79-1.81-8.12s-1.45-6-2-8.06a14.51,14.51,0,0,0-2.05-4.55,10.27,10.27,0,0,0-7.1-4.37,14.85,14.85,0,0,0-5,.22c-2.11.4-2.79.54-8.12,1.81"/><path class="cls-3" d="M284.12,30a10.36,10.36,0,1,0,12.48,7.68A10.35,10.35,0,0,0,284.12,30m4,16.62a6.72,6.72,0,1,1,5-8.1,6.74,6.74,0,0,1-5,8.1"/><path class="cls-3" d="M296.86,26.5a2.43,2.43,0,1,1-2.92-1.79,2.43,2.43,0,0,1,2.92,1.79"/><path class="cls-7" d="M586,371.5h0a17.16,17.16,0,0,1-17.16-17.16h0A17.16,17.16,0,0,1,586,337.18h0a17.16,17.16,0,0,1,17.17,17.16h0A17.16,17.16,0,0,1,586,371.5Z"/><path class="cls-3" d="M583.34,364.71h4.18V354.25h2.91l.31-3.5h-3.22v-2c0-.82.16-1.15,1-1.15h2.26V344h-2.89c-3.11,0-4.51,1.37-4.51,4v2.79h-2.18v3.55h2.18Z"/><path class="cls-8" d="M465.19,373.58l3.54-11.89c.61-2.58,1.43-5.62,2.54-9.09,1-3.12,3.53-6.39,5.85-8.75,3.61-3.68,5.33-3.7,7.76-5.65.22-.14.47-.34.68-.46a3.81,3.81,0,0,0,1.18-1c2.09-2.26.08-5.76-4.17-5.43-3.2.25-8.41,1.17-16.9,9.92-.1.13-.21.24-.32.38-4.45,5.78-8.63-10.74-9.38-16.88a6.44,6.44,0,0,0-8.71-5l-20.66,9.66a9.6,9.6,0,0,0-6,.21,6.12,6.12,0,0,0-3.94,7.28L425,370.32,400.4,452.21h53.05Z"/><path class="cls-1" d="M505.94,298.37l-16.4,32.13-8.2-2.28-41.21,33.53a8.36,8.36,0,0,1-11.6-1l-15.69-18.24s31.64-13.63,37.49-24.91-.91-13.84-.91-13.84l14.89-16.93Z"/><path class="cls-1" d="M484.67,232.72s-24-5.3-57.78-37.79-49.65-75.61-53.79-75.4-22.18-8.18-56.52,66.52-20.81,92-14,91.89,53.23-13.07,82.21-9.77S451,286.56,451,286.56Z"/><path class="cls-1" d="M535.67,273.44,527.48,289l-3.67,7a20.32,20.32,0,0,1-26.49,9l-51.45-17.93,30-68.4L527.24,246A20.34,20.34,0,0,1,535.67,273.44Z"/><g class="cls-9"><path d="M535.67,273.44,527.48,289l-3.67,7a20.32,20.32,0,0,1-26.49,9l-51.45-17.93,30-68.4L527.24,246A20.34,20.34,0,0,1,535.67,273.44Z"/></g><path class="cls-1" d="M319.36,187.41c-18.28,40.46-25.89,76.51-17,80.53s30.92-25.53,49.19-66,25.88-76.52,17-80.53S337.63,146.94,319.36,187.41Z"/><g class="cls-10"><path d="M319.36,187.41c-18.28,40.46-25.89,76.51-17,80.53s30.92-25.53,49.19-66,25.88-76.52,17-80.53S337.63,146.94,319.36,187.41Z"/></g><polygon class="cls-1" points="540.08 295.93 526.14 291.56 534.77 275.15 545.22 281.65 540.08 295.93"/><g class="cls-11"><polygon points="534.77 275.15 526.14 291.56 529 292.45 536.02 275.93 534.77 275.15"/></g><path class="cls-1" d="M525.16,278.93c-.21.45-7.17-2.25-15.55-6s-15-7.22-14.8-7.68,7.16,2.26,15.54,6.05S525.36,278.48,525.16,278.93Z"/><path class="cls-1" d="M529.45,269.16c-.22.44-6.52-2.21-14.07-5.93s-13.5-7.09-13.28-7.54,6.52,2.22,14.07,5.93S529.66,268.72,529.45,269.16Z"/><path class="cls-1" d="M519.75,289.18c-.08.24-1.73-.14-4.38-1-1.31-.41-2.88-.92-4.61-1.52s-3.5-1.53-5.42-2.39c-7.63-3.55-13.45-7-13.26-7.42s6.45,2.28,14,5.79c1.9.86,3.65,1.8,5.31,2.5s3.16,1.3,4.41,1.85C518.3,288.14,519.82,289,519.75,289.18Z"/><path class="cls-1" d="M356.61,178.41s-20.86-12.94-32.28,15.25,10.54,32.82,10.54,32.82A187.82,187.82,0,0,0,356.61,178.41Z"/><g class="cls-10"><path d="M378.8,144.82a32.34,32.34,0,0,1-.82,5.38c-.66,3.44-1.59,8.44-2.93,14.58-.88,3-1.85,6.33-2.88,9.87l-1.62,5.49L369.7,183c-.31,1-.72,1.91-1.08,2.88-1.51,3.88-3.08,8-4.72,12.17l-1.24,3.18c-.4,1.08-1,2.09-1.46,3.16-1,2.1-2.06,4.23-3.1,6.39L355,217.18c-.53,1-1,2.12-1.57,3.1s-1.16,2-1.74,2.95L345,234.46c-.54.89-1,1.79-1.6,2.63l-1.73,2.45-3.33,4.68-6,8.37c-4,4.83-7.33,8.64-9.63,11.29a31.79,31.79,0,0,1-3.73,4c-.1-.08,1.05-1.65,3.19-4.42l9.19-11.66c1.77-2.58,3.69-5.4,5.76-8.43l3.22-4.69,1.68-2.44c.55-.85,1-1.75,1.56-2.64l6.51-11.2,1.72-2.94c.58-1,1-2.05,1.55-3.08l3.07-6.35c1-2.15,2.08-4.26,3.09-6.35.49-1,1.06-2,1.47-3.12s.83-2.12,1.25-3.16c1.65-4.18,3.25-8.2,4.77-12,.38-1,.79-1.9,1.11-2.85s.59-1.91.89-2.85c.58-1.86,1.14-3.68,1.69-5.43,1.1-3.5,2.13-6.76,3.08-9.75l3.47-14.4A31.9,31.9,0,0,1,378.8,144.82Z"/></g><g class="cls-9"><path d="M417.84,340.24c1.9,3.46,3.84,7,6.66,9.73s6.68,4.71,10.61,4.32,7.64-3.66,7.68-7.6c1.89,1.42,4.77.65,6.33-1.12s2.07-4.21,2.26-6.56c2.56,1.51,6.11.31,7.82-2.12s1.81-5.71,1-8.56a30,30,0,0,0-4.11-7.86c2,.15,4.06.29,5.82-.6s3-3.23,1.92-4.91a4.85,4.85,0,0,0-2.87-1.83c-3.08-1-5.25-1.74-8.46-1.37-.75,0,1.28,8.48-18.89,20.06C421.7,338.66,417.84,340.24,417.84,340.24Z"/></g><path class="cls-12" d="M463.26,352.48c0,.09-1.36-.17-3.53-.11a20,20,0,0,0-14.83,7.11c-1.41,1.66-2,2.87-2.13,2.82a3.36,3.36,0,0,1,.4-.88,15.82,15.82,0,0,1,1.45-2.17,19,19,0,0,1,6.7-5.39,19.26,19.26,0,0,1,8.4-1.86,16.61,16.61,0,0,1,2.61.24A3.06,3.06,0,0,1,463.26,352.48Z"/><path class="cls-8" d="M419.15,334.87c3.25,3.12,5.47,6.57,8.88,9.71,1.55,1.43,4,4.14,6,4.5s3.41.08,4.23-1.86c.66-1.57-.53-3.72-1.36-5-2.17-3.41-4.24-6.07-5.87-8.72-.76-1.24.23-1.5.59-.92,1.56,1.62,3.89,3,5.29,4.79,1.92,2.42,2.27,5.62,7.29,4.6a4.49,4.49,0,0,0,1.86-.77c1.89-1.45,2-4,1.17-6a16.17,16.17,0,0,0-2.79-4.23c2.14,2.41,4.47,4.95,7.86,5.23a4.69,4.69,0,0,0,4.76-2.58c1-2.28-.44-4.49-1.88-6.27a65,65,0,0,0-8.53-8.71,6.51,6.51,0,0,0-4.15-1.54c-1.75,0-3.95.32-5,1.85a6.79,6.79,0,0,0-1.36,5.22s-4.41-2.23-7.95.11a11.18,11.18,0,0,0-4.41,6.35Z"/><path class="cls-8" d="M442.6,316.15a5.28,5.28,0,0,1-.62-6c.74-1.47,1.69-2.89,2.65-3.22,4.19-1.41,22.5,1.76,22.33,5.82s-1.5,6-11.44,4.58c-1.75-.26-4.49-.6-4.49-.6l-2.4,3.6Z"/><path class="cls-12" d="M445.88,333.17A24.22,24.22,0,0,0,435.79,324a5.89,5.89,0,0,1,1.94.68,17.18,17.18,0,0,1,4.11,2.78,17,17,0,0,1,3.17,3.83A6.05,6.05,0,0,1,445.88,333.17Z"/><path class="cls-12" d="M449,320.68c-.09.09-1.3-.9-2.95-1.91a20.08,20.08,0,0,0-2.15-1.18c-.56-.27-.94-.34-.94-.42s.43-.12,1.07.07a9.84,9.84,0,0,1,2.29,1.09C448,319.36,449.08,320.57,449,320.68Z"/><path class="cls-12" d="M452,316.9a7.87,7.87,0,0,1-3.52-.39,6.6,6.6,0,0,1-2.26-1.19c-.5-.42-.71-.78-.66-.83a13.8,13.8,0,0,0,3.07,1.52C450.48,316.53,452.06,316.73,452,316.9Z"/><path class="cls-12" d="M434.24,338.2a12.44,12.44,0,0,1-1.67-2.17,20.06,20.06,0,0,0-4.28-4.86,8.57,8.57,0,0,0-6.05-1.6,10.82,10.82,0,0,0-2.55.81s.17-.21.58-.46a5.73,5.73,0,0,1,1.91-.72,8.55,8.55,0,0,1,6.42,1.55,17.17,17.17,0,0,1,4.27,5.08A17.42,17.42,0,0,1,434.24,338.2Z"/><path class="cls-12" d="M448.25,378.7a57.26,57.26,0,0,1-7.49,1.08,53.12,53.12,0,0,1-7.54.55,111.17,111.17,0,0,1,15-1.63Z"/><polygon class="cls-1" points="504.83 11.35 505.96 13.42 508.02 14.55 505.96 15.68 504.83 17.74 503.7 15.68 501.64 14.55 503.7 13.42 504.83 11.35"/><polygon class="cls-1" points="629.38 97.3 630.51 99.36 632.58 100.49 630.51 101.62 629.38 103.68 628.25 101.62 626.19 100.49 628.25 99.36 629.38 97.3"/><polygon class="cls-1" points="473.86 24.07 476.47 28.84 481.23 31.45 476.47 34.05 473.86 38.82 471.25 34.05 466.49 31.45 471.25 28.84 473.86 24.07"/><polygon class="cls-1" points="44.78 188.55 49.48 197.14 58.07 201.83 49.48 206.53 44.78 215.12 40.09 206.53 31.5 201.83 40.09 197.14 44.78 188.55"/><polygon class="cls-1" points="635.8 314.85 638.4 319.6 643.16 322.2 638.4 324.81 635.8 329.56 633.2 324.81 628.45 322.2 633.2 319.6 635.8 314.85"/><path class="cls-3" d="M208.49,215.55c-5.27-3.05-10.56-6.08-15.8-9.17a11.86,11.86,0,0,1-2.64-2.09c-2.53-2.72-2.48-5.8-1.16-9.07a113.34,113.34,0,0,1,8.41-16.55c.65-1.08,1.48-2,2.2-3.09a7.31,7.31,0,0,1,8.74-2.3c5.32,2.35,10.64,4.7,15.83,7.33,5.52,2.8,10.88,5.91,16.29,8.93a30.77,30.77,0,0,1,3.83,2.56,6.9,6.9,0,0,1,2.52,8.2,63.06,63.06,0,0,1-5.34,12.09c-1.75,3.09-3.68,6.08-5.65,9a7.13,7.13,0,0,1-8.83,2.52c-5.55-2.49-11-5.11-16.57-7.68-.59-.27-1.15-.59-1.73-.89Zm8.37-26.8-7.77,14.95,16-1.15Z"/><path class="cls-1" d="M216.86,188.75l8.27,13.8-16,1.15Z"/></g></g></svg>