<svg xmlns="http://www.w3.org/2000/svg" viewBox="0 0 660.47 319.72"><defs><style>.cls-1{fill:#d6594c;}.cls-2{fill:#08668d;}.cls-3{fill:#0b597f;}.cls-4{fill:#19313a;}.cls-5{fill:#ffdbc2;}.cls-6{fill:#edc1a4;}.cls-7{fill:#def1f8;}.cls-8{fill:#90c8ee;opacity:0.37;}.cls-9{fill:#3f292d;}.cls-10{fill:#47b;}.cls-11{fill:#35679e;}.cls-12{fill:#c17a61;}.cls-13{fill:#aa6552;}.cls-14{fill:#f9b354;}.cls-15{fill:#dd9845;}.cls-16{fill:#3cb28e;}.cls-17{fill:#349977;}.cls-18{fill:#f2c5a7;}.cls-19{fill:#724472;}.cls-20{fill:#673c68;}.cls-21{fill:#5ea4dd;}.cls-22{fill:#518ecc;}.cls-23{fill:#5b343c;}.cls-24{fill:#e0a375;}.cls-25{fill:#0a5c75;}.cls-26{fill:#f8c6a3;}.cls-27{fill:#3d3360;}.cls-28{fill:#eab18b;}.cls-29{fill:#bce3f6;}.cls-30{fill:#93bf56;}.cls-31{fill:#80ad4d;}.cls-32{fill:#ec6469;}.cls-33{fill:#d3545e;}.cls-34{fill:#f2f2f2;}.cls-35{fill:#65439b;}.cls-36{fill:#523c7c;}.cls-37{fill:#00a5c8;}.cls-38{fill:#2b1c1f;}</style></defs><title>Asset 1</title><g id="Layer_2" data-name="Layer 2"><g id="Objects"><path class="cls-1" d="M230.23,76.16a15.43,15.43,0,0,1,13.27,3.07c6.41,5.13,9.93,15.47,7.71,23.72A23,23,0,0,1,242,115.51Z"/><path class="cls-2" d="M10.46,260.73c-1.9,4.59-2.8,11.35-2.35,18.86s.3,11.57-1.95,19.08S0,319.72,0,319.72H68.17V240.54s-18.75-4.21-32.57,3A143.39,143.39,0,0,0,10.46,260.73Z"/><path class="cls-3" d="M35.6,243.54a143.39,143.39,0,0,0-25.14,17.19,28.56,28.56,0,0,0-1.48,5c.14.18,5.67,7.16,18.08,10.33,12.58,3.21,15.35,2.14,15.35,2.14l6.82-18.6,1.5,20a115.34,115.34,0,0,0,17.44,1.91V240.54S49.42,236.33,35.6,243.54Z"/><path class="cls-4" d="M90.05,12.93s12.68-6.08,21.3,5.79,2.07,27-7.67,28.62S90.05,12.93,90.05,12.93Z"/><path class="cls-5" d="M101.51,29.79c1.39,4.78,3.18,18.85,1.79,30.51s-10,27.82-14.94,31-13.22-1-13.22-1a46.61,46.61,0,0,0-1.63,5.58c-.59,2.89,2.5,6.78,7,12.9a56.86,56.86,0,0,1,7,13.13s-36.47-9-43-30.72c0,0,4.18-6.17,6.17-16.71,0,0-10-10.14-11.34-21.28S41.65,29,53.58,18.85,91.37,6.32,101.51,29.79Z"/><path class="cls-6" d="M57,85.7c3.52,4.16,14,8.11,16.8,9.09.56-2.26,1.36-4.43,1.36-4.43-4.79-1.68-14.6-7.48-17.09-12.09s-2-14.61-2-14.61-1.33,1.49-2.32,6.26S52.92,80.9,57,85.7Z"/><path class="cls-4" d="M49.87,77.85a23.77,23.77,0,0,0,3.84-6.26A35,35,0,0,0,56,63.66c-2.58.79-9.15-1.42-10.6-7.51-1.57-6.58-.45-10,2.14-12s6.57-2.15,9.35,2c2.38,3.58,1.68,6.49,3.14,7.09s6.55-4.4,7-13.35c0,0,7.56,5.17,14.32,0A11.15,11.15,0,0,0,85.7,27.8a10.45,10.45,0,0,0,8.65,5.57c6.27.4,7.16-3.58,7.16-3.58s2-8-5.77-13.74c0,0,.73-11.71-12.83-15.08C68.49-2.61,56.07,4.14,53.74,14.22c0,0-11.13-1.42-16,7.23-5.82,10.37-3.69,19.92-.61,31.42,2.42,9,6,17.63,7.89,20.88C47.65,78.35,49.87,77.85,49.87,77.85Z"/><path class="cls-7" d="M46.7,87C45.12,90.12,36.64,93.17,31,96.8s-18.8,16.47-15,42.27,9.3,72.1,8.67,80.66-2.5,14-7.3,23.8S9.44,259.6,9.44,259.6s7.31,10,31.11,12.11l9.19-23.17,2.08,25.26s29.5,4.48,40.64.7c0,0,7-102.07,5.23-120C94.44,122,76.54,103.38,76.54,103.38s-9.14,1-15.76-2.67C49.15,94.24,46.7,87,46.7,87Z"/><path class="cls-8" d="M96.93,197.94l-24.5-19.51L47.45,146,41,112l-19-5.83c-4.53,7-8.18,17.67-5.93,32.87.32,2.17.65,4.49,1,6.9,2.78,11.66,6.31,24.63,9.64,32.76a8.29,8.29,0,0,0,4.36,0l6.43,15L24.67,215.49c.07,1.82.08,3.28,0,4.24-.53,7.29-2,12.32-5.36,19.71,8.76,1.9,37.81-14.21,44.86-18.72a17,17,0,0,0,2.08,6c1.72,2.91.13,6.71,1.91,8.75s-16.7,34.09-16.7,34.09l.35,4.25s29.5,4.48,40.64.7C92.46,274.5,95.33,232.73,96.93,197.94Z"/><path class="cls-9" d="M147.14,75.87a14.12,14.12,0,0,1,12.53,3.65c6.62,6.46,8.88,25-5.57,32.51,0,0-7.37-9.5-9.14-18.22S147.14,75.87,147.14,75.87Z"/><path class="cls-10" d="M149.46,269.06l6.95,50.66H45.72S49,291.65,62.93,268.37Z"/><path class="cls-11" d="M68.17,319.72s2.77-25.05,12-38.29h3.8s-9.23,12-12.52,38.29Z"/><path class="cls-11" d="M149.46,269.06l-86.53-.69c-1.65,2.76-3.14,5.58-4.5,8.42,0,.13.75,13.19,22.51,18.76s38.93,1,52.15-10.94c0,0,8.27,9.86,19.78,9.36Z"/><path class="cls-12" d="M72.7,162.56c-5.91,4.45-41.26,32.27-50.65,41.33s-12.13,19.82-8.54,24.94,7.68,5.63,16.22,2S72,207.61,72,207.61s2.13-3.2,3.33-16.86S72.7,162.56,72.7,162.56Z"/><path class="cls-13" d="M75.33,190.75a72.21,72.21,0,0,0,0-11.77c-5.77-1.1-13.51-2.56-19-3.56-6.29,5-13.38,10.71-19.64,15.87,1.93,6.67,7.81,18.65,12.28,20.27,3.11,1.13,12.79-.27,18.38-1.23l4.7-2.72S74.13,204.41,75.33,190.75Z"/><path class="cls-12" d="M141.43,155.07c-6.82-1-9.18-1.87-9.59-2.79s.16-9.58,1.82-12.26a18.22,18.22,0,0,0,8.93,1.47c4.76-.53,6.69-3.63,9.38-12.92s2.89-31.62,1.44-38.23S134.2,71.43,115.19,79.23s-22.11,35.9-19,44.58,10.74,14.47,10.74,17.15.42,7.91-2.68,9.44-11.78,3.41-11.78,3.41.62,6.59,22.73,8.75S141.43,155.07,141.43,155.07Z"/><path class="cls-14" d="M135.46,153.81s-8.15,5.62-22.44,4.07S99.73,152,99.73,152s-9.68,1.51-13.41,2.53c-7.31,2-11.51,3.45-13.62,8.05-1.4,3.06-4,27.15-1.73,39.36L73.36,215s4,14.58,3.07,21.7-16.82,30.54-16.82,30.54-1,19.16,30,22.46,45.87-18.18,45.87-18.18c4.54,15.5,19.24,13,19.24,13-3.28-9.29-4.78-37.4-3.6-47.17s12.81-71.71,9.15-74.84c-7.13-6.09-17.95-7.78-24.77-8.75"/><path class="cls-15" d="M155.83,173l-51.25,10.25L70.5,198.52c.13,1.2.28,2.35.47,3.4l1.39,7.67c5.09-1.27,17.52-5,30.14-8,17.3-4.07,37.62-9.46,46.44-11.61l10.95-10c.23-2,.44-3.84.6-5.57Z"/><path class="cls-15" d="M125.15,236.38l-27.64-5.27L85.64,216.38,80,205.88c-2.1,2.29-2.07,6.09-1.17,9.27A71.83,71.83,0,0,0,83,224.6l-6.46,8.21a22.46,22.46,0,0,1-.11,3.92A20.55,20.55,0,0,1,74.6,242a28.37,28.37,0,0,0,10.73,4.56c6.51,1.11,21.62,3.43,37.31,9.32s21.42,6.25,24,5.37c1.18-.39,2.83-2.07,4.3-3.81a137.37,137.37,0,0,1,.09-20.06c.08-.61.19-1.42.34-2.4l-.08-.48Z"/><path class="cls-5" d="M126,224.89c-4.05-.23-21.17-.91-23.69-1.3a5.14,5.14,0,0,1-4.51-3.36c-.76-1.83-1.76-4.81-4.66-6.8s-6.19-3.36-7.41-5.12-1.84-5.2-4.36-4.13-1.53,5.73-.61,7.8,3.67,5.88,3.9,6.72-.84,1.07-2.91.46-8.4-4.13-8.4-4.13l-.62-3.2A3.76,3.76,0,0,0,68.92,214a7.57,7.57,0,0,0,0,6.58c.77,1.53-.15,3.44,1.3,5.73s2.3,2.52,2.6,4a11,11,0,0,0,4.51,7.08c3.21,2.09,8.86,2.7,15.21,3.69s30.1,8.36,30.1,8.36,2-2.45,3.37-9A35,35,0,0,0,126,224.89Z"/><path class="cls-9" d="M153.69,91.94c-1.09,4.11-4.23,7.65-7.77,10.38s-4,4.5-4.91,8.31-3,6.27-4.91,6-1.09-4.08-2.45-6.74-3.82-6.48-9-4.57-4.45,12.26-1.27,15.67,5.5,3.41,7.27,2.59,2.73.55,2.32,2.73-1.07,8.95-6.25,12.76-18.12,2.31-20,1a52.5,52.5,0,0,1-10.77-9.13,28.72,28.72,0,0,1-7.49-18c-.49-8.77,1.1-19.28,4-22l17.81-20s4.84-8,18.61-7.09a21.27,21.27,0,0,1,18.26,12.13S157.78,84.91,153.69,91.94Z"/><ellipse class="cls-9" cx="95.91" cy="79.52" rx="19.3" ry="15.33" transform="translate(-27.65 95.54) rotate(-47.05)"/><path class="cls-5" d="M252.49,162.56c-7.82-1.23-14.41-1.32-22.26-2.65s-11.56-2.1-10.78-9.53S221,138.07,221,138.07L195.8,136.7s-1.17,11.92-1.76,14.66-.78,2.74-6.65,3.71-18,3.37-18,3.37S171,165,203,170.91,252.49,162.56,252.49,162.56Z"/><path class="cls-16" d="M227.71,159.47s18.57,2.22,24.78,3.09S263.74,165.28,269,178c0,0-13.25,37.17-12.23,43,1.47,8.43-1.82,32.19-2.85,37.67s.86,18,4.63,36,5.52,25,5.52,25H131.72a271.38,271.38,0,0,1,23-35.15C167.87,267.78,177.47,253,179,248.25s-6.34-31.87-6.34-31.87-21.59,32.38-24.16,36-3.94,3.26-10.79,1.54-15.08-4.45-15.08-4.45-3.09-5.71-1.2-14S126,224.89,126,224.89s3.48.05,4.85.05,3.77-.17,5.83-5,16.45-40.78,20.39-49.17,6.55-13,14.93-14.36a100,100,0,0,1,15.38-1.37s4.53,6.91,17.68,8.28A41.71,41.71,0,0,0,227.71,159.47Z"/><path class="cls-17" d="M253.65,263.9h0l-10.49,15.62c1.48,8.39,3,19.92-12.19,28.14s-72.33,12.06-72.33,12.06H264s-1.75-7-5.52-25C255.66,281,253.89,270.56,253.65,263.9Z"/><path class="cls-17" d="M259.18,208.23,247.91,212l-25.78-12.85s-25.58-31.86-25.87-32.3-11.54-4.26-11.54-4.26l-27.62,8.18,0,.06c-1.49,3.17-4.89,11.31-8.14,19.18a174.35,174.35,0,0,1,18.17-2.41C173.17,187.13,180,182,180,182s21.78,33,30.38,41.79,14.34,16.37,22.52,16.8,14.08-9.8,20.89-15.48l3-3.27c0-.29-.08-.57-.13-.83-.32-1.85.78-6.84,2.45-12.79Z"/><path class="cls-17" d="M241.78,253.89l3.73,8.91,9.25,11.7h0c-1.1-7.33-1.45-12.7-.87-15.8.94-5,3.74-25,3.14-35l-.08-.48-7.53-15s-1.31,15.49-2.89,26.1C245.4,241.88,241.78,253.89,241.78,253.89Z"/><path class="cls-17" d="M237.1,263.91l-61.35-9.18c-2.28,3.87-5.59,8.9-9.67,14.64,5.58.82,28.9,4.29,46.78,7.41,20.45,3.56,28.77,6.28,35,4.68s5.16-4.78,6.85-7h0a97.09,97.09,0,0,1-1.11-10.6C249.75,264.3,237.1,263.91,237.1,263.91Z"/><path class="cls-5" d="M240,91.12c2.91,8.55,4.91,27.65,2.18,37.45S236.39,140,232.4,140s-17.81-2.3-17.81-2.3l-18.79-1s.43-4.32-2.85-6.68-16.72-18.36-7.63-38.9S217,69,226.94,76.58,240,91.12,240,91.12Z"/><path class="cls-18" d="M232.4,140a7.15,7.15,0,0,0,4.74-1.47c-3.06.19-6.93-1-12.18-5.83l-5.25,1.93-.22,3.84A127.27,127.27,0,0,0,232.4,140Z"/><path class="cls-1" d="M240,91.12c0-4.26-9.8-15-9.8-15a31.78,31.78,0,0,0-20.49-7.79c-12.74-.19-23.68,6.35-27.52,22.38-3.8,15.87-5.57,15-8.41,20.84-2.64,5.39-6.08,21.07,11.22,31,18.54,10.62,36.47,6.36,40.84,4.54s5.43-4.83,2.42-9.68a27.25,27.25,0,0,1-3.47-12c-.15-2.91.27-4.29-1.2-3.78-1.11.39-3.81.45-6.09-3.25-2.54-4.14-1.14-12.93,3.05-13.69s6.27,2.28,6.84,6.11-.57,5.3,1.52,5.68,4-1.14,7-5.68S240.35,97.65,240,91.12Z"/><path class="cls-10" d="M609.45,242.81c4.07,4.31,9.64,14.25,10.64,22a62.49,62.49,0,0,1-1.4,22.07,34.79,34.79,0,0,0,0,15.32c1.2,6,3.78,17.51,3.78,17.51H570.4l-9.62-67.86Z"/><path class="cls-11" d="M587.62,260c15.26-2.38,21.46-7.33,25.48-12.4a33.15,33.15,0,0,0-3.65-4.8l-48.67,9.05,1.23,8.7A100.34,100.34,0,0,0,587.62,260Z"/><path class="cls-19" d="M600.93,155c1.37,9.25.89,32.6-4,42.38s-4.62,14.06-1.61,19.3c4.16,7.27,16.87,26.11,16.87,26.11s-4.2,6.88-17.38,10.62S559.32,256,559.32,256a127.19,127.19,0,0,1-8.38-48.7c1-26.5,13.86-69.11,13.86-69.11s15.46-8.17,24.32-2.65S600.93,155,600.93,155Z"/><path class="cls-20" d="M601.17,177.58l-3.1-5.25-25-22.24-13.63,7.77c-.55,2.21.94,3.38.37,5.79,2.62,8.83,6.47,24.79,9.85,27.95,4.56,4.27,17,11.75,24.93,10.55.89-1.94,1.11-2.28,2.35-4.75C599.23,192.82,600.55,185.27,601.17,177.58Z"/><path class="cls-5" d="M580.38,109.81s2.2,10.61,2.55,12.9,1.51,5.22,3.77,5.71c0,0-1.85,7.23-8.5,9.77s-13.4,0-13.4,0a48.32,48.32,0,0,0-2.92-7.42c-1.46-2.64-5.34-4.1-5.34-4.1Z"/><path class="cls-6" d="M580.55,110.64c-.11-.52-.17-.83-.17-.83l-23.84,16.86s3.88,1.46,5.34,4.1c0,0,11.21-2.34,16-7.12C581.78,119.74,581,113,580.55,110.64Z"/><path class="cls-4" d="M563,60.3s-11.26-5.73-20.37,1.44-9,25.43-1.21,30.05c0,0,15.1-2.8,20.36-11.84S563,60.3,563,60.3Z"/><path class="cls-5" d="M551.75,69.57c-4.71,2-8.88,9.66-10.23,20.9-1,8.13,1,23.22,3.33,30.12s11.22,6.55,18.53,5.5,12.84-4.77,14.7-9.31a40.75,40.75,0,0,0,2.3-7s3.87,4,7.41,3.54,10.61-7.82,10.27-16-.84-23.54-13-27.75S551.75,69.57,551.75,69.57Z"/><path class="cls-6" d="M560.72,122.71l6,2.67a24,24,0,0,0,4.45-1.73S562,110.2,559.1,107.26s-17.63-8.58-17.76-8.63c0,.75.07,1.51.13,2.28l6.9,6.35Z"/><path class="cls-4" d="M551.75,69.57s.16,6.06,8.92,12.27,12.6,8.6,13.41,10-1,6.51.22,8,4.28-.13,5.83-4.15c1.48-3.84,6.32-5.79,8.89-3.84s3.57,5.09,1.46,11.21c-1.75,5.08-7.07,8.55-10.1,6.81,0,0-.15,8.45,2.55,12.9a50.52,50.52,0,0,1,7.42-7.6c5-4.27,10.39-9.4,12-23.69s-9.31-28.87-15-32.24S569.17,54.68,563,60.3Z"/><path class="cls-4" d="M586.7,58.8s2.57-7.58,9.18-11.9,21.72-5.26,28.46,0a35.65,35.65,0,0,1,13.09,22.8c1.48,9.53,3.24,14.18,10.66,19.84s16.45,15.9,10.38,31.42S633.65,136.74,630,136.2s-4.72-3.1-2.16-6.61,5.94-9.94,1.62-14.48-7.55-6-13.62-9.8-10.26-8.21-10-15.77,2.57-17,.27-21.84-6.92-8.58-13.77-4.05C592.36,63.65,587.63,63.14,586.7,58.8Z"/><path class="cls-20" d="M586.7,128.42c5.85,0,13,1.89,15.36,14.83s3.51,26,3,33.67a44,44,0,0,1-3.52,14L577.9,177.09s-1.63-23.22-2.06-31.74S577.42,128.76,586.7,128.42Z"/><path class="cls-21" d="M566,262.12a94.29,94.29,0,0,1,5.32,29.51c0,8-1,28.09-1,28.09H480.87L477,276.06s6.45-20.76,27.95-26.17S557.85,244.87,566,262.12Z"/><path class="cls-22" d="M566,262.12c-8.19-17.25-39.61-17.65-61.12-12.23S477,276.06,477,276.06l.63,7.14a39.56,39.56,0,0,0,34.79,2.44l-.73-18.55,9,17.6c29.31-.18,41-10.54,47.14-17.09C567.18,265.33,566.56,263.44,566,262.12Z"/><path class="cls-23" d="M489.33,34A24.24,24.24,0,0,1,476,36.3c-3.83-.5-5.87-3.46-8.29-1.24-3,2.73-8.57,19.76,3,27.41C485.36,72.2,489.33,34,489.33,34Z"/><path class="cls-24" d="M472.09,53.56c-1.92,6.74-2,15.39,0,27.67s5.92,23.59,9.59,25.16c2.59,1.11,7.43,1.26,11.17.84s5-.76,5.7,5.45,24.47-.87,27.59-5.65c0,0-2.92-11.24-2.08-14.57s5-8.11,6.24-18.31-.21-28.5-14.15-34.74-30.43-1-36.82,3.74A18.32,18.32,0,0,0,472.09,53.56Z"/><path class="cls-23" d="M498.55,88.9c-.21,1.63,2.22,5.7,3.5,8.43s4,5.45,7.14,5.62,11.61,0,15.29-3.65c2-1.83,2-5.47,4.95-12s5.11-18,3.65-27S531,42,522.38,42.21c0,0-2.43-9.85-11.73-11.67s-16.5.89-23.16,4.38-14.2,8.85-14.31,15.59a7.57,7.57,0,0,0,5.37,4.65c3.1.69,1.72,2.63,1.88,4.69.27,3.58.81,5.84,3.46,7.81,2.49,1.85,3.6,2,3.6,6.1,0,5.48.18,6.75,1.82,7.12s3.47-1.1,5.47-6.39,5.84-5.88,8.94-2.48,2.2,12.89,0,15.47C501,90.6,498.86,86.53,498.55,88.9Z"/><path class="cls-2" d="M391.64,279c-1.51,6.64-3.63,34-3.91,40.69H492.05s-2.61-19.47-9.49-31.05c0,0-21.65-17.32-45.11-20.11S391.64,279,391.64,279Z"/><path class="cls-25" d="M391.64,279c-.69,3-1.51,10.46-2.23,18.24h0s3.6,1.05,8.25-3.32,4.67-6.6,5.77-6,2.89,5.68,9.32,12.21c4.9,5,25.84,16.33,48.63,11.95,16.66-3.21,22.77-11.44,24.86-15.64a51.37,51.37,0,0,0-3.68-7.83,115.46,115.46,0,0,0-17.17-10.85l-15.7,3L419.4,269.19A90.35,90.35,0,0,0,391.64,279Z"/><path class="cls-10" d="M385.17,274.84s3.8,22.52,5.15,44.88H265.59s4-35.5,6.52-52.45Z"/><path class="cls-11" d="M270.11,281.93s10.78,29.68,59.56,27.6,56.79-26.26,56.79-26.26l-1.29-8.43-113.06-7.57Z"/><path class="cls-26" d="M321,33.23c-8.64,0-24.75,5-24.75,28.9,0,0-1.82-3.16-4.15-1.83s-1.49,9,0,13.45,4.77,5.43,6.77,5.26c0,0,2.39,7.22,4.38,10.38s6.94,8,6.94,8l-.15,13.42h30.39V95.68c0-5,7.22-16.45,7.22-16.45s3.29,1.26,5.55-2.9c2.58-4.74,3.75-14.19,1.38-16-3.73-2.9-5.17,3.32-5.17,3.32S347.77,44.85,337.8,40.2,321,33.23,321,33.23Z"/><path class="cls-27" d="M296.21,64.76c-.53-4.82-2.51-14.36-1.61-23.19s4.64-15.27,7.34-15.86,2.84,2.24,5.84,2.84a8.22,8.22,0,0,1,1.34-7c2.55-3.44,4.65.77,9.58,3.3,6,3.08,8.76,1.63,13.11,4.32,5.14,3.18,5.28,6.94,5.28,6.94a7.72,7.72,0,0,1,6.39.86c4.46,2.54,7.94,11.27,6.5,27.41-1.28,14.33-4.8,25.8-9.52,31.34s-23.19,5.12-30.24,1.69c0,0-5.89-1.74-10.09-14.92A92.24,92.24,0,0,1,296.21,64.76Z"/><path class="cls-7" d="M297.81,116.38a56.36,56.36,0,0,1-17.89,6.35C272,124,267.27,124.52,264,128.65c0,0,11.55,13,13.56,36.6,1.45,17-3.39,25.45-3.39,25.45s2.26,9.38,6.53,16.44-4.84,32.15-7.07,40.64-4.7,20.39-4.7,20.39c.81,3.22,16,32.66,57.48,32.66s59.22-25.1,60-28.49-4.19-22.78-7.23-38.85-5.18-29.75-2.59-41.54,7.15-27.77,8.22-41.71-1.52-26.88-3.49-28.49-4.46-1.34-11.52-2.77a68.32,68.32,0,0,1-14.74-4.44s-2.05-1.45-12.68-.38S324,118,314.58,115.77,300.64,114.81,297.81,116.38Z"/><path class="cls-7" d="M382.47,123.65a18.25,18.25,0,0,0-1.09-1.89A4.94,4.94,0,0,1,382.47,123.65Z"/><path class="cls-8" d="M379.24,233.49c-.54-2.87-1.05-5.66-1.51-8.37H294.22l-11.57-28.46c6.05-17.15,4.29-34.77,0-42.84l-6.74.62a77.49,77.49,0,0,1,1.69,10.82c1.45,17-3.39,25.45-3.39,25.45s2.26,9.38,6.53,16.44-4.84,32.15-7.07,40.64c-.82,3.12-1.48,5.84-1.93,8.18,3.12,2,12.33-1.75,12.33-1.75s59.25,21.84,65.59,20.2c5.29-1.37,25.27-23,31.77-30.14C380.66,240.65,379.9,237,379.24,233.49Z"/><path class="cls-5" d="M390.32,223.22,360.92,255s-6.91,7.76-9.22,9.57-2.81,4.13-14.85,1-62.44-20.38-62.44-20.38a9.62,9.62,0,0,1-1.06-9.7c2.47-5.38,5.66-6,5.66-6l58.17,12.87,4.45-5Z"/><path class="cls-5" d="M274.21,190.7s11.63,24.8,13.21,27.68,1.8,3.11,7.43,2.66,70.29-5.86,70.29-5.86l1.66,16.26s-82.25,17.49-88.88,19c-4.48,1-6.57-.46-9.5-5.27s-19.53-37.86-19.53-37.86Z"/><path class="cls-16" d="M298.77,220.72h0l-3.92.32c-5.63.45-5.86.23-7.43-2.66s-13.21-27.68-13.21-27.68l-25.32,16.6s16.6,33,19.53,37.86,5,6.29,9.5,5.27c1.86-.42,9.64-2.09,19.89-4.29C302.25,238.27,300.12,225.49,298.77,220.72Z"/><path class="cls-26" d="M230.23,191.37S196,160.54,190.15,153.81s-8-11.69-13.1-13.72-4.81-.44-8,0-5.24-.15-7.86,1.89-4.08,1.75-6,3.35-4.52,6.47-4.08,8.48.73,9,10.63,10,14,3.2,14,3.2l37.2,51.36Z"/><path class="cls-28" d="M172.13,145c1.1,1.79,2.22,4.11.54,6s-7.22,7.86-7.22,7.86-5.38,2.65-4.51-.91S172.13,145,172.13,145Z"/><path class="cls-28" d="M190.75,155.07c1.56,5.58,1.63,13.14-.09,16.62s-6.44,7-6.44,7l-3-4.19Z"/><path class="cls-7" d="M264,128.65c-4.37,5-7.52,11.65-13.08,24s-20.73,38.76-20.73,38.76l-6.16-6s-12.62,14.42-12.32,31.54c0,0,10.37,13.07,14.27,16.23s8,3.6,13.67-1.81,34.52-40.62,34.52-40.62,7.84-4.59,9.64-20.81S275.77,126.93,264,128.65Z"/><path class="cls-29" d="M228.78,190c-2.62,2.33-13.63,18.09-11,34.32l1.26,1.48s-1.19,1-2.9-.85-7.73-8.15-8.73-10-.43-10.16,3.72-20,9.28-14.62,11.71-12.66A41.84,41.84,0,0,1,228,187c1.26,1.33,2.55,2.76,2.21,4.39Z"/><path class="cls-30" d="M403.22,185.2c-5.52-3-15.07-4.38-22.3.89a15.39,15.39,0,0,0-3.91,4.27c-9.3,13.64-35.38,46.93-35.38,46.93S343,249.15,360.92,255l29.4-31.76a173.93,173.93,0,0,1,3.56,20.1c1,9.65-4.82,50.18-4.82,50.18s4.42.06,8.44-4.76,4.61-7.64,5.72-7.64,2.29,7.47,13.18,15.31c8.65,6.23,33.26,14.68,48.71,9.78,17.7-5.61,17.76-13.8,18.76-17.62a80.72,80.72,0,0,0-8.19-11.49c-5-6-6-8.77-6-9.81s2-5.66,1.2-7.47-5-5.63-4.09-8.44,7.91-25.12,9.92-38,0-29.34,0-29.34Z"/><path class="cls-31" d="M384.74,184.34c5.83-1.65,19.13,3.41,22.39,6.6s4.74,17.6,21,23.48,42.68,2,42.68,2l-14.46-34.63-49.68-7.38Z"/><path class="cls-31" d="M473.16,229.26c1.47-5.62,2.81-11.34,3.52-15.89a90.41,90.41,0,0,0,.89-13.94c-6.74,1.34-66.29,13.16-66.71,12.74s-23.13-13.09-23.13-13.09l-15.28-2.28c-7,9.63-17.13,22.85-23.85,31.53a86.37,86.37,0,0,0,11.64,5.74,39.22,39.22,0,0,0,17.83,2.38l12.25-13.23s1.17,4.77,2.23,10.84c6.12,0,23.92-.25,42.39-1.35C454.56,231.54,469.39,229.75,473.16,229.26Z"/><path class="cls-32" d="M498.55,112.68c6-2.19,24-7.26,33.48-6.12s22.68,6.08,28,11.78,4.94,25,4.94,31.56-3,21.62-5.38,28.43-3,22-2.6,34.44,8.11,42.45,9.63,46-5.73,9.25-16.78,13.58c-13.73,5.38-34.81,6.83-34.81,6.83l-7-19.39-1.39,20a51.39,51.39,0,0,1-17.36.51c-9.26-1.4-12.81-4.31-13.57-5.45s-3.19-33.59-1.15-51.65c0,0,15.48-10.07,17.88-22.24S498.55,112.68,498.55,112.68Z"/><path class="cls-33" d="M515.63,119c4.21,3.54,10.49,8.76,10.48,20.3,0,9.11-4.77,27.54-4.77,27.54l-9-2.53Z"/><path class="cls-33" d="M559.6,178.33C562,171.52,565,156.49,565,149.9c0-5.69.28-20.84-3.07-28.54l-4.26-5.15c-6.23-4.77-17.33-8.66-25.62-9.65a43,43,0,0,0-10.68.46c1.62.57,6.1,4.26,7.42,7s5.53,5,10.79,3.82,4.74.63,7.64,8.81,6.85,21.88,6.85,21.88l-13.56,5.26s-30.08,15.29-45.66,23.13c-.42,5.86-.85,11.17-1.26,15.43,10.09-2.31,24.2-5.4,28.22-5.65,6.45-.39,17.25,1.06,22.65,2,3,.52,9.1-2.1,13.81-4.49A36.17,36.17,0,0,1,559.6,178.33Z"/><path class="cls-33" d="M516.82,187.44V169l-21.64,2.83c-.91,13.44-1.88,25-2.7,29.13-2.4,12.17-17.88,22.24-17.88,22.24-.21,1.84-.37,3.83-.49,5.92,4.83,0,13.45,0,17.9-.67,6.4-.93,10.15-2.81,13.89-14.32S513.5,188.06,516.82,187.44Z"/><path class="cls-24" d="M470.81,192.9l-64.64,9.83c-4.09.57-10.67-2-15.85-4.52s-5.94-3.3-12.29-3.34-12.25-2.61-13.46-.65,2.07,5.9,6.5,7,7.26,1.63,7.26,1.63H368.5c-4.75,0-7,.68-8.42,2.25s-1.15,4.48-2.44,5.3-3,2.24-3,4.34-3.47,3.67-3.53,5.57-.66,2.39.55,4.08,10.59,6.45,18.6,7,15.36-1.27,20.05-2.46c3.55-.9,5.49-1.6,13.43-1.94,6.07-.26,39.49-1.83,39.49-1.83Z"/><path class="cls-34" d="M508.39,113.77c-6.74-3.47-19.22-1.59-23.24,13.79s-14.34,65.34-14.34,65.34l-27.57,4.2s3.84,16.48,0,28c0,0,33.09-1.75,39.51-1.89s14.11-1.05,18.5-12.39,17.25-56.19,19.42-63.14S526,122.8,508.39,113.77Z"/><path class="cls-35" d="M425.24,87.11c-10.52,2.75-20.2,11.37-22.79,25.18s-1.59,20,3.39,31.7,10.69,19.49,8.55,31.82,1.83,19.32,10.85,28.08c12.87,12.49,45.14,15.53,61.28,0,15.05-14.47,2.81-35.19,2.81-35.19s11.18-10.19,8.59-21.33-6.76-13.73-16.31-18.8-14.75-16.08-17.54-23S449.63,80.75,425.24,87.11Z"/><path class="cls-36" d="M414.39,175.81c-1.44,8.28-.11,14.14,3.64,19.75,6.89,2.85,20.45,7.76,23.58,8.33s23.16-4.31,25.15-4.17,4.39,1.16,9.77,0,7.34-4.19,7.34-4.19l9.27-2.67c1.89-7,.37-13.87-1.28-18.52H414.59C414.53,174.85,414.47,175.32,414.39,175.81Z"/><path class="cls-26" d="M473.46,163.19s46.56-5.77,50.91-6.59,7.2-4.07,12.09-7.2,9.1-4.48,12.5-3.94,8.69.82,10.32,1,.82,3.26-1.9,4.07-8,1.63-7.6,2.17,9.5.55,11-.4,2.31-1.36,3.12-3.13,2.86-1.36,3.94.14a6.24,6.24,0,0,1,.68,6.79c-1.49,2.58-3,3.84-3.12,5a59.41,59.41,0,0,0,.54,6.24c.14,1.9-2.58,4.34-3.12,5.7s-.68,3.53-3.94,5.84a29.58,29.58,0,0,1-11.77,4.53c-3,.28-15-1.52-20.34-1.66s-13,1.77-26.14,4.25c-10.16,1.93-28.54,6.68-28.54,6.68Z"/><path class="cls-7" d="M381.38,121.75s3.59-.91,8.28,2.11,60.35,39.48,61.41,40.08,22.39-.75,22.39-.75,3.32,17.09-1.37,29.49c0,0-23,3.94-26.47,5s-5.89.61-12.7-2-28.74-10.89-35.39-12-15.68-1.18-20.62,7.05c0,0-2.56-10.93.42-28.25C380.49,144.2,381.38,121.75,381.38,121.75Z"/><path class="cls-8" d="M473.37,188.4a33.74,33.74,0,0,1-1.28,4.29s-23,3.93-26.47,5-5.9.6-12.7-2-28.74-10.89-35.4-12-15.66-1.18-20.61,7c2.62-11.66,6.92-27.06,8-40.54.88-11.45-.71-22.23-2.4-26.6a58.36,58.36,0,0,1,5.61,18.52c1.95,13.5,1.52,18.94,1.3,23.51s5.45,9.09,19.16,14.15,31.52,12,34.7,12.86C446.18,193.48,469.92,189.05,473.37,188.4Z"/><path class="cls-29" d="M466.76,163.58c0-1.79,2.38-2,6.13-2.24s5.58-.72,6.95,1.12,3,9.35,2.91,16.87c0,5.59-1.32,12.74-3.37,13.66a23,23,0,0,1-6.37,1.48c-2.39.34-5.79,1-6.25-.86l1.58-.28a46.41,46.41,0,0,0,2.5-14A59.9,59.9,0,0,0,469,163.45Z"/><path class="cls-5" d="M543.46,113.77c-1.29.13-5.8,2-9.91.77s-8.72-8.09-12.2-7.52l-11.58,2.33a18.54,18.54,0,0,1,4.91-4.51c2.91-1.73,11.66-4.25,14.8-5.1,4.13-1.12,9.27-2.12,12.25-1,6.75,2.61,15.61,7.89,17,9.62S590.45,153,595,159.16s9.46,14,8,24.75-4.73,13.46-8.2,14.3S579.1,192,575.15,186.43,549,122.74,547.72,119.74,544.92,113.62,543.46,113.77Z"/><path class="cls-12" d="M254.86,252.55,254.2,257a21.43,21.43,0,0,1-6,.78c-2.18-.26-3.08-.9-2.53-1.6s4-2.48,5.79-4c3.81-3.27,3.79-8,1.19-7-1.51.56-2.78,1.63-4.72,2-2.15.4-4.06,1-7.57,1.67a18.18,18.18,0,0,0-7.59,3.45,5.62,5.62,0,0,1-4.41,1.54l-24.6-8.39h0c-10.19-3.47-19.71-6.71-21.42-7.31-3.84-1.33-4.79-2.57-5.35-5.25-1.11-5.4-4.3-16.48-4.3-16.48l-18.18,27.18A60.8,60.8,0,0,0,157,253c2,6,4.67,8.33,9.34,8.83,2.47.26,17.09,3,31.19,5.82h0s24.86,5.34,31.19,7,12.42,2.67,16.26,2a11.2,11.2,0,0,0,7.07-4.8c.91-1.31,1.79-1.18,4.07-2.74s1-5.1,1.86-6.59c1.05-1.73,2.08-2.49,2-5.34S254.86,252.55,254.86,252.55Z"/><path class="cls-5" d="M62.94,136.31s11.62,28,12.62,30.18,3.13,1.94,16.9,1.46,43-1.7,46.84-2.92,5.11-3.65,7-7.05,3.65-6.08,11.92-8.76,13-5.84,13.86-4.24c.47.87,1.23,3.29-2,5.87s-8,6-7.3,6.76,19.1-3.13,21.73-5.32,1.63-3.47,1.63-3.47a3.32,3.32,0,0,1,3.52,1.54c1.29,2.1,1.51,9.25,1,12.52s-1.16,7.77-5.18,11.47-10.8,7.16-17,8.75c-5,1.28-12,.54-21,2.64s-41.28,9.57-58.65,13.49c-15.67,3.54-32.54,7.37-37.29,5.76s-10-11.8-16.74-30.8Z"/><path class="cls-37" d="M29.63,98.4c-6.19,2.67-15.08,11.43-8.51,38.3s11.67,38.79,11.67,38.79S58.08,179.86,72.43,157c-.25-1.45-7.54-21.88-14.11-37.2S43.73,92.32,29.63,98.4Z"/><path class="cls-8" d="M297.81,116.38s8.3,1.29,12.73,3.84,9.29,3.63,16.75,3.42a37.27,37.27,0,0,0,16.86-4.54c4.54-2.27,7.77-4.8,11-4.56,0,0-1.67-3-27.94-3S297.81,116.38,297.81,116.38Z"/><path class="cls-7" d="M325.47,107c-6.78.32-11.9-1.8-15.4-2.37s-7.46,1.41-12.26,11.72a33,33,0,0,1,10.16,1c5.37,1.41,10.74,3.21,18.5,2.8,9.46-.5,14.95-3.13,19.3-4.22a48.06,48.06,0,0,1,9.35-1.4s-7.68-13.77-14.66-11.29C335.32,105.08,331.4,106.75,325.47,107Z"/><path class="cls-6" d="M300.26,253.89l32.22-12.64L326.86,240h-.28l-41.33,8.84Z"/><path class="cls-37" d="M47.27,85.7s4.94,8.49,12.33,12.45a29.61,29.61,0,0,0,15.88,3.64l3.14,4s-9.35,2.27-20.2-3.39c-10.19-5.31-13.8-13.27-13.8-13.27Z"/><path class="cls-17" d="M167.11,267.91l4.53-.82v-5.82C170.28,263.33,168.76,265.56,167.11,267.91Z"/><path class="cls-17" d="M148.51,252.36c2.57-3.6,24.16-36,24.16-36a75.39,75.39,0,0,1-3.3-27.23,71.16,71.16,0,0,0-3.29,27.55s-17.08,28-21.57,31.43-21.87,1.32-21.87,1.32,8.22,2.74,15.08,4.45S145.94,256,148.51,252.36Z"/><polygon class="cls-13" points="174.82 224.15 156.41 250.74 154.49 243.56 172.67 216.38 174.82 224.15"/><path class="cls-38" d="M89.71,96.93s13.33,0,22.05-14.2c0,0-4,18-22.6,16.85C89.32,98.63,89.51,97.74,89.71,96.93Z"/><path class="cls-11" d="M593.67,262.7c1.52,7,3.8,17.25,5.16,18.57S619.09,285,619.09,285l.34-1.72s-16.53-2.3-18.68-3.14C599.31,279.56,595.34,268.16,593.67,262.7Z"/><path class="cls-22" d="M501.09,319.72a295.58,295.58,0,0,1-2.78-41.07H496s-2.07,13.59,2.24,41.07Z"/><path class="cls-11" d="M88.79,294.05s-3.21,11.82-3.21,15.58,8.35,9.11,10.27,8.9,16.47-3.21,18.4-5.35,4.06-23.1,4.06-23.1-4,20.3-5.3,21.58-14.38,5.07-16.75,4.86-8.75-5.37-8.75-7.12S88.79,294.05,88.79,294.05Z"/><path class="cls-11" d="M67.25,287.74c-3.17,7.05-5.87,16.56-6.93,18.09s-12.52,2.41-12.52,2.41l.51-2.21s7.36-.67,9.22-1,2.32-1.94,3.38-4.43S67.25,287.74,67.25,287.74Z"/><polygon class="cls-3" points="15.33 319.72 27.93 271.31 29.8 271.31 17.74 319.72 15.33 319.72"/><path class="cls-3" d="M26.11,284.34c8.71,1.15,20.91-.49,25.36-14.79l.26,3.11s-1.63,7.8-8.44,11.25a25.85,25.85,0,0,1-17.81,2Z"/><path class="cls-22" d="M510.3,284.31c1.1,8.78,2.31,18.07,4.54,20s18.07,3,20.21,2.19,8.34-7.18,8.46-9.52-2.78-21.43-2.78-21.43.67,18.89.49,20.82-5.06,7.56-7.38,7.94-15.21.46-17-1.64S510.3,284.31,510.3,284.31Z"/><path class="cls-11" d="M585.18,257.15s4,15.43,6.44,29.45,3.72,33.12,3.72,33.12H592.9a246.79,246.79,0,0,0-3.45-33.12c-3.05-16.86-6.5-29.45-6.5-29.45Z"/><path class="cls-22" d="M550.86,276c2.08,12.26,3.47,22.53,1.7,31.67s-2.28,12.06-2.28,12.06h1.54s1.75-9.24,2.63-13.92.63-12.25-2.08-30.25Z"/><path class="cls-22" d="M561.36,271.44c1.15,7.71,2.18,16.58,3.08,18.64s6.9,3.87,6.9,3.87l0,1.66s-6.6-1.32-8.53-4.46S561.36,271.44,561.36,271.44Z"/></g></g></svg>