<svg xmlns="http://www.w3.org/2000/svg" viewBox="0 0 462.32 361.85"><defs><style>.cls-1{fill:#f5f5f5;}.cls-2{fill:#e0e0e0;}.cls-3{fill:#ebebeb;}.cls-4{fill:#eb996e;}.cls-5{fill:#e8505b;}.cls-6{opacity:0.3;}.cls-7{fill:#c3aefd;}.cls-8{fill:#263238;}.cls-9{fill:#936754;}.cls-10{fill:#7c5142;}.cls-11{fill:#ffbe9d;}.cls-12{fill:#fafafa;}</style></defs><title>gals</title><g id="Layer_2" data-name="Layer 2"><g id="Plant"><path class="cls-1" d="M337.17,359.2c-31.68-13.05-45.81-47.22-51.84-79.42-1-5.38-2.84-10.87-1.35-16.12s6.71-9.76,12-8.57c4.37,1,7.12,5.21,10.19,8.52a31.92,31.92,0,0,0,15.17,9.17c3.79,1,8.23,1.15,11.17-1.45,4-3.56,3.17-10,1.95-15.34l-6.78-29.62c-1.22-5.3-2.44-10.71-1.91-16.12s3.14-10.89,7.87-13.42,11.62-1,13.84,3.94c.93,2.06,1,4.4,1.62,6.57s2.21,4.38,4.44,4.53,4-1.83,5.28-3.74c4.29-6.57,6.47-14.3,8.41-21.93s3.76-15.42,7.43-22.37,9.51-13.1,17-15.23,16.64.77,20.22,7.8.92,15.62-2.48,22.73a121.6,121.6,0,0,1-19.43,29c-1.41,1.56-2.94,3.25-3.14,5.35-.37,3.8,3.77,6.56,7.52,6.95,4.25.44,8.45-.93,12.69-1.36s9.13.39,11.57,3.95c3.38,4.94.11,11.64-3.53,16.35a103.84,103.84,0,0,1-26.16,24c-3.59,2.29-7.42,4.46-10,7.9s-3.37,8.64-.64,12,7.88,3.43,11.8,1.76,7.09-4.7,10.66-7c6.68-4.37,16.2-6,22.28-.7,4,3.46,5.54,9.16,5.09,14.45s-2.66,10.23-5.13,14.9c-8.63,16.31-21.14,30.68-36.75,40.31s-30.93,14.7-49.1,12.29"/><path class="cls-2" d="M341,337.33c1.11-17.17,3.9-35.9,7.48-55.38q1.37-7.31,2.71-14.42c.9-4.73,1.79-9.42,2.94-13.95a244.16,244.16,0,0,1,8.14-25.68c3-8,6.1-15.56,9.07-22.57s5.9-13.49,8.8-19.28a193.93,193.93,0,0,1,15.71-26.29c2.09-2.95,3.79-5.18,5-6.68l1.34-1.69a3.66,3.66,0,0,1,.49-.56,4.27,4.27,0,0,1-.4.62l-1.27,1.76c-1.11,1.53-2.76,3.8-4.8,6.78a204.4,204.4,0,0,0-15.4,26.38c-2.85,5.8-5.71,12.28-8.66,19.29s-6,14.54-9,22.57a247.93,247.93,0,0,0-8,25.59c-1.14,4.51-2,9.16-2.92,13.9s-1.78,9.55-2.7,14.41c-3.58,19.47-6.38,38.15-7.54,55.27"/><path class="cls-2" d="M354.36,253.48a12.11,12.11,0,0,1-1-2.15c-.6-1.41-1.41-3.47-2.37-6-1.93-5.11-4.34-12.27-7-20.17s-5.15-15-7.15-20.07c-1-2.54-1.81-4.59-2.4-6a11.12,11.12,0,0,1-.81-2.23,11.15,11.15,0,0,1,1.16,2.07c.7,1.36,1.62,3.37,2.7,5.89,2.18,5,4.81,12.11,7.44,20s4.92,14.86,6.7,20.25l2.08,6.13A10.36,10.36,0,0,1,354.36,253.48Z"/><path class="cls-2" d="M419.74,225.55a15.29,15.29,0,0,1-2.65.93c-1.71.54-4.2,1.32-7.24,2.38-6.1,2.06-14.42,5.21-23.45,9.08s-17,7.76-22.77,10.73c-2.87,1.46-5.16,2.71-6.75,3.56a15.63,15.63,0,0,1-2.52,1.25,14.27,14.27,0,0,1,2.33-1.59c1.53-1,3.78-2.31,6.61-3.86C369,244.9,377,240.91,386,237a246.43,246.43,0,0,1,23.63-8.83c3.08-1,5.61-1.65,7.36-2.08A14.5,14.5,0,0,1,419.74,225.55Z"/><path class="cls-2" d="M341.52,335.89s-.25-.23-.66-.73-1-1.32-1.71-2.21c-1.48-1.92-3.55-4.76-6.07-8.3-5-7.09-11.67-17.09-18.84-28.22s-13.72-21.19-18.6-28.37c-2.38-3.49-4.34-6.35-5.8-8.48l-1.56-2.32a3.53,3.53,0,0,1-.49-.85s.25.23.65.73l1.72,2.2c1.48,1.93,3.55,4.77,6.06,8.31,5,7.08,11.67,17.09,18.85,28.23s13.72,21.18,18.59,28.36c2.39,3.48,4.35,6.35,5.8,8.48L341,335A3.53,3.53,0,0,1,341.52,335.89Z"/><path class="cls-2" d="M425.66,286.5s-.26.23-.81.58l-2.44,1.46-9,5.31c-7.6,4.48-18,10.79-29.55,17.78s-22,13.21-29.72,17.54c-3.85,2.16-7,3.88-9.17,5l-2.53,1.31a4.13,4.13,0,0,1-.91.39,3.37,3.37,0,0,1,.81-.57l2.44-1.47,9-5.3c7.6-4.49,18-10.8,29.55-17.79s22-13.21,29.72-17.53c3.85-2.17,7-3.89,9.17-5l2.53-1.3A4,4,0,0,1,425.66,286.5Z"/><path class="cls-3" d="M5.29,164.07s-10.95,3.07-1.35,26.66S20.58,226.2,20.58,226.2s1.6,5.43-2.89,5.87-14.08-1.95-16.52,3.29c-2.52,5.43,1.1,11.07,9,16.41s24.66,17.7,26.17,18.82,2.85,3.68-.15,4.46-25.09,1.2-24.27,11.67,25.17,21.76,27.81,23,3.19,2.5,2.84,4-7.78.92-14.06,1.29S15,316.94,16,322.94s14.81,19.6,50.65,26.24l16.81,2,10.39-13.45c20.48-30.16,20.53-49.56,17-54.47s-9.73-.87-14.41,3.33-9.51,9.88-10.8,9.09-1.77-2-.83-4.81,10-28,3.16-36-22.68,7.47-25.36,9.05-3.54-1.19-3.28-3,3.29-22.48,5-31.83.26-15.89-5.38-17.92c-5.43-1.95-10.48,6.55-14,9.43s-6.2-2.06-6.2-2.06-3.5-13.35-13.53-36.77-20.13-17.6-20.13-17.6"/><path class="cls-2" d="M81.37,348.26c-7.3-17.23-17.19-41.11-28-67.53S32.7,230.42,25.5,213.16L17,192.73l-2.32-5.56L14,185.71a5.16,5.16,0,0,1-.18-.5s.09.16.23.48l.65,1.43,2.41,5.52c2.1,4.79,5.08,11.75,8.73,20.36,7.3,17.23,17.18,41.11,28,67.51s20.65,50.33,27.86,67.59"/><path class="cls-2" d="M14.46,239.23a5.76,5.76,0,0,1,1.16.42c.72.3,1.76.77,3,1.36,2.55,1.19,6,2.92,9.83,4.9L38.2,251l2.95,1.53a4.47,4.47,0,0,1,1.06.62,5.53,5.53,0,0,1-1.15-.41c-.73-.31-1.77-.77-3-1.38-2.54-1.21-6-3-9.8-5l-9.74-5-3-1.52A5,5,0,0,1,14.46,239.23Z"/><path class="cls-2" d="M43.46,252.2c-.15-.07,3.1-7.4,7.25-16.38s7.63-16.2,7.78-16.13-3.1,7.4-7.26,16.38S43.6,252.26,43.46,252.2Z"/><path class="cls-2" d="M58.26,293.51a4.85,4.85,0,0,1,.76-1L61.25,290c1.87-2.17,4.45-5.17,7.18-8.58s5.11-6.58,6.81-8.89c.8-1.07,1.47-2,2-2.73a6.27,6.27,0,0,1,.8-1,5,5,0,0,1-.61,1.1c-.43.68-1.06,1.65-1.87,2.84-1.62,2.37-4,5.59-6.69,9s-5.38,6.39-7.34,8.5c-1,1-1.79,1.88-2.36,2.44A4.86,4.86,0,0,1,58.26,293.51Z"/><path class="cls-2" d="M29.45,287.55a4.29,4.29,0,0,1,1.15.11c.74.11,1.8.28,3.1.51,2.62.45,6.22,1.11,10.19,1.88s7.56,1.5,10.16,2.05c1.29.28,2.34.51,3.06.69a4.16,4.16,0,0,1,1.11.33,4.29,4.29,0,0,1-1.15-.11c-.74-.11-1.8-.28-3.1-.51-2.62-.45-6.22-1.11-10.19-1.88s-7.56-1.5-10.15-2.05c-1.3-.28-2.35-.51-3.07-.69A4.34,4.34,0,0,1,29.45,287.55Z"/><path class="cls-2" d="M37.89,325.68a7.25,7.25,0,0,1,1.47.16l4,.63c3.35.57,8,1.38,13.08,2.32s9.71,1.81,13,2.48l3.94.81a7.28,7.28,0,0,1,1.43.38,7.53,7.53,0,0,1-1.47-.15l-4-.64c-3.36-.56-8-1.38-13.08-2.31s-9.71-1.82-13-2.48l-3.94-.82A6.49,6.49,0,0,1,37.89,325.68Z"/><path class="cls-2" d="M74,332.05a8.87,8.87,0,0,1,.94-1.27l2.71-3.36c2.28-2.83,5.42-6.76,8.77-11.18s6.28-8.51,8.39-11.47c1-1.42,1.84-2.6,2.49-3.51a9.7,9.7,0,0,1,1-1.26,7.06,7.06,0,0,1-.78,1.38c-.54.87-1.33,2.11-2.35,3.62-2,3-4.9,7.16-8.26,11.59s-6.55,8.32-8.92,11.09c-1.18,1.38-2.15,2.49-2.84,3.24A8.11,8.11,0,0,1,74,332.05Z"/><path class="cls-4" d="M182.46,142.89l-6.55-.17q2.57,17.79,5.12,35.57c49.55,1,98.87-24.66,126.4-65.88Z"/><path class="cls-5" d="M133.76,148.93c2.74,0,52.33-9.12,52.33-9.12l9.37,44.89L148,216.35Z"/><g class="cls-6"><path d="M133.76,148.93c2.74,0,52.33-9.12,52.33-9.12l9.37,44.89L148,216.35Z"/></g><path class="cls-7" d="M223.15,147.05s-37.38,5.88-48.3,20.58-21.42,18.06-16.38,53.76c0,0,45.36,15.54,45.36,16.8s9,123.66,9,123.66H337.53l-9-145.92,41.56-28.26s-17.44-62.6-55.31-59.48C259.16,132.77,223.15,147.05,223.15,147.05Z"/><path class="cls-8" d="M288.61,287.07a2.27,2.27,0,0,1-.16.56l-.57,1.58c-.25.68-.57,1.51-1,2.45s-.85,2-1.43,3.2-1.18,2.45-1.92,3.79-1.56,2.75-2.43,4.23a86.23,86.23,0,0,1-14,17.34c-1.26,1.17-2.45,2.29-3.63,3.26s-2.28,1.88-3.31,2.68-2,1.46-2.83,2.06-1.58,1.09-2.19,1.48l-1.42.88a2.2,2.2,0,0,1-.51.28s.14-.14.45-.37l1.36-1c.6-.41,1.33-.92,2.15-1.54s1.77-1.3,2.77-2.13,2.11-1.69,3.25-2.7,2.33-2.11,3.58-3.28a90.95,90.95,0,0,0,14-17.25c.88-1.47,1.74-2.84,2.46-4.19s1.39-2.58,2-3.74,1.06-2.22,1.5-3.15.78-1.75,1.06-2.42.48-1.13.66-1.53A2.42,2.42,0,0,1,288.61,287.07Z"/><path class="cls-8" d="M292.11,271.17a10.16,10.16,0,0,1-.93,1.39c-.62.88-1.56,2.12-2.75,3.63a139.38,139.38,0,0,1-21.09,21.34c-1.49,1.21-2.72,2.17-3.59,2.8a9.91,9.91,0,0,1-1.37.95,9.21,9.21,0,0,1,1.25-1.11c.83-.68,2-1.68,3.48-2.92,2.92-2.49,6.87-6,11-10.19s7.6-8.15,10.05-11.11c1.23-1.47,2.21-2.68,2.88-3.51A10.74,10.74,0,0,1,292.11,271.17Z"/><path class="cls-8" d="M178.36,24.52c-1.59-1.77-4.53.3-5.31,2.55s-1,5-3,6.27c-2.66,1.64-7.19-.34-8.66,2.41-1.13,2.12,1.11,4.61.79,7-.58,4.25-7.84,4-9.48,7.94-1,2.36.57,4.92,1.76,7.18s1.91,5.47-.12,7-5.38.34-7,2.26c-2.14,2.56,1.84,6.16,1.43,9.48-.3,2.43-2.84,3.88-5.16,4.65s-5,1.41-6.34,3.42c-3.06,4.47,2.69,10.3,1.8,15.64-.54,3.23-3.52,6.22-2.43,9.31,1.39,4,8,3.82,9.38,7.78,1.15,3.36-2.37,7.7.08,10.28s6.82-.52,10,.87c3.66,1.6,3.67,8.12,7.63,8.67,1.76.25,3.45-1,5.23-.89,4.31.19,6.21,7.42,10.48,6.7,2.49-.42,4.16-3.6,6.66-3.24s3.18,3.73,5.38,4.85c3.44,1.73,6.74-2.93,10.55-3.5,2.38-.36,4.85,1,7.15.28s3.55-3,3.8-5.27a21.6,21.6,0,0,0-.85-6.8,67.48,67.48,0,0,1,2.5-37.26"/><path class="cls-9" d="M204.32,157.5l-1.66-19.69s-19.82-.88-26.9-25.74C172.23,99.7,170.34,79,169.4,61.93,168.35,43.14,186.62,21.39,202,21.16L248.7,32.63l.82,8.2,10.11,111.85a27.75,27.75,0,0,1-24.81,30.11h0A27.76,27.76,0,0,1,204.32,157.5Z"/><path class="cls-8" d="M176.36,79.47c.45.38,2.69-1.74,6.19-2.16s6.28,1,6.61.56c.16-.22-.34-.93-1.56-1.61a9,9,0,0,0-5.35-1,8.67,8.67,0,0,0-4.87,2.25C176.41,78.49,176.14,79.3,176.36,79.47Z"/><path class="cls-8" d="M208.77,73.84c.45.37,2.7-1.75,6.2-2.16s6.27,1,6.6.55c.16-.21-.34-.93-1.56-1.6a9,9,0,0,0-5.34-1,8.57,8.57,0,0,0-4.87,2.25C208.82,72.86,208.55,73.67,208.77,73.84Z"/><path class="cls-8" d="M200.08,96.12c0-.2-2.23-.31-5.81-.34-.9,0-1.77-.06-2-.65a4.55,4.55,0,0,1,.28-2.72c.57-2.26,1.18-4.64,1.82-7.12,2.5-10.13,4.19-18.42,3.78-18.51s-2.76,8-5.26,18.16c-.6,2.5-1.17,4.87-1.71,7.15-.21,1.06-.66,2.28,0,3.56a2.25,2.25,0,0,0,1.63,1.13,6.21,6.21,0,0,0,1.54,0C197.89,96.57,200.09,96.32,200.08,96.12Z"/><path class="cls-10" d="M202.66,137.81a64.88,64.88,0,0,0,32.86-13.15s-6.68,18.61-32.34,19.3Z"/><path class="cls-10" d="M202.58,104.37a6.36,6.36,0,0,1,5.37-3,5.82,5.82,0,0,1,4.23,1.65,3.68,3.68,0,0,1,.78,4.14c-.78,1.44-2.72,2-4.45,1.71a13.36,13.36,0,0,1-4.79-2.13,3.84,3.84,0,0,1-1.13-.91,1.18,1.18,0,0,1-.15-1.3"/><path class="cls-8" d="M210.67,97.3c-.57,0-.12,3.83-3,6.92s-7,3.16-7,3.69c0,.25,1,.63,2.7.47a9.49,9.49,0,0,0,5.86-2.87,8.29,8.29,0,0,0,2.31-5.77C211.46,98.13,210.93,97.25,210.67,97.3Z"/><path class="cls-8" d="M207.09,55c.46.91,3.9,0,8.06,0s7.62.71,8.06-.2c.2-.44-.49-1.27-1.94-2A14,14,0,0,0,209,53C207.55,53.77,206.89,54.61,207.09,55Z"/><path class="cls-8" d="M175.24,61.86c.71.72,3-.4,5.92-.78s5.41-.12,5.88-1c.2-.43-.28-1.18-1.45-1.8a8.63,8.63,0,0,0-9.5,1.45C175.16,60.65,174.92,61.5,175.24,61.86Z"/><path class="cls-8" d="M180,28.3c0,.3.93.44,2,.33s1.92-.43,1.89-.73-.93-.44-2-.33S179.92,28,180,28.3Z"/><path class="cls-8" d="M182.1,33C174.23,20.71,188,8.31,194.73,4s15.61-5.43,22.86-2.09c3.31,1.53,6.31,3.94,9.91,4.46,8.31,1.22,16.2-8,24.1-5.14,6.51,2.34,8.51,11.51,15,13.79,3.15,1.1,6.59.29,9.92.31s7.23,1.42,8,4.66c.85,3.62-2.61,7.86-.35,10.8,2.79,3.6,9.5-.71,12.9,2.32,3.18,2.83.46,9.5,4.2,11.54,2.73,1.5,6.83-1.06,9,1.21,2.28,2.43-1.13,6.12-1.18,9.45s3.41,5.69,6.35,7.47,6.12,4.74,5.14,8c-1.14,3.79-7.06,4.72-7.7,8.62s5.05,7.8,3,11.34c-1.35,2.35-5,2.1-6.85,4.11-3,3.34-11.08,9.66-12.3,14-1.67,6,.86,3.54-2.43,8.83-1.84,2.94-1.08,7.4-3.89,9.41s-7-.29-10.46.48c-5.66,1.26-8.29,10.32-14,9.19-2.91-.58-5.35-3.92-8.15-2.91-2.41.86-3,4.49-5.5,5.15-3.35.89-4.81-4-7.13-6.57-3.09-3.42-9.06-3-12-6.61-2.61-3.22-1.45-8,.16-11.83s3.58-8,2.2-12c-1.56-4.46-7.24-7.88-5.84-12.4,1.54-4.93,10.42-5.35,10.51-10.52.09-4.89-8.28-6.79-7.85-11.66.29-3.26,4.55-5,5.05-8.22.58-3.78-4.18-6.44-4.51-10.25-.21-2.43,1.44-4.56,2.55-6.73S237,37,235,35.66c-3.2-2.2-7.17,2.83-11,2.1-2.67-.51-3.93-3.48-5.11-5.93,0,0-7.92-9.69-20-6.94S182.1,33,182.1,33Z"/><path class="cls-8" d="M181.44,28.37c-2.19,2.72-.55,7.52,2.85,8.34,3.17.75,6.19-1.5,8.71-3.57s5.67-4.22,8.78-3.25c5.71,1.76,5.18,11.81,10.94,13.41,2.36.66,4.79-.48,7.12-1.25s5.3-1,6.84.93c2.07,2.55.11,7.2,2.73,9.18,1.1.82,2.67.84,3.68,1.77,1.62,1.5.74,4.27-.71,5.93s-3.43,3.06-4,5.19c-.92,3.4,2.18,6.51,5.19,8.33s6.59,3.59,7.55,7c1.55,5.45-4.79,11.51-1.93,16.41,1.61,2.76,5.63,3.35,8.5,1.94s4.73-4.29,6-7.24c5.13-12.06,2-25.88-1.5-38.52-2.26-8.29-4.77-16.85-10.41-23.33-5.86-6.72-14.48-10.42-23.15-12.49-6.63-1.58-13.6-2.33-20.24-.8s-12.93,5.57-16,11.66"/><path class="cls-7" d="M266.23,136.07a1.55,1.55,0,0,0,.47.21,1.83,1.83,0,0,0,1.49-.31,3.58,3.58,0,0,0,1.37-2.07,3.32,3.32,0,0,0,0-1.63,4.22,4.22,0,0,0-.91-1.6,10.54,10.54,0,0,0-3.55-2.33,13.06,13.06,0,0,1-4.14-2.53,4,4,0,0,1-1.18-2.27,4.08,4.08,0,0,1,.73-2.6,24.07,24.07,0,0,1,2-2.37,8.37,8.37,0,0,0,1.87-2.84,3.71,3.71,0,0,0-.69-3.56,8.5,8.5,0,0,0-3.12-2.06c-1.13-.51-2.31-.94-3.39-1.54a4.69,4.69,0,0,1-2.41-2.55,3.68,3.68,0,0,1,.84-3.41,32.57,32.57,0,0,1,2.83-3A10.1,10.1,0,0,0,260.93,96a5.22,5.22,0,0,0-.74-4.56,12,12,0,0,0-3.39-3.2c-1.31-.87-2.68-1.54-3.92-2.43a8.86,8.86,0,0,1-3-3.24,4.87,4.87,0,0,1,.13-4.26,24.44,24.44,0,0,1,2.62-4,10.52,10.52,0,0,0,2.24-4.65,5.31,5.31,0,0,0-.49-2.71,5.91,5.91,0,0,0-1.79-2.05,27.46,27.46,0,0,0-4.62-2.4,8.42,8.42,0,0,1-3.82-2.86,4.64,4.64,0,0,1-.05-4.42A26.4,26.4,0,0,1,246.64,51a10.88,10.88,0,0,0,1.87-4.73,4.77,4.77,0,0,0-.48-2.59,4.47,4.47,0,0,0-1.89-1.84,10.17,10.17,0,0,0-4.85-.64,20.41,20.41,0,0,1-4.51-.09,4,4,0,0,1-3.11-2.38c-.56-1.28-.68-2.77-1.21-4.21a5.36,5.36,0,0,0-3.11-3.24c-2.84-1.14-5.76-.43-8.3-.11a12.62,12.62,0,0,1-3.78,0,9.62,9.62,0,0,1-3.33-1.35,48.47,48.47,0,0,1-5.38-4.49A15,15,0,0,0,203,22a12.11,12.11,0,0,0-5.8-.25A11.24,11.24,0,0,0,189.75,27,11.6,11.6,0,0,0,188,32.52a7.48,7.48,0,0,0,.15,2s-.06-.7,0-2a11.78,11.78,0,0,1,1.84-5.36,10.84,10.84,0,0,1,7.23-4.89,11.53,11.53,0,0,1,5.53.3,14.46,14.46,0,0,1,5.3,3.28,48.73,48.73,0,0,0,5.43,4.6,10.21,10.21,0,0,0,3.59,1.48,13.08,13.08,0,0,0,4,0c2.62-.33,5.38-.94,7.89.11a4.49,4.49,0,0,1,2.64,2.76c.47,1.3.58,2.79,1.2,4.26A4.83,4.83,0,0,0,236.6,42a20.8,20.8,0,0,0,4.72.13,9.36,9.36,0,0,1,4.41.55,3.59,3.59,0,0,1,1.49,1.45,3.82,3.82,0,0,1,.37,2.1,10,10,0,0,1-1.73,4.29,26.13,26.13,0,0,0-2.64,4.3,7.2,7.2,0,0,0-.63,2.61,5.25,5.25,0,0,0,.72,2.67,9.39,9.39,0,0,0,4.24,3.22A27,27,0,0,1,252,65.6a5.29,5.29,0,0,1,1.52,1.72,4.45,4.45,0,0,1,.39,2.19,9.75,9.75,0,0,1-2.06,4.21,24.76,24.76,0,0,0-2.71,4.18,5.83,5.83,0,0,0-.11,5,9.72,9.72,0,0,0,3.34,3.59c1.3.92,2.71,1.61,3.94,2.43a11.14,11.14,0,0,1,3.16,2.94,4.36,4.36,0,0,1,.66,3.82,9.35,9.35,0,0,1-2.31,3.34,33.81,33.81,0,0,0-2.89,3.08,4.52,4.52,0,0,0-.94,4.12,5.43,5.43,0,0,0,2.8,3c1.16.63,2.35,1,3.46,1.54a7.7,7.7,0,0,1,2.87,1.85,3,3,0,0,1,.59,2.91c-.69,2-2.6,3.32-3.7,5.09a4.66,4.66,0,0,0-.78,3,4.6,4.6,0,0,0,1.36,2.56,13.28,13.28,0,0,0,4.34,2.58,10.15,10.15,0,0,1,3.45,2.17,3.06,3.06,0,0,1,.91,2.91,3.38,3.38,0,0,1-1.21,2,1.71,1.71,0,0,1-1.36.37C266.4,136.12,266.24,136,266.23,136.07Z"/><path class="cls-7" d="M157.72,126.07a2.15,2.15,0,0,1-1,.55,3.16,3.16,0,0,1-2.84-1.46c-.89-1.2-.66-3.15-.67-5.32a8.47,8.47,0,0,0-.83-3.45,35.09,35.09,0,0,1-1.53-3.53,3.61,3.61,0,0,1,.68-3.67,10.91,10.91,0,0,1,3.83-2.25c1.43-.65,3.17-1.14,4.36-2.71a3.4,3.4,0,0,0,.45-2.83A5.35,5.35,0,0,0,158.51,99c-1.35-1.25-3.07-2.18-3.83-3.7s.21-3.34,1.77-4.34,3.52-1.46,5.37-2.53a5.85,5.85,0,0,0,2.34-2.29,5.58,5.58,0,0,0,.59-3.27A14,14,0,0,0,162.39,77a17.65,17.65,0,0,1-2.55-5.22,5.83,5.83,0,0,1,1.22-5c1.11-1.44,2.55-2.62,3.76-4a9.29,9.29,0,0,0,2.35-4.89,19,19,0,0,0-.07-5.07c-.39-3.19-.92-6.15-.27-8.75a14,14,0,0,1,3.32-6.31,14.65,14.65,0,0,1,4.33-3.3A18.06,18.06,0,0,1,179,33a6,6,0,0,0-1.23.07,13.16,13.16,0,0,0-3.4,1,14.65,14.65,0,0,0-4.55,3.28,14.28,14.28,0,0,0-3.59,6.51c-.73,2.75-.2,5.84.15,9a18.23,18.23,0,0,1,0,4.84,8.45,8.45,0,0,1-2.18,4.46c-1.15,1.33-2.61,2.5-3.82,4.05A6.72,6.72,0,0,0,158.94,72c.95,4.1,4.49,7,4.88,11a4.73,4.73,0,0,1-.49,2.74,4.89,4.89,0,0,1-2,1.92c-1.65,1-3.71,1.36-5.43,2.59a6,6,0,0,0-2.08,2.33,3.64,3.64,0,0,0,0,3.14c1,1.91,2.8,2.78,4.06,4a4.56,4.56,0,0,1,1.4,1.95,2.59,2.59,0,0,1-.33,2.14c-.87,1.23-2.54,1.81-4,2.45a11.44,11.44,0,0,0-4.07,2.49,4.26,4.26,0,0,0-1,2.13,5.05,5.05,0,0,0,.23,2.21,31.75,31.75,0,0,0,1.63,3.58,7.91,7.91,0,0,1,.84,3.23c.08,2.1-.15,4.16.9,5.51a3.31,3.31,0,0,0,3.18,1.43A1.3,1.3,0,0,0,157.72,126.07Z"/><path class="cls-7" d="M295.51,105.05a8,8,0,0,0,3.53-2,9.35,9.35,0,0,0,2.43-4.19,7.93,7.93,0,0,0-.82-6.36l.25,0a2.93,2.93,0,0,1-1.37,1.85,4.2,4.2,0,0,1-2.37.57,3.8,3.8,0,0,1-2.4-1,4.86,4.86,0,0,1-1.38-2.32,7.33,7.33,0,0,1,.89-5.59,21,21,0,0,1,4.09-4.64l.15.34a28.79,28.79,0,0,1-7.47,0,10.89,10.89,0,0,1-3.75-1.37,8.65,8.65,0,0,1-2.88-3,6.16,6.16,0,0,1-.83-4.17,7,7,0,0,1,2.25-3.75c1.07-1,2.27-1.89,3.35-2.89a7.48,7.48,0,0,0,2.21-3.72,3.85,3.85,0,0,0-.07-2.13,2.83,2.83,0,0,0-1.41-1.54c-1.33-.66-3-.24-4.47.1s-3.21.8-4.88.22a3.79,3.79,0,0,1-2-1.63,5.91,5.91,0,0,1-.77-2.44c-.45-3.44,1.68-6.62,1-9.89a4.85,4.85,0,0,0-1-2.16,5.37,5.37,0,0,0-2-1.4,10.45,10.45,0,0,0-5-.6,30.67,30.67,0,0,0-5.46,1.21,18.81,18.81,0,0,1-5.58.78,7.3,7.3,0,0,1-5.08-2.22,10,10,0,0,1-2.31-5c-.72-3.55-.56-7.11-1.31-10.43a8.8,8.8,0,0,0-2.16-4.39,6.58,6.58,0,0,0-4.31-1.89,18.19,18.19,0,0,0-4.76.46,39.82,39.82,0,0,1-4.69.76,10,10,0,0,1-4.61-.69,19.46,19.46,0,0,1-3.86-2.29,36.78,36.78,0,0,0-3.56-2.38,8.54,8.54,0,0,0-3.83-1.17,9,9,0,0,0-3.77.84c-1.18.51-2.29,1.14-3.39,1.71a16.47,16.47,0,0,1-3.38,1.41,14.36,14.36,0,0,1-3.45.49,41.4,41.4,0,0,1-6.32-.53,33.25,33.25,0,0,0-5.45-.4,14.14,14.14,0,0,0-4.46,1,8.19,8.19,0,0,0-4.69,4,7.59,7.59,0,0,0-.54,2.14s0-.2,0-.57a2.44,2.44,0,0,1,.11-.69,4.45,4.45,0,0,1,.3-.92A8.22,8.22,0,0,1,189,18.42a14.37,14.37,0,0,1,4.52-1,32.37,32.37,0,0,1,5.5.36,40.1,40.1,0,0,0,6.27.48,14,14,0,0,0,3.36-.48,17.19,17.19,0,0,0,3.31-1.4c1.09-.58,2.2-1.21,3.4-1.74a9.32,9.32,0,0,1,3.94-.89,8.91,8.91,0,0,1,4,1.21A36.35,36.35,0,0,1,227,17.33a19.36,19.36,0,0,0,3.78,2.23,9.47,9.47,0,0,0,4.4.64,38.63,38.63,0,0,0,4.64-.76,18.81,18.81,0,0,1,4.89-.48,7,7,0,0,1,4.61,2,9.18,9.18,0,0,1,2.31,4.62c.77,3.41.61,7,1.32,10.43a9.37,9.37,0,0,0,2.19,4.71,6.8,6.8,0,0,0,4.73,2.07,18.46,18.46,0,0,0,5.42-.78,32.19,32.19,0,0,1,5.55-1.22,11.06,11.06,0,0,1,5.22.64A5.86,5.86,0,0,1,278.19,43a5.22,5.22,0,0,1,1.15,2.39c.67,3.59-1.48,6.73-1,10a5.27,5.27,0,0,0,.7,2.22A3.27,3.27,0,0,0,280.73,59c1.45.52,3.07.11,4.6-.23a17,17,0,0,1,2.37-.43,4.45,4.45,0,0,1,2.43.38,3.29,3.29,0,0,1,1.65,1.81,4.4,4.4,0,0,1,.09,2.41,8,8,0,0,1-2.36,4c-1.11,1-2.32,1.88-3.35,2.87a6.59,6.59,0,0,0-2.13,3.5,5.7,5.7,0,0,0,.77,3.87,8.31,8.31,0,0,0,2.72,2.81,10.66,10.66,0,0,0,3.59,1.32,28.84,28.84,0,0,0,7.36.07l.57,0-.42.38a20.8,20.8,0,0,0-4,4.53,7,7,0,0,0-.89,5.32A4.47,4.47,0,0,0,295,93.69a3.51,3.51,0,0,0,2.19.88,3.21,3.21,0,0,0,3.47-2.18l.07-.32.17.28a8.16,8.16,0,0,1,.79,6.56,9.36,9.36,0,0,1-2.54,4.24,7.88,7.88,0,0,1-2.6,1.64C295.87,105,295.51,105.05,295.51,105.05Z"/><path class="cls-10" d="M178.49,90.59c-.14,0-.32-.37-.4-.87s0-.93.12-1,.32.37.4.87S178.63,90.57,178.49,90.59Z"/><path class="cls-10" d="M185,88.4c-.14.06-.34-.14-.47-.44s-.12-.6,0-.65.34.14.47.45S185.08,88.35,185,88.4Z"/><path class="cls-10" d="M182.6,94.34c-.15,0-.25-.43-.22-.93s.16-.91.3-.9.24.42.22.93S182.74,94.34,182.6,94.34Z"/><path class="cls-10" d="M216.7,85.12c-.1.1-.41,0-.69-.32s-.42-.58-.32-.68.41,0,.69.31S216.8,85,216.7,85.12Z"/><path class="cls-10" d="M222.73,83.56c-.09.11-.4,0-.71-.21s-.47-.5-.39-.62.41,0,.71.21S222.81,83.44,222.73,83.56Z"/><path class="cls-10" d="M220.46,88.77c-.15,0-.22-.36-.17-.76s.21-.72.35-.7.22.36.17.77S220.6,88.79,220.46,88.77Z"/><path class="cls-10" d="M211.41,88.77c-.14-.06-.12-.39,0-.74s.38-.59.51-.54.12.39,0,.74S211.54,88.83,211.41,88.77Z"/><path class="cls-10" d="M229.92,82.93c-.13.06-.38-.25-.56-.67s-.21-.82-.08-.88.39.25.56.68S230.06,82.88,229.92,82.93Z"/><path class="cls-10" d="M177.14,97.62c-.13-.06-.06-.47.14-.92s.49-.77.62-.71.06.48-.14.93S177.28,97.68,177.14,97.62Z"/><path class="cls-9" d="M157.34,210.65c.15,2,18.68,109.18,24.31,127.38,4.86,15.7,27.35,34.39,46,15.71,17.82-17.81,25.16-97.81,25.16-97.81l-41.94,1.94-.58-47.22s-31-11.14-55.39,0"/><path class="cls-11" d="M329,115.48c-5.28-12.88-28.9-9.59-28.9-9.59S226.69,171.82,216,181.64,203.33,201,203.61,203.77c0,0-2.53,26.18-.83,35.94s10.45,25.83,17.78,24c0,0,5.9-3.18,2.86-7.2,0,0,6.15,4,8.44-.45s-3.72-10-3.72-10,7.51,5.68,9.4-.66-5.8-10.23-5.8-10.23-5.31-10.43-3.53-16.17,9.93-6.8,10.61-16.74c.3-4.32.47-7.57.58-9.87l87.26-52.17S334.29,128.36,329,115.48Z"/><path class="cls-8" d="M163.52,151.15a8.76,8.76,0,0,1-.3-3.77,10.5,10.5,0,0,1,1.72-4.06A27.75,27.75,0,0,1,169,139a25.35,25.35,0,0,0,4.89-5.7,21.52,21.52,0,0,0,2.84-8.2,21.08,21.08,0,0,0-.93-9.54,58.5,58.5,0,0,0-4.27-9.22,45.29,45.29,0,0,1-3.93-9,16.54,16.54,0,0,1-.18-8.87c1.52-5.6,4.86-10,6.55-14.27a17.11,17.11,0,0,0,1.38-10.67,9.35,9.35,0,0,0-1.09-2.75c-.35-.57-.6-.83-.63-.81a22.37,22.37,0,0,1,1.15,3.68A17.31,17.31,0,0,1,173,73.68c-1.74,4.08-5.19,8.38-6.92,14.35a17.94,17.94,0,0,0,.1,9.61,45.45,45.45,0,0,0,4,9.36,58.71,58.71,0,0,1,4.19,9,19.93,19.93,0,0,1,1,8.91,20.67,20.67,0,0,1-2.54,7.74,24.66,24.66,0,0,1-4.56,5.56,27.13,27.13,0,0,0-4,4.67,10.73,10.73,0,0,0-1.6,4.44,6.45,6.45,0,0,0,.35,3C163.24,150.89,163.49,151.17,163.52,151.15Z"/><path class="cls-8" d="M85.26,124a13.55,13.55,0,0,1-12.43,8.18,16.37,16.37,0,0,1-13.26-7.37,20.71,20.71,0,0,1-2.85-15.14c.43-2.34,1.22-4.69,1-7-.38-3.36-2.83-6.13-3.67-9.41-1.5-5.89,2.81-12.12,8.42-14.48s12-1.63,17.91,0"/><path class="cls-8" d="M170.72,55.79c5.4,5.43,3.34,12.57.82,17.4s-5.55,9.73-5.61,15.18,3,10.64,4.53,16a29.85,29.85,0,0,1-1.61,20.57c-2.22,4.81-5.7,8.95-7.95,13.74s-3.08,10.82,0,15.14a9.48,9.48,0,0,1-6.66-5.34,18.58,18.58,0,0,1-1.57-8.64c.24-11.22,5.61-22.12,4.27-33.27-.78-6.48-3.82-12.69-3.4-19.21s4.27-12.26,7-18.19,4.41-13.33.72-18.74"/><path class="cls-8" d="M157.43,34.5c6.62.86,13.19,4.33,16.39,10.19s2.1,14.15-3.37,18c-5.16,3.61-12.47,2.42-17.77-1a20.43,20.43,0,0,1-8.59-10.63,14.5,14.5,0,0,1,2.06-13.23c2.87-3.65,8.11-5.45,12.46-3.81"/><path class="cls-8" d="M162.84,33.83c-2.92-8.06-10.08-14.14-18.15-17s-17-2.82-25.38-1.24-16.49,4.63-24.5,7.67C89,25.45,83,27.73,78.27,31.78s-7.89,9.54-10,15.33c-4,10.88-4.17,18.86.52,29.46,2,4.62.38,9.79,2.21,14.5s10.32,10.3,7.68,14.61"/><path class="cls-11" d="M167.11,63.52c-.13-15.24-9.19-34.41-24.4-33.63l-47.9,9.39a8.91,8.91,0,0,0-8.45,8.6L82.61,158.32l56.53,12.89c.51-8.85,0-30.39,0-30.34s19.57-2.17,25-27.27C166.78,101.12,167.26,80.45,167.11,63.52Z"/><path class="cls-8" d="M162.15,80.15c-.43.4-2.79-1.55-6.28-1.73s-6.15,1.43-6.51,1c-.17-.2.28-.94,1.44-1.69A8.88,8.88,0,0,1,156,76.4a8.58,8.58,0,0,1,5,1.9C162,79.19,162.36,80,162.15,80.15Z"/><path class="cls-8" d="M127.68,79.23c-.42.4-2.79-1.56-6.28-1.74s-6.15,1.43-6.5,1c-.18-.2.27-1,1.43-1.7a9,9,0,0,1,5.24-1.31,8.57,8.57,0,0,1,5,1.91C127.56,78.26,127.89,79.05,127.68,79.23Z"/><path class="cls-8" d="M139,99.4c0-.2,2.18-.46,5.73-.71.89,0,1.75-.18,1.93-.78a4.49,4.49,0,0,0-.45-2.68L143.9,88.3c-3.14-9.87-5.36-18-5-18.09s3.27,7.78,6.41,17.65c.75,2.43,1.48,4.75,2.16,7,.28,1,.8,2.21.27,3.52a2.25,2.25,0,0,1-1.53,1.23,6.1,6.1,0,0,1-1.53.12C141.16,99.7,139,99.6,139,99.4Z"/><path class="cls-4" d="M139.14,140.87A64.43,64.43,0,0,1,105.73,130s8.06,17.91,33.52,16.91Z"/><path class="cls-8" d="M129.79,62.67c-.4.93-3.86.29-8,.56s-7.51,1.21-8,.33c-.22-.42.4-1.28,1.79-2.13a13.95,13.95,0,0,1,12.17-.68C129.24,61.44,130,62.23,129.79,62.67Z"/><path class="cls-8" d="M161.32,63.84c-.66.76-3-.2-5.91-.39s-5.38.24-5.9-.62c-.22-.42.21-1.19,1.32-1.88a8.58,8.58,0,0,1,9.51.81C161.32,62.63,161.61,63.46,161.32,63.84Z"/><path class="cls-4" d="M137,107.35a5.86,5.86,0,0,0-5.14-2.46,5.36,5.36,0,0,0-3.81,1.78,3.41,3.41,0,0,0-.47,3.87,4,4,0,0,0,4.22,1.31,12.39,12.39,0,0,0,4.29-2.26,3.6,3.6,0,0,0,1-.91,1.09,1.09,0,0,0,.06-1.21"/><path class="cls-8" d="M129.12,101.31c.53,0,.34,3.53,3.24,6.21s6.67,2.49,6.67,3c0,.23-.87.64-2.47.6a8.79,8.79,0,0,1-5.58-2.29,7.65,7.65,0,0,1-2.49-5.19C128.43,102.13,128.88,101.28,129.12,101.31Z"/><path class="cls-8" d="M163.27,40.62c-1.66,7.94-14.39,8.54-22.26,6.55a25.78,25.78,0,0,1-23.24,8.5,7,7,0,0,0-3.47-.06,7.14,7.14,0,0,0-2.75,2.44,22.61,22.61,0,0,1-14.26,7.83A20.36,20.36,0,0,1,81,81.73s-2.53-1.44-1-11.61S81.49,38.6,81.49,38.6l28.42-11,33.48-4.31S166.07,27.18,163.27,40.62Z"/><path class="cls-7" d="M69.17,77.75c.22,0,.06-2.81,2.12-7A18,18,0,0,1,86.62,60.8l.44,0,.13-.44c1.24-4,3.4-8.27,7.21-11.23s9.48-4.14,14-1.56l.74.42.34-.82c.12-.28.25-.59.37-.9a19.93,19.93,0,0,1,17-11.71,22.19,22.19,0,0,1,4.89.41,11.44,11.44,0,0,0,5,0,9.26,9.26,0,0,0,3.91-2.63,17.16,17.16,0,0,1,3-2.64,14,14,0,0,1,11.56-1.56,23.49,23.49,0,0,1,4.07,1.89s-.26-.32-.87-.83a12.86,12.86,0,0,0-3-1.62,14.29,14.29,0,0,0-12.31,1.23c-2.43,1.34-4,4.21-6.67,5s-6-.87-9.63-.64a21.18,21.18,0,0,0-18.34,12.5c-.13.34-.27.68-.4,1l1.08-.4c-5.25-3-11.6-1.49-15.62,1.72A23.41,23.41,0,0,0,86,60l.58-.45a19,19,0,0,0-10.59,4,18.22,18.22,0,0,0-5.34,6.86,17.26,17.26,0,0,0-1.47,5.37A5.67,5.67,0,0,0,69.17,77.75Z"/><path class="cls-7" d="M114.41,53.44c0,.09.68.42,2,.81a21.11,21.11,0,0,0,6,.67,24.56,24.56,0,0,0,17.78-8.32l-.93.17.81.42a19.16,19.16,0,0,0,11.28,1.69,18.28,18.28,0,0,0,8.51-3.76A17.35,17.35,0,0,0,164,40.43a5.12,5.12,0,0,0,.9-2.09c-.24-.18-1.56,2.93-5.67,5.93a18.13,18.13,0,0,1-8.07,3.24,18.39,18.39,0,0,1-10.42-1.67l-.75-.39-.54-.28-.39.45a24.7,24.7,0,0,1-16.69,8.25C117.46,54.24,114.47,53.16,114.41,53.44Z"/><path class="cls-7" d="M129.5,39.28c0,.44,3.72.33,8,1.59s7.32,3.25,7.58,2.9-2.57-3-7.16-4.35S129.42,38.9,129.5,39.28Z"/><path class="cls-7" d="M139.14,39c.31.28,1.66-.72,3.36-1.8s3.16-1.91,3-2.32-2-.15-3.84,1.06S138.83,38.72,139.14,39Z"/><path class="cls-7" d="M99,51.49c.14.42,3.4-.44,7.42-.08s7.11,1.69,7.31,1.3-2.78-2.44-7.18-2.79S98.8,51.14,99,51.49Z"/><path class="cls-7" d="M91.2,64.64c0,.39,4.75.86,10.35-.78S111,59.31,110.73,59s-4.23,1.89-9.6,3.42S91.19,64.2,91.2,64.64Z"/><path class="cls-7" d="M73.37,73.36c.32.3,2.8-2.19,6.8-3.32s7.42-.46,7.52-.89-3.47-1.89-7.94-.55S73,73.17,73.37,73.36Z"/><path class="cls-7" d="M75.92,37c.12,0,.45-.83,1.42-2.12a15,15,0,0,1,5.36-4.18c5.21-2.53,13.43-4.11,22.37-3.71a90.62,90.62,0,0,1,22.57,4.29c5.66,1.77,9.11,3.06,9.2,2.84a9,9,0,0,0-2.3-1.22c-1.52-.68-3.75-1.61-6.56-2.62a78.85,78.85,0,0,0-22.85-4.79C96,25.12,87.57,26.88,82.2,29.8a14.13,14.13,0,0,0-5.34,4.78A4.89,4.89,0,0,0,75.92,37Z"/><path class="cls-7" d="M73.09,50.63c.28.12,1.06-3.06,4.3-6.91A30.79,30.79,0,0,1,93.94,34c7.49-1.67,14.59-1,19.6-.4s8.16,1.26,8.21,1-3-1.15-8-2.08a51.12,51.12,0,0,0-20.1,0c-7.82,1.77-14,6.31-17,10.51a19.78,19.78,0,0,0-3,5.39A5.34,5.34,0,0,0,73.09,50.63Z"/><path class="cls-8" d="M61.77,100.47c.14-.23-2.42-1.58-6-4.3a18.37,18.37,0,0,1-5.1-5.84,10,10,0,0,1-.44-8.91A11.89,11.89,0,0,1,56.7,75.1a13.72,13.72,0,0,1,7.6-.49c4.39,1,6.54,3.11,6.7,2.86,0-.06-.4-.64-1.44-1.45a14.8,14.8,0,0,0-5-2.44,14.11,14.11,0,0,0-8.33.22,13,13,0,0,0-7.41,7A11.29,11.29,0,0,0,49.41,91a18.17,18.17,0,0,0,5.69,6,36.56,36.56,0,0,0,4.78,2.74C61.05,100.31,61.72,100.56,61.77,100.47Z"/><path class="cls-8" d="M60.59,100.62a7.82,7.82,0,0,0-1.17,2.18,56.52,56.52,0,0,0-2.37,6.31,33.08,33.08,0,0,0-1.59,10A21.46,21.46,0,0,0,58.87,131a15.41,15.41,0,0,0,10.48,6.64,11.11,11.11,0,0,0,9.58-3.26,10.07,10.07,0,0,0,3-6.17,4.45,4.45,0,0,0-.32-2.49c-.14,0,0,.9-.26,2.41a10.44,10.44,0,0,1-11.78,8.14,14.29,14.29,0,0,1-9.43-6.12,20.7,20.7,0,0,1-3.27-11.11,35.36,35.36,0,0,1,1.23-9.65C59.51,104,60.84,100.71,60.59,100.62Z"/><path class="cls-8" d="M99.79,53.24c3.16,6.29.74,13.92-2.49,20.17s-7.37,12.44-7.64,19.47c-.45,11.78,10.07,22.2,8.62,33.9A17.61,17.61,0,0,1,85,141.4c5.58-3.75,6.08-11.94,4-18.31S76.51,99.93,75,93.38c-5-22-2.88-24.55,4.81-32.28"/><path class="cls-7" d="M78.58,68.92c0,.18,1.55.54,4.09.18A17,17,0,0,0,96.58,56.26c.57-2.5.33-4.09.15-4.08s-.4,1.51-1.2,3.78A18.49,18.49,0,0,1,82.45,68C80.13,68.64,78.59,68.68,78.58,68.92Z"/><path class="cls-7" d="M87.75,134.4s.3-.13.78-.5A11.11,11.11,0,0,0,90.38,132a15.06,15.06,0,0,0,3-9.28A14.18,14.18,0,0,0,91.64,116,30.39,30.39,0,0,0,86.75,110,22.48,22.48,0,0,1,82,103.37a19,19,0,0,1-1.57-8.49,18,18,0,0,1,2.41-8.29,47.26,47.26,0,0,1,4.91-6.69,48.89,48.89,0,0,0,8-12,26.57,26.57,0,0,0,2.38-9.45,9.71,9.71,0,0,0-.26-3.56c-.32-.05.44,5.25-3.11,12.55A51,51,0,0,1,86.66,79a45.44,45.44,0,0,0-5.14,6.86,19.17,19.17,0,0,0-2.64,9A20.3,20.3,0,0,0,80.61,104a23.34,23.34,0,0,0,5.12,7,30.71,30.71,0,0,1,4.8,5.71,13.34,13.34,0,0,1,1.74,6.06,15.18,15.18,0,0,1-2.38,8.91C88.65,133.5,87.65,134.3,87.75,134.4Z"/><path class="cls-7" d="M76,68.1c-.07-.07-.68.37-1.62,1.36a18.08,18.08,0,0,0-3.15,4.84c-2.09,4.43-3,11.57-.8,18.78A46.6,46.6,0,0,0,80,109.36c3.16,3.64,5.39,5.62,5.53,5.49s-1.78-2.41-4.69-6.18-6.74-9.19-8.88-16a28,28,0,0,1,.34-17.91C74,70.34,76.25,68.29,76,68.1Z"/><path class="cls-5" d="M175,292.1a27.89,27.89,0,0,1,2.3-23.93c10.71-17.28,8.68-41.78-13-73.58-.28-.41-.55-.83-.8-1.25-3.13-5.16-27.13-44.74-65.64-48.62-7.9-.8-17.15,1.34-23.07,6.63-7.42,6.64-16,17.26-19.64,28.9C49,199.83,42.63,242,51,268.15c5.85,18.19,22.84,55,32.61,75.62C88,352.92,75.9,361.41,86,361.85H192.09C188.79,346.63,178.12,300.88,175,292.1Z"/><path class="cls-11" d="M132.25,248.5s92.36,28.82,107.09,25.14S339.46,159,339.46,159l-31.23-23.13-78.05,78.08L155.55,187.3Z"/><path class="cls-4" d="M238.05,214.71a2.69,2.69,0,0,1-.66-.15l-1.84-.53-6.77-2c-5.71-1.73-13.6-4.12-22.28-6.85s-16.5-5.36-22.12-7.37c-2.81-1-5.08-1.84-6.63-2.44l-1.79-.71a3.4,3.4,0,0,1-.61-.27,2.72,2.72,0,0,1,.65.18l1.82.61,6.68,2.28c5.64,1.93,13.47,4.49,22.16,7.22l22.23,7,6.72,2.19,1.81.62A3.45,3.45,0,0,1,238.05,214.71Z"/><path class="cls-11" d="M298.73,145.37s-1.81-5.63,0-10.66a29.56,29.56,0,0,1,4.35-7.18,6.07,6.07,0,0,1,8.93-.72h0l15.81-19.39s7.54-5,12.21,2.51c0,0,1.07-4.87,4.66-2.08s1.8,10.7,1.8,10.7,4.31.72,2.51,11.49c0,0,2,4,.44,11.13s-11.57,23-14.44,26.58l-9.35,12.74"/><path class="cls-4" d="M325.64,180.49l.15-.24c.12-.17.28-.39.47-.68.44-.61,1.07-1.49,1.86-2.61l7-9.7c1.52-2,3-4.41,4.65-7s3.26-5.4,4.89-8.46c.8-1.54,1.62-3.12,2.36-4.79a32.25,32.25,0,0,0,2-5.22,24.39,24.39,0,0,0,.74-5.77,15.58,15.58,0,0,0-1-5.88l0-.08,0-.07a26.92,26.92,0,0,0,.36-6.1,9.91,9.91,0,0,0-.68-3,3.5,3.5,0,0,0-2-2.08l-.26-.08.05-.24a22.16,22.16,0,0,0,.43-3.88,12.39,12.39,0,0,0-.48-4,6,6,0,0,0-1.11-2.07,4.46,4.46,0,0,0-1.91-1.23,1.68,1.68,0,0,0-1,0,2.12,2.12,0,0,0-.87.62,5.18,5.18,0,0,0-1,2l-.16.59-.31-.51a7.92,7.92,0,0,0-5.46-3.95,10,10,0,0,0-6.4,1.5l.06-.05-13.81,16.9-1.54,1.88-.38.46-.09.11,0,0c-.59,0-.17,0-.31,0l0,0-.06-.05-.22-.18a4.5,4.5,0,0,0-.94-.62,5.9,5.9,0,0,0-7.49,1.66c-.81,1-1.54,2.07-2.2,3.07a24.92,24.92,0,0,0-1.67,3,13.7,13.7,0,0,0-.93,2.85,18.38,18.38,0,0,0-.24,4.77,23.92,23.92,0,0,0,.43,3c.07.32.12.57.17.76a1,1,0,0,1,.05.26,1.1,1.1,0,0,1-.1-.25q-.08-.24-.21-.75a21.47,21.47,0,0,1-.5-3,17.57,17.57,0,0,1,.17-4.82,13.56,13.56,0,0,1,.91-2.92,23.92,23.92,0,0,1,1.66-3c.65-1,1.39-2.06,2.19-3.11a6.21,6.21,0,0,1,3.47-2.33,6.29,6.29,0,0,1,4.48.52,6,6,0,0,1,1,.66l.23.2.06,0,0,0c-.13,0,.3,0-.28,0h0l.09-.12.38-.46,1.53-1.89,13.75-16.94,0,0,0,0a10.43,10.43,0,0,1,6.74-1.59,8.42,8.42,0,0,1,5.83,4.18l-.48.08a5.74,5.74,0,0,1,1.1-2.26,2.59,2.59,0,0,1,1.09-.77,2.27,2.27,0,0,1,1.34,0,5,5,0,0,1,2.16,1.4,6.35,6.35,0,0,1,1.23,2.25,12.78,12.78,0,0,1,.5,4.14,21.76,21.76,0,0,1-.45,4l-.21-.32a3.94,3.94,0,0,1,2.38,2.39,10.48,10.48,0,0,1,.72,3.17,26.72,26.72,0,0,1-.38,6.23l0-.15a15.86,15.86,0,0,1,1,6.1,24.73,24.73,0,0,1-.77,5.88,33.75,33.75,0,0,1-2,5.3c-.76,1.68-1.59,3.26-2.4,4.8-1.65,3.06-3.33,5.88-4.95,8.46s-3.16,4.94-4.72,7c-3,4.09-5.46,7.35-7.15,9.61-.83,1.1-1.47,2-1.93,2.56l-.5.66C325.71,180.42,325.65,180.5,325.64,180.49Z"/><path class="cls-4" d="M331,121.57a53,53,0,0,1,4.78-5.49,51.73,51.73,0,0,1,5.16-5.14,50.17,50.17,0,0,1-4.78,5.49A49.35,49.35,0,0,1,331,121.57Z"/><path class="cls-4" d="M306.84,134.7a37.41,37.41,0,0,1,2.61-4.71,36,36,0,0,1,2.82-4.59,22.57,22.57,0,0,1-2.37,4.85A22.36,22.36,0,0,1,306.84,134.7Z"/><path class="cls-4" d="M340.34,129.78c-.12-.07,1.43-2.79,3.21-6.2s3.12-6.24,3.26-6.18a7.88,7.88,0,0,1-.68,1.94c-.49,1.17-1.22,2.76-2.12,4.48s-1.78,3.23-2.46,4.3A7.29,7.29,0,0,1,340.34,129.78Z"/><path class="cls-4" d="M345.05,140.74A48.06,48.06,0,0,1,347,134a46.66,46.66,0,0,1,2.4-6.53,48.06,48.06,0,0,1-1.91,6.7A46.66,46.66,0,0,1,345.05,140.74Z"/><path class="cls-5" d="M101.27,147.76S126.85,151,144,167.69c25.31,24.54,31.56,26,31.57,26.23s-39.24,63.41-39.24,63.41l-35.1-17.07L80.52,178.6Z"/><path class="cls-8" d="M131.83,253.4a4,4,0,0,1-.73-.1l-2.07-.39c-.9-.17-2-.39-3.27-.72s-2.71-.64-4.28-1.13l-2.47-.72c-.86-.26-1.73-.58-2.65-.89-1.84-.59-3.75-1.36-5.77-2.15a109.07,109.07,0,0,1-24.5-13.91c-1.71-1.33-3.36-2.58-4.81-3.85-.73-.63-1.45-1.22-2.11-1.82L77.28,226c-1.23-1.1-2.24-2.18-3.16-3.1s-1.69-1.75-2.29-2.44l-1.4-1.58a3,3,0,0,1-.46-.57,4.22,4.22,0,0,1,.54.5L72,220.3c.63.66,1.41,1.47,2.35,2.36s2,2,3.21,3l1.9,1.72c.67.59,1.4,1.17,2.13,1.79,1.46,1.25,3.11,2.48,4.82,3.8a113.93,113.93,0,0,0,24.39,13.85c2,.79,3.91,1.58,5.74,2.18.9.32,1.77.65,2.62.91l2.46.76c1.55.51,3,.85,4.24,1.2s2.35.6,3.24.8l2.05.48A3.44,3.44,0,0,1,131.83,253.4Z"/><path class="cls-8" d="M163.84,350.65a2.79,2.79,0,0,1-.69,0l-2-.11c-.85,0-1.89-.13-3.09-.29s-2.58-.27-4.08-.54-3.16-.51-4.91-.9-3.61-.82-5.57-1.31a100.83,100.83,0,0,1-24.21-10c-1.73-1-3.4-2-4.88-3s-2.88-1.93-4.11-2.83-2.32-1.75-3.27-2.49-1.76-1.41-2.4-2l-1.47-1.3a3.9,3.9,0,0,1-.49-.48,4,4,0,0,1,.56.4L104.8,327c.66.54,1.47,1.2,2.44,1.91s2.05,1.58,3.31,2.42,2.61,1.83,4.13,2.77,3.15,1.93,4.89,2.95a118.1,118.1,0,0,0,11.74,5.72A116.89,116.89,0,0,0,143.66,347c2,.51,3.79,1,5.54,1.36s3.38.7,4.88,1,2.86.44,4.06.61,2.23.29,3.07.37l1.95.22A2.86,2.86,0,0,1,163.84,350.65Z"/><path class="cls-8" d="M175.61,193.92a1.19,1.19,0,0,1-.29-.08l-.81-.28a10.28,10.28,0,0,1-1.27-.59,18.43,18.43,0,0,1-1.65-1,70.09,70.09,0,0,1-9.43-7.65c-3.79-3.46-8.1-7.79-13.18-12.26-2.54-2.23-5.35-4.41-8.22-6.72s-5.9-4.62-9.08-6.89a83.12,83.12,0,0,0-19.16-10.64A50,50,0,0,0,95,144.61a37.3,37.3,0,0,0-11.88,1.94l-1.78.67c-.51.2-.92.41-1.27.56l-.79.35a1.32,1.32,0,0,1-.27.1s.08-.06.25-.15l.76-.39c.34-.17.75-.4,1.26-.61l1.77-.72A36.5,36.5,0,0,1,95,144.24a49.83,49.83,0,0,1,17.71,3.16A82.66,82.66,0,0,1,132,158.06c3.18,2.28,6.2,4.63,9.08,6.93s5.68,4.5,8.23,6.75c5.07,4.51,9.36,8.86,13.11,12.35a75.12,75.12,0,0,0,9.29,7.75,17.75,17.75,0,0,0,1.61,1,10.41,10.41,0,0,0,1.24.63l.79.33Z"/><path class="cls-8" d="M64.39,198.2a6.44,6.44,0,0,1-.26-1.19c-.14-.77-.29-1.89-.44-3.29a75,75,0,0,1-.35-10.94,76.56,76.56,0,0,1,1.21-10.89c.26-1.38.51-2.49.71-3.24a5.69,5.69,0,0,1,.35-1.17,5.11,5.11,0,0,1-.15,1.21c-.14.77-.33,1.88-.54,3.26a94.19,94.19,0,0,0-.86,21.74c.1,1.39.2,2.52.27,3.3A4.63,4.63,0,0,1,64.39,198.2Z"/><path class="cls-8" d="M125.73,342.14c-.14.05-7.58-22.81-16.63-51S92.83,239.93,93,239.89s7.58,22.81,16.63,51.05S125.87,342.1,125.73,342.14Z"/><path class="cls-8" d="M124.12,360.1c-.14,0-2-5.26-4-11.86s-3.67-12-3.53-12,1.94,5.27,4,11.86S124.25,360.06,124.12,360.1Z"/><g class="cls-6"><path d="M140.32,251c-8.72,8.13-52.34-12.6-69.81-32.08h0A22.29,22.29,0,0,0,76.89,231c8,7.79,16,13.76,25.33,21.17,11.3,9,23.66,17.32,37.75,20.53s29.43.06,39.28-10.51C166,258.47,150,253.73,140.32,251Z"/></g><path class="cls-12" d="M62.55,195.23c0,.09-.79-.25-2.07-.44a11,11,0,0,0-2.27-.07,12.37,12.37,0,0,0-2.71.59A11.6,11.6,0,0,0,53,196.58a9.66,9.66,0,0,0-1.71,1.49c-.87,1-1.24,1.7-1.32,1.66a4.65,4.65,0,0,1,1-1.9,9,9,0,0,1,1.71-1.64,10,10,0,0,1,5.42-1.94,8.61,8.61,0,0,1,2.36.18A4.57,4.57,0,0,1,62.55,195.23Z"/><path class="cls-12" d="M150.77,177.42a15.61,15.61,0,0,0-3.29-2,16.37,16.37,0,0,0-10.32-.67c-4.37,1-8.93,4.07-12.88,8.43s-7.45,9.92-12,15.09a33.49,33.49,0,0,1-7.57,6.57A27.75,27.75,0,0,1,96,208.24a28.87,28.87,0,0,1-8.43.59l-1-.06-1-.13c-.63-.1-1.26-.17-1.86-.28a31.54,31.54,0,0,1-3.42-.89,27.59,27.59,0,0,1-9.35-5,16.82,16.82,0,0,1-2.12-2l-.52-.54c-.11-.12-.17-.19-.16-.2l.2.16.55.51a20.15,20.15,0,0,0,2.18,1.88,28.06,28.06,0,0,0,9.33,4.82,33.6,33.6,0,0,0,3.39.84c.59.11,1.21.17,1.84.26l.94.13,1,.05a28.69,28.69,0,0,0,8.3-.63,27.37,27.37,0,0,0,8.52-3.39,33.12,33.12,0,0,0,7.45-6.48c4.49-5.12,7.94-10.72,12-15.07s8.67-7.52,13.14-8.45a16.33,16.33,0,0,1,10.49.83,12,12,0,0,1,2.47,1.53l.56.5Z"/><path class="cls-12" d="M149.92,229.62a2.38,2.38,0,0,1-.27.46c-.19.28-.45.72-.85,1.24a34.63,34.63,0,0,1-3.65,4.21,37.3,37.3,0,0,1-33.94,10,33.62,33.62,0,0,1-5.34-1.55c-.62-.22-1.08-.45-1.4-.58a1.85,1.85,0,0,1-.47-.24s.7.22,1.93.63a39.57,39.57,0,0,0,5.35,1.38,38.11,38.11,0,0,0,33.61-9.92,41.76,41.76,0,0,0,3.75-4.07A17,17,0,0,1,149.92,229.62Z"/><path class="cls-12" d="M98.13,259.83h-.26l-.75,0a9.29,9.29,0,0,0-1.23,0,12.54,12.54,0,0,0-1.66.08,19.79,19.79,0,0,0-9.8,3.76,19,19,0,0,0-4.93,5.34,13.42,13.42,0,0,0-2.15,7.91,7.42,7.42,0,0,0,1.59,4.08,6.35,6.35,0,0,0,3.85,2.32,5.33,5.33,0,0,0,4.35-1.45,7.22,7.22,0,0,0,2.25-4.28A13.88,13.88,0,0,0,87,268.16a19.61,19.61,0,0,0-6.7-6.27,22.21,22.21,0,0,0-7.88-2.73,26.26,26.26,0,0,0-7.31,0A35.6,35.6,0,0,0,55,262.22c-1.15.53-2,1-2.6,1.3l-.67.35c-.15.08-.23.11-.24.1l.21-.15.65-.4c.57-.34,1.42-.82,2.56-1.38a34.32,34.32,0,0,1,10.2-3.24,26.26,26.26,0,0,1,7.43-.06,22.18,22.18,0,0,1,8.06,2.74,19.88,19.88,0,0,1,6.89,6.4,14.4,14.4,0,0,1,2.46,9.73,7.68,7.68,0,0,1-2.42,4.57,5.82,5.82,0,0,1-4.76,1.57,6.76,6.76,0,0,1-4.16-2.51,7.88,7.88,0,0,1-1.69-4.35,13.83,13.83,0,0,1,2.27-8.18,19.17,19.17,0,0,1,5.07-5.41,19.52,19.52,0,0,1,10-3.66,12.39,12.39,0,0,1,1.69,0,10.13,10.13,0,0,1,1.23.08l.75.1A.7.7,0,0,1,98.13,259.83Z"/><path class="cls-12" d="M174.5,291.8l-.3.22-.9.59a28.14,28.14,0,0,1-3.68,1.93,29.58,29.58,0,0,1-6.27,2,26.42,26.42,0,0,1-8.69.35,23.72,23.72,0,0,1-4.95-1.19,21.59,21.59,0,0,1-12.43-12,18,18,0,0,1-1.35-6.45,15.26,15.26,0,0,1,.32-3.41,13.45,13.45,0,0,1,1.22-3.27,13.71,13.71,0,0,1,2.06-2.91,10.42,10.42,0,0,1,2.87-2.22,8.16,8.16,0,0,1,3.57-1,7.09,7.09,0,0,1,3.64.94,8.59,8.59,0,0,1,3.93,6.1,10.82,10.82,0,0,1-1.11,7,12.69,12.69,0,0,1-5,4.71,18.88,18.88,0,0,1-6.27,2,24.88,24.88,0,0,1-6.26.15,36.49,36.49,0,0,1-5.81-1,49.08,49.08,0,0,1-9.85-3.81,95.89,95.89,0,0,1-12.89-8.15c-1.46-1.07-2.58-1.91-3.33-2.48l-.85-.67a2,2,0,0,1-.28-.24,2.39,2.39,0,0,1,.31.2l.89.62,3.37,2.4a101.78,101.78,0,0,0,13,8,49.07,49.07,0,0,0,9.78,3.72,36.13,36.13,0,0,0,5.75.94,24.87,24.87,0,0,0,6.14-.16,18.74,18.74,0,0,0,6.11-2,12.16,12.16,0,0,0,4.79-4.52,10.23,10.23,0,0,0,1.05-6.68,8.06,8.06,0,0,0-3.68-5.74A6.65,6.65,0,0,0,146,265a7.64,7.64,0,0,0-3.34.9,11.65,11.65,0,0,0-4.71,4.9,12.67,12.67,0,0,0-1.19,3.15,14.7,14.7,0,0,0-.31,3.3,17.34,17.34,0,0,0,1.3,6.27,21.15,21.15,0,0,0,12.12,11.76,24.32,24.32,0,0,0,4.86,1.21,26.55,26.55,0,0,0,8.59-.27,30.87,30.87,0,0,0,6.24-1.89,31.42,31.42,0,0,0,3.7-1.84l.93-.54A2,2,0,0,1,174.5,291.8Z"/><path class="cls-12" d="M113.08,307.83a10.12,10.12,0,0,1-1.73,0c-.55,0-1.23,0-2,0s-1.68,0-2.67.1-2.06.13-3.21.29-2.38.34-3.67.56a54.25,54.25,0,0,0-15.92,5.69c-1.13.65-2.22,1.24-3.19,1.89s-1.87,1.23-2.67,1.81-1.5,1.13-2.12,1.61-1.14.91-1.56,1.28A10.93,10.93,0,0,1,73,322.15a9.52,9.52,0,0,1,1.21-1.23c.39-.39.89-.86,1.5-1.36s1.28-1.1,2.09-1.68,1.67-1.25,2.66-1.88,2-1.28,3.19-1.94a51.62,51.62,0,0,1,16.07-5.74c1.3-.21,2.53-.42,3.7-.52s2.25-.19,3.24-.23,1.9,0,2.69,0,1.47,0,2,.09A12.35,12.35,0,0,1,113.08,307.83Z"/><path class="cls-12" d="M181.65,322.26a3.91,3.91,0,0,1-.5.44c-.35.26-.84.68-1.53,1.16a48,48,0,0,1-6,3.67,51.54,51.54,0,0,1-45,1.25,47.81,47.81,0,0,1-6.2-3.34c-.71-.43-1.22-.82-1.58-1.07a2.59,2.59,0,0,1-.53-.41,4.09,4.09,0,0,1,.58.32c.38.22.91.58,1.64,1a55.26,55.26,0,0,0,6.24,3.17,52.54,52.54,0,0,0,44.69-1.24,55.26,55.26,0,0,0,6.06-3.51c.7-.45,1.21-.84,1.58-1.08A3.15,3.15,0,0,1,181.65,322.26Z"/><path class="cls-12" d="M124.48,155.35s0,.1,0,.29l-.16.83a13.06,13.06,0,0,1-1.24,3c-1.37,2.48-4.4,5.45-8.84,7.85a50.79,50.79,0,0,1-7.53,3.34,24.8,24.8,0,0,1-9.34,1.46,15.51,15.51,0,0,1-9.67-3.78,12.2,12.2,0,0,1-3.12-4.62,10,10,0,0,1-.48-5.72,8.8,8.8,0,0,1,8.22-6.87,6.79,6.79,0,0,1,4.88,2.25,7.28,7.28,0,0,1,2,4.76,5.86,5.86,0,0,1-2.06,4.44,9.09,9.09,0,0,1-4.18,2,19.61,19.61,0,0,1-8.23-.23,28.28,28.28,0,0,1-10.81-4.88,19.67,19.67,0,0,1-3.27-2.9s.09,0,.23.18l.62.56a30.28,30.28,0,0,0,2.54,2A28.75,28.75,0,0,0,84.76,164a19.38,19.38,0,0,0,8.06.17,8.83,8.83,0,0,0,4-1.93,5.44,5.44,0,0,0,1.88-4.09,6.82,6.82,0,0,0-1.87-4.43,6.33,6.33,0,0,0-4.52-2.08,8.32,8.32,0,0,0-7.72,6.47,9.62,9.62,0,0,0,.46,5.42A11.71,11.71,0,0,0,88,168a15,15,0,0,0,9.34,3.68,24.48,24.48,0,0,0,9.18-1.39A50.74,50.74,0,0,0,114,167c4.42-2.33,7.44-5.21,8.84-7.63A14.31,14.31,0,0,0,124.48,155.35Z"/><path class="cls-12" d="M120.89,353.78c0,.08-1,.06-2.69.18a34.43,34.43,0,0,0-6.38,1.08,33.67,33.67,0,0,0-6,2.32,25.84,25.84,0,0,1-2.42,1.22,9.69,9.69,0,0,1,2.24-1.54,26.52,26.52,0,0,1,6.08-2.5,27,27,0,0,1,6.49-1A9.81,9.81,0,0,1,120.89,353.78Z"/><path class="cls-12" d="M158.88,358.27a6.16,6.16,0,0,1-1.28.3,34.87,34.87,0,0,1-3.54.48A46.75,46.75,0,0,1,131,355.24a32.62,32.62,0,0,1-3.2-1.59,6.3,6.3,0,0,1-1.11-.7,6.57,6.57,0,0,1,1.2.52c.76.37,1.87.87,3.25,1.43a52,52,0,0,0,22.9,3.79c1.5-.1,2.71-.21,3.54-.32A6.67,6.67,0,0,1,158.88,358.27Z"/><path class="cls-9" d="M196.64,202.26s5.34-9.83,11-8.15,6.41,2.81,6.41,2.81,3.42-4.77,9.33-.28c0,0,6.74-4.49,13.2.28h0s5.9-3.56,9.27,1.17,10.12,16.25,9.27,29.46-5.8,56.61-5.8,56.61l-45.4,7.92s10.13-40.94,5.94-44.8c-8.41-7.75-12.22-24-12.22-24l-9.95-16s2-8.43,7.31-3.09a159.16,159.16,0,0,1,10.67,12.12l-1.12-11S197.2,207.88,196.64,202.26Z"/><path class="cls-10" d="M204.1,200.65a8.86,8.86,0,0,1,.48,3,9.08,9.08,0,0,1,0,3.05,8.86,8.86,0,0,1-.48-3A9.08,9.08,0,0,1,204.1,200.65Z"/><path class="cls-10" d="M219,210.22c-.15,0-.72-3.12-2-6.79s-2.88-6.47-2.74-6.55a6.89,6.89,0,0,1,1.15,1.75,32.23,32.23,0,0,1,2.08,4.62,32.74,32.74,0,0,1,1.34,4.88A7,7,0,0,1,219,210.22Z"/><path class="cls-10" d="M227.68,206.24a28.68,28.68,0,0,0-2-5.52,28.07,28.07,0,0,0-3.49-4.71,10.79,10.79,0,0,1,4,4.46A11,11,0,0,1,227.68,206.24Z"/><path class="cls-10" d="M240.43,205.55c-.14,0-.88-2.25-2.11-5s-2.44-4.76-2.31-4.85a17,17,0,0,1,2.79,4.64A16.14,16.14,0,0,1,240.43,205.55Z"/><path class="cls-10" d="M210.77,248.46a.76.76,0,0,1,0,.26c0,.21,0,.46,0,.77,0,.67,0,1.66,0,2.93a90.75,90.75,0,0,1-1,10.76A92.63,92.63,0,0,1,206,278.71c-1.9,5.73-4.45,11.85-6.87,18.35a101.28,101.28,0,0,0-5.16,18.82,54.91,54.91,0,0,0-.41,15.88,37.54,37.54,0,0,0,2.82,10.32,13.2,13.2,0,0,0,.71,1.53l.57,1.11.34.68.1.24s-.06-.07-.15-.21l-.38-.66-.61-1.09a11.13,11.13,0,0,1-.76-1.51,36.28,36.28,0,0,1-3-10.36,54.35,54.35,0,0,1,.31-16,98.71,98.71,0,0,1,5.14-18.93c2.43-6.51,5-12.62,6.9-18.32a95.81,95.81,0,0,0,4-15.44,101.93,101.93,0,0,0,1.13-10.71c0-1.24.07-2.21.1-2.92,0-.31,0-.56,0-.77A.9.9,0,0,1,210.77,248.46Z"/><path class="cls-9" d="M289.11,208.09s14.21,49.68,17.06,66.28,15.59,59.68,41.66,51.14,30.83-30.38,29.88-54.07S363.85,192,363.85,192l-33.67,22.85-6-25.32Z"/><path class="cls-9" d="M294.13,142.43s-7.77-5.88-13.23,2.94c0,0-3.58-4.27-7.78-1s-.83,11.08-.83,11.08-4.73-.58-2.63,12c0,0-6,3.92-1.37,13,3.9,7.65,17.46,23.4,20.82,27.6l5,8.26L323.65,192s6.6-11.76,4.5-17.64a34.14,34.14,0,0,0-5-8.32,7.15,7.15,0,0,0-10.52-.92h0Z"/><path class="cls-10" d="M291,159c-.21.22-2.39-3-5.08-6.77-1.35-1.92-2.6-3.63-3.53-4.85a16.76,16.76,0,0,1-1.47-2,8.82,8.82,0,0,1,1.76,1.77c1,1.17,2.31,2.86,3.66,4.77s2.53,3.7,3.36,5Z"/><path class="cls-10" d="M318.65,174.34a7.31,7.31,0,0,1-1.17-1.4c-.68-.9-1.63-2.13-2.63-3.52a19.7,19.7,0,0,1-3.12-5.4c.12-.05,1.5,2.34,3.54,5.09S318.79,174.25,318.65,174.34Z"/><path class="cls-10" d="M279.47,168.59a10.43,10.43,0,0,1-1.39-2c-.79-1.25-1.82-3-2.87-5s-1.9-3.86-2.48-5.23a10.33,10.33,0,0,1-.82-2.26,11.92,11.92,0,0,1,1.15,2.11c.66,1.32,1.57,3.14,2.62,5.14s2,3.79,2.72,5.09A12.8,12.8,0,0,1,279.47,168.59Z"/><path class="cls-10" d="M274.78,180.49a9.4,9.4,0,0,1-.84-1.87c-.48-1.17-1.17-2.76-2-4.53a28,28,0,0,1-2.32-6.62,9.67,9.67,0,0,1,.85,1.88c.47,1.17,1.17,2.76,1.95,4.53A26.81,26.81,0,0,1,274.78,180.49Z"/><path class="cls-8" d="M350.57,213.55s.05-.12.2-.33a4.6,4.6,0,0,1,.8-.77,5.35,5.35,0,0,1,3.76-1,5,5,0,0,1,2.54,1,6,6,0,0,1,1.94,2.57,6.24,6.24,0,0,1,.3,3.68,6.56,6.56,0,0,1-2,3.39,5.34,5.34,0,0,1-6.8.45,5.87,5.87,0,0,1-2.48-5.35,6.25,6.25,0,0,1,1.77-3.72,3.71,3.71,0,0,1,.87-.68c.22-.11.35-.14.35-.12a8,8,0,0,0-1.06,1,6.35,6.35,0,0,0-1.52,3.58,5.43,5.43,0,0,0,2.37,4.84,5.09,5.09,0,0,0,3,.88,5,5,0,0,0,3.14-1.31,6,6,0,0,0,1.84-3.05,5.65,5.65,0,0,0-.24-3.32,5.54,5.54,0,0,0-1.72-2.38,4.79,4.79,0,0,0-2.32-1,5.31,5.31,0,0,0-3.58.8C350.92,213.15,350.61,213.6,350.57,213.55Z"/><path class="cls-8" d="M356.72,222.57a13.17,13.17,0,0,1-.54-1.6,8.48,8.48,0,0,0-2.1-3.25,7.84,7.84,0,0,0-3.29-1.81,13.23,13.23,0,0,1-1.57-.37c0-.08.64-.22,1.66-.07a6.93,6.93,0,0,1,3.59,1.78,7.69,7.69,0,0,1,2.11,3.57A3.25,3.25,0,0,1,356.72,222.57Z"/><path class="cls-8" d="M354.71,218.21c-.14.07-.65-1.55,0-3.47s2-2.89,2.05-2.74a23,23,0,0,0-1.5,2.93A24,24,0,0,0,354.71,218.21Z"/><path class="cls-8" d="M369.42,237s.11.07.29.24a4.67,4.67,0,0,1,.61.91,6.4,6.4,0,0,1-.8,6.7,5.91,5.91,0,0,1-2.66,1.85,5.16,5.16,0,0,1-3.47,0,5.76,5.76,0,0,1-2.88-2.44,6.16,6.16,0,0,1-.87-3.83A6.75,6.75,0,0,1,361,237a5.46,5.46,0,0,1,5.32-2.2,5.34,5.34,0,0,1,3.22,2.17,3.69,3.69,0,0,1,.51,1,.88.88,0,0,1,.07.39,7.15,7.15,0,0,0-.76-1.21,5.32,5.32,0,0,0-3.12-1.9,5.11,5.11,0,0,0-4.83,2.13,6.13,6.13,0,0,0-1.23,3.12,5.5,5.5,0,0,0,.8,3.43,5.15,5.15,0,0,0,2.58,2.21,4.7,4.7,0,0,0,3.12,0,5.46,5.46,0,0,0,2.45-1.63,5.89,5.89,0,0,0,1.21-2.39,6.21,6.21,0,0,0-.26-3.87A14,14,0,0,0,369.42,237Z"/><path class="cls-8" d="M360.18,242.8a10.76,10.76,0,0,1,1.57-.45,8.34,8.34,0,0,0,3.31-2A9,9,0,0,0,367.2,237a14,14,0,0,1,.56-1.63,3.27,3.27,0,0,1-.17,1.76,8.08,8.08,0,0,1-2.14,3.68,7.4,7.4,0,0,1-3.61,1.95A2.86,2.86,0,0,1,360.18,242.8Z"/><path class="cls-8" d="M364.52,241c0-.15,1.53-.56,3.23.27a3.92,3.92,0,0,1,2.28,2.4c-.14.11-1-1.1-2.53-1.83S364.53,241.19,364.52,241Z"/><path class="cls-8" d="M353.53,234.36a1.87,1.87,0,0,1-1-.48,4.36,4.36,0,0,1-1.52-2.66,4.82,4.82,0,0,1,1.46-4.41,4.07,4.07,0,0,1,5.24-.45,4.4,4.4,0,0,1,1.75,2.38,5.21,5.21,0,0,1,0,2.85,4.55,4.55,0,0,1-3.15,3.3,3.94,3.94,0,0,1-2.92-.46c-.61-.37-.81-.76-.78-.77a6.91,6.91,0,0,0,.89.55,4,4,0,0,0,2.72.25,4.15,4.15,0,0,0,2.73-3,4.62,4.62,0,0,0,0-2.5,3.86,3.86,0,0,0-1.52-2.06,3.57,3.57,0,0,0-4.57.35,4.48,4.48,0,0,0-.14,6.45C353.19,234.16,353.55,234.3,353.53,234.36Z"/><path class="cls-8" d="M358.35,227.33a10.21,10.21,0,0,0-2.67,3.3,10.54,10.54,0,0,0-.52,4.27c-.07,0-.32-.43-.44-1.26a6.22,6.22,0,0,1,.43-3.26,6,6,0,0,1,2-2.54C357.84,227.38,358.32,227.26,358.35,227.33Z"/><path class="cls-8" d="M355.81,230c.1.12-.89,1-2.34.95s-2.4-.85-2.3-1,1,.35,2.31.34S355.73,229.83,355.81,230Z"/><path class="cls-8" d="M358.39,221.15c0-.05.3.13.83.3a4.38,4.38,0,0,0,2.31.08,5,5,0,0,0,2.9-1.87,6.8,6.8,0,0,0,1.28-4.21,7.72,7.72,0,0,0-.23-1.77l.32.22a8.44,8.44,0,0,0-5.38,3.88,19.51,19.51,0,0,0-1.21,2.62,2.26,2.26,0,0,1,.09-.79,7.89,7.89,0,0,1,.8-2,8.55,8.55,0,0,1,5.61-4.28l.25,0,.07.26a7.94,7.94,0,0,1,.27,1.92,7.35,7.35,0,0,1-1.46,4.6,5.28,5.28,0,0,1-3.25,1.95,4.19,4.19,0,0,1-2.46-.29C358.6,221.42,358.37,221.17,358.39,221.15Z"/><path class="cls-8" d="M364.35,216.41a9.56,9.56,0,0,1-2.7,2.76c-1.66,1.31-3.19,2.07-3.26,1.92a76.57,76.57,0,0,1,6-4.68Z"/><path class="cls-8" d="M355.47,222.84a2.12,2.12,0,0,1-.45.73,6.49,6.49,0,0,1-1.71,1.51,6.86,6.86,0,0,1-3.16,1,6.48,6.48,0,0,1-3.86-1.08,7,7,0,0,1-2.2-2.33l-.12-.22.17-.16a5.34,5.34,0,0,1,4.91-1.37,3.12,3.12,0,0,1,1.77.94,13,13,0,0,0-1.84-.58,5.24,5.24,0,0,0-4.47,1.44l.05-.38a6.7,6.7,0,0,0,2.05,2.13,6.18,6.18,0,0,0,3.53,1,6.65,6.65,0,0,0,3-.82A12.87,12.87,0,0,0,355.47,222.84Z"/><path class="cls-8" d="M347.5,223.89a7.82,7.82,0,0,1,3.68-1c2.1-.19,3.77.16,3.75.32s-1.69.11-3.72.31S347.54,224.07,347.5,223.89Z"/><path class="cls-8" d="M344.72,251.28s-.05-.13-.08-.39a5,5,0,0,1,0-1.15,8.07,8.07,0,0,1,1.63-3.87A14.65,14.65,0,0,1,351,242a40.49,40.49,0,0,0,6.16-3.75,9.61,9.61,0,0,0,3.5-6.17,11.28,11.28,0,0,0-.71-5.87,14.13,14.13,0,0,0-2-3.43,12.12,12.12,0,0,1-.92-1.13,4.58,4.58,0,0,1,1.09,1,12.58,12.58,0,0,1,2.21,3.4,11.44,11.44,0,0,1,.86,6.13,10.09,10.09,0,0,1-3.68,6.59,37.74,37.74,0,0,1-6.27,3.77,14.7,14.7,0,0,0-4.62,3.6,8.33,8.33,0,0,0-1.72,3.62C344.7,250.72,344.78,251.27,344.72,251.28Z"/><path class="cls-8" d="M360.89,229.82c-.16,0-.26-.75-.82-1.36s-1.23-.78-1.22-1,.2-.16.54-.12a1.9,1.9,0,0,1,1.11.65,2.09,2.09,0,0,1,.53,1.23C361.06,229.61,361,229.82,360.89,229.82Z"/><path class="cls-8" d="M367.17,230.49c0,.18-1.42-.08-3.07.26s-2.88,1.1-3,.95,1.07-1.21,2.88-1.56S367.23,230.34,367.17,230.49Z"/><path class="cls-8" d="M360.73,232.17c0-.1,1.23.09,3.19.19a11.67,11.67,0,0,0,3.4-.31,6.94,6.94,0,0,0,3.56-2.13l0,.45-.1-.08a7.49,7.49,0,0,0-7.16-1.36,14.7,14.7,0,0,0-2.9,1.51s.18-.29.63-.67a7.78,7.78,0,0,1,2.15-1.26,7.52,7.52,0,0,1,3.59-.46,7.75,7.75,0,0,1,4.06,1.74l.1.09.24.2-.21.25a7.25,7.25,0,0,1-3.89,2.28,11.29,11.29,0,0,1-3.54.19,19.78,19.78,0,0,1-2.33-.38C361,232.3,360.72,232.21,360.73,232.17Z"/><path class="cls-8" d="M351.53,241.3a1.77,1.77,0,0,1-.73-.14,6.47,6.47,0,0,1-1.81-1,8.21,8.21,0,0,1-3.17-6.24v-.28l.26,0a6.69,6.69,0,0,1,.81-.09A5.38,5.38,0,0,1,350.7,235a5.58,5.58,0,0,1,1.65,3.06,5.9,5.9,0,0,1,0,2.4,1.86,1.86,0,0,1-.3.83,9.42,9.42,0,0,0-.09-3.11,5.43,5.43,0,0,0-1.6-2.74,5,5,0,0,0-3.47-1.28,4.3,4.3,0,0,0-.73.07l.25-.32a8.25,8.25,0,0,0,2.84,5.93A16.28,16.28,0,0,0,351.53,241.3Z"/><path class="cls-8" d="M351.93,241.51c-.09,0-.18-.36-.44-.88a9.57,9.57,0,0,0-1.31-1.89,10.84,10.84,0,0,1-1.42-1.94c-.3-.56-.36-1-.29-1s.27.29.64.75.91,1.06,1.51,1.77a6.17,6.17,0,0,1,1.25,2.13C352.06,241.08,352,241.51,351.93,241.51Z"/><path class="cls-8" d="M360.59,243.14a5.44,5.44,0,0,1-3.85-.16,5.54,5.54,0,0,1-3.18-2.24c.12-.14,1.42,1,3.37,1.65S360.58,243,360.59,243.14Z"/><path class="cls-8" d="M350.11,243.71s.29,0,.76.24a6.11,6.11,0,0,1,1.78,1.32,7.06,7.06,0,0,1,1.64,3,7.85,7.85,0,0,1-.13,4.36l-.07.23-.22,0a4.59,4.59,0,0,1-1-.12,6,6,0,0,1-3.66-2.52,6.33,6.33,0,0,1-1-3.65,6.64,6.64,0,0,1,.54-2.53c.26-.56.47-.82.5-.8a9.39,9.39,0,0,0-.63,3.31,6.15,6.15,0,0,0,1.06,3.33,5.56,5.56,0,0,0,3.35,2.25,4.41,4.41,0,0,0,.87.11l-.3.22a7.6,7.6,0,0,0,.17-4,6.92,6.92,0,0,0-1.43-2.86A10.89,10.89,0,0,0,350.11,243.71Z"/><path class="cls-8" d="M352.2,250.38c-.1.12-1.36-1.15-2-3.3a6.35,6.35,0,0,1-.16-4c.17,0,.11,1.76.72,3.76S352.33,250.26,352.2,250.38Z"/><path class="cls-8" d="M346,246.16a2.7,2.7,0,0,1-2.15-.36,4.13,4.13,0,0,1-1.71-1.79,4.86,4.86,0,0,1-.4-3.15,2.73,2.73,0,0,1,.1-.41l.06-.25.26,0a4.74,4.74,0,0,1,3.8,3.3,3.45,3.45,0,0,1,.1,2.2,15.11,15.11,0,0,0-.48-2,4.5,4.5,0,0,0-3.51-2.84l.32-.22a3.59,3.59,0,0,0-.08.35,4.46,4.46,0,0,0,.31,2.76,3.89,3.89,0,0,0,1.44,1.67A8.22,8.22,0,0,0,346,246.16Z"/><path class="cls-8" d="M357.81,246.11c0-.06.45-.07,1,.36a1.58,1.58,0,0,1,.56,1.25,1.36,1.36,0,0,1-1.18,1.25,1.3,1.3,0,0,1-1.34-.95,1.58,1.58,0,0,1,.21-1.39c.49-.64,1-.6,1-.53s-.38.23-.66.77a1.11,1.11,0,0,0-.05.93.76.76,0,0,0,1.48-.12,1.15,1.15,0,0,0-.3-.87C358.17,246.37,357.76,246.21,357.81,246.11Z"/><path class="cls-8" d="M346.35,241.07c0-.07.25-.21.73-.14a.91.91,0,0,1,.69.63.79.79,0,0,1-.07.69.76.76,0,0,1-.64.36,1,1,0,0,1-.9-.73,1.17,1.17,0,0,1,0-1,.62.62,0,0,1,.55-.32c.16,0,.21.09.2.13s-.29.09-.38.39a.75.75,0,0,0,.07.53c.1.2.27.36.42.35.32,0,.21-.51-.12-.63S346.34,241.16,346.35,241.07Z"/><path class="cls-8" d="M348.07,229.05c-.07-.06.28-.37.74,0a.83.83,0,0,1,.23,1,1,1,0,0,1-1,.61,1,1,0,0,1-.76-.87,1,1,0,0,1,.35-.9c.42-.34.75-.2.73-.12s-.25.14-.44.42a.6.6,0,0,0-.11.48.49.49,0,0,0,.35.38.44.44,0,0,0,.41-.23.36.36,0,0,0,0-.41C348.35,229.09,348.1,229.13,348.07,229.05Z"/><path class="cls-8" d="M363,223.17c0,.08-.18.24-.21.59s.18.75.63.59a.53.53,0,0,0,.22-.88c-.2-.27-.45-.27-.46-.36s.31-.29.74,0a1,1,0,0,1,.4.86,1.08,1.08,0,0,1-.74.95.92.92,0,0,1-1.09-.34,1.1,1.1,0,0,1-.1-1C362.63,223.12,363,223.09,363,223.17Z"/><path class="cls-8" d="M370.62,233.68c0-.07.26-.24.65,0a.86.86,0,0,1,.36.76,1,1,0,0,1-.63.87.79.79,0,0,1-.94-.45.75.75,0,0,1,.19-.88c.42-.33.73,0,.66,0s-.24.08-.37.3a.24.24,0,0,0,0,.29.29.29,0,0,0,.31.13.39.39,0,0,0,.24-.31A.45.45,0,0,0,371,234C370.84,233.81,370.62,233.77,370.62,233.68Z"/><path class="cls-8" d="M361.76,209.85c0,.08-.27,0-.51.26s-.33.65.07.82.63-.17.62-.51-.2-.49-.17-.57.4-.06.57.46a1.05,1.05,0,0,1-.16.94.91.91,0,0,1-1.1.26,1,1,0,0,1-.58-1,1,1,0,0,1,.55-.76C361.53,209.5,361.82,209.79,361.76,209.85Z"/><path class="cls-8" d="M356,208.52a15.45,15.45,0,0,0,2.13-2,8.53,8.53,0,0,0,1.76-6.65l.36.24-.31.1a6.17,6.17,0,0,0-3,2.37,6.64,6.64,0,0,0-1.07,3.06,11.17,11.17,0,0,0,.3,3s-.2-.23-.38-.75a6.21,6.21,0,0,1-.33-2.31,6.83,6.83,0,0,1,1-3.36,6.52,6.52,0,0,1,3.26-2.64l.34-.11.3-.1.06.34a8.79,8.79,0,0,1-.36,4.16,8,8,0,0,1-1.69,2.9,7.26,7.26,0,0,1-1.69,1.4C356.31,208.47,356,208.56,356,208.52Z"/><path class="cls-8" d="M358.59,202.08a28.07,28.07,0,0,0-1.46,2.89c-.58,1.68-.43,3.17-.61,3.2s-.58-1.53.07-3.4S358.51,201.94,358.59,202.08Z"/><path class="cls-8" d="M362.74,249.05s.18-.35.78-.56A2.84,2.84,0,0,1,366,249a9.46,9.46,0,0,1,2.61,2.74,9.87,9.87,0,0,1,1,2.06,11.66,11.66,0,0,1,.35,1.19,3.07,3.07,0,0,1,0,1.39,1.37,1.37,0,0,1-.41.7,1,1,0,0,1-.74.25,4,4,0,0,1-1.18-.34,7.58,7.58,0,0,1-1.9-1.17,8.56,8.56,0,0,1-2.3-3,8,8,0,0,1-.69-2.54,2.39,2.39,0,0,1,0-1,14.24,14.24,0,0,0,1,3.3,8.63,8.63,0,0,0,2.27,2.8,7.17,7.17,0,0,0,1.78,1.06,4.13,4.13,0,0,0,1,.29c.28,0,.46-.15.55-.48a4.83,4.83,0,0,0-.36-2.2,11.19,11.19,0,0,0-.93-2,9.52,9.52,0,0,0-2.4-2.68,2.66,2.66,0,0,0-2.16-.65A4.46,4.46,0,0,0,362.74,249.05Z"/><path class="cls-8" d="M368.12,254.29c-.1.13-1.44-.89-2.85-2.43a9.75,9.75,0,0,1-2.22-3.11c.13-.11,1.25,1.15,2.64,2.66S368.23,254.15,368.12,254.29Z"/><path class="cls-10" d="M350.74,284.16s0-.08-.08-.24l-.22-.7c-.18-.66-.43-1.57-.76-2.72-.66-2.4-1.61-5.8-2.77-10-2.36-8.43-5.79-20-9.63-32.83s-7.22-24.42-9.49-32.88c-1.14-4.23-2-7.66-2.62-10l-.66-2.74-.17-.72a.77.77,0,0,1,0-.25.91.91,0,0,1,.09.24c.05.19.12.42.21.7.18.66.44,1.57.76,2.72.67,2.4,1.61,5.8,2.77,10,2.36,8.43,5.79,20,9.64,32.83S345,262,347.26,270.41c1.14,4.23,2,7.66,2.62,10,.28,1.16.5,2.08.67,2.74.06.29.11.53.16.72A.79.79,0,0,1,350.74,284.16Z"/><path class="cls-8" d="M400.54,325.46a4.74,4.74,0,0,1,.26-.62l.83-1.77a45,45,0,0,0,2.44-7.07c1.61-6.29,2.17-15.91-.21-27.32a146.59,146.59,0,0,0-5.07-18.35c-2.15-6.52-4.64-13.43-6.67-20.9s-3.6-15.54-3.29-24,2.82-17,5.59-25.42,5.61-16.72,6.47-25a38.18,38.18,0,0,0-4.59-23.13c-3.66-6.74-8.27-12.51-11.72-18.49a64.3,64.3,0,0,1-7-17.78A66.21,66.21,0,0,1,377.09,88,51.24,51.24,0,0,1,380,78.29a5.27,5.27,0,0,1-.17.65c-.15.46-.34,1.08-.59,1.86a72.72,72.72,0,0,0-1.78,7.28,67,67,0,0,0,.71,27.34A64.15,64.15,0,0,0,385.21,133c3.44,5.91,8.07,11.65,11.8,18.48A38.88,38.88,0,0,1,401.74,175c-.86,8.46-3.73,16.78-6.49,25.22s-5.25,16.83-5.57,25.18,1.24,16.37,3.22,23.78,4.46,14.35,6.58,20.88a146,146,0,0,1,5,18.46c2.32,11.5,1.65,21.21-.07,27.52a41.62,41.62,0,0,1-2.61,7.07c-.38.73-.69,1.3-.91,1.73A3.48,3.48,0,0,1,400.54,325.46Z"/><path class="cls-5" d="M389.26,139.24s-7-22.39,5.56-35.5a.78.78,0,0,1,1.33.39C396.82,107.82,397.66,119.08,389.26,139.24Z"/><path class="cls-8" d="M393.46,111.2a20.42,20.42,0,0,1-.47,4.13c-.46,2.85-1,6.19-1.6,9.88s-1.12,7-1.57,9.87a22.1,22.1,0,0,1-.74,4.09,17.64,17.64,0,0,1,.13-4.17c.23-2.55.68-6.07,1.31-9.94s1.31-7.34,1.86-9.84A18.23,18.23,0,0,1,393.46,111.2Z"/><path class="cls-5" d="M397.49,192S401.77,169,419,163.26a.78.78,0,0,1,1,1C418.86,167.81,414.34,178.15,397.49,192Z"/><path class="cls-8" d="M414.31,169.22a21,21,0,0,1-2.35,3.43l-6,8-6,8a23,23,0,0,1-2.57,3.26,17.23,17.23,0,0,1,2.06-3.62c1.4-2.15,3.44-5.05,5.81-8.17s4.59-5.88,6.24-7.84A18.06,18.06,0,0,1,414.31,169.22Z"/><path class="cls-5" d="M392.83,249.9s-2.6-23.31,12.23-33.79a.78.78,0,0,1,1.23.63C406.25,220.5,404.92,231.72,392.83,249.9Z"/><path class="cls-8" d="M402.3,223.18a21.45,21.45,0,0,1-1.25,4c-1,2.71-2.16,5.88-3.45,9.39s-2.44,6.69-3.43,9.39a23.19,23.19,0,0,1-1.5,3.87,17.12,17.12,0,0,1,.91-4.06c.72-2.47,1.83-5.83,3.19-9.5s2.68-7,3.7-9.32A18.93,18.93,0,0,1,402.3,223.18Z"/><path class="cls-5" d="M405.81,308.09s-1.76-23.39,13.43-33.32a.78.78,0,0,1,1.21.67C420.27,279.2,418.54,290.36,405.81,308.09Z"/><path class="cls-8" d="M416.23,281.73a20.7,20.7,0,0,1-1.39,3.92c-1.09,2.66-2.37,5.8-3.79,9.25s-2.67,6.6-3.76,9.27a22.25,22.25,0,0,1-1.64,3.81,17.14,17.14,0,0,1,1.06-4c.81-2.44,2-5.77,3.53-9.39s2.93-6.85,4-9.17A18.75,18.75,0,0,1,416.23,281.73Z"/><path class="cls-5" d="M379.2,119.57s-20.79-10.86-21.2-29a.78.78,0,0,1,1.22-.67C362.31,92,370.87,99.39,379.2,119.57Z"/><path class="cls-8" d="M362.32,96.79a21.45,21.45,0,0,1,2.59,3.26l5.86,8.1,5.88,8.08a21.83,21.83,0,0,1,2.37,3.42,17.93,17.93,0,0,1-2.85-3c-1.65-2-3.82-4.78-6.11-8s-4.27-6.11-5.66-8.26A18.5,18.5,0,0,1,362.32,96.79Z"/><path class="cls-5" d="M401.53,167.65s-21.41-9.58-22.92-27.67a.77.77,0,0,1,1.17-.74C383,141.18,392,148,401.53,167.65Z"/><path class="cls-8" d="M383.3,145.94a21.45,21.45,0,0,1,2.78,3.09l6.34,7.73,6.36,7.72a23.27,23.27,0,0,1,2.58,3.26,17.23,17.23,0,0,1-3-2.85c-1.76-1.87-4.1-4.54-6.58-7.57s-4.63-5.84-6.15-7.91A18.16,18.16,0,0,1,383.3,145.94Z"/><path class="cls-5" d="M389.21,221.28s-14.7-18.28-7.81-35.07a.78.78,0,0,1,1.38-.13C384.76,189.27,389.66,199.45,389.21,221.28Z"/><path class="cls-8" d="M382.86,193.65a20.47,20.47,0,0,1,1.07,4c.61,2.81,1.33,6.12,2.13,9.77s1.53,6.95,2.15,9.76a21.34,21.34,0,0,1,.8,4.08,17.15,17.15,0,0,1-1.4-3.92c-.72-2.47-1.59-5.91-2.41-9.73s-1.47-7.31-1.88-9.85A19,19,0,0,1,382.86,193.65Z"/><path class="cls-5" d="M403.77,284.39s-21.25-9.93-22.45-28.05a.78.78,0,0,1,1.18-.72C385.68,257.62,394.56,264.6,403.77,284.39Z"/><path class="cls-8" d="M385.9,262.38a20.52,20.52,0,0,1,2.74,3.14l6.21,7.84,6.23,7.81a22.66,22.66,0,0,1,2.52,3.31,17.76,17.76,0,0,1-3-2.9c-1.73-1.9-4-4.61-6.45-7.68s-4.54-5.92-6-8A19.75,19.75,0,0,1,385.9,262.38Z"/><path class="cls-8" d="M446.1,192.16a1.65,1.65,0,0,1,0,.52c0,.41,0,.9,0,1.5-.06,1.41-.15,3.31-.25,5.69-.28,5-.66,12-1.12,20.31v0c-1.52,8.49-5.84,17.89-11.65,27-4.26,6.73-8.72,12.84-12.57,18.53a131.07,131.07,0,0,0-9.43,15.59,65.42,65.42,0,0,0-4.41,11.44c-.38,1.4-.66,2.49-.82,3.24a5.81,5.81,0,0,1-.31,1.13,5.93,5.93,0,0,1,.14-1.17c.1-.76.33-1.87.66-3.29a60.34,60.34,0,0,1,4.18-11.62,124.42,124.42,0,0,1,9.32-15.77c3.82-5.73,8.26-11.85,12.5-18.55,5.77-9.09,10.07-18.35,11.65-26.7v0c.59-8.33,1.08-15.29,1.43-20.29.19-2.37.34-4.27.46-5.67.06-.6.11-1.09.15-1.5A1.85,1.85,0,0,1,446.1,192.16Z"/><path class="cls-5" d="M433.45,245.51s9-21.66-2.33-35.85a.78.78,0,0,0-1.36.26C428.76,213.54,426.91,224.68,433.45,245.51Z"/><path class="cls-8" d="M431.81,217.21a19.2,19.2,0,0,1,.71,4.1c.32,2.55.67,6.07,1,10s.42,7.45.42,10a17,17,0,0,1-.26,4.16,23.69,23.69,0,0,1-.36-4.14c-.2-2.87-.42-6.24-.67-10s-.5-7.11-.7-10A20.29,20.29,0,0,1,431.81,217.21Z"/><g class="cls-6"><path d="M433.45,245.51s9-21.66-2.33-35.85a.78.78,0,0,0-1.36.26C428.76,213.54,426.91,224.68,433.45,245.51Z"/></g><path class="cls-5" d="M405.57,297.71s7.21-22.32-5.22-35.54a.77.77,0,0,0-1.33.37C398.31,266.23,397.37,277.48,405.57,297.71Z"/><path class="cls-8" d="M401.64,269.64a19,19,0,0,1,1.05,4c.52,2.51,1.16,6,1.76,9.86s1,7.39,1.22,10a16.84,16.84,0,0,1,.08,4.16,23.64,23.64,0,0,1-.7-4.09c-.42-2.85-.92-6.19-1.47-9.89s-1.07-7-1.5-9.89A20.54,20.54,0,0,1,401.64,269.64Z"/><g class="cls-6"><path d="M405.57,297.71s7.21-22.32-5.22-35.54a.77.77,0,0,0-1.33.37C398.31,266.23,397.37,277.48,405.57,297.71Z"/></g><path class="cls-5" d="M444.91,219s19.21-13.45,17.27-31.5a.77.77,0,0,0-1.28-.51C458.11,189.55,450.57,198,444.91,219Z"/><g class="cls-6"><path d="M444.91,219s19.21-13.45,17.27-31.5a.77.77,0,0,0-1.28-.51C458.11,189.55,450.57,198,444.91,219Z"/></g><path class="cls-8" d="M458.71,194.28a18.68,18.68,0,0,1-1.6,3.84c-1.1,2.32-2.69,5.48-4.55,8.93s-3.64,6.51-5,8.67a17.43,17.43,0,0,1-2.44,3.37,21.67,21.67,0,0,1,1.9-3.68l4.79-8.78,4.77-8.79A20.05,20.05,0,0,1,458.71,194.28Z"/><path class="cls-5" d="M413.32,275.59s23.18-3.62,29.39-20.68a.78.78,0,0,0-.94-1C438.16,254.92,427.69,259.15,413.32,275.59Z"/><g class="cls-6"><path d="M413.32,275.59s23.18-3.62,29.39-20.68a.78.78,0,0,0-.94-1C438.16,254.92,427.69,259.15,413.32,275.59Z"/></g><path class="cls-8" d="M436.62,259.43a18.63,18.63,0,0,1-3.13,2.75c-2,1.6-4.83,3.74-8,6s-6.15,4.24-8.34,5.58a17.21,17.21,0,0,1-3.68,2,22.9,22.9,0,0,1,3.34-2.47l8.17-5.77,8.15-5.8A20.79,20.79,0,0,1,436.62,259.43Z"/><polygon class="cls-7" points="385.9 318.24 392.54 361.85 419.09 361.8 428.04 318.24 385.9 318.24"/><path class="cls-8" d="M424.15,335.06a.83.83,0,0,1-.22.16,7.75,7.75,0,0,1-.7.4,10,10,0,0,1-3,.89,10.89,10.89,0,0,1-4.88-.46,10.15,10.15,0,0,1-5.25-3.81,7.33,7.33,0,0,1-1.23-3.65,4,4,0,0,1,1.8-3.75,4.32,4.32,0,0,1,4.45.37,6.48,6.48,0,0,1,2.54,4,17.22,17.22,0,0,1,.33,4.93,16.32,16.32,0,0,1-1.08,5,11,11,0,0,1-3.08,4.39,8.56,8.56,0,0,1-5.1,2.14,9.37,9.37,0,0,1-5.32-1.55,15.79,15.79,0,0,1-4-3.58,8.68,8.68,0,0,1-2-4.79,5.53,5.53,0,0,1,1.88-4.62,4.33,4.33,0,0,1,4.71-.29,5,5,0,0,1,2.71,3.56,6.82,6.82,0,0,1-3.35,6.9,9.4,9.4,0,0,1-6.41.93,14.51,14.51,0,0,1-4.57-1.79,24.14,24.14,0,0,1-2.56-1.73,5.77,5.77,0,0,1-.82-.7,6.68,6.68,0,0,1,.91.58,29.42,29.42,0,0,0,2.61,1.6,14.85,14.85,0,0,0,4.5,1.64,9,9,0,0,0,6.07-1,6.31,6.31,0,0,0,3-6.35,4.43,4.43,0,0,0-2.41-3.1,3.68,3.68,0,0,0-4,.25,4.89,4.89,0,0,0-1.61,4.05,8,8,0,0,0,1.88,4.39,15,15,0,0,0,3.78,3.41,8.63,8.63,0,0,0,4.9,1.43,7.87,7.87,0,0,0,4.68-2,10.39,10.39,0,0,0,2.88-4.1,15.9,15.9,0,0,0,1.05-4.82,16.39,16.39,0,0,0-.29-4.72,5.86,5.86,0,0,0-2.25-3.63,3.72,3.72,0,0,0-3.79-.38,3.42,3.42,0,0,0-1.54,3.21,6.88,6.88,0,0,0,1.1,3.39,9.82,9.82,0,0,0,4.95,3.7,10.78,10.78,0,0,0,4.71.57A12.07,12.07,0,0,0,424.15,335.06Z"/></g></g></svg>