<svg xmlns="http://www.w3.org/2000/svg" xmlns:xlink="http://www.w3.org/1999/xlink" viewBox="0 0 750 500"><defs><style>.cls-1,.cls-7{fill:none;}.cls-2{isolation:isolate;}.cls-3{fill:#cfb8f2;}.cls-4{fill:#ddc6fb;}.cls-5{fill:#e5d1ff;}.cls-6{clip-path:url(#clip-path);}.cls-7{stroke:#fff;stroke-miterlimit:10;stroke-width:2px;}.cls-8{fill:#efd862;}.cls-9{opacity:0.45;}.cls-10,.cls-11{fill:#fff;}.cls-11{opacity:0.25;mix-blend-mode:overlay;}</style><clipPath id="clip-path"><rect class="cls-1" width="750" height="500"/></clipPath></defs><title>Artboard 1</title><g class="cls-2"><g id="OBJECTS"><rect class="cls-3" width="750" height="500"/><path class="cls-4" d="M750,211.4V355.88A371.69,371.69,0,0,1,688,500H78.35A373.85,373.85,0,0,1,139.74,0h486.9A373.4,373.4,0,0,1,750,211.4Z"/><path class="cls-5" d="M683.83,277.06A299.84,299.84,0,0,1,584.89,500H181.49A299.84,299.84,0,0,1,82.55,277.06C82.55,152.48,158.32,45.61,266.29,0h233.8C608.06,45.61,683.83,152.48,683.83,277.06Z"/><g class="cls-6"><path class="cls-7" d="M274.81,219.56l2.59.38a.81.81,0,0,1,0,1.61l-2.59.38a15.61,15.61,0,0,0-13.2,13.2l-.37,2.58a.81.81,0,0,1-1.61,0l-.38-2.58a15.61,15.61,0,0,0-13.2-13.2l-2.59-.38a.81.81,0,0,1,0-1.61l2.59-.38a15.62,15.62,0,0,0,13.2-13.2l.38-2.58a.81.81,0,0,1,1.61,0l.37,2.58A15.62,15.62,0,0,0,274.81,219.56Z"/><path class="cls-8" d="M178,244.76l-.22,1.9a.6.6,0,0,1-1.18,0l-.33-1.88a11.44,11.44,0,0,0-9.93-9.41l-1.9-.23a.6.6,0,0,1,0-1.18l1.88-.32a11.45,11.45,0,0,0,9.41-9.93l.23-1.9a.6.6,0,0,1,1.18,0l.32,1.89a11.46,11.46,0,0,0,9.93,9.41l1.9.22a.6.6,0,0,1,0,1.18l-1.89.33A11.45,11.45,0,0,0,178,244.76Z"/><path class="cls-8" d="M499.62,78l-.23,1.9a.6.6,0,0,1-1.18,0l-.32-1.89A11.46,11.46,0,0,0,488,68.66l-1.91-.22a.6.6,0,0,1,0-1.19l1.89-.32A11.46,11.46,0,0,0,497.32,57l.22-1.9a.6.6,0,0,1,1.18,0l.33,1.89A11.45,11.45,0,0,0,509,66.36l1.9.23a.6.6,0,0,1,0,1.18l-1.88.32A11.45,11.45,0,0,0,499.62,78Z"/><path class="cls-8" d="M473.66,426l-.23,1.9a.6.6,0,0,1-1.18,0l-.33-1.89a11.44,11.44,0,0,0-9.93-9.41l-1.9-.22a.6.6,0,0,1,0-1.19l1.89-.32a11.47,11.47,0,0,0,9.41-9.93l.22-1.9a.6.6,0,0,1,1.18,0l.33,1.89a11.44,11.44,0,0,0,9.93,9.41l1.9.23a.6.6,0,0,1,0,1.18l-1.88.32A11.45,11.45,0,0,0,473.66,426Z"/><path class="cls-7" d="M433.59,128.51l.8,1.07a.41.41,0,0,1-.58.58l-1.08-.8a8,8,0,0,0-9.55,0l-1.07.8a.42.42,0,0,1-.59-.58l.8-1.07a8,8,0,0,0,0-9.56l-.8-1.07a.42.42,0,0,1,.59-.58l1.07.8a8,8,0,0,0,9.55,0l1.08-.8a.41.41,0,0,1,.58.58l-.8,1.07A8,8,0,0,0,433.59,128.51Z"/><g class="cls-9"><path class="cls-10" d="M97.7-105.28c3.63,3.93,7,8,10.24,12.2s6.37,8.42,9.41,12.72,6,8.68,8.85,13.09,5.64,8.88,8.44,13.34l16.79,26.74L168-.35c5.56,8.94,11,17.94,16.48,26.94l8.2,13.49,8.11,13.55c10.82,18.06,21.51,36.21,31.91,54.54l-1.69,1.07C218.93,92,207.12,74.56,195.43,57.05l-8.77-13.13L178,30.73c-5.79-8.79-11.59-17.58-17.28-26.43L143.55-22.21l-17-26.62c-2.83-4.44-5.68-8.86-8.44-13.34s-5.46-9-8-13.6-5.09-9.24-7.47-14S98-99.24,96-104.21Z"/><path class="cls-10" d="M80.29-42.28a47.83,47.83,0,0,1,6.82,5.33,83.5,83.5,0,0,1,5.88,6c3.7,4.18,6.85,8.77,10.19,13.22L123,9.14q9.95,13.4,19.74,26.91l19.67,27L182,90.09l19.39,27.17c12.86,18.17,25.71,36.34,38.26,54.74l-1.6,1.19c-14-17.31-27.71-34.85-41.41-52.4l-20.43-26.4-20.3-26.5L135.7,41.3c-6.72-8.87-13.44-17.74-20.08-26.66l-20-26.73c-3.3-4.48-6.79-8.82-9.73-13.56A80.89,80.89,0,0,1,81.83-33a47.5,47.5,0,0,1-3.14-8.06Z"/><path class="cls-10" d="M649.28-51.74c-2.58,9-8.12,15.36-13.8,21.61l-16.79,19-8.41,9.48-8.47,9.43-17,18.83L567.75,45.32,550.52,63.93c-11.55,12.35-23.12,24.68-35,36.75L514,99.36C524.47,86,535.19,73,545.92,59.9l16.21-19.5L578.47,21,594.94,1.74l8.24-9.62,8.31-9.57,16.65-19.12c5.46-6.45,11.07-12.77,19.63-16.49Z"/><path class="cls-10" d="M735.8-45.52a129.8,129.8,0,0,1-13.63,15.65c-4.86,4.86-10,9.39-15.21,13.8l-31.28,26.6-15.63,13.3-15.7,13.23L612.94,63.51,581.42,89.82,549.79,116c-21.14,17.39-42.3,34.76-63.69,51.86l-1.3-1.52C505,147.88,525.47,129.68,546,111.52l30.8-27.16,30.9-27,31-26.9L654.19,17,669.76,3.61l31.15-26.75c5.18-4.48,10.46-8.84,16-12.87A129.78,129.78,0,0,1,734.5-47Z"/><path class="cls-10" d="M655.58,531.22a11.06,11.06,0,0,1-5.39-.54,10.61,10.61,0,0,1-3.75-2.32l-6.35-5.89-12.66-11.83q-12.61-11.88-25-23.95T577.75,462.3c-8.1-8.25-16.21-16.49-24-25l1.36-1.47c9.15,7.12,18,14.54,26.9,21.94s17.6,15,26.29,22.59,17.33,15.29,25.89,23L647,515l6.38,5.85a10.61,10.61,0,0,1,2.61,3.56,11,11,0,0,1,1,5.32Z"/><path class="cls-10" d="M616.62,527.39a20.86,20.86,0,0,1-5.13-1.95,29.92,29.92,0,0,1-4.35-2.8,45.23,45.23,0,0,1-3.83-3.35l-3.7-3.49-14.8-13.95c-4.95-4.64-9.83-9.35-14.73-14s-9.81-9.36-14.66-14.09l-14.58-14.2-14.48-14.29c-9.6-9.59-19.2-19.19-28.58-29l1.37-1.46c10.43,8.7,20.64,17.64,30.85,26.58l15.23,13.49,15.13,13.6c5,4.53,10,9.14,15,13.7s10,9.13,15,13.76l14.92,13.84,3.72,3.45a47,47,0,0,1,3.6,3.6,29.76,29.76,0,0,1,3.08,4.15,20.29,20.29,0,0,1,2.29,5Z"/><path class="cls-10" d="M83.4,537.42a112.72,112.72,0,0,1,10.19-12.33c3.6-3.89,7.4-7.56,11.29-11.14,7.77-7.17,15.52-14.37,23.39-21.43l5.88-5.32,5.93-5.26Q146,476.66,152,471.46c8-7,16-13.83,24.22-20.53l1.36,1.46c-7.26,7.72-14.68,15.26-22.18,22.72-3.73,3.74-7.51,7.45-11.29,11.14l-5.67,5.55-5.72,5.49c-7.6,7.35-15.32,14.57-23,21.82-3.84,3.62-7.78,7.15-11.9,10.48a114.76,114.76,0,0,1-13,9.29Z"/><path class="cls-10" d="M140.56,531.1a1.12,1.12,0,0,1-.12-1.09l0-.11c0-.07.06-.16.06-.18l.06-.24.09-.39a6.62,6.62,0,0,1,.2-.71c.14-.47.29-.91.46-1.34a22.92,22.92,0,0,1,1.14-2.45,27.85,27.85,0,0,1,2.88-4.28,50.61,50.61,0,0,1,3.46-3.71l3.55-3.61,14.26-14.36c4.75-4.79,9.57-9.5,14.37-14.24s9.6-9.47,14.45-14.15L210,456.18l14.67-13.93c9.83-9.24,19.67-18.47,29.73-27.47l1.42,1.42c-9,10.05-18.23,19.9-27.44,29.75l-13.9,14.69-14,14.61c-4.65,4.88-9.38,9.68-14.06,14.53s-9.36,9.7-14.1,14.49l-14.12,14.45-3.51,3.62c-1.18,1.2-2.31,2.44-3.6,3.53a29.63,29.63,0,0,1-4.12,3,25.75,25.75,0,0,1-2.33,1.23c-.41.19-.82.37-1.25.53-.21.08-.41.17-.63.23l-.31.1-.14,0s0,0,0-.06v0a1,1,0,0,0-.14-1Z"/><path class="cls-10" d="M-38,399.88a34.57,34.57,0,0,1,4.65-4.24,50.75,50.75,0,0,1,4.94-3.37A64.4,64.4,0,0,1-18,387.18c7.24-2.58,14.57-4.87,22-7s14.84-4.05,22.38-5.72q5.64-1.26,11.38-2.28c3.82-.68,7.67-1.27,11.59-1.67l.64,1.89c-3.37,2.05-6.79,3.91-10.25,5.68s-6.93,3.45-10.44,5.06c-7,3.23-14.12,6.19-21.29,9s-14.39,5.38-21.71,7.7a65.23,65.23,0,0,1-11.39,2.25,51.29,51.29,0,0,1-6,.29,34.1,34.1,0,0,1-6.26-.56Z"/><path class="cls-10" d="M-37.69,215A28.14,28.14,0,0,1-30,212.4a41.88,41.88,0,0,1,7.62-.76l15.22.24q15.23.31,30.44.87t30.44,1.47c10.14.61,20.28,1.29,30.42,2.31l0,2c-10.16.75-20.31,1.17-30.47,1.52s-20.31.57-30.46.69-20.3.14-30.45.09l-15.23-.16a42,42,0,0,1-7.6-.95A28.15,28.15,0,0,1-37.72,217Z"/><path class="cls-10" d="M776.88,148.44a11.94,11.94,0,0,1-1.68,3.84,10.41,10.41,0,0,1-2.23,2.45c-1.61,1.33-3.56,1.82-5.39,2.6-3.7,1.47-7.4,2.93-11.13,4.34Q745.31,166,734,169.91t-22.71,7.54c-7.62,2.37-15.29,4.64-23.11,6.54l-.74-1.85c7-4,14.07-7.69,21.23-11.24s14.36-7,21.63-10.24,14.56-6.47,21.91-9.53c3.66-1.56,7.35-3,11-4.55,1.86-.7,3.61-1.69,5.69-1.85a10.55,10.55,0,0,1,3.31.24,12.06,12.06,0,0,1,3.87,1.61Z"/><path class="cls-10" d="M787.59,170.46c-2.49,1.33-5,2.51-7.61,3.62s-5.17,2.15-7.79,3.15l-15.73,5.9c-5.25,2-10.53,3.81-15.8,5.72-2.63,1-5.28,1.88-7.93,2.8s-5.29,1.84-8,2.71l-.71-1.86c2.57-1.12,5.16-2.19,7.75-3.26s5.17-2.15,7.78-3.19c5.2-2.07,10.38-4.2,15.6-6.22l15.67-6.06c2.62-1,5.25-2,7.92-2.83s5.34-1.7,8.09-2.35Z"/><path class="cls-10" d="M783.09,392.57a25.23,25.23,0,0,1-7.31-.4,46.6,46.6,0,0,1-6.8-1.9l-13.39-4.5q-6.71-2.24-13.37-4.56l-13.34-4.62c-8.88-3.14-17.75-6.29-26.59-9.54s-17.67-6.54-26.43-10l.62-1.9c9.12,2.43,18.16,5.08,27.19,7.74s18,5.45,27,8.24l13.46,4.26q6.74,2.13,13.44,4.34L771,384.08a46.32,46.32,0,0,1,6.6,2.54,25.58,25.58,0,0,1,6.1,4.05Z"/></g></g><path class="cls-11" d="M101.23,405.51c-1.75,6.76-19.21,25.41-36.57,33.32-14.24,6.48-46.26,13-64.66,24.89v-6.51a49.65,49.65,0,0,1,8.27-5.45c3.59-2,8.05-4.36,13-6.85,3.41-1.7,7.06-3.48,10.85-5.29,4.35-2.07,8.87-4.18,13.4-6.26,3.7-1.7,7.41-3.39,11-5,4.73-2.13,9.33-4.16,13.59-6,4.09-1.79,7.87-3.41,11.16-4.8,5.68-2.41,9.88-4.11,11.7-4.75a14,14,0,0,0,2.11-.94A15.79,15.79,0,0,0,101.23,405.51Z"/><path class="cls-11" d="M91.65,264.91c-6.79,5.93-38.74,7.79-55.31,15.32-12.08,5.49-23.52,3.28-36.34,3.08v-3.08S27.65,271,91.65,264.91Z"/><path class="cls-11" d="M115.46,140.74c-5.43-15.41-32.33-20.86-51.8-31.53-18.08-9.9-36.52-19.62-45.85-31.76,31.66,17.66,94.75,52.79,97.81,54.06C116.83,132,116.6,135.68,115.46,140.74Z"/></g></g></svg>