<svg xmlns="http://www.w3.org/2000/svg" width="188" height="453" viewBox="0 0 188 453">
  <defs>
    <style>
      .cls-1 {
        fill: #f1dda8;
        fill-rule: evenodd;
      }
    </style>
  </defs>
  <path id="Ellipse_2_copy_6" data-name="Ellipse 2 copy 6" class="cls-1" d="M1262.5,1146a82.5,82.5,0,1,1-82.5,82.5A82.5,82.5,0,0,1,1262.5,1146ZM1169,1007a29,29,0,1,1-29,29A29,29,0,0,1,1169,1007Zm-55,325a14,14,0,1,1-14,14A14,14,0,0,1,1114,1332Zm120-425a14,14,0,1,1-14,14A14,14,0,0,1,1234,907Z" transform="translate(-1100 -907)"/>
</svg>
