<svg xmlns="http://www.w3.org/2000/svg" viewBox="0 0 195.83 195.9"><defs><style>.cls-1{fill:#e7545a;}</style></defs><title>fb</title><g id="Layer_2" data-name="Layer 2"><g id="Layer_1-2" data-name="Layer 1"><path class="cls-1" d="M195.83,98.08c0,54.13-44.26,98.2-99.18,97.82C43.49,195.53-.11,151.42,0,97.53A97.79,97.79,0,0,1,98.48,0C152.3.14,195.9,44.07,195.83,98.08Zm-70.06,0V74.53H108.45c-1-10.52.46-12.17,10.27-12.21h6.93V38.87c-6.72,0-13-.07-19.36,0-11.55.15-20.74,8-22.42,19.39-.77,5.21-.72,10.53-1.08,16.5H70.12V98.17H83.29v58.51h24.89V98.05Z"/></g></g></svg>