<svg xmlns="http://www.w3.org/2000/svg" xmlns:xlink="http://www.w3.org/1999/xlink" viewBox="0 0 581.21 422.83"><defs><style>.cls-1{fill:none;}.cls-2{isolation:isolate;}.cls-3{clip-path:url(#clip-path);}.cls-4{opacity:0.49;}.cls-13,.cls-31,.cls-38,.cls-4,.cls-40,.cls-53,.cls-61,.cls-63{mix-blend-mode:multiply;}.cls-5{clip-path:url(#clip-path-3);}.cls-6{fill:#fff;}.cls-7{clip-path:url(#clip-path-4);}.cls-38,.cls-8{opacity:0.41;}.cls-9{clip-path:url(#clip-path-5);}.cls-10{fill:#7c81aa;}.cls-11{fill:#6f65a4;}.cls-12{fill:#6061a8;}.cls-14{clip-path:url(#clip-path-6);}.cls-15{clip-path:url(#clip-path-7);}.cls-16{clip-path:url(#clip-path-8);}.cls-17{clip-path:url(#clip-path-9);}.cls-18{clip-path:url(#clip-path-10);}.cls-19{clip-path:url(#clip-path-11);}.cls-20{clip-path:url(#clip-path-12);}.cls-21{clip-path:url(#clip-path-13);}.cls-22{clip-path:url(#clip-path-14);}.cls-23{clip-path:url(#clip-path-15);}.cls-24{clip-path:url(#clip-path-16);}.cls-25{clip-path:url(#clip-path-17);}.cls-26{clip-path:url(#clip-path-18);}.cls-27{clip-path:url(#clip-path-19);}.cls-28{clip-path:url(#clip-path-20);}.cls-29{clip-path:url(#clip-path-21);}.cls-30{fill:#828aa2;}.cls-31{opacity:0.48;}.cls-32{clip-path:url(#clip-path-22);}.cls-33{fill:#5653ad;}.cls-34{clip-path:url(#clip-path-23);}.cls-35{fill:#a67c7c;}.cls-36{fill:#3e24a6;}.cls-37{fill:#604fad;}.cls-39{clip-path:url(#clip-path-24);}.cls-40{opacity:0.45;}.cls-41{clip-path:url(#clip-path-25);}.cls-42{fill:#282263;}.cls-43{clip-path:url(#clip-path-26);}.cls-44{clip-path:url(#clip-path-27);}.cls-45{clip-path:url(#clip-path-28);}.cls-46{clip-path:url(#clip-path-29);}.cls-47{opacity:0.58;}.cls-48{clip-path:url(#clip-path-30);}.cls-49{clip-path:url(#clip-path-31);}.cls-50{clip-path:url(#clip-path-32);}.cls-51{clip-path:url(#clip-path-33);}.cls-52{clip-path:url(#clip-path-34);}.cls-53{opacity:0.47;}.cls-54{clip-path:url(#clip-path-35);}.cls-55{clip-path:url(#clip-path-36);}.cls-56{clip-path:url(#clip-path-37);}.cls-57{clip-path:url(#clip-path-38);}.cls-58{clip-path:url(#clip-path-39);}.cls-59{clip-path:url(#clip-path-40);}.cls-60{clip-path:url(#clip-path-41);}.cls-61{opacity:0.29;}.cls-62{clip-path:url(#clip-path-42);}.cls-63{opacity:0.53;}.cls-64{clip-path:url(#clip-path-43);}.cls-65{clip-path:url(#clip-path-44);}.cls-66{clip-path:url(#clip-path-45);}.cls-67{opacity:0.6;}.cls-68{clip-path:url(#clip-path-46);}.cls-69{clip-path:url(#clip-path-47);}.cls-70{clip-path:url(#clip-path-48);}.cls-71{clip-path:url(#clip-path-49);}</style><clipPath id="clip-path"><rect class="cls-1" width="581.21" height="422.83"/></clipPath><clipPath id="clip-path-3"><rect class="cls-1" y="64.08" width="324.24" height="310.5"/></clipPath><clipPath id="clip-path-4"><rect class="cls-1" x="347.93" y="110.07" width="232.96" height="251.33"/></clipPath><clipPath id="clip-path-5"><rect class="cls-1" x="23.64" y="391.86" width="557.57" height="30.96"/></clipPath><clipPath id="clip-path-6"><rect class="cls-1" x="220.41" y="222.03" width="13.48" height="118.47"/></clipPath><clipPath id="clip-path-7"><rect class="cls-1" x="221.55" y="160.19" width="58.5" height="168.31"/></clipPath><clipPath id="clip-path-8"><rect class="cls-1" x="267.18" y="149.91" width="56.3" height="61.63"/></clipPath><clipPath id="clip-path-9"><rect class="cls-1" x="202.21" y="268.65" width="12.16" height="63.95"/></clipPath><clipPath id="clip-path-10"><rect class="cls-1" x="179.49" y="261.37" width="49.65" height="54.07"/></clipPath><clipPath id="clip-path-11"><rect class="cls-1" x="265.86" y="232.91" width="55.3" height="56.84"/></clipPath><clipPath id="clip-path-12"><rect class="cls-1" x="232.72" y="242.29" width="61.85" height="89.41"/></clipPath><clipPath id="clip-path-13"><rect class="cls-1" x="269.66" y="237.7" width="44.79" height="44.5"/></clipPath><clipPath id="clip-path-14"><rect class="cls-1" x="182.13" y="282.7" width="13.12" height="2.86"/></clipPath><clipPath id="clip-path-15"><rect class="cls-1" x="190.75" y="263.94" width="25" height="36.73"/></clipPath><clipPath id="clip-path-16"><rect class="cls-1" x="279.83" y="153.59" width="40.88" height="47.83"/></clipPath><clipPath id="clip-path-17"><rect class="cls-1" x="295.4" y="159.3" width="1.17" height="8.95"/></clipPath><clipPath id="clip-path-18"><rect class="cls-1" x="276.94" y="154.43" width="8.62" height="10.88"/></clipPath><clipPath id="clip-path-19"><rect class="cls-1" x="201.33" y="196.11" width="61.73" height="61.57"/></clipPath><clipPath id="clip-path-20"><rect class="cls-1" x="209.8" y="204.84" width="43.48" height="44.19"/></clipPath><clipPath id="clip-path-21"><rect class="cls-1" x="229.02" y="216.03" width="11.91" height="10.46"/></clipPath><clipPath id="clip-path-22"><rect class="cls-1" x="191.78" y="318.4" width="64.75" height="45.84"/></clipPath><clipPath id="clip-path-23"><rect class="cls-1" x="29.67" y="187.65" width="128.93" height="146.76"/></clipPath><clipPath id="clip-path-24"><rect class="cls-1" x="116.54" y="191.95" width="58.36" height="54.77"/></clipPath><clipPath id="clip-path-25"><rect class="cls-1" x="89.26" y="256.85" width="147.58" height="53.41"/></clipPath><clipPath id="clip-path-26"><rect class="cls-1" x="105.37" y="212.72" width="14.21" height="14.69"/></clipPath><clipPath id="clip-path-27"><rect class="cls-1" x="87" y="208.38" width="11.77" height="68.79"/></clipPath><clipPath id="clip-path-28"><rect class="cls-1" x="99.81" y="162.46" width="13.25" height="17.03"/></clipPath><clipPath id="clip-path-29"><rect class="cls-1" x="113.14" y="154.14" width="4.44" height="9.44"/></clipPath><clipPath id="clip-path-30"><rect class="cls-1" x="101.71" y="155.03" width="10.33" height="6.22"/></clipPath><clipPath id="clip-path-31"><rect class="cls-1" x="117.57" y="154.57" width="8.42" height="6"/></clipPath><clipPath id="clip-path-32"><rect class="cls-1" x="105.43" y="163.5" width="8.72" height="3.71"/></clipPath><clipPath id="clip-path-33"><rect class="cls-1" x="93.91" y="243.36" width="20.55" height="3.3"/></clipPath><clipPath id="clip-path-34"><rect class="cls-1" x="91.8" y="255.58" width="22.55" height="2.5"/></clipPath><clipPath id="clip-path-35"><rect class="cls-1" x="133.49" y="247.07" width="6.07" height="4.92"/></clipPath><clipPath id="clip-path-36"><rect class="cls-1" x="131.81" y="250.31" width="4.41" height="3.57"/></clipPath><clipPath id="clip-path-37"><rect class="cls-1" x="136" y="245.12" width="5.56" height="4.66"/></clipPath><clipPath id="clip-path-38"><rect class="cls-1" x="89.26" y="200.56" width="3.83" height="20.88"/></clipPath><clipPath id="clip-path-39"><rect class="cls-1" x="440.65" y="194.11" width="128.93" height="146.76"/></clipPath><clipPath id="clip-path-40"><rect class="cls-1" x="390.09" y="196.63" width="76.69" height="65.85"/></clipPath><clipPath id="clip-path-41"><rect class="cls-1" x="358.46" y="282.2" width="120.62" height="106.73"/></clipPath><clipPath id="clip-path-42"><rect class="cls-1" x="448.48" y="178.27" width="8.48" height="13.89"/></clipPath><clipPath id="clip-path-43"><rect class="cls-1" x="438.68" y="166.64" width="6.19" height="3.1"/></clipPath><clipPath id="clip-path-44"><rect class="cls-1" x="453.21" y="162.86" width="8.99" height="7.51"/></clipPath><clipPath id="clip-path-45"><rect class="cls-1" x="478.91" y="203.33" width="20.18" height="98.36"/></clipPath><clipPath id="clip-path-46"><rect class="cls-1" x="429.67" y="275.44" width="9.78" height="10.17"/></clipPath><clipPath id="clip-path-47"><rect class="cls-1" x="432.77" y="279.25" width="2.6" height="5.34"/></clipPath><clipPath id="clip-path-48"><rect class="cls-1" x="437.5" y="281.76" width="1.95" height="3.85"/></clipPath><clipPath id="clip-path-49"><rect class="cls-1" x="429.67" y="275.44" width="2.37" height="6.39"/></clipPath></defs><title>header</title><g class="cls-2"><g id="Layer_1" data-name="Layer 1"><g class="cls-3"><g class="cls-3"><g class="cls-4"><g class="cls-5"><path class="cls-6" d="M181.86,374.39c1.34-.07,2.68-.15,4-.26,63.39-4.91,117.92-54.64,134-115.39C336.68,195.41,303,134.19,250.81,99c-58-39.15-143.68-51.2-201.6-5.35C-6.49,137.69-12.67,220.7,19.42,280.68l1,1.81c31.09,56.31,96.7,95.16,161.45,91.9"/></g></g><g class="cls-4"><g class="cls-7"><path class="cls-6" d="M355.43,288.12A109.94,109.94,0,0,0,389.16,334c42.73,34.81,108.76,38.66,149.53-.92,60.54-58.77,60.86-189.57-31.29-217.82C405.56,84,322,201.55,355.43,288.12"/></g></g><g class="cls-8"><g class="cls-9"><path class="cls-10" d="M581.21,407.34c0,8.55-124.81,15.49-278.78,15.49S23.64,415.89,23.64,407.34s124.82-15.48,278.79-15.48,278.78,6.93,278.78,15.48"/></g></g><path class="cls-11" d="M402.4,129.61a59.87,59.87,0,0,0,7.53-4.63c19.21-14,30.58-40.73,20.29-63.39-8-17.51-26.21-28-44.55-31.32-30.91-5.55-68.31,8.15-76.67,41.15a55.93,55.93,0,0,0-1.66,19c3.37,35.57,45,53,79.59,44.83,12.78,23.26,44.23,19.15,44.23,19.15-16.55-1.49-24.73-13.83-28.76-24.83"/><path class="cls-12" d="M238.62,50.13A52,52,0,0,0,235,32.73C223.67,3.17,187.64-5.38,159.7,3.12,143.12,8.17,127.42,19.89,122,36.93c-7,22,6.42,45.54,25.68,56.31a57.78,57.78,0,0,0,17.64,6.3c-1.55,14.14-7.75,36.79-31.29,41.75,0,0,47.16.56,51.37-41,27.88-3,53.9-22.05,53.23-50.13"/><path class="cls-10" d="M233.76,223.54c-.35,8.43.4,16.9,0,25.39-.46,10.53-1.38,20.84-2.73,31.3-1.33,10.31-2.69,20.61-4.16,30.9-.74,5.19-1.4,10.38-2.09,15.58-.2,1.54-2.64,10.11-1.54,11.54s-1.09,3.14-2.18,1.72-.52-3.53-.29-5.25c.67-5,1.42-9.89,2.08-14.84,1.49-11.25,3.24-22.46,4.64-33.72,1.34-10.88,2.93-21.7,3.34-32.67.21-5.7.68-11.42.7-17.12,0-4.4-.73-8.76-.55-13.15.07-1.79,2.83-1.45,2.76.32"/><g class="cls-13"><g class="cls-14"><path class="cls-10" d="M233.76,223.54c-.35,8.43.4,16.9,0,25.39-.46,10.53-1.38,20.84-2.73,31.3-1.33,10.31-2.69,20.61-4.16,30.9-.74,5.19-1.4,10.38-2.09,15.58-.2,1.54-2.64,10.11-1.54,11.54s-1.09,3.14-2.18,1.72-.52-3.53-.29-5.25c.67-5,1.42-9.89,2.08-14.84,1.49-11.25,3.24-22.46,4.64-33.72,1.34-10.88,2.93-21.7,3.34-32.67.21-5.7.68-11.42.7-17.12,0-4.4-.73-8.76-.55-13.15.07-1.79,2.83-1.45,2.76.32"/></g></g><path class="cls-10" d="M277.51,160.7c-4.28,5-8.83,9.39-12.08,15.29-4.06,7.37-7.08,15.43-10.16,23.25-5.78,14.69-10.79,29.67-15.37,44.78-3.49,11.51-7.29,23.07-9.55,34.89-1.66,8.72-2.61,17.53-3.69,26.33-.52,4.23-1.27,8.34-2.16,12.5-.48,2.26-.68,6.76-2.45,8.25-1.36,1.16.35,3.34,1.72,2.18,2.48-2.09,2.59-5.89,3.21-8.87,1.86-8.94,2.84-17.89,4.05-26.93,2-14.69,5.88-28.68,10.1-42.84s8.75-28.19,13.94-42c3.22-8.61,6.61-17.21,10.48-25.55,3.63-7.85,8.7-13.17,14.18-19.6,1.16-1.36-1.06-3-2.22-1.67"/><g class="cls-4"><g class="cls-15"><path class="cls-10" d="M277.51,160.7c-4.28,5-8.83,9.39-12.08,15.29-4.06,7.37-7.08,15.43-10.16,23.25-5.78,14.69-10.79,29.67-15.37,44.78-3.49,11.51-7.29,23.07-9.55,34.89-1.66,8.72-2.61,17.53-3.69,26.33-.52,4.23-1.27,8.34-2.16,12.5-.48,2.26-.68,6.76-2.45,8.25-1.36,1.16.35,3.34,1.72,2.18,2.48-2.09,2.59-5.89,3.21-8.87,1.86-8.94,2.84-17.89,4.05-26.93,2-14.69,5.88-28.68,10.1-42.84s8.75-28.19,13.94-42c3.22-8.61,6.61-17.21,10.48-25.55,3.63-7.85,8.7-13.17,14.18-19.6,1.16-1.36-1.06-3-2.22-1.67"/></g></g><path class="cls-10" d="M323.23,193.61c-1.87-15.26-8.18-26.92-21-34.87C297.82,156,288.83,151,283.66,150c-4.6-.87-3.31,4.1,0,4.19l-1.38-.16c-.25-.89-7.69-1.07-9.06-.79-4.69,1-5.73,3.72-6,8.21-.24,3.56.88,7.56,2.2,10.85,1.07,2.66,4.7,8.16,7.74,8.82.61-4-3.63-10.91.38-14.36,5.41,3.54,5.33,8.69,5.5,14.67.05,1.8-.42,2.33.85,3.31a21.86,21.86,0,0,0,3.93,1.37c3.53,1.17,3.53-1.56,3.81-4.53.33-3.52-.45-6.93-.37-10.42,3,3.17,5.26,4.65,5.83,9.31a29.38,29.38,0,0,1-.58,10.19c2.89,1.61,5.57,3.42,8.41,5.11,1.79-3.62,1-8.34,2.69-11.65,4.64,3.77,3,8.49,3.56,13.4.26,2.14,2.61,4.26,4.17,6.08,2.16,2.51,3.07,5.06,4.66,7.93a29.53,29.53,0,0,0,3.24-17.94"/><g class="cls-13"><g class="cls-16"><path class="cls-10" d="M323.23,193.61c-1.87-15.26-8.18-26.92-21-34.87C297.82,156,288.83,151,283.66,150c-4.6-.87-3.31,4.1,0,4.19l-1.38-.16c-.25-.89-7.69-1.07-9.06-.79-4.69,1-5.73,3.72-6,8.21-.24,3.56.88,7.56,2.2,10.85,1.07,2.66,4.7,8.16,7.74,8.82.61-4-3.63-10.91.38-14.36,5.41,3.54,5.33,8.69,5.5,14.67.05,1.8-.42,2.33.85,3.31a21.86,21.86,0,0,0,3.93,1.37c3.53,1.17,3.53-1.56,3.81-4.53.33-3.52-.45-6.93-.37-10.42,3,3.17,5.26,4.65,5.83,9.31a29.38,29.38,0,0,1-.58,10.19c2.89,1.61,5.57,3.42,8.41,5.11,1.79-3.62,1-8.34,2.69-11.65,4.64,3.77,3,8.49,3.56,13.4.26,2.14,2.61,4.26,4.17,6.08,2.16,2.51,3.07,5.06,4.66,7.93a29.53,29.53,0,0,0,3.24-17.94"/></g></g><path class="cls-10" d="M204.83,269.5c3.42,10.51,4.45,22.21,6.22,33.11,1.51,9.31,3.91,19.32,3.18,28.8-.14,1.79-2.89,1.46-2.76-.32.71-9.2-1.7-19-3.16-28.06-1.72-10.61-2.7-22.2-6-32.43-.54-1.68,2-2.8,2.55-1.1"/><g class="cls-13"><g class="cls-17"><path class="cls-10" d="M204.83,269.5c3.42,10.51,4.45,22.21,6.22,33.11,1.51,9.31,3.91,19.32,3.18,28.8-.14,1.79-2.89,1.46-2.76-.32.71-9.2-1.7-19-3.16-28.06-1.72-10.61-2.7-22.2-6-32.43-.54-1.68,2-2.8,2.55-1.1"/></g></g><path class="cls-10" d="M188.57,262.92a10.86,10.86,0,0,1,14.89,3.6c0-.35.16-.26.33-.4l.11-.92c2.83-2.21,10.84-1.6,14.47-.4,5.42,1.78,10.27,8.22,10.73,13.78.24,2.78-.53,6.27-2.54,8.18-1-3.19-1.15-6.49-3.9-8.87-1.51-1.3-8.86-3.2-7.9.81.28,1.16,3.05,3.3,3.69,4.77a13.1,13.1,0,0,1,1.08,5.06c0,1.32.29,3.66-.6,4.78s-3.56,1.4-4.91,2.27c-.46-2.62.43-5.46-.16-8.17s-1.81-6.38-4.12-8.22c-.62,1.86-2,3.35-2.53,5.28a37,37,0,0,0-1.15,7.73c-.12,1.52.57,3.9.27,5.2-.38,1.66-3.13,3.49-4.25,4.8-1.77-2.47-1.3-6.18-2.89-8.84-8,3.84.67,17.53-7.74,22.08,2.74-5.71-3.16-9.52-5.08-14.24-2.35-5.76,2.06-10,5.33-14.17-2.26-1.17-5.11.08-6.89,1.66s-1.49,3-2.49,4.81c-1.51-6-3.93-15.16,4.7-16,1.82-.19,3.76.82,4.56-.73s-.37-3.13-1.59-3.81c-3.82-2.11-8.39.19-10.5,3.49.15-4.7,5.16-11.3,9.08-13.49"/><g class="cls-13"><g class="cls-18"><path class="cls-10" d="M188.57,262.92a10.86,10.86,0,0,1,14.89,3.6c0-.35.16-.26.33-.4l.11-.92c2.83-2.21,10.84-1.6,14.47-.4,5.42,1.78,10.27,8.22,10.73,13.78.24,2.78-.53,6.27-2.54,8.18-1-3.19-1.15-6.49-3.9-8.87-1.51-1.3-8.86-3.2-7.9.81.28,1.16,3.05,3.3,3.69,4.77a13.1,13.1,0,0,1,1.08,5.06c0,1.32.29,3.66-.6,4.78s-3.56,1.4-4.91,2.27c-.46-2.62.43-5.46-.16-8.17s-1.81-6.38-4.12-8.22c-.62,1.86-2,3.35-2.53,5.28a37,37,0,0,0-1.15,7.73c-.12,1.52.57,3.9.27,5.2-.38,1.66-3.13,3.49-4.25,4.8-1.77-2.47-1.3-6.18-2.89-8.84-8,3.84.67,17.53-7.74,22.08,2.74-5.71-3.16-9.52-5.08-14.24-2.35-5.76,2.06-10,5.33-14.17-2.26-1.17-5.11.08-6.89,1.66s-1.49,3-2.49,4.81c-1.51-6-3.93-15.16,4.7-16,1.82-.19,3.76.82,4.56-.73s-.37-3.13-1.59-3.81c-3.82-2.11-8.39.19-10.5,3.49.15-4.7,5.16-11.3,9.08-13.49"/></g></g><path class="cls-10" d="M265.9,258.93a16.64,16.64,0,0,0,1.37,8c1.22,2.38,2.32,5.76,4.4,7.54.63-2.39,0-5.2.39-7.74.22-1.42.31-2.55,1.87-2.83a2.65,2.65,0,0,1,2.83,1.51c.68,1.76-.54,4.64-1.1,6.24-1.13,3.26-.41,5,2.67,6.53a22.6,22.6,0,0,0,7.26,2.37,11.7,11.7,0,0,1-1.6-7.24c.13-1.42,1.22-5.7,3.32-4.92,1.72.63.72,4.62,1,6.08,1,4.63,6,7.12,10.35,7.41a14.81,14.81,0,0,0,.2-7.3c-.33-1.24-3.52-5.38-1.1-6.05,1.56-.43,3.37,3.71,4.78,7.7a18.34,18.34,0,0,0,8.87,10.19l6.53,3.36s1.19-7.84,1.37-9.18c.65-4.79,1.38-7.94-3.23-10.43-1.55-.84-6.89-2.5-6.49-4.95.43-2.61,4.49-.59,5.65.27,1.53,1.13,3.39,5.75,5.05,3,2.82-4.7-2.19-9.89-5.61-12.46s-7.51-3.65-11.42-5.1a5.59,5.59,0,0,1-1.66-.82c-1.83-1.46-.8-4.51,1.2-5.21a4.38,4.38,0,0,1,3.8.62c2,1.35,4.61,7.64,7.61,6.83,1.9-.51.77-4.28.42-5.55-1.47-5.28-7.27-8.62-11.82-11.06-4.1-2.19-8.14-3.57-12.77-2.33-3.56,1-8.5,5.26-7.59,9.44a19.68,19.68,0,0,0-6.83,1.93,17.62,17.62,0,0,0-9.76,14.18m48.77-12.16c-1.47-5.28-7.27-8.62-11.82-11.06m-18.76,7.09.24,0,.85.1c-.36,0-.73-.07-1.09-.08"/><g class="cls-13"><g class="cls-19"><path class="cls-10" d="M265.9,258.93a16.64,16.64,0,0,0,1.37,8c1.22,2.38,2.32,5.76,4.4,7.54.63-2.39,0-5.2.39-7.74.22-1.42.31-2.55,1.87-2.83a2.65,2.65,0,0,1,2.83,1.51c.68,1.76-.54,4.64-1.1,6.24-1.13,3.26-.41,5,2.67,6.53a22.6,22.6,0,0,0,7.26,2.37,11.7,11.7,0,0,1-1.6-7.24c.13-1.42,1.22-5.7,3.32-4.92,1.72.63.72,4.62,1,6.08,1,4.63,6,7.12,10.35,7.41a14.81,14.81,0,0,0,.2-7.3c-.33-1.24-3.52-5.38-1.1-6.05,1.56-.43,3.37,3.71,4.78,7.7a18.34,18.34,0,0,0,8.87,10.19l6.53,3.36s1.19-7.84,1.37-9.18c.65-4.79,1.38-7.94-3.23-10.43-1.55-.84-6.89-2.5-6.49-4.95.43-2.61,4.49-.59,5.65.27,1.53,1.13,3.39,5.75,5.05,3,2.82-4.7-2.19-9.89-5.61-12.46s-7.51-3.65-11.42-5.1a5.59,5.59,0,0,1-1.66-.82c-1.83-1.46-.8-4.51,1.2-5.21a4.38,4.38,0,0,1,3.8.62c2,1.35,4.61,7.64,7.61,6.83,1.9-.51.77-4.28.42-5.55-1.47-5.28-7.27-8.62-11.82-11.06-4.1-2.19-8.14-3.57-12.77-2.33-3.56,1-8.5,5.26-7.59,9.44a19.68,19.68,0,0,0-6.83,1.93,17.62,17.62,0,0,0-9.76,14.18m48.77-12.16c-1.47-5.28-7.27-8.62-11.82-11.06m-18.76,7.09.24,0,.85.1c-.36,0-.73-.07-1.09-.08"/></g></g><path class="cls-10" d="M292.61,250.7c-8.37-9.82-20-6.34-29,.31-8.67,6.42-14.27,13.77-18.63,23.66a109,109,0,0,0-8.25,28.13,105.93,105.93,0,0,0-1.1,14,68,68,0,0,1-.22,7.69c-.26,2.08-.88,3.89-.39,6,.32,1.36-1.82,1.67-2.14.32a13.86,13.86,0,0,1,.2-5.4,69.44,69.44,0,0,0,.4-8.89,106.54,106.54,0,0,1,13.8-51.18c8.47-14.67,32-33.56,47-16,.9,1.07-.8,2.4-1.7,1.34"/><g class="cls-13"><g class="cls-20"><path class="cls-10" d="M292.61,250.7c-8.37-9.82-20-6.34-29,.31-8.67,6.42-14.27,13.77-18.63,23.66a109,109,0,0,0-8.25,28.13,105.93,105.93,0,0,0-1.1,14,68,68,0,0,1-.22,7.69c-.26,2.08-.88,3.89-.39,6,.32,1.36-1.82,1.67-2.14.32a13.86,13.86,0,0,1,.2-5.4,69.44,69.44,0,0,0,.4-8.89,106.54,106.54,0,0,1,13.8-51.18c8.47-14.67,32-33.56,47-16,.9,1.07-.8,2.4-1.7,1.34"/></g></g><g class="cls-4"><g class="cls-21"><path class="cls-10" d="M284,243.88c-.42-.19-.83-.39-1.25-.57a.2.2,0,0,1,.15-.36c1.25.53,2.46,1.13,3.65,1.77,1.88-4.72,8.53-6.08,12.95-7,.24-.05.3.33.06.38-4.25.9-10.85,2.25-12.66,6.82a44.25,44.25,0,0,1,4.83,3.07,10.19,10.19,0,0,1,7.92-5.53c.25,0,.31.36.06.38A9.86,9.86,0,0,0,292,248.2a40.55,40.55,0,0,1,7.61,7.43c.87-1.52,9.92,2.59,10.83,3.11.22.12,0,.43-.24.31a27.61,27.61,0,0,0-4.75-2.19c-.26-.09-5.54-1.62-5.53-.91,0,0,0,0,0,0v0c.16.2.32.39.47.59a89.34,89.34,0,0,1,7.49,12.75.18.18,0,0,1,.15.2.2.2,0,0,0,0,.07,1.86,1.86,0,0,0,.1.2,17.89,17.89,0,0,1,6.3,8.58c.08.24-.28.4-.36.16a17.49,17.49,0,0,0-5.54-7.91c1.51,3,3,6.07,4.5,9,.11.22-.25.38-.36.16-1.61-3.11-3.15-6.32-4.75-9.5a28,28,0,0,0,.8,11.66c.07.25-.31.3-.38.06a27.79,27.79,0,0,1-.72-12.33,104.17,104.17,0,0,0-6.75-11.78c-.33-.48-.68-.95-1-1.42a32.39,32.39,0,0,0-.15,11.24.2.2,0,0,1-.39.06,32.38,32.38,0,0,1,0-10.67,20.29,20.29,0,0,0-5.84,15.09c0,.25-.38.31-.39.06a20.72,20.72,0,0,1,6.32-15.79l0,0c0-.12,0-.25.07-.37a40.42,40.42,0,0,0-7.94-7.74,78,78,0,0,0-7.26,19.16c-.06.24-.45.2-.39,0a78.44,78.44,0,0,1,7.33-19.34,43.21,43.21,0,0,0-4.53-2.86h0a.17.17,0,0,1-.24.1s0,0,0,.06a53.21,53.21,0,0,0-4.6,16.54.2.2,0,0,1-.39,0,53.29,53.29,0,0,1,4.63-16.65.19.19,0,0,1,.25-.1s0,0,0-.06,0,0,0,0c-.68-.36-1.36-.72-2.06-1.05a.2.2,0,0,1-.1.16A29.54,29.54,0,0,0,270,260.33a.19.19,0,0,1-.36-.14A30,30,0,0,1,284,243.88"/></g></g><g class="cls-4"><g class="cls-22"><path class="cls-10" d="M182.27,285.07a17.31,17.31,0,0,1,12.78-1.9c.31.08.25.57-.06.5a16.91,16.91,0,0,0-12.52,1.86c-.28.16-.48-.3-.2-.46"/></g></g><g class="cls-4"><g class="cls-23"><path class="cls-10" d="M191.27,269.4a11.21,11.21,0,0,1,4.95-.91,10.31,10.31,0,0,1,2.34.39,23.42,23.42,0,0,0,2.61,1l.1-.06a.2.2,0,0,1,.29.08h.24a.19.19,0,0,1,.13,0c.11-.21.2-.43.31-.64h0c-1.32-1.47-6.29-6.39-8.55-4.4-.25.22-.56-.18-.32-.39,1.3-1.14,3-.22,4.3.49a18.51,18.51,0,0,1,4.8,3.82c.26-.55.52-1.1.77-1.65.14-.29.6-.1.47.19-.28.61-.58,1.23-.86,1.84a.23.23,0,0,1,.29-.12c2.26.79,5.08-.11,7.47.44a13.43,13.43,0,0,1,5.05,2.42c.26.19-.05.59-.31.4a12.46,12.46,0,0,0-6.78-2.61c-2-.13-3.74.47-5.62-.19a.21.21,0,0,1-.13-.28c-.25.54-.5,1.07-.76,1.61A17.44,17.44,0,0,1,211.2,277c.2.25-.2.56-.4.31a16.91,16.91,0,0,0-9-6c-.35.73-.72,1.48-1.08,2.22,0,0,0,.06,0,.1,0,.36,0,.71-.06,1.07a.22.22,0,0,1,.31.05,19.12,19.12,0,0,1,2.95,5.88c.09.3-.37.51-.46.2a18.55,18.55,0,0,0-2.83-5.68,43.42,43.42,0,0,0,.34,8.21.25.25,0,0,1-.5.07,43.46,43.46,0,0,1-.31-8.83c-1.09,2.23-2.18,4.47-3.22,6.75a.23.23,0,0,1,.19.13,89.5,89.5,0,0,1,4.72,10.71c.11.3-.35.5-.46.2a90.56,90.56,0,0,0-4.66-10.58c-2.74,6.05-5,12.28-5.54,18.66,0,.32-.53.26-.5-.06.75-9.26,5.14-18.1,9.3-26.6a22.44,22.44,0,0,0-6.16,3.56c-.25.2-.56-.19-.31-.4a23,23,0,0,1,6.52-3.72.24.24,0,0,1,.22,0c.47-1,.93-1.92,1.39-2.87a2.06,2.06,0,0,1-.43,0l-5.62,3.21c-.28.16-.48-.3-.2-.46l5.07-2.9c-.92-.27-1.82-.84-2.73-1a10.5,10.5,0,0,0-6.33.66.25.25,0,0,1-.2-.46"/></g></g><g class="cls-4"><g class="cls-24"><path class="cls-10" d="M287.68,155a19.41,19.41,0,0,0-4.55-.9.25.25,0,0,1,.06-.5,24.83,24.83,0,0,1,10,3.16.23.23,0,0,1,.39.21,68.75,68.75,0,0,1,11.78,8.69c.13-.23.53-.06.44.23a.56.56,0,0,0,0,.12l1,.92a36.08,36.08,0,0,1,8.33,10.53.22.22,0,0,1,.11.21h0a24.75,24.75,0,0,1,2.59,10,.26.26,0,0,1-.08.2,20.36,20.36,0,0,1,2.82,13.29.25.25,0,0,1-.5-.06,19.79,19.79,0,0,0-2.4-12.35q.83,6.09,1.64,12.19c0,.32-.46.4-.5.08l-1.65-12.31a.25.25,0,0,1,.35-.25c-.1-.18-.19-.35-.3-.53a.27.27,0,0,1,.11-.38,24.38,24.38,0,0,0-2.14-8.86,69.79,69.79,0,0,0,.27,12.35c0,.32-.46.4-.5.08a70.17,70.17,0,0,1-.22-13.36,30.17,30.17,0,0,0-1.61-2.82l-.93,7a.25.25,0,0,1-.5-.06c.33-2.54.67-5.07,1-7.61a37.34,37.34,0,0,0-5-5.9,83.3,83.3,0,0,0-1,10.57c0,.32-.51.26-.5-.06a83.08,83.08,0,0,1,1.05-10.67.2.2,0,0,1,.15-.17c-.56-.54-1.15-1.05-1.73-1.56a61.27,61.27,0,0,0-2.72,21.06c0,.32-.48.39-.49.07a62,62,0,0,1,2.79-21.49l-2.14-1.8a36.16,36.16,0,0,0-1.16,7.31c0,.32-.51.26-.5-.06a36.75,36.75,0,0,1,1.23-7.6,64.47,64.47,0,0,0-9.24-6.57,44.93,44.93,0,0,0-4.45,18.79c0,.32-.51.26-.5-.06a45.14,45.14,0,0,1,4.5-19c-.66-.36-1.33-.69-2-1a74.59,74.59,0,0,1-3.06,8.14c-.13.29-.59.11-.46-.19a73.55,73.55,0,0,0,3.06-8.17c-.68-.3-1.37-.56-2.07-.8a.2.2,0,0,1-.19.22c-5,.34-7.17,5-7.85,9.36a.25.25,0,0,1-.5-.06c.7-4.44,3-9.16,7.85-9.74"/></g></g><g class="cls-4"><g class="cls-25"><path class="cls-10" d="M295.85,159.51c.07-.31.57-.26.5.06a16.12,16.12,0,0,0,.21,8.33c.09.3-.37.51-.46.2a16.69,16.69,0,0,1-.25-8.59"/></g></g><g class="cls-4"><g class="cls-26"><path class="cls-10" d="M285.2,154.44c.31-.1.51.36.2.46a11.65,11.65,0,0,0-8,10.19.25.25,0,0,1-.5-.05,12.15,12.15,0,0,1,8.26-10.6"/></g></g><path class="cls-10" d="M208.67,211.25a26,26,0,0,1,8.39-.19c-2-4.68-11.25-3.12-14.48-1.06a88,88,0,0,0,7.82-7.62c2.67-3.1,4-5.34,8.35-6.06a16.39,16.39,0,0,1,9.59,1.37c3.75,1.7,5.09,5.49,5.74,9.35l0-2.32c.87.16,2.64-1.74,3.77-2.23a14.14,14.14,0,0,1,4.79-1.17,26.69,26.69,0,0,1,11,1.23c8,3.1,10.74,12.54,8.84,20.21a29.55,29.55,0,0,1-6.84,12.07c-.28-2.93.7-5.74-.07-8.7-.5-1.91-5.41-9.67-7.64-5.44-.65,1.23,1.34,2.51,1.95,3.83a20.76,20.76,0,0,1,1.16,4.46,26.51,26.51,0,0,1,.25,9.69c-.86,4.52-5,5.89-8.6,8,.21-3.29,1.6-6.51.66-9.87-.83-3-3.61-6.9-6.91-4.09,3.4,2.57,3.37,9,2.39,12.86-1.25,4.9-5.92,5.9-10.19,7.52,1.23-3.58,3.78-11.29-1.14-13.08-4.56-1.66-7.29,7.89-6.91,11.39-4,1-5.79,3.76-8.82,6.28-3.54-3.4-8.41-12.48-7.19-17.56,1.35-5.64,7-9.65,10.24-14.18-5-6-11.28,4.7-13.5,8.21.47-5.71-.11-11.27.58-17.07.51-4.34,2.57-4.89,6.76-5.83"/><g class="cls-13"><g class="cls-27"><path class="cls-10" d="M208.67,211.25a26,26,0,0,1,8.39-.19c-2-4.68-11.25-3.12-14.48-1.06a88,88,0,0,0,7.82-7.62c2.67-3.1,4-5.34,8.35-6.06a16.39,16.39,0,0,1,9.59,1.37c3.75,1.7,5.09,5.49,5.74,9.35l0-2.32c.87.16,2.64-1.74,3.77-2.23a14.14,14.14,0,0,1,4.79-1.17,26.69,26.69,0,0,1,11,1.23c8,3.1,10.74,12.54,8.84,20.21a29.55,29.55,0,0,1-6.84,12.07c-.28-2.93.7-5.74-.07-8.7-.5-1.91-5.41-9.67-7.64-5.44-.65,1.23,1.34,2.51,1.95,3.83a20.76,20.76,0,0,1,1.16,4.46,26.51,26.51,0,0,1,.25,9.69c-.86,4.52-5,5.89-8.6,8,.21-3.29,1.6-6.51.66-9.87-.83-3-3.61-6.9-6.91-4.09,3.4,2.57,3.37,9,2.39,12.86-1.25,4.9-5.92,5.9-10.19,7.52,1.23-3.58,3.78-11.29-1.14-13.08-4.56-1.66-7.29,7.89-6.91,11.39-4,1-5.79,3.76-8.82,6.28-3.54-3.4-8.41-12.48-7.19-17.56,1.35-5.64,7-9.65,10.24-14.18-5-6-11.28,4.7-13.5,8.21.47-5.71-.11-11.27.58-17.07.51-4.34,2.57-4.89,6.76-5.83"/></g></g><g class="cls-4"><g class="cls-28"><path class="cls-10" d="M209.85,238.49a53.5,53.5,0,0,1,10.85-10.77c1.62-2.34,3.22-4.69,4.75-7.07l-7.77,2.82c-.31.11-.51-.35-.2-.46l7.07-2.57-11.42-1.74c-.32,0-.26-.55.06-.5l12.6,1.92c.76-1.18,1.49-2.38,2.23-3.59l-8.64-2c-.31-.08-.26-.57.06-.5l8.85,2.06c1.1-1.81,2.17-3.63,3.2-5.48a24.54,24.54,0,0,0-14.76-5.27c-.32,0-.26-.5.06-.5a25.06,25.06,0,0,1,15,5.33l.15-.27a.24.24,0,0,1,.17-.33c.68-1.23,1.35-2.47,2-3.72.15-.29.62-.1.47.19q-1,1.89-2,3.75l.1.06c6.81-1.59,16.73-.41,20.6,5.91.17.28-.22.59-.39.31-3.62-5.91-13-7.19-19.63-5.84a54.36,54.36,0,0,1,9.41,7.63c.23.23-.17.54-.39.31a53.41,53.41,0,0,0-9.7-7.78l-.37.08q-1.56,2.86-3.23,5.65a74.62,74.62,0,0,1,2.78,12.25.25.25,0,0,1-.5.08,73.89,73.89,0,0,0-2.63-11.75c-.75,1.25-1.5,2.51-2.29,3.74a.22.22,0,0,1-.12.19c-.86,1.34-1.73,2.68-2.63,4-.62.91-1.26,1.82-1.92,2.72a.24.24,0,0,1,.13.09.2.2,0,0,1,.17,0,64.46,64.46,0,0,1,9.7,10.18.25.25,0,0,1-.39.31,64.11,64.11,0,0,0-9.5-10,103.45,103.45,0,0,0-1.13,11.26c0,.32-.51.26-.5-.06a103.52,103.52,0,0,1,1.13-11.25l-.09.07c-4.49,6.22-9.1,12.6-7.68,20.75.06.32-.44.39-.49.07-1.26-7.19,2.12-13.14,6.14-18.82l.66-1a53,53,0,0,0-9.53,9.74.25.25,0,0,1-.4-.3"/></g></g><g class="cls-4"><g class="cls-29"><path class="cls-10" d="M229.36,216.05a22.68,22.68,0,0,1,11.54,10.11c.15.28-.31.48-.47.2a22,22,0,0,0-11.26-9.84.25.25,0,0,1,.19-.47"/></g></g><path class="cls-30" d="M256.53,318.4l-1.76,8.84-5,74.55c-.41,2.15-2.66,3.74-5.21,3.74H204.32c-2.6,0-4.9-1.66-5.27-3.85l-5.34-72-1.93-11.29Z"/><g class="cls-31"><g class="cls-32"><path class="cls-30" d="M196.27,364.24c2.93-.86,5.87-1.67,8.78-2.62,3.75-1.23,7.45-2.59,11.07-4.18a88.77,88.77,0,0,0,18.74-11.23,87.49,87.49,0,0,0,14.31-13.49,36.92,36.92,0,0,0,6.91-12.06l.45-2.26H191.78l1.93,11.29Z"/></g></g><path class="cls-30" d="M197.69,330.39h53.36c3.76,0,7.27-2.11,8.34-5l3.1-8.43c.59-1.62-.73-3.12-2.78-3.12H188.6c-2.1,0-3.43,1.58-2.74,3.23l3.59,8.57c1.18,2.81,4.6,4.79,8.24,4.79"/><path d="M124.06,283.92,230.5,270.83c3.35-.41,6.28,2.76,6.34,6.86.06,3.85-2.46,7-5.62,7.07l-13.64.2,9.87,117.4a2.92,2.92,0,0,1-2.91,3.17h-8.78a2.92,2.92,0,0,1-2.92-2.78l-5.38-115.39-45.65,1.26L158.69,402.7a2.92,2.92,0,0,1-2.92,2.83H151a2.87,2.87,0,0,1-2.87-3l4-112.67-27.75.43c-1.64,0-2.91-1.77-2.65-3.74a2.91,2.91,0,0,1,2.32-2.66"/><path class="cls-33" d="M228.16,303.46l-67.25,1-25.47-104c-2.07-8.44-8.12-14.15-14.89-14.05l-80.73,1.23L72.45,320.89l71.86-1.1c.27,7.17,5.17,12.85,11.09,12.76l73.19-1.12c6-.09,10.82-6.12,10.71-13.46l0-1.38c-.11-7.34-5.09-13.22-11.12-13.13"/><path class="cls-33" d="M74.7,299.23,49.93,196.76c-1.32-5.45-5.46-9.18-10.11-9.11-6.36.1-11.09,7.1-10,14.74,6.49,45.14,16.38,87,30.59,124.65,1.71,4.55,5.48,7.43,9.58,7.37l3-.05,10.15-.15,65.31-1c5.71-.08,10.25-5.79,10.14-12.74v-.66c-.1-7-4.82-12.52-10.53-12.44l-63.25,1c-4.66.07-8.8-3.66-10.11-9.11"/><g class="cls-13"><g class="cls-34"><path class="cls-11" d="M74.7,299.23,49.93,196.76c-1.32-5.45-5.46-9.18-10.11-9.11-6.36.1-11.09,7.1-10,14.74,6.49,45.14,16.38,87,30.59,124.65,1.71,4.55,5.48,7.43,9.58,7.37l3-.05,10.15-.15,65.31-1c5.71-.08,10.25-5.79,10.14-12.74v-.66c-.1-7-4.82-12.52-10.53-12.44l-63.25,1c-4.66.07-8.8-3.66-10.11-9.11"/></g></g><path d="M135.63,205.09a4.61,4.61,0,0,1-4.78-.33,9.81,9.81,0,0,1-3.15-3.88c-3.84-7.45-3.45-16.35-2.17-24.64s3.34-16.6,2.52-25-5.3-17-13.19-19.84L84.41,146.69c1.19,10,2.55,17.65-2.94,26.06-3.54,5.43-9.34,9-13.35,14.1a27.6,27.6,0,0,0-1.23,31.54,16.74,16.74,0,0,1,.38-9.66,19.12,19.12,0,0,0,7,16c4.19,3.34,10.06,5.21,12.14,10.14a8.66,8.66,0,0,1-8.22,12c11.35,4.9,25.33.82,33.91-8.08s12.21-21.75,11.9-34.11a8.64,8.64,0,0,0,11.58.38"/><path class="cls-35" d="M182.52,236.57s21.29-8.92,27.25,3.83c.69,1.56-1.57,2-5.59-2.1l-4.34-.73s7.62,4.55,8.36,6.5c.38,1-1,3-9.53-4.22,0,0,4.51,4.09,5.27,6.79a1.15,1.15,0,0,1-2,1.08l-5.61-6.17,3.79,6.8a1.2,1.2,0,0,1-.23,1.51c-.74.61-2.4.32-5.87-6,0,0,0,.06-.07.07-4.06,1.27-7.55,1.79-11.48-.22l-.73-.67Z"/><path class="cls-36" d="M183.12,236l-.89,7.58h0l-7.29.84-19.58,2.27A10.5,10.5,0,0,1,145.25,242a.15.15,0,0,1,0-.08l-1.74-2.77-1.26-2-18.46-29.65-7.21-15.51-3.75-8.06-.31-.66.67,0,5.53-.23a15.76,15.76,0,0,1,9.86,2.85l.14.08a20.58,20.58,0,0,1,6.91,9.13,183.42,183.42,0,0,0,16.86,32.29c.38.58.76,1.15,1.15,1.72.7,1,1.41,2.08,2.13,3.11L183.05,236Z"/><path class="cls-37" d="M131.36,192.29a9.93,9.93,0,0,0-6.79-5.29c.11-1.42,2.07-2.33,1.81-3.72a2.49,2.49,0,0,0-.75-1.18,21.39,21.39,0,0,0-13.26-5.59l0,.79a7.07,7.07,0,0,0,.19,4.37c.57,1.14,2.53,1.55,3.63,2.18,6.9,3.94,11.72,10.61,16.26,17.13a14,14,0,0,0-1.12-8.69"/><g class="cls-38"><g class="cls-39"><path class="cls-36" d="M116.54,192l7.21,15.5,18.46,29.65,1.26,2,1.74,2.79a.18.18,0,0,0,0,.08,10.49,10.49,0,0,0,10.05,4.67l19.59-2.27L150.43,241c-.71-1-1.43-2.06-2.12-3.11-.39-.57-.77-1.14-1.15-1.72a182.8,182.8,0,0,1-16.87-32.29,20.6,20.6,0,0,0-6.9-9.12l-.14-.09a15.73,15.73,0,0,0-6.71-2.68"/></g></g><path class="cls-36" d="M146.29,261c-2.2-7.72-9.15-13.62-10.49-21.54-1-5.81,1.25-11.78.5-17.63a17.54,17.54,0,0,0-3.75-8.74L115.73,259.6a16.41,16.41,0,0,0,13.14,3.64c2.37-.4,4.63-1.31,7-1.8a9.55,9.55,0,0,1,7,.76,9,9,0,0,0,1.62,1,1.55,1.55,0,0,0,1.74-.36,2,2,0,0,0,.08-1.78"/><path class="cls-11" d="M296.59,401.8c-.34,1.1-1.71,1.51-2.86,1.59l-32.45,2.13c-7.43.48-4.17-9.75-4.17-9.75l-11.63-17.91c-19.81-28.22-35.66-53.69-40.7-71.64l-60.14.48-17.27.14c-31.9-3.76-44.85-11.92-34.73-42.08L132,256.85l12.62,6.81,69.1,13.93a23.11,23.11,0,0,1,14.58,11.48l8.52,21.19,26.23,65.26,6.7,16.65s28.38,4.41,26.81,9.63"/><g class="cls-40"><g class="cls-41"><path class="cls-11" d="M236.85,310.26c-6.1-5.84-28.28-24.35-35-23.27-4.94.8-5.3.46-10.08,1.95-5,1.56-9.95,3.38-14.84,5.3-9.66,3.77-19.16,7.93-28.94,11.38-1.1.38-2.2.75-3.31,1.08l-17.27.14c-31.9-3.76-44.85-11.92-34.73-42.08L132,256.85l12.62,6.81,69.1,13.93a23.11,23.11,0,0,1,14.58,11.48Z"/></g></g><path d="M269.58,390.94c-4.87,1.85-7.58,3.32-12.52,5-.37,1.26-2.68,10,4.22,9.59l32.45-2.13c1.14-.08,2.5-.49,2.85-1.59,1.94-6-19.65-9.68-27-10.86"/><path class="cls-11" d="M138.78,300.22l62.49-19.63,58.2,39.81,15.79,10.8s.92,10.71,7.6,7.4L312,324.15c1-.51,2.13-1.42,2-2.57-.54-5.42-28.45,1.42-28.45,1.42l-12.24-11.93L211,250.34a23,23,0,0,0-17.86-5l-57.91,16L123.13,250,92.64,264.77c-13.4,38.8,20.55,44.41,46.14,35.45"/><path d="M314,321.58c-1.31-7.2-26.15-1.42-29.85-.52a32.55,32.55,0,0,0-5.88,6.78c-1,1.39-1.93,2.81-2.92,4.21.39,2.47,2,9.28,7.49,6.55L312,324.15c1-.51,2.22-1.44,2-2.57"/><path class="cls-42" d="M129.17,243.53a26.65,26.65,0,0,0-.25,3.33,57,57,0,0,0,3.1,10,5.38,5.38,0,0,1-4.24,7.37,116.91,116.91,0,0,1-14.77.93c-6.66.07-13.84-.14-22.63.05,1.79-6.95,3.94-14.87,4-15.17a34.23,34.23,0,0,0,.19-8.59c-.93-8-3.82-15.7-5.7-23.61-.41-1.67-.77-3.34-1-5a92.71,92.71,0,0,1-1.47-13.28c0-1.61,0-3.23.13-4.82a2.77,2.77,0,0,0-.41-1.64,5.25,5.25,0,0,1,2.26-7.52c1.54-.69,3.26-1.41,5-2a5.54,5.54,0,0,1,.57-.21h0c1.4-.37,4.55-1.15,4.77-1.19a17.76,17.76,0,0,0,4.81.32c3,0,5.92-.29,8.85-.21.65,0,1.29.05,1.93.11h.07c.62.06,9.42,5.31,13.21,11.41a84.15,84.15,0,0,0,5.12,6.7c1.83,2.43,3.11,4.1,3.11,4.1a14.55,14.55,0,0,1-.87,16.77l-3.18,4.58Z"/><g class="cls-13"><g class="cls-43"><path class="cls-42" d="M105.8,226.47a15.3,15.3,0,0,0,12.87-13.41c.07-.59,1-.36.9.23a16,16,0,0,1-13.75,14.11c-.59.09-.6-.84,0-.93"/></g></g><path class="cls-36" d="M116.3,226.6c-1.64,10.3-1.87,30.07-1.38,41.65a2.08,2.08,0,0,1-2.2,2.15c-10.65-.46-16.5,10.22-22.55,5.62a4.64,4.64,0,0,1-1.65-4.77c1.87-7.63,4.7-20.4,4.73-20.66a33.85,33.85,0,0,0,.2-8.6,212.77,212.77,0,0,0-4.59-24.16c-.41-1.67-.77-3.34-1-5-.72-4.26-4.35-21.75-4.45-26.25l9.91-3s9.61,11.22,16.94,20.31a28.89,28.89,0,0,1,6.08,22.77"/><g class="cls-38"><g class="cls-44"><path class="cls-36" d="M93.7,277.16c.86-4.53,1.76-9.06,2.56-13.6,2.24-12.68,3.76-25.7,1.07-38.43a45.79,45.79,0,0,0-2.52-8.44,15.9,15.9,0,0,0-4.6-5.9c-1-.86-2.12-1.64-3.21-2.41.36,1.93.66,3.49.82,4.42.27,1.69.63,3.36,1,5A212.77,212.77,0,0,1,93.45,242a33.85,33.85,0,0,1-.2,8.6c0,.26-2.86,13-4.73,20.66A4.64,4.64,0,0,0,90.17,276a5.2,5.2,0,0,0,3.53,1.14"/></g></g><path class="cls-35" d="M93.25,183.48l0,0c4.52,5.4,8.33,10.63,14.42,14a10.85,10.85,0,0,0,5.3,1.57,6.27,6.27,0,0,0,5-2.2c4.1-5.15-3.2-14.51-3.2-14.51l-.46-.07h-.1a1.71,1.71,0,0,1-1.46-1.75l.33-7.28.42-9.9h-7.84l-5.83,0h-.54l-.15,2.78-.43,9.11,0,5.53a1.7,1.7,0,0,1-1.28,1.63c-1.1.27-2.63.65-3.5.88h0l-.6.18"/><g class="cls-13"><g class="cls-45"><path class="cls-35" d="M112.85,178.31v1.19c-11.7-.46-12.92-12.68-13-16.13,0-.58,0-.91,0-.91l5.83.93,6.61,1,.81,8.88Z"/></g></g><path class="cls-35" d="M124.22,154.53c-.31-2.31-.61-4.61-.74-6.94-.2-3.34-2.17-6.69-4.13-9.5a18.13,18.13,0,0,0-4.54-4.62,18.72,18.72,0,0,0-17.07-1.68c-7.4,3.11-8.15,10.6-6.13,17.32-4.75-2.35-5,3.72-5,3.72-.21,6.08,5.73,6,5.73,6a22.12,22.12,0,0,0,5.69,9.33,29.53,29.53,0,0,0,9.68,6.24A12,12,0,0,0,122,169.51a19.13,19.13,0,0,0,2.47-12.86c-.09-.71-.19-1.41-.28-2.12"/><path d="M105.91,155.64c.2,1,.94,1.8,1.65,1.71s1.11-1,.91-2-.94-1.81-1.64-1.72-1.12,1-.92,2"/><path d="M117.1,155c.2,1,.94,1.81,1.65,1.72s1.11-1,.91-2-.94-1.81-1.64-1.72-1.12,1-.92,2"/><g class="cls-13"><g class="cls-46"><path class="cls-35" d="M117.37,160.46a6.4,6.4,0,0,0-.92-1.22,9.59,9.59,0,0,1-1-1.43,9.78,9.78,0,0,1-1.07-3.22.59.59,0,0,0-.69-.44.55.55,0,0,0-.4.68,10.7,10.7,0,0,0,2.31,5.17c.47.58,1.15,1.19.56,1.89s-1.68.58-2.52.52-.74,1.08,0,1.13a4.22,4.22,0,0,0,3.12-.62,2,2,0,0,0,.57-2.46"/></g></g><path class="cls-42" d="M102.28,157.35c-1.58-.08-3.15-.23-4.71-.46a.54.54,0,0,0-.64.36.51.51,0,0,0,.36.63c1.66.25,3.32.42,5,.51.67,0,.66-1,0-1"/><path class="cls-42" d="M118.83,157.57c-.29-1.36-2.14-1.25-3.2-1.17a11.16,11.16,0,0,0-3.84,1,.53.53,0,0,0-.18.71.54.54,0,0,0,.71.18,9.6,9.6,0,0,1,4.55-.89c.34,0,.88,0,1,.42.14.65,1.14.38,1-.27"/><g class="cls-47"><g class="cls-48"><path class="cls-6" d="M112,158.14c0,1.72-2.31,3.11-5.17,3.11s-5.16-1.39-5.16-3.11S104,155,106.87,155s5.17,1.39,5.17,3.11"/></g></g><g class="cls-47"><g class="cls-49"><path class="cls-6" d="M126,157.56c0,1.66-1.89,3-4.21,3s-4.22-1.34-4.22-3,1.89-3,4.22-3,4.21,1.35,4.21,3"/></g></g><path d="M117.1,147.49a1.26,1.26,0,0,1,.73-.12,3.61,3.61,0,0,1,3.11,3.19,2,2,0,0,0-.41-.62l0,0a1.47,1.47,0,0,0-.32-.29,3.5,3.5,0,0,0-1.53-.46,5.12,5.12,0,0,1-1.57-.34.65.65,0,0,1-.45-.62.94.94,0,0,1,.48-.72"/><path d="M107.38,147.59a1.36,1.36,0,0,0-.73-.21,3.18,3.18,0,0,0-3.2,2.79,1.79,1.79,0,0,1,.43-.57l0,0a1.59,1.59,0,0,1,.33-.25,3.28,3.28,0,0,1,1.54-.26,4.86,4.86,0,0,0,1.58-.15.58.58,0,0,0,.47-.56,1.06,1.06,0,0,0-.46-.77"/><g class="cls-13"><g class="cls-50"><path class="cls-35" d="M106.45,163.68a8,8,0,0,0,7,2.27.58.58,0,0,1,.23,1.13,9.22,9.22,0,0,1-8.12-2.69c-.53-.54.33-1.24.85-.71"/></g></g><polygon class="cls-10" points="179.82 248.39 120.15 264.48 121.02 267.49 181 250.83 179.82 248.39"/><polygon class="cls-6" points="177.84 244.32 121.06 260.34 120.15 264.48 179.82 248.39 177.84 244.32"/><path d="M177.84,244.32l3.16,6.51,2.1-.68a.52.52,0,0,0,.32-.7L180.66,243a2,2,0,0,0-2.43-1.08l-1,.34a2,2,0,0,0-1.17,2.56Z"/><path class="cls-10" d="M143.49,253.44l-.07,2.82-2.35-1.56-12-22.91a1.36,1.36,0,0,1,2.42-1.26Z"/><path class="cls-36" d="M117.49,246.83l-27.55-4.1-.08,0-3.64-.34.21-1.12L90,219.82a96.81,96.81,0,0,0,2.61-15.31c0-.31,0-.63.07-.95l1-6.43c.9-5.43-.41-13.61-.41-13.61-2.56-.24-13,3.14-14.85,4.62a9.41,9.41,0,0,0-3.37,5.55,3.45,3.45,0,0,0-.1.56l-2.5,17.95L68.17,243a13.33,13.33,0,0,0,.08,4.42A13.49,13.49,0,0,0,83,258.26s40.63-3.3,40.68-3.29Z"/><g class="cls-13"><g class="cls-51"><path class="cls-36" d="M114.21,246a118.83,118.83,0,0,0-20-2.6c-.45,0-.45.68,0,.7A118.51,118.51,0,0,1,114,246.64c.44.1.63-.58.19-.68"/></g></g><g class="cls-13"><g class="cls-52"><path class="cls-36" d="M114,255.58a212.66,212.66,0,0,0-22,1.81c-.44.06-.25.74.19.68A211.53,211.53,0,0,1,114,256.28c.45,0,.46-.72,0-.7"/></g></g><path class="cls-35" d="M146.77,253.46l-3.89-7.69a1.25,1.25,0,0,0-.63-.59l-6.74-2.85a4.74,4.74,0,0,0-3.8.06l-9.83,4.48-6.84-.46v9.32l8.67-.76a12.65,12.65,0,0,0,1.74-.3l4.93-1.28,1.92,1.37c3,1.73,3.66-1.21,3.66-1.21a2.57,2.57,0,0,0,3.36-1.78,2.24,2.24,0,0,0,2.06-2.26c1.75,2.69,3.4,4.86,4.64,5.06a.75.75,0,0,0,.74-1.11"/><g class="cls-53"><g class="cls-54"><path class="cls-35" d="M139.55,251.72c-.61-2.73-3.46-3.83-5.81-4.64-.26-.09-.35.33-.1.41,2.21.76,4.93,1.79,5.51,4.35.06.27.46.15.4-.12"/></g></g><g class="cls-53"><g class="cls-55"><path class="cls-35" d="M136.2,253.61a5.52,5.52,0,0,0-4.13-3.3c-.27-.05-.37.37-.1.41a5.13,5.13,0,0,1,3.83,3c.1.25.51.13.4-.13"/></g></g><g class="cls-53"><g class="cls-56"><path class="cls-35" d="M141.56,249.57a3.07,3.07,0,0,0-1.74-2.47c-1.13-.7-2.34-1.3-3.51-1.95a.21.21,0,0,0-.2.37l3.19,1.76c.87.5,1.84,1.2,1.84,2.31,0,.27.42.26.42,0"/></g></g><g class="cls-13"><g class="cls-57"><path class="cls-36" d="M92.38,200.9A162.39,162.39,0,0,1,89.27,221c-.1.44.58.63.68.19a165.47,165.47,0,0,0,3.14-20.29c0-.45-.66-.45-.71,0"/></g></g><path d="M129.9,142.14a1.85,1.85,0,0,1-2.13.24,4.7,4.7,0,0,1-1.64-1.59c-2.1-2.91-3.59-6.24-5.87-9A20.22,20.22,0,0,0,84.88,149c.46,2.07,1.24,4.05,1.64,6.13a8.94,8.94,0,0,1-.67,6.18l2.06-.62c1.34,4.17,6.7,8.81,11,8.34-2.18-1.33-3.88-5.89-3.7-8.43s1.13-4.89,1.78-7.32a21.1,21.1,0,0,0,5.31-11.18,7.76,7.76,0,0,1-1,7.09,21.92,21.92,0,0,0,13-9.3,15.51,15.51,0,0,1-3.47,7.39,12.65,12.65,0,0,0,8.24-4.93c-.58,6.35,5.93,11.75,5.31,18.11a14.37,14.37,0,0,0,1-16.66,4.08,4.08,0,0,0,4.46-1.63"/><path d="M49.34,285.06,155.78,272c3.35-.42,6.28,2.76,6.34,6.86.06,3.85-2.46,7-5.62,7.06l-13.64.21,3.21,116.43a2.92,2.92,0,0,1-2.92,3h-3.86a2.92,2.92,0,0,1-2.92-2.82L132.74,288.5l-45.65,1.26L59.28,403.33a2.93,2.93,0,0,1-2.84,2.2H52.33a2.92,2.92,0,0,1-2.83-3.66L77.42,291l-27.75.42c-1.64,0-2.91-1.76-2.65-3.73a2.9,2.9,0,0,1,2.32-2.66"/><path d="M475.19,290.38,368.75,277.29c-3.34-.41-6.28,2.76-6.34,6.86-.06,3.85,2.46,7,5.63,7.07l13.64.2-9.87,112.74a2.92,2.92,0,0,0,2.91,3.17h8.77a2.92,2.92,0,0,0,2.92-2.78l5.38-110.73,45.65,1.26,3.13,109.41a2.92,2.92,0,0,0,2.92,2.84h4.73a2.87,2.87,0,0,0,2.87-3l-4-108,27.76.43c1.64,0,2.9-1.77,2.64-3.74a2.9,2.9,0,0,0-2.32-2.66"/><path class="cls-11" d="M371.09,309.92l67.25,1,25.48-104c2.06-8.44,8.12-14.15,14.89-14.05l80.72,1.23L526.81,327.35,455,326.25c-.28,7.17-5.17,12.85-11.1,12.76l-73.18-1.12c-6-.09-10.83-6.12-10.72-13.46l0-1.38c.12-7.34,5.09-13.22,11.12-13.13"/><path class="cls-11" d="M524.56,305.69l24.77-102.47c1.31-5.45,5.45-9.18,10.1-9.11,6.36.1,11.09,7.1,10,14.74-6.49,45.14-16.37,87-30.58,124.65-1.72,4.55-5.49,7.43-9.59,7.37l-3-.05-10.15-.15-65.3-1c-5.71-.08-10.25-5.79-10.15-12.74v-.66c.11-7,4.82-12.52,10.53-12.44l63.26,1c4.65.07,8.79-3.66,10.11-9.11"/><g class="cls-13"><g class="cls-58"><path class="cls-11" d="M524.56,305.69l24.77-102.47c1.31-5.45,5.45-9.18,10.1-9.11,6.36.1,11.09,7.1,10,14.74-6.49,45.14-16.37,87-30.58,124.65-1.72,4.55-5.49,7.43-9.59,7.37l-3-.05-10.15-.15-65.3-1c-5.71-.08-10.25-5.79-10.15-12.74v-.66c.11-7,4.82-12.52,10.53-12.44l63.26,1c4.65.07,8.79-3.66,10.11-9.11"/></g></g><path class="cls-35" d="M370,281.1l-1.51-1.17L362.74,289s-5.39,1.64,4.2-10.69l-1.72-1.51-10.14,7.91s-5.49-.69,8.36-9.86l-1.38-1.73-10.8,6.67s-6-1.28,10.42-10.5l4.58-5.44L364.11,261s-8.3,1.64-8.55-2.74a19.47,19.47,0,0,0,9.84-1,11.33,11.33,0,0,1,6.74-.33l4.8,1.3,49.6-22L447,198.8a10.94,10.94,0,1,1,17,13.7l-18.66,29.37a45,45,0,0,1-14.22,11.34l-48.58,11.17s-.18,6.34-8.1,12.55l-4.78,10.61s-4.17,2.77.3-6.44"/><path class="cls-33" d="M458.3,194.59h0A10.94,10.94,0,0,0,447,198.8l-20.45,37.43-38.89,17.26a83.31,83.31,0,0,1,3.17,9l40.32-9.27a45,45,0,0,0,14.22-11.34L464,212.5a10.94,10.94,0,0,0-5.73-17.91"/><g class="cls-13"><g class="cls-59"><path class="cls-33" d="M462.58,196.63c-3.27,6.55-8.45,12-12.8,17.8s-7.75,12.51-11,19.16q-1.23,2.49-2.48,5c-.78,1.56-1.43,3.17-2.24,4.71a19.59,19.59,0,0,1-2.86,4.18,13.51,13.51,0,0,1-3.76,2.68,79.15,79.15,0,0,1-9.25,3.49,80.65,80.65,0,0,1-11.15,3c-5.65,1.17-11.36,2.09-16.94,3.53.25.79.5,1.57.73,2.36l40.32-9.27a45,45,0,0,0,14.22-11.34L464,212.5a10.94,10.94,0,0,0-1.44-15.87"/></g></g><path class="cls-6" d="M384.2,254.79l6.06-5.29a1.13,1.13,0,0,1,1.78.4c1.13,2.64,3.41,8.43,3.75,12.72a1.13,1.13,0,0,1-1.13,1.23H386.9a1.14,1.14,0,0,1-1.09-.83l-2-7.07a1.13,1.13,0,0,1,.35-1.16"/><path class="cls-35" d="M478.55,297s5.61,20.17-19.5,20.17l-56.73,1.55-27.57,58.59V391c2.14,5.16,5.57,10.65,3.1,16.67h-52.7s-4-5.58,0-6.82c16.77-2.77,27.84-10.08,33.48-21.7,0,0,17.15-51.45,18.55-72.16a7.4,7.4,0,0,1,5.51-6.62l41-10.81c19.6-12.28,37.8-8.87,54.84,7.42"/><g class="cls-13"><g class="cls-60"><path class="cls-11" d="M374.75,388.94c-7.42-.1-17.72-6.47-16.12-9.76,0,0,17.15-51.45,18.55-72.16a7.41,7.41,0,0,1,5.51-6.62s50.73-16,55.46-17.12c14.19-3.46,27.62,1.51,40.4,13.73,0,0,5.61,20.17-19.5,20.17l-56.73,1.55Z"/></g></g><path d="M325.15,400.88c10.94-1.81,19.44-5.56,25.61-11.17q12,.94,24,1.09V391c2.14,5.16,5.57,10.65,3.1,16.67h-52.7s-4-5.58,0-6.82"/><path class="cls-35" d="M467.38,174.62,470,187.09c-4.28,6.52-12.92,6.38-15.48,6.18-.46,0-.73-.07-.73-.07-.07-.35-.14-.69-.22-1-1.52-7.11-3.67-13.68-3.67-13.68l-1.43.19-5.63.73c-4.29-.07-4.79-4.32-4.84-5.55,0-.35,0-.69-.07-1l-1.59-5.34-1.26-1c-2-2.05-1.28-3.08-1.28-3.08l4.81-5.84c-1.29-13.14,6.28-16.75,6.28-16.75,26.33-13.14,32.7,10.44,32.7,10.44,4.34,18.08-10.22,23.41-10.22,23.41"/><path class="cls-35" d="M453.42,191.39l1,7.91a48.5,48.5,0,0,0,11-13.34,63.78,63.78,0,0,0-12,5.43"/><g class="cls-61"><g class="cls-62"><path class="cls-35" d="M453.58,192.16c-1.52-7.11-3.67-13.68-3.67-13.68l-1.43.19,1.76-.31a5.72,5.72,0,0,1,6.7,6.07,11.36,11.36,0,0,1-3.36,7.73"/></g></g><g class="cls-63"><g class="cls-64"><path class="cls-35" d="M439.13,168.83a5.67,5.67,0,0,0,4.93-2,.46.46,0,0,1,.61-.12.43.43,0,0,1,.12.61,6.55,6.55,0,0,1-5.72,2.39c-.56-.06-.51-.94.06-.88"/></g></g><g class="cls-40"><g class="cls-65"><path class="cls-35" d="M454.79,170.37h.1c3-.51,5.13-1.64,6.32-3.34a5.34,5.34,0,0,0,1-3.81.43.43,0,0,0-.51-.35.45.45,0,0,0-.36.51,4.49,4.49,0,0,1-.82,3.16c-1.05,1.5-3,2.49-5.73,3a.44.44,0,0,0-.36.51.44.44,0,0,0,.41.36"/><path class="cls-35" d="M453.63,168.54h0a.44.44,0,0,0,.44-.45c0-2.21,2.62-2.51,2.73-2.52a.45.45,0,0,0,.4-.49.45.45,0,0,0-.49-.39c-1.23.13-3.56,1-3.52,3.42a.44.44,0,0,0,.41.43"/></g></g><path d="M445.49,155.5h0a.33.33,0,0,0,0,.14,5.06,5.06,0,0,1-4.82-1.79,1.57,1.57,0,0,1-.39-.77.74.74,0,0,1,.34-.76.9.9,0,0,1,.89.18,8.31,8.31,0,0,1,1.38,1.4,5.64,5.64,0,0,0,1.45,1.31,2.37,2.37,0,0,0,1.11.28"/><path d="M442.35,158.72c-.13,1-.77,1.72-1.43,1.68s-1.08-.86-.95-1.83.78-1.72,1.44-1.68,1.08.86.94,1.83"/><path d="M470,181.12a2.3,2.3,0,0,0,.37,0"/><path d="M466.78,134a2.12,2.12,0,0,1,.34-.27"/><path class="cls-33" d="M446,240l-1.86,49.61c34.09-12.72,54.95,12.09,54.95,12.09l-1.32-52.83a132.52,132.52,0,0,0,.71-31.3,48.89,48.89,0,0,0-16.86-31.88l-3.42-2.93-.48-.41-.72-.63-.06,0c-3.57,1.51-7.55,2.81-11.5,4.23a48.5,48.5,0,0,1-11,13.34l-1-7.91a24.3,24.3,0,0,0-6.82,6l0,0a12.08,12.08,0,0,0-2.26,7.77Z"/><g class="cls-13"><g class="cls-66"><path class="cls-33" d="M498.48,217.56a48.87,48.87,0,0,0-2.5-11,19.94,19.94,0,0,0-2.9-1.8,14.51,14.51,0,0,0-3.6-1.26l.34.81a2.06,2.06,0,0,0,.12.26.7.7,0,0,1,.06.45.58.58,0,0,1-.27.34.59.59,0,0,1-.45.06.56.56,0,0,1-.34-.26c-.18-.35-.31-.72-.46-1.08,0-.09-.07-.18-.12-.27a.67.67,0,0,1-.06-.44l0,0a8.41,8.41,0,0,0-3.62.41c-2.79,1-4.56,3.75-5.23,6.52a31,31,0,0,0-.17,10.79c1,8.49,3.05,16.8,4.57,25.2.83,4.59,1.35,9.2,1.78,13.85s.77,9.21,1,13.83a167.69,167.69,0,0,1-.2,17.94,47.27,47.27,0,0,1,12.68,9.78l-1.32-52.83a132.52,132.52,0,0,0,.71-31.3"/></g></g><path class="cls-35" d="M499,297s5.61,20.17-19.5,20.17l-56.73,1.55-5.58,58.59V391c2.15,5.16,5.58,10.65,3.1,16.67h-52.7s-4-5.58,0-6.82c16.78-2.77,27.84-10.08,33.48-21.7,0,0-4.84-51.45-3.43-72.16a7.39,7.39,0,0,1,5.51-6.62l41-10.81c19.61-12.28,37.8-8.87,54.84,7.42"/><path class="cls-11" d="M417.16,377.32v11.62c-7.42-.1-17.71-6.47-16.12-9.76,0,0-4.84-51.45-3.43-72.16a7.4,7.4,0,0,1,5.51-6.62l41-10.81c19.61-12.28,37.8-8.87,54.84,7.42,0,0,5.61,20.17-19.5,20.17l-56.73,1.55Z"/><path d="M367.56,400.88c10.95-1.81,19.45-5.56,25.61-11.17q12,.94,24,1.09V391c2.14,5.16,5.58,10.65,3.1,16.67h-52.7s-4-5.58,0-6.82"/><path class="cls-6" d="M452.82,200.7l.87.36,5.15,4.81c9.92-.93,19.36-23.12,19.36-23.12l-.48-.41c-.26-.22-.52-.41-.78-.61a11.67,11.67,0,0,0-8.07-2.45c-1.19,2.55-2.31,4.73-3.43,6.68a48.5,48.5,0,0,1-11,13.34c-.52.46-1.06.92-1.62,1.4"/><path class="cls-6" d="M449.82,188.92a6.41,6.41,0,0,0-3.23,8.51l2.94,6.44,4.16-2.81.9-.61-.15-1.15-1-7.91-1-4.07a9.41,9.41,0,0,1-2.62,1.6"/><path d="M436.54,142.85a1.53,1.53,0,0,1,.1-2.9,5,5,0,0,0,1.11-.5.94.94,0,0,0,.12-.09h0a1.53,1.53,0,0,1-.2-2.65A16.81,16.81,0,0,1,444,134a7.33,7.33,0,0,1-2.36-.42,5.19,5.19,0,0,0,4-1.15,30.59,30.59,0,0,1,3.45-2.47c2.49-1.24,5.44-.83,8.18-.39a10.19,10.19,0,0,1-3.28-2.26,10.29,10.29,0,0,0,5.06,1.48,16.05,16.05,0,0,1,5.22,1,4.64,4.64,0,0,1,2.92,3.94,5.88,5.88,0,0,1,5.87-.13,19.68,19.68,0,0,1,5.11,4.27,12.42,12.42,0,0,0,5.49,3.7,5.71,5.71,0,0,1-3.19-.36,8.37,8.37,0,0,1,3.67,4.64,13.51,13.51,0,0,1,.07,5.87,27.07,27.07,0,0,0-.59,5.87,6.81,6.81,0,0,0,2.49,5.16,11.93,11.93,0,0,1-4.54-3.41c-.22,1-.5,2-.82,2.92-.09.73-.16,1.46-.18,2.2a14.74,14.74,0,0,0,1.55,7.61q-1.67-1.54-3.31-3.11a3.78,3.78,0,0,1,0,3.09c-.38,1-1,1.88-1.34,2.87a7.35,7.35,0,0,0,.66,6.45,6.08,6.08,0,0,1-3.24-4,4.45,4.45,0,0,1-4.44,3.8,10.8,10.8,0,0,1-.92,2.61,16.25,16.25,0,0,1-1.9-11,8.67,8.67,0,0,0-2.23,4.38,14.58,14.58,0,0,1-.87-9.63,5.08,5.08,0,0,1-5.92,2.14,9,9,0,0,0,3.39-3,4.32,4.32,0,0,0,.15-4.39c-1.19-1.9-4.09-2.08-6-.95s-3.15,3.2-4.18,5.2A9.65,9.65,0,0,1,450,159a2.87,2.87,0,0,1-2.4,2.23,4.93,4.93,0,0,0,.49-5.16,21.78,21.78,0,0,0-3.11-4.5,8.93,8.93,0,0,1-2.23-4.9,4.78,4.78,0,0,0-1,3.9,3,3,0,0,1-2.44-2.08,15.29,15.29,0,0,0-1,9.27,14.12,14.12,0,0,1-.86-14.63,5.46,5.46,0,0,1-.92-.28"/><path d="M549.92,291.52,443.48,278.43c-3.35-.42-6.28,2.76-6.35,6.86-.06,3.85,2.46,7,5.63,7.06l13.64.21-3.22,111.77a2.93,2.93,0,0,0,2.92,3H460a2.93,2.93,0,0,0,2.92-2.82L466.51,295l45.66,1.26L540,405.13a2.92,2.92,0,0,0,2.83,2.2h4.12a2.92,2.92,0,0,0,2.82-3.66L521.84,297.49l27.75.42c1.64,0,2.91-1.76,2.64-3.73a2.91,2.91,0,0,0-2.31-2.66"/><path class="cls-35" d="M510.39,280.75c-18.83,5.3-55.08,1.61-55.08,1.61-1.7,2.74-11,1.26-11,1.26l0,.08a4.47,4.47,0,0,1-1.43,2.45,3.4,3.4,0,0,1-3.57.05,8,8,0,0,1-1.07-.63l-.06,0-.06,0a3.43,3.43,0,0,1-.54.06,4.66,4.66,0,0,1-3.09-.78,2.79,2.79,0,0,1-.31-.24,4.29,4.29,0,0,1-.87-.95v0h-.35a2.85,2.85,0,0,1-2.49-1.8,6.15,6.15,0,0,1-.54-1.8h0c-.36-.22.12,0,.19,0S430,280,430,280l-.29-.23a9,9,0,0,1-1.8-1.92,3.25,3.25,0,0,1-.5-1.3,3.68,3.68,0,0,1,1.74-3.84,3.78,3.78,0,0,1,.64-.3c8.33-3.13,24.5.88,24.5.88l44.85-8.95s-22.05-44.21-23-46.77c-4.45-12.17-5.87-27.36,10.07-23.85,5.07,1.12,9.46,6.65,13.18,14.22.57,1.14,19.6,49.17,20.94,56.91a14.07,14.07,0,0,1-9.91,15.95"/><path class="cls-33" d="M520.3,264.8c-1.34-7.74-20.37-55.77-20.94-56.91-3.72-7.57-8.11-13.1-13.18-14.22-15.94-3.51-14.52,11.68-10.07,23.85.94,2.56,23,46.77,23,46.77l-40.26,8c1,3.55,2.17,7.06,3.28,10.59,11.41.78,34.49,1.72,48.27-2.16a14.07,14.07,0,0,0,9.91-15.95"/><path class="cls-6" d="M458.39,270.39l7.5-3c.58-.67,1.49-.4,1.79.53a56.23,56.23,0,0,1,3.14,14.13c.06.87-.47,1.61-1.13,1.61h-7.76a1.23,1.23,0,0,1-1.09-1.09L458,271.91a1.82,1.82,0,0,1,.35-1.52"/><g class="cls-67"><g class="cls-68"><g class="cls-13"><g class="cls-69"><path class="cls-35" d="M435.19,279.88a3.11,3.11,0,0,0-1.05,4.71,4.29,4.29,0,0,1-.87-.95v0h-.35a3.31,3.31,0,0,1-.12-1.4,3.91,3.91,0,0,1,2-2.93c.39-.21.74.39.35.59"/></g></g><g class="cls-13"><g class="cls-70"><path class="cls-35" d="M439.34,282.34a3.93,3.93,0,0,0-1.14,3.23l-.06,0-.06,0a3.43,3.43,0,0,1-.54.06,4.36,4.36,0,0,1,1.32-3.75c.32-.31.81.17.48.48"/></g></g><g class="cls-13"><g class="cls-71"><path class="cls-35" d="M432,276.05a7,7,0,0,0-1.53,5.77,6.15,6.15,0,0,1-.54-1.8h0c-.36-.22.12,0,.19,0S430,280,430,280l-.29-.23a7.87,7.87,0,0,1,1.79-4.17c.29-.33.78.15.49.5"/></g></g></g></g><path class="cls-6" d="M417.47,77.91a28.62,28.62,0,0,0-5.73-13.61c-.44-1-.88-2-1.33-2.92-.27-.59-.54-1.17-.8-1.76l-.77-1.71c-2.52-5.65-5.14-11.5-10-15.4s-10.55-4.88-14.56-5A52.22,52.22,0,0,0,369,39.56c-3.85,1-7.44,2.14-10.8,3.35a13.12,13.12,0,0,0-2.07.16c-3.65.55-6.89,2.55-9.58,4.44-.77.54-1.56,1.11-2.34,1.74-1,.58-2,1.18-3,1.79a18.31,18.31,0,0,0-7.79,11.79,21.64,21.64,0,0,0,3.34,16.48,40.67,40.67,0,0,0-.4,23.31l-.37.13c0,.27,0,.53,0,.79l.57-.2a38.27,38.27,0,0,0,1.66,4.48,30.31,30.31,0,0,0,2.58,4.74c-19.37,6.35-135.75,5.69-166.22-17.7-24.71-19-34.91-36.13-31.2-52.47a35.77,35.77,0,0,1,42.79-26.93,34,34,0,0,1,25.62,40.72A32.37,32.37,0,0,1,173,80.57,30.81,30.81,0,0,1,149.83,43.7a29.34,29.34,0,0,1,35.08-22.09,27.93,27.93,0,0,1,21,33.39,26.55,26.55,0,0,1-31.77,20,25.25,25.25,0,0,1-19-30.22,24,24,0,0,1,28.75-18.1A22.89,22.89,0,0,1,201.11,54a21.74,21.74,0,0,1-26,16.38,20.69,20.69,0,0,1-15.58-24.75,19.68,19.68,0,0,1,23.54-14.82,18.72,18.72,0,0,1,14.09,22.39,17.79,17.79,0,0,1-21.29,13.4,16.91,16.91,0,0,1-12.74-20.24,16.07,16.07,0,0,1,19.25-12.12,15.29,15.29,0,0,1,11.52,18.3,14.55,14.55,0,0,1-17.4,11A13.83,13.83,0,0,1,166.07,47a13.13,13.13,0,0,1,15.72-9.89A12.49,12.49,0,0,1,191.2,52,11.87,11.87,0,0,1,177,61a11.28,11.28,0,0,1-8.5-13.49,10.72,10.72,0,0,1,12.82-8.08A10.19,10.19,0,0,1,189,51.58a9.67,9.67,0,0,1-11.57,7.28,9.19,9.19,0,0,1-6.92-11,8.72,8.72,0,0,1,10.44-6.57.53.53,0,0,0,.64-.4.54.54,0,0,0-.4-.64,9.79,9.79,0,0,0-11.72,7.37,10.27,10.27,0,0,0,7.72,12.27A10.74,10.74,0,0,0,190,51.81a11.26,11.26,0,0,0-8.47-13.46,11.8,11.8,0,0,0-14.1,8.88A12.35,12.35,0,0,0,176.76,62a12.94,12.94,0,0,0,15.48-9.74A13.57,13.57,0,0,0,182,36a14.21,14.21,0,0,0-17,10.71,14.9,14.9,0,0,0,11.22,17.82A15.62,15.62,0,0,0,194.92,52.8,16.35,16.35,0,0,0,182.6,33.22a17.16,17.16,0,0,0-20.53,12.92,18,18,0,0,0,13.55,21.53,18.89,18.89,0,0,0,22.57-14.21,19.81,19.81,0,0,0-14.9-23.67,20.74,20.74,0,0,0-24.82,15.62,21.75,21.75,0,0,0,16.38,26,22.81,22.81,0,0,0,27.3-17.18,24,24,0,0,0-18-28.63,25.09,25.09,0,0,0-30,18.9A26.31,26.31,0,0,0,173.93,76a27.61,27.61,0,0,0,33-20.8,29,29,0,0,0-21.82-34.66,30.42,30.42,0,0,0-36.36,22.89,31.86,31.86,0,0,0,24,38.15,33.46,33.46,0,0,0,40-25.19,35.08,35.08,0,0,0-26.44-42,36.81,36.81,0,0,0-44.06,27.74c-3.82,16.78,6.52,34.3,31.59,53.55C204.8,119.41,323.2,120,341.28,113.53v-.24a21,21,0,0,0,3.76,4c3.87,3.15,9.33,4.87,15.79,5,8.51.14,17.44-2.32,25.94-7.14.7-.4,1.4-.81,2.09-1.24,7.39-4.57,14.38-10.79,22-19.58,2.88-3.32,6-7.25,6.65-11.94a17.43,17.43,0,0,0,0-4.5M369.16,40.29a51,51,0,0,1,15.12-2.08c3.9.16,9.51,1.14,14.12,4.88s7.27,9.55,9.76,15.13l.77,1.71c.26.59.53,1.17.8,1.76.06.14.13.27.19.41a37.31,37.31,0,0,0-9.22-7.4,22.17,22.17,0,0,0-7.9-3,16.42,16.42,0,0,0-2.88-.16c-6.33-4.48-12.41-6.49-18.07-6-.55,0-1.1.12-1.67.22-1.22-.47-2.46-.91-3.71-1.32A31.31,31.31,0,0,0,360.16,43q4.24-1.45,9-2.71m37.36,39.79c.18,9.69-5.4,19.43-14.2,24.8-8.18,5-19,6.21-28.95,3.27a27.83,27.83,0,0,1-5.76-2.35c-.51-.28-1-.58-1.49-.9a17.29,17.29,0,0,0,15.44.09,14.45,14.45,0,0,0,2-1.25,38.07,38.07,0,0,0,18-7.39c8-5.86,12.25-13.65,11.25-20.83-.6-4.32-3-8-5.46-10.91a72.24,72.24,0,0,1,7.58,6.77,28.07,28.07,0,0,1,1.61,8.7m-.43-7.46c.74.79,1.46,1.59,2.17,2.42,1.5,1.75,3.15,3.81,3.7,6.24.83,3.71-1.08,7.45-2.83,9.93a42.28,42.28,0,0,1-11.42,10.5,29.49,29.49,0,0,0,9.56-21.65,28.09,28.09,0,0,0-1.18-7.44M351.85,95.73c-.26-.28-.51-.56-.76-.85a20.68,20.68,0,0,0,2-2.88,20.81,20.81,0,0,1,4.74-2.56l.26-.11c2.6-1.13,5.4-2.42,8.19-4a28.43,28.43,0,0,0,6.89,2.06,30.16,30.16,0,0,0,6.54.46l0,.25a16.34,16.34,0,0,1-3,11.39A16.89,16.89,0,0,1,366.8,103a24.63,24.63,0,0,1-14.95-7.26m5.58,5.13a27.56,27.56,0,0,1-7-4.91,4.05,4.05,0,0,1,.12-.5h0c.23.27.47.54.71.8a23,23,0,0,0,6.13,4.62m9.43-23.14a38.87,38.87,0,0,0,3.8,4.11c-1.24.85-2.52,1.63-3.8,2.36a16.34,16.34,0,0,1-4.7-3.08A12.49,12.49,0,0,1,361,79.83a12.41,12.41,0,0,1,5.88-2.11m-6.33,1.51a7.48,7.48,0,0,1-.76-1.45,35,35,0,0,1,4.89-.43,12.42,12.42,0,0,0-4.13,1.88m13.9-.3a16,16,0,0,0-1.54-.8,16.48,16.48,0,0,1,1.76.58,2.28,2.28,0,0,1-.22.22m4.31,5.63,0,.07a10.6,10.6,0,0,1-2.32.73l-.17-.1a36.68,36.68,0,0,1-4.42-3.35q1.23-.87,2.4-1.83l.26-.22a11.41,11.41,0,0,1,4.22,4.7m-4.9-5.11-.06,0q-1.21,1-2.49,1.89a37.81,37.81,0,0,1-3.53-3.74l.71,0c.52.08,1,.19,1.56.32a15.23,15.23,0,0,1,3.81,1.51m-2.61,2.9a39.09,39.09,0,0,0,4.1,3.18,16.83,16.83,0,0,1-7.59-1c1.18-.69,2.35-1.42,3.49-2.2m4.9,3.83.17,0a17.5,17.5,0,0,0,1.93,1,30.79,30.79,0,0,1-5-.48c-1-.18-2-.4-2.94-.65a17.07,17.07,0,0,0,5.79.13m1.25-.26a14.5,14.5,0,0,0,1.68-.58,13.08,13.08,0,0,1,.44,1.53,13.67,13.67,0,0,1-2.12-1m2.07-1.61,0-.06a12,12,0,0,0-4.34-4.91c.1-.1.2-.2.29-.31a11.42,11.42,0,0,1,3.41,2.43,9.84,9.84,0,0,1,1.62,2.28,10,10,0,0,1-.95.57m1.29.13a11.74,11.74,0,0,1,.77,2.57c-.37,0-.75.08-1.12.1h-.08a12.63,12.63,0,0,0-.57-2.08c.34-.18.68-.38,1-.58m-1.42-3.5a12,12,0,0,0-3.51-2.52,2.72,2.72,0,0,0,.42-1.43c0-1.16-.79-2.24-2.36-3.21a19.49,19.49,0,0,0-6.41-2.51l.09,0a10.73,10.73,0,0,1,15.32,5.31,6.56,6.56,0,0,1,.52,2.16,5.66,5.66,0,0,1-2.38,4.6,10.78,10.78,0,0,0-1.69-2.35m-5.84-6.52c1.33.82,2,1.69,2,2.57a2.11,2.11,0,0,1-.35,1.11,16.67,16.67,0,0,0-6.56-1.23h-.05c-.5-.08-1-.14-1.51-.18-.45-.58-.88-1.18-1.29-1.79a2.42,2.42,0,0,1-.52-1.21c0-.51.33-1,1.05-1.59l.29-.23a18.76,18.76,0,0,1,6.94,2.55m-9-.72a3.05,3.05,0,0,0,.65,1.62c.3.44.61.88.92,1.31a34.16,34.16,0,0,0-6.48.42,4.4,4.4,0,0,1,.91-4c1-1,2.69-1.48,5-1.28h.07a2.59,2.59,0,0,0-1.05,2m-4.54,7a15.89,15.89,0,0,0,2.7,2.53A18.38,18.38,0,0,0,365.43,85c-2.61,1.4-5.22,2.6-7.66,3.65l-.26.12a29.14,29.14,0,0,0-3.64,1.78c.38-.73.74-1.46,1.1-2.19,1.35-2.75,2.74-5.58,4.94-7.64m20.55,7.34,0-.16a7.33,7.33,0,0,0,1.21.13,13,13,0,0,1-2.6,9.16l-.3.36a16.72,16.72,0,0,0,1.71-9.49m.9-4a6.41,6.41,0,0,0,2.77-5.34,7.23,7.23,0,0,0-.57-2.41,11.49,11.49,0,0,0-17.21-5.16c-.28,0-.57-.07-.85-.09-2.53-.23-4.41.28-5.59,1.5a5.18,5.18,0,0,0-1.11,4.67l-.26,0a11.61,11.61,0,0,1-1-3.67,7.66,7.66,0,0,1,.05-2.16c.54-2.93,3.29-4.89,4.88-5.79l0,0a15.51,15.51,0,0,1,11.5-1.8c6.23,1.7,9.83,7.86,11.42,11.38a14,14,0,0,1,1.55,6.55,6.41,6.41,0,0,1-2.5,4.76,20.69,20.69,0,0,1-2.19.44,12.09,12.09,0,0,0-.88-2.91m-22-5.3c-.16-.26-.32-.52-.46-.79l.11,0a7.32,7.32,0,0,0,.35.81m28.32,3.06a14.68,14.68,0,0,0-1.62-6.9c-1.64-3.65-5.38-10-11.9-11.8a16.22,16.22,0,0,0-12.07,1.87l0,0c-2.08,1.18-4.68,3.24-5.24,6.31a8.32,8.32,0,0,0-.06,2.36,12.12,12.12,0,0,0,1,3.73,20.74,20.74,0,0,0-8.31,3.06,15.19,15.19,0,0,1,1.22-4.93,17.66,17.66,0,0,1,3.45-4.62,64.35,64.35,0,0,1,12.51-10.13,38.08,38.08,0,0,1,18.61,1.41c4.61,1.55,7.73,3.79,9.29,6.65,2.89,5.33-.07,12-4.47,15.12a16.64,16.64,0,0,1-4,2.06,7.46,7.46,0,0,0,1.63-4.21M353.6,70.34A18.71,18.71,0,0,0,350,75.16,17.07,17.07,0,0,0,348.66,81a10.69,10.69,0,0,0-2.93,4c-.18-.5-.35-1-.51-1.54a34.53,34.53,0,0,1-1.41-6l.25-.61a26.6,26.6,0,0,1,11.55-12.2,33.89,33.89,0,0,1,9-3.48,65.06,65.06,0,0,0-11,9.2m-5.1,20.82a35.63,35.63,0,0,1-2.37-5.07,9.54,9.54,0,0,1,2.45-4,82.57,82.57,0,0,0-.08,9m.09,1.58c0,.45.06.91.1,1.37A10.92,10.92,0,0,1,346,89.44a6.7,6.7,0,0,1-.11-2,33.16,33.16,0,0,0,2.73,5.29m-4.09-9c.27.84.55,1.66.84,2.44a7.38,7.38,0,0,0-.1,3.47,11.85,11.85,0,0,0,3,5.13c.19.2.37.41.56.6,0,.24,0,.47.07.7-.24.2-.48.38-.74.56l-.6.4a23.16,23.16,0,0,1-2.88-3.8,18.16,18.16,0,0,1-1.36-14.26,40.63,40.63,0,0,0,1.21,4.76m4.05,13.51.42-.29c.07.63.15,1.27.26,1.92l-.45-.48c-.25-.26-.5-.53-.74-.8l.51-.35m.78-15.08c0-.23,0-.47.05-.71l.2-.16a19.82,19.82,0,0,1,8.54-3.2,14.84,14.84,0,0,0,1.32,2.08c-2.32,2.15-3.76,5.07-5.14,7.89-.59,1.2-1.17,2.37-1.8,3.48l0,0A8.41,8.41,0,0,0,350.38,94c-.36-.48-.72-1-1.06-1.5a81.7,81.7,0,0,1,0-10.38m.7,12.64a2.83,2.83,0,0,0-.11.31l-.17.17-.23-.24c0-.34-.07-.69-.09-1,.19.27.39.53.6.79m.82,5.72-.67-.68c-.07-.32-.13-.64-.19-1a7.75,7.75,0,0,0,.86,1.64m-.48-3.56v0a25.15,25.15,0,0,0,13.08,6.64,18.51,18.51,0,0,0,3.31.2,28.17,28.17,0,0,0,4.51.19l.76,0q-.4.24-.81.45a16.45,16.45,0,0,1-18.12-2.41c-1.23-1.13-2.69-2.91-2.73-5m20.87,6.25h-.44a17.46,17.46,0,0,0,4.18-1.63A16.68,16.68,0,0,1,373.3,103c-.69.07-1.38.12-2.06.15m6-3.1a14.64,14.64,0,0,0,2.42-2.43A13.71,13.71,0,0,0,382.39,88a5.14,5.14,0,0,0,1.45-.36,4.42,4.42,0,0,0,.89-.46,18,18,0,0,0,5.78-2.64c4.66-3.31,7.78-10.4,4.69-16.09-1.64-3-4.91-5.38-9.7-7a39,39,0,0,0-17.17-1.71,64.91,64.91,0,0,1,10.34-4.84,55.36,55.36,0,0,1,15.56,7.48l.07.07c2.95,3,7,7.58,7.75,13.2,1,6.89-3.13,14.42-10.95,20.12a37.9,37.9,0,0,1-16.39,7.08,17.34,17.34,0,0,0,2.51-2.76m2.64-45.61c.82-.28,1.65-.54,2.48-.79l.94-.27a71.39,71.39,0,0,1,8.12,6.27,55.19,55.19,0,0,0-11.54-5.21m-8.28-8.12.33,0c5.25-.47,10.89,1.31,16.79,5.29a29.58,29.58,0,0,0-5.29,1,70.75,70.75,0,0,0-11.83-6.25m10.87,6.52-.32.09q-1.77.52-3.48,1.14a30.69,30.69,0,0,0-13.37-1.19,28.86,28.86,0,0,0-8.44,2.86,40.64,40.64,0,0,0-10.31,7.52,28.22,28.22,0,0,1,3.21-4.79A36.53,36.53,0,0,1,365.05,48a29.52,29.52,0,0,1,5.06-1.48,70.35,70.35,0,0,1,12.34,6.31m-25.27,3.57a27.59,27.59,0,0,1,8.22-2.79,29,29,0,0,1,12.05.9A64.77,64.77,0,0,0,366.38,60,35.41,35.41,0,0,0,355.24,64l-.08.05a27.57,27.57,0,0,0-11.5,11.88,1.48,1.48,0,0,0,0-.21,23.51,23.51,0,0,1,1.86-10.21,39.56,39.56,0,0,1,11.67-9M342.91,75.72c0,.53.07,1.07.14,1.62A19.11,19.11,0,0,0,344,93.56a23.76,23.76,0,0,0,2.89,3.85c-.55.35-1.12.69-1.7,1-.43-.52-.85-1-1.24-1.6-3.84-5.3-5.59-11.59-6.43-17.53h0c.11-.32.22-.65.34-1a39.3,39.3,0,0,1,6.23-11.17,23.68,23.68,0,0,0-1.18,8.56M347.4,98l.84.89c.4.43.82.87,1.25,1.31a17.55,17.55,0,0,0,.74,2.47,16.58,16.58,0,0,0,.75,1.6,57.66,57.66,0,0,1-5.3-5.22c.59-.34,1.16-.69,1.72-1m3.53,4.39a10.93,10.93,0,0,1-.39-1.14,32.17,32.17,0,0,0,6.7,5.24,29.4,29.4,0,0,0,5.92,2.41,38.64,38.64,0,0,0,22.17,0,46.16,46.16,0,0,1-8,3.07c-4,1.09-10.06,1.9-15.85-.42a31,31,0,0,1-8.3-5.35,14.16,14.16,0,0,1-2.22-3.77m43.78-40.58a70.51,70.51,0,0,0-10.47-8.64,26.54,26.54,0,0,1,5.46-.85l.66.48a41.51,41.51,0,0,1,13.88,16.88,70.77,70.77,0,0,0-9.53-7.87M350.17,46.05A18.56,18.56,0,0,1,355.35,44c-2.15.84-4.19,1.72-6.14,2.65l1-.57m-5.57,3.82,0,0a89.65,89.65,0,0,1,13.66-6.19,26.4,26.4,0,0,1,7.94,1.52c.86.28,1.72.58,2.57.89a33.9,33.9,0,0,0-4,1.27A37.33,37.33,0,0,0,349.16,58a28.16,28.16,0,0,0-4.29,7.06,40.33,40.33,0,0,0-7.56,12.58c-.26-2.27-.4-4.46-.49-6.51-.24-5.58-.05-11.38,2.9-16.07a21.44,21.44,0,0,1,4.88-5.2m-8.53,21.31c.09,2,.23,4.18.48,6.41A20.79,20.79,0,0,1,334.13,63a17.65,17.65,0,0,1,7.13-11.09,18.15,18.15,0,0,0-2.18,2.79c-3.05,4.85-3.25,10.79-3,16.5M337,81a38.25,38.25,0,0,0,6.32,16.32c.38.53.78,1,1.19,1.54a61.63,61.63,0,0,1-7.49,3.53A40,40,0,0,1,337,81m51.44,32.33c-9,5.57-18.56,8.43-27.63,8.28-4.38-.08-10.6-1-15.33-4.81a24.3,24.3,0,0,1-6.61-9.24,39.57,39.57,0,0,1-1.64-4.45A61.92,61.92,0,0,0,345,99.4a60.26,60.26,0,0,0,6,5.89c.51.46,1,.91,1.57,1.37a18.67,18.67,0,0,0,6.85,5.1,29.45,29.45,0,0,0,12.91,2.17,48.51,48.51,0,0,0,29.45-11.13,80.65,80.65,0,0,1-13.37,10.49m15.66-13.56a47.75,47.75,0,0,1-27.7,13.17l1.07-.27a63.14,63.14,0,0,0,14.95-6.79c6.42-3.74,12.95-8,17.3-14.2,1.84-2.6,3.84-6.54,2.95-10.52-.59-2.6-2.3-4.75-3.86-6.57q-1.6-1.86-3.27-3.58c-2.47-6.88-7.5-13.39-14.6-18.68a16.83,16.83,0,0,1,1.73.15,21.81,21.81,0,0,1,7.64,2.9,36.12,36.12,0,0,1,10.76,9.34,37,37,0,0,1,3.29,10.87c.85,8.15-2.89,17-10.26,24.18M416.76,82.3c-.62,4.49-3.66,8.32-6.47,11.56l-1.56,1.77c4.79-6.35,7.09-13.47,6.39-20.16a31.22,31.22,0,0,0-1.94-7.66A26.79,26.79,0,0,1,416.72,78a16.29,16.29,0,0,1,0,4.29"/><path class="cls-37" d="M98.69,176.81a18.3,18.3,0,0,0-10.21,11.81l7.37,2.45A3.81,3.81,0,0,0,94.5,195a9.76,9.76,0,0,0,2.1,3.85c4.25,5.37,10.09,10,16.9,10.66-3.73-11.36-8.4-22.61-14.81-32.71"/></g></g></g></g></svg>