<svg xmlns="http://www.w3.org/2000/svg" viewBox="0 0 270.17 220.25"><defs><style>.cls-1{fill:#fffeff;}.cls-2{fill:#30a9e0;}.cls-3{fill:none;stroke:#010101;stroke-linecap:round;stroke-linejoin:round;stroke-width:2px;}</style></defs><title>chatboxwhite</title><g id="Layer_2" data-name="Layer 2"><g id="Isolation_Mode" data-name="Isolation Mode"><rect class="cls-1" x="6.09" y="1" width="263.08" height="194.05" rx="9.6"/><path class="cls-1" d="M57.6,195.05s16.7,19.46,46.66,18.49c0,0-20.07-11.3-17.15-19.28S57.6,195.05,57.6,195.05Z"/><path class="cls-2" d="M99.47,214c2,.16,4,.25,6.09.25l-5.08,5.05c-2,0-3.89-.08-5.76-.23a68.77,68.77,0,0,1-7.62-1,67.08,67.08,0,0,1-8.65-2.16c-2.08-.66-4-1.39-5.91-2.18a66.84,66.84,0,0,1-7.67-3.78A69.13,69.13,0,0,1,58,205.46,64,64,0,0,1,52.53,201H11a9.82,9.82,0,0,1-5.74-1.84A10,10,0,0,1,1,191.49c0-.16,0-.34,0-.51V16C1,12.69,7.57,5.57,8,5.13A10.07,10.07,0,0,0,6.09,11V185.92c0,.17,0,.33,0,.49a10,10,0,0,0,10,9.5H57.6a65.57,65.57,0,0,0,5.48,4.49,70.95,70.95,0,0,0,14.39,8.17c1.84.78,3.78,1.51,5.83,2.17s4.24,1.27,6.51,1.77c.71.15,1.42.3,2.14.43a69.63,69.63,0,0,0,7.52,1"/><path class="cls-2" d="M265.82,193.38c-1.76,1.75-6.17,6.05-7.72,6.73a9.57,9.57,0,0,1-4,.86H88.7a14.85,14.85,0,0,1-2.31-5.05H259.18a9.64,9.64,0,0,0,4-.87,7.82,7.82,0,0,0,1.22-.63,10.16,10.16,0,0,0,1.4-1"/><path class="cls-3" d="M88.7,201c5.19,7.7,16.51,13.06,16.86,13.23"/><path class="cls-3" d="M265.82,193.38a10.25,10.25,0,0,1-1.41,1,7.3,7.3,0,0,1-1.21.63"/><path class="cls-3" d="M266.55,192.64a3.44,3.44,0,0,1-.27.27,4.7,4.7,0,0,1-.44.45"/><path class="cls-3" d="M8,5.13C7.57,5.57,1,12.69,1,16V191c0,.17,0,.35,0,.51a10,10,0,0,0,4.23,7.64A9.82,9.82,0,0,0,11,201H52.53A62.49,62.49,0,0,0,58,205.46a68.92,68.92,0,0,0,6.84,4.44,67.83,67.83,0,0,0,7.68,3.78c1.87.79,3.83,1.52,5.91,2.18A72.71,72.71,0,0,0,94.72,219c1.87.15,3.79.23,5.77.23l5.07-5.05c-2.09,0-4.12-.09-6.09-.25a69.63,69.63,0,0,1-7.52-1c-.72-.13-1.43-.28-2.14-.43-2.28-.5-4.44-1.1-6.51-1.77s-4-1.39-5.83-2.17a70.95,70.95,0,0,1-14.39-8.17,66,66,0,0,1-5.48-4.48H16.07a10,10,0,0,1-10-9.51c0-.16,0-.32,0-.49V11A9.8,9.8,0,0,1,7,6.9,10,10,0,0,1,8,5.13l0,0a9.67,9.67,0,0,1,2-2A9.93,9.93,0,0,1,16.07,1H259.18a10,10,0,0,1,10,10V185.92a9.8,9.8,0,0,1-2.14,6.14,6.06,6.06,0,0,1-.47.56"/><path class="cls-3" d="M266.56,192.62v0l-.27.27-.44.45,0,0c-1.76,1.75-6.17,6.05-7.72,6.73a9.59,9.59,0,0,1-4,.86H88.7a14.81,14.81,0,0,1-2.31-5.06H259.18a9.67,9.67,0,0,0,4-.86c.42-.17,2.93-2.14,3.35-2.41Z"/><line class="cls-3" x1="6.09" y1="17.12" x2="1" y2="22.21"/><line class="cls-3" x1="6.09" y1="24.95" x2="1" y2="30.04"/><line class="cls-3" x1="6.09" y1="36.54" x2="1" y2="41.62"/><line class="cls-3" x1="6.09" y1="44.36" x2="1" y2="49.45"/><line class="cls-3" x1="6.09" y1="133.94" x2="1" y2="139.03"/><line class="cls-3" x1="6.09" y1="141.78" x2="1" y2="146.87"/><line class="cls-3" x1="6.09" y1="153.37" x2="1" y2="158.45"/><line class="cls-3" x1="6.09" y1="161.19" x2="1" y2="166.28"/><line class="cls-3" x1="6.09" y1="168.39" x2="1" y2="173.48"/><line class="cls-3" x1="6.09" y1="176.22" x2="1" y2="181.31"/><polyline class="cls-3" points="6.09 186.41 1.01 191.49 1 191.5"/><line class="cls-3" x1="10.06" y1="194.26" x2="5.33" y2="199"/><polyline class="cls-3" points="17.86 195.88 17.82 195.91 12.77 200.97"/><polyline class="cls-3" points="32.08 195.88 32.04 195.91 26.99 200.97"/><polyline class="cls-3" points="57.6 195.91 52.53 200.98 52.52 201"/><polyline class="cls-3" points="49.3 195.91 44.25 200.97 44.22 201"/><polyline class="cls-3" points="257.74 195.88 257.7 195.91 252.65 200.97"/><polyline class="cls-3" points="119.32 195.88 119.28 195.91 114.23 200.97"/><polyline class="cls-3" points="111.49 195.88 111.46 195.91 106.41 200.97"/><polyline class="cls-3" points="102.77 195.88 102.73 195.91 97.68 200.97"/><polyline class="cls-3" points="94.94 195.88 94.9 195.91 89.85 200.97"/><polyline class="cls-3" points="25.19 195.88 25.16 195.91 20.11 200.97"/><polyline class="cls-3" points="40.57 195.91 35.52 200.97 35.48 201"/><line class="cls-3" x1="69.71" y1="205.05" x2="64.88" y2="209.87"/><polyline class="cls-3" points="83.17 211.15 78.45 215.86 78.44 215.87"/><polyline class="cls-3" points="63.09 200.39 63.08 200.4 58.02 205.46 58 205.48"/><line class="cls-3" x1="77.4" y1="208.75" x2="72.6" y2="213.54"/><line class="cls-3" x1="99.45" y1="214.2" x2="94.73" y2="218.92"/><line class="cls-3" x1="91.91" y1="213.2" x2="87.11" y2="218"/><path class="cls-3" d="M263.46,162.43q.06,12.66.1,25.33"/><path class="cls-3" d="M258.64,176.67a78.16,78.16,0,0,1,.29,10.71"/><path class="cls-3" d="M11.18,11.53a110,110,0,0,0,.09,18.15"/><path class="cls-3" d="M15.43,18.93a47.17,47.17,0,0,0,.5,9.57"/><line class="cls-3" x1="126.51" y1="195.92" x2="121.45" y2="200.97"/><line class="cls-3" x1="134.45" y1="195.92" x2="129.4" y2="200.97"/><line class="cls-3" x1="141.3" y1="195.92" x2="136.25" y2="200.97"/><line class="cls-3" x1="148.6" y1="195.92" x2="143.55" y2="200.97"/><line class="cls-3" x1="155.12" y1="195.92" x2="150.07" y2="200.97"/><line class="cls-3" x1="162.25" y1="195.92" x2="157.2" y2="200.97"/><line class="cls-3" x1="169.45" y1="195.92" x2="164.4" y2="200.97"/><line class="cls-3" x1="176.67" y1="195.92" x2="171.62" y2="200.97"/><line class="cls-3" x1="184.28" y1="195.92" x2="179.23" y2="200.97"/><line class="cls-3" x1="192.84" y1="195.92" x2="187.79" y2="200.97"/><line class="cls-3" x1="203.24" y1="195.92" x2="198.19" y2="200.97"/><line class="cls-3" x1="211.19" y1="195.92" x2="206.14" y2="200.97"/><line class="cls-3" x1="219.42" y1="195.92" x2="214.37" y2="200.97"/><line class="cls-3" x1="226.91" y1="195.92" x2="221.86" y2="200.97"/><line class="cls-3" x1="235.15" y1="195.92" x2="230.1" y2="200.97"/><line class="cls-3" x1="245.02" y1="195.92" x2="239.97" y2="200.97"/><line class="cls-3" x1="6.09" y1="125.87" x2="1" y2="130.95"/><line class="cls-3" x1="6.09" y1="115.7" x2="1" y2="120.79"/><line class="cls-3" x1="6.09" y1="103.43" x2="1" y2="108.51"/><line class="cls-3" x1="6.09" y1="91.99" x2="1" y2="97.07"/><line class="cls-3" x1="6.09" y1="79.9" x2="1" y2="84.99"/><line class="cls-3" x1="6.09" y1="66.91" x2="1" y2="72"/><line class="cls-3" x1="6.09" y1="53.93" x2="1" y2="59.02"/></g></g></svg>